<?xml version="1.0" encoding="UTF-8" standalone="no"?>
<svg
   version="1.1"
   viewBox="0 0 161.46942 233.5363"
   id="svg90"
   sodipodi:docname="diploma_03.svg"
   width="161.46942"
   height="233.5363"
   inkscape:version="1.3 (0e150ed6c4, 2023-07-21)"
   xmlns:inkscape="http://www.inkscape.org/namespaces/inkscape"
   xmlns:sodipodi="http://sodipodi.sourceforge.net/DTD/sodipodi-0.dtd"
   xmlns="http://www.w3.org/2000/svg"
   xmlns:svg="http://www.w3.org/2000/svg">
  <defs
     id="defs90" />
  <sodipodi:namedview
     id="namedview90"
     pagecolor="#ffffff"
     bordercolor="#666666"
     borderopacity="1.0"
     inkscape:showpageshadow="2"
     inkscape:pageopacity="0.0"
     inkscape:pagecheckerboard="0"
     inkscape:deskcolor="#d1d1d1"
     inkscape:zoom="2.8213058"
     inkscape:cx="80.10475"
     inkscape:cy="117.14434"
     inkscape:window-width="1920"
     inkscape:window-height="1017"
     inkscape:window-x="-8"
     inkscape:window-y="-8"
     inkscape:window-maximized="1"
     inkscape:current-layer="svg90" />
  <g
     stroke-width="2"
     fill="none"
     stroke-linecap="butt"
     id="g45"
     transform="translate(-37.472353,-28.295)">
    <path
       stroke="#9e8131"
       vector-effect="non-scaling-stroke"
       d="m 173.01,42.83 q 0.62,0.32 0.3,2.11"
       id="path2" />
    <path
       stroke="#232323"
       vector-effect="non-scaling-stroke"
       d="M 173.31,44.94 131.83,30.42 a 3.67,3.67 0 0 0 -2.44,0 L 75.34,49.35"
       id="path3" />
    <path
       stroke="#9e8131"
       vector-effect="non-scaling-stroke"
       d="m 174.97,43.84 0.23,1.27"
       id="path4" />
    <path
       stroke="#7b5f0e"
       vector-effect="non-scaling-stroke"
       d="m 175.2,45.11 q -0.82,4.93 -0.17,10.39 0.12,1 1.24,1.31"
       id="path5" />
    <path
       stroke="#d9a62d"
       vector-effect="non-scaling-stroke"
       d="m 175.35,113.37 -5.61,-0.47 a 0.22,0.21 4.2 0 1 -0.2,-0.22 l 0.76,-13.63"
       id="path6" />
    <path
       stroke="#fbde8e"
       vector-effect="non-scaling-stroke"
       d="m 170.3,99.05 2.45,-40.4"
       id="path7" />
    <path
       stroke="#7b5f0e"
       vector-effect="non-scaling-stroke"
       d="m 173.31,44.94 q 0.68,7.09 -0.56,13.71"
       id="path8" />
    <path
       stroke="#808080"
       vector-effect="non-scaling-stroke"
       d="m 172.75,58.65 -9.54,4.8"
       id="path9" />
    <path
       stroke="#1c1c1c"
       vector-effect="non-scaling-stroke"
       d="m 163.21,63.45 -1.56,-5.69 a 0.98,0.98 0 0 0 -0.58,-0.65 c -16.29,-6.57 -31.08,-8.76 -47.86,-4.4"
       id="path10" />
    <path
       stroke="#353535"
       vector-effect="non-scaling-stroke"
       d="m 113.21,52.71 -8.64,2.5"
       id="path11" />
    <path
       stroke="#232323"
       vector-effect="non-scaling-stroke"
       d="m 104.57,55.21 c -5.83,1.24 -5.18,3.53 -6.95,8.15"
       id="path12" />
    <path
       stroke="#232323"
       vector-effect="non-scaling-stroke"
       d="m 185.69,49.46 q -0.35,-0.76 -2.44,-1.01 -2.8,-0.32 -8.05,-3.34"
       id="path13" />
    <path
       stroke="#7f4920"
       vector-effect="non-scaling-stroke"
       d="m 184.73,201.97 q -5.08,-8.31 -14.36,-10.58"
       id="path14" />
    <path
       stroke="#dec79f"
       vector-effect="non-scaling-stroke"
       d="M 170.3,99.05 164.88,86.19"
       id="path15" />
    <path
       stroke="#a2a2a2"
       vector-effect="non-scaling-stroke"
       d="m 164.88,86.19 q 0.39,-0.05 0.68,-0.55"
       id="path16" />
    <path
       stroke="#9b9b9b"
       vector-effect="non-scaling-stroke"
       d="m 163.21,63.45 q 2.07,10.02 4.36,20.24 0.24,1.09 -0.27,1.48 -0.55,0.43 -1.74,0.47"
       id="path17" />
    <path
       stroke="#3e3e3e"
       vector-effect="non-scaling-stroke"
       d="M 165.56,85.64 Q 158.62,75.63 147.7,70.48 c -9.95,-4.7 -24.27,-6.55 -35.04,-5.27"
       id="path18" />
    <path
       stroke="#505050"
       vector-effect="non-scaling-stroke"
       d="m 112.66,65.21 0.55,-12.5"
       id="path19" />
    <path
       stroke="#575757"
       vector-effect="non-scaling-stroke"
       d="M 112.66,65.21 111.3,89.77"
       id="path20" />
    <path
       stroke="#9c855b"
       vector-effect="non-scaling-stroke"
       d="M 111.3,89.77 98.69,86.83"
       id="path21" />
    <path
       stroke="#575757"
       vector-effect="non-scaling-stroke"
       d="m 98.69,86.83 5.88,-31.62"
       id="path22" />
    <path
       stroke="#8a7349"
       vector-effect="non-scaling-stroke"
       d="m 98.69,86.83 -4.9,-1.75 a 0.72,0.71 -79.9 0 1 -0.47,-0.69 l 0.05,-1.86"
       id="path23" />
    <path
       stroke="#7f4920"
       vector-effect="non-scaling-stroke"
       d="m 182.81,205.8 q -3.4,-9.14 -13.5,-11.5"
       id="path24" />
    <path
       stroke="#816a42"
       vector-effect="non-scaling-stroke"
       d="m 164.88,86.19 -11.21,2.76"
       id="path25" />
    <path
       stroke="#8a7349"
       vector-effect="non-scaling-stroke"
       d="M 153.67,88.95 146,90.37"
       id="path26" />
    <path
       stroke="#816a42"
       vector-effect="non-scaling-stroke"
       d="m 146,90.37 -5.55,0.65"
       id="path27" />
    <path
       stroke="#8a7349"
       vector-effect="non-scaling-stroke"
       d="M 140.45,91.02 Q 126.6,92.08 111.3,89.77"
       id="path28" />
    <path
       stroke="#c69846"
       vector-effect="non-scaling-stroke"
       d="m 140.45,91.02 q 2.94,6.9 5.55,-0.65"
       id="path29" />
    <path
       stroke="#c69846"
       vector-effect="non-scaling-stroke"
       d="m 153.67,88.95 q 0.32,4.71 0.59,9.36 c 0.45,7.56 -0.11,16.95 0.39,23 0.77,9.4 6.05,16.11 9.32,23.9 q 9.14,21.77 6.4,46.18"
       id="path30" />
    <path
       stroke="#885228"
       vector-effect="non-scaling-stroke"
       d="m 170.37,191.39 q -1,-0.58 -1.81,0.67 -0.77,1.21 0.75,2.24"
       id="path31" />
    <path
       stroke="#c69846"
       vector-effect="non-scaling-stroke"
       d="m 169.31,194.3 c -9.2,28.68 -44.89,35.75 -70.58,34.55"
       id="path32" />
    <path
       stroke="#885228"
       vector-effect="non-scaling-stroke"
       d="m 98.73,228.85 q 1.51,-5.26 3.02,-9.6 0.68,-1.95 -1.62,-2.22"
       id="path33" />
    <path
       stroke="#c69846"
       vector-effect="non-scaling-stroke"
       d="m 100.13,217.03 q 1.9,-4.06 -1.25,-5.17 a 2.15,2.13 31.4 0 0 -2.26,0.54 q -2.26,2.35 0.06,4.19 c 0.77,0.6 1.84,0.48 2.76,0.84"
       id="path34" />
    <path
       stroke="#885228"
       vector-effect="non-scaling-stroke"
       d="m 99.44,217.43 q -3.45,8.11 -4.95,16.04"
       id="path35" />
    <path
       stroke="#885228"
       vector-effect="non-scaling-stroke"
       d="m 62.29,197.16 q 10.37,1.19 20.72,-3.2 0.59,-0.25 0.5,-0.89 l -0.1,-0.77 a 1.38,1.38 0 0 0 -1.9,-1.09 q -10.54,4.39 -20.05,2.58"
       id="path36" />
    <path
       stroke="#7f4920"
       vector-effect="non-scaling-stroke"
       d="m 161.07,227.21 -2.82,-8.64 a 1.59,1.58 -14.5 0 0 -1.81,-1.06 q -2.12,0.42 -0.88,2.71 1.4,2.6 2.67,8.5"
       id="path37" />
    <path
       stroke="#dec79f"
       vector-effect="non-scaling-stroke"
       d="m 158.23,228.72 c -17.72,8.28 -42.15,8.71 -60.65,5.6"
       id="path38" />
    <path
       stroke="#7f4920"
       vector-effect="non-scaling-stroke"
       d="m 97.58,234.32 1.15,-5.47"
       id="path39" />
    <path
       stroke="#a08181"
       vector-effect="non-scaling-stroke"
       d="m 97.58,234.32 -0.74,4.1"
       id="path40" />
    <path
       stroke="#8c6d6c"
       vector-effect="non-scaling-stroke"
       d="m 96.84,238.42 q -0.52,4.82 0.45,11.33 0.08,0.54 -0.44,0.7 c -3.51,1.1 -10.98,1.96 -14.16,-0.8 a 1.06,1.05 18.7 0 1 -0.37,-0.73 c -0.52,-6.37 6.92,-5.94 10.53,-2.76 q 0.59,0.52 0.61,-0.26 l 0.17,-6.74"
       id="path41" />
    <path
       stroke="#7f4920"
       vector-effect="non-scaling-stroke"
       d="m 100.13,217.03 q 0.46,0.1 -0.69,0.4"
       id="path42" />
    <path
       stroke="#8c6d6c"
       vector-effect="non-scaling-stroke"
       d="m 162.23,239.27 -0.48,5.98 a 0.56,0.56 0 0 0 0.9,0.49 c 7.87,-6.23 14.51,3.07 8.35,4.64 q -5.95,1.51 -12.15,-0.17 a 0.64,0.62 -81.1 0 1 -0.46,-0.65 l 0.68,-11.14"
       id="path43" />
    <path
       stroke="#a08181"
       vector-effect="non-scaling-stroke"
       d="m 159.07,238.42 -0.84,-9.7"
       id="path44" />
    <path
       stroke="#ebebeb"
       vector-effect="non-scaling-stroke"
       d="m 159.07,238.42 q -31.02,-2.47 -62.23,0"
       id="path45" />
  </g>
  <path
     fill="#454545"
     d="m 135.53765,14.535 q 0.62,0.32 0.3,2.11 L 94.357647,2.125 a 3.67,3.67 0 0 0 -2.44,0 l -54.05,18.93 q -0.49,-1.55 0.59,-1.94 27,-9.59 54.1,-19.03 0.48,-0.17 0.96,0 z"
     id="path46" />
  <path
     fill="#000000"
     d="m 135.83765,16.645 q 0.68,7.09 -0.56,13.71 l -9.54,4.8 -1.56,-5.69 a 0.98,0.98 0 0 0 -0.58,-0.65 c -16.29,-6.57 -31.080003,-8.76 -47.860003,-4.4 l -8.64,2.5 c -5.83,1.24 -5.18,3.53 -6.95,8.15 q -10.48,-5.36 -20.95,-10.73 c -1.49,-0.76 -1.75,-1.74 -1.33,-3.28 l 54.05,-18.93 a 3.67,3.67 0 0 1 2.44,0 z"
     id="path47" />
  <path
     fill="#f6bd1c"
     d="m 137.49765,15.545 0.23,1.27 q -0.82,4.93 -0.17,10.39 0.12,1 1.24,1.31 c -0.29,1.62 -1,2.63 -0.85,4.29 q 2.33,25.57 3.35,51.27 a 0.63,0.64 85.6 0 1 -0.56,0.65 l -2.86,0.35 -5.61,-0.47 a 0.22,0.21 4.2 0 1 -0.2,-0.22 l 0.76,-13.63 2.45,-40.4 q 1.24,-6.62 0.56,-13.71 0.32,-1.79 -0.3,-2.11 0.45,-0.27 0.91,-0.33 0.53,-0.07 0.72,0.43 z"
     id="path48" />
  <path
     fill="#454545"
     d="m 137.49765,15.545 10.07,3.52 a 1.02,1.02 0 0 1 0.64,0.69 q 0.2,0.7 0.01,1.41 -0.35,-0.76 -2.44,-1.01 -2.8,-0.32 -8.05,-3.34 z"
     id="path49" />
  <path
     fill="#000000"
     d="m 137.72765,16.815 q 5.25,3.02 8.05,3.34 2.09,0.25 2.44,1.01 0.21,1.05 -0.01,1.95 -0.12,0.51 -0.59,0.76 l -8.82,4.64 q -1.12,-0.31 -1.24,-1.31 -0.65,-5.46 0.17,-10.39 z"
     id="path50" />
  <path
     fill="#373737"
     d="m 125.73765,35.155 q 2.07,10.02 4.36,20.24 0.24,1.09 -0.27,1.48 -0.55,0.43 -1.74,0.47 -6.94,-10.01 -17.86,-15.16 c -9.95,-4.7 -24.270003,-6.55 -35.040003,-5.27 l 0.55,-12.5 c 16.78,-4.36 31.570003,-2.17 47.860003,4.4 a 0.98,0.98 0 0 1 0.58,0.65 z"
     id="path51" />
  <path
     fill="#696969"
     d="m 75.737647,24.415 -0.55,12.5 -1.36,24.56 -12.61,-2.94 5.88,-31.62 z"
     id="path52" />
  <path
     fill="#454545"
     d="m 67.097647,26.915 -5.88,31.62 -4.9,-1.75 a 0.71,0.72 10.1 0 1 -0.47,-0.69 l 0.05,-1.86 4.25,-19.17 c 1.77,-4.62 1.12,-6.91 6.95,-8.15 z"
     id="path53" />
  <path
     fill="#ffffff"
     d="m 135.27765,30.355 -2.45,40.4 -5.42,-12.86 q 0.39,-0.05 0.68,-0.55 1.19,-0.04 1.74,-0.47 0.51,-0.39 0.27,-1.48 -2.29,-10.22 -4.36,-20.24 z"
     id="path54" />
  <path
     fill="#454545"
     d="m 128.08765,57.345 q -0.29,0.5 -0.68,0.55 l -11.21,2.76 -7.67,1.42 -5.55,0.65 q -13.850003,1.06 -29.150003,-1.25 l 1.36,-24.56 c 10.77,-1.28 25.090003,0.57 35.040003,5.27 q 10.92,5.15 17.86,15.16 z"
     id="path55" />
  <path
     fill="#cfa14d"
     d="m 55.897647,54.235 -0.05,1.86 a 0.71,0.72 10.1 0 0 0.47,0.69 l 4.9,1.75 12.61,2.94 q 15.3,2.31 29.150003,1.25 2.94,6.9 5.55,-0.65 l 7.67,-1.42 q 0.32,4.71 0.59,9.36 c 0.45,7.56 -0.11,16.95 0.39,23 0.77,9.4 6.05,16.11 9.32,23.9 q 9.14,21.77 6.4,46.18 -1,-0.58 -1.81,0.67 -0.77,1.21 0.75,2.24 c -9.2,28.68 -44.890003,35.75 -70.580003,34.55 q 1.51,-5.26 3.02,-9.6 0.68,-1.95 -1.62,-2.22 1.9,-4.06 -1.25,-5.17 a 2.15,2.13 31.4 0 0 -2.26,0.54 q -2.26,2.35 0.06,4.19 c 0.77,0.6 1.84,0.48 2.76,0.84 q -3.45,8.11 -4.95,16.04 -8.24,-2.87 -11.29,-4.46 c -13.25,-6.88 -16.97,-18.07 -20.91,-31.85 q 10.37,1.19 20.72,-3.2 0.59,-0.25 0.5,-0.89 l -0.1,-0.77 a 1.38,1.38 0 0 0 -1.9,-1.09 q -10.54,4.39 -20.05,2.58 -5.48,-28.53 7.77,-53.35 1.98,-3.7 5.29,-9.37 c 4.97,-8.51 7.09,-18.14 9.74,-28.06 q 2.8,-10.53 9.11,-20.48 z"
     id="path56" />
  <path
     stroke="#7f4920"
     stroke-width="2"
     fill="none"
     stroke-linecap="butt"
     vector-effect="non-scaling-stroke"
     d="m 114.14765,162.045 -0.33,-3.13"
     id="path57" />
  <path
     fill="#bc8f3e"
     d="m 127.40765,57.895 5.42,12.86 -0.76,13.63 a 0.22,0.21 4.2 0 0 0.2,0.22 l 5.61,0.47 c 3.32,6.3 7.02,12.92 9.38,19.11 7.96,20.91 10.06,48.71 0,69.49 q -5.08,-8.31 -14.36,-10.58 2.74,-24.41 -6.4,-46.18 c -3.27,-7.79 -8.55,-14.5 -9.32,-23.9 -0.5,-6.05 0.06,-15.44 -0.39,-23 q -0.27,-4.65 -0.59,-9.36 z"
     id="path58" />
  <path
     fill="#bc8f3e"
     d="m 108.52765,62.075 q -2.61,7.55 -5.55,0.65 z"
     id="path59" />
  <path
     fill="#bc8f3e"
     d="m 96.047647,66.875 q 0.27,0.1 0.23,0.38 l -0.04,0.33 q -0.04,0.32 -0.36,0.25 -3.85,-0.84 -7.59,0.3 -0.7,0.22 -0.37,-0.44 0.4,-0.82 1.27,-0.93 c 2.57,-0.33 4.24,-0.86 6.86,0.11 z"
     id="path60" />
  <circle
     fill="#bc8f3e"
     cx="72.257652"
     cy="74.745003"
     r="2.75"
     id="circle60" />
  <path
     fill="#bc8f3e"
     d="m 110.52765,79.695 q 0.91,-0.18 1.42,0.58 0.58,0.85 -0.44,0.71 l -0.94,-0.12 a 0.59,0.59 0 0 1 -0.04,-1.17 z"
     id="path61" />
  <ellipse
     fill="#bc8f3e"
     cx="19.464535"
     cy="-102.60318"
     transform="rotate(131.5)"
     rx="1.03"
     ry="0.79000002"
     id="ellipse61" />
  <path
     fill="#bc8f3e"
     d="m 75.517647,104.285 a 0.34003676,0.34003676 0 0 1 -0.2,0.65 q -4.04,-0.68 -7.98,0.27 a 0.48,0.48 0 0 1 -0.31,-0.9 q 4.35,-1.95 8.49,-0.02 z"
     id="path62" />
  <path
     fill="#bc8f3e"
     d="m 90.107647,107.915 a 0.32,0.31 14.3 0 1 0.38,-0.22 q 2.25,0.56 0.58,2.03 a 0.77,0.76 77.1 0 1 -1.24,-0.78 z"
     id="path63" />
  <path
     fill="#410302"
     d="m 55.617647,112.255 c 2.19,-3.91 14.55,-6.12 15.02,-1.57 a 1.12,1.12 0 0 1 -1.14,1.23 q -5.05,-0.09 -9.74,2.04 c -1.62,0.73 -3.29,0.94 -4.16,-0.79 a 0.97,0.98 46.2 0 1 0.02,-0.91 z"
     id="path64" />
  <path
     fill="#410302"
     d="m 100.73765,110.585 c 1.01,-4.43 13.16,-2.43 15.06,1.98 a 0.81,0.81 0 0 1 -0.14,0.87 c -1.13,1.25 -2.51,1.26 -4.06,0.52 q -4.66,-2.21 -9.75,-2.02 a 1.09,1.11 5.3 0 1 -1.11,-1.35 z"
     id="path65" />
  <ellipse
     fill="#bc8f3e"
     cx="57.850479"
     cy="-141.85617"
     transform="rotate(117.9)"
     rx="2.8"
     ry="2.5799999"
     id="ellipse65" />
  <ellipse
     fill="#bc8f3e"
     cx="-16.036587"
     cy="131.43614"
     transform="rotate(-28.4)"
     rx="1.15"
     ry="0.97000003"
     id="ellipse66" />
  <path
     fill="#410302"
     d="m 23.987647,165.495 q 9.51,1.81 20.05,-2.58 a 1.38,1.38 0 0 1 1.9,1.09 l 0.1,0.77 q 0.09,0.64 -0.5,0.89 -10.35,4.39 -20.72,3.2 c -13.99,-3.28 -17.6099999,-13.89 -18.6599999,-27.24 q -0.04,-0.47 -0.51,-0.44 c -2.76,0.2 -6.59000004,0.07 -4.61,-4.16 a 0.78,0.78 0 0 0 -0.18000004,-0.89 q -1.08,-1.02 -0.8,-2.54 0.11,-0.6 0.6,-0.95 1.91000004,-1.38 4.34000004,-0.88 a 0.52,0.52 0 0 0 0.62,-0.57 l -0.81,-7.21 q -0.1,-0.84 0.74,-0.87 l 1.47,-0.07 q 0.69,-0.04 0.77,0.65 l 1.03,8.52 q 0.07,0.52 0.53,0.76 c 2.7799999,1.46 2.5099999,4.33 0.43,6.36 q -0.38,0.37 -0.38,0.9 c 0,10.67 2.8499999,21.65 14.5899999,25.26 z"
     id="path66" />
  <path
     fill="#ffffff"
     d="m 67.882047,154.5791 a 15.2,12.83 88.4 0 1 -13.2494,-14.8359 15.2,12.83 88.4 0 1 12.4006,-15.5523 15.2,12.83 88.4 0 1 13.2494,14.8359 15.2,12.83 88.4 0 1 -12.4006,15.5523 z"
     id="path67" />
  <g
     stroke-width="2"
     fill="none"
     stroke-linecap="butt"
     id="g69"
     transform="translate(-37.472353,-28.295)">
    <path
       stroke="#075408"
       vector-effect="non-scaling-stroke"
       d="m 106.26,164.35 c -3.77,-1.55 -4.15,4.8 -3.37,6.74"
       id="path68" />
    <path
       stroke="#075408"
       vector-effect="non-scaling-stroke"
       d="m 106.75,165.51 q 1.9,7.18 -3.38,6.89"
       id="path69" />
  </g>
  <path
     fill="#ffffff"
     d="m 106.92915,154.5683 a 15.22,12.82 88.3 0 1 -13.265903,-14.833 15.22,12.82 88.3 0 1 12.362903,-15.5936 15.22,12.82 88.3 0 1 13.2659,14.833 15.22,12.82 88.3 0 1 -12.3629,15.5936 z"
     id="path70" />
  <path
     stroke="#075408"
     stroke-width="2"
     fill="none"
     stroke-linecap="butt"
     vector-effect="non-scaling-stroke"
     d="m 107.76765,136.045 q -1.46,-0.71 -2.23,0.13 -3.31,3.58 -0.14,7.6 0.3,0.37 0.77,0.31 c 2.98,-0.43 3.26,-4.93 2.05,-6.75"
     id="path71" />
  <path
     fill="#0da80f"
     d="m 68.787647,136.055 c -3.77,-1.55 -4.15,4.8 -3.37,6.74 q -1.03,1.24 -1.94,1.54 -0.52,0.17 -0.72,-0.33 c -1.82,-4.63 0.77,-14.64 7.16,-10.51 q 0.41,0.27 0.29,0.75 -0.3,1.2 -1.42,1.81 z"
     id="path72" />
  <path
     fill="#0da80f"
     d="m 107.76765,136.045 q -1.46,-0.71 -2.23,0.13 -3.31,3.58 -0.14,7.6 0.3,0.37 0.77,0.31 c 2.98,-0.43 3.26,-4.93 2.05,-6.75 q 1.63,-1.11 2.91,-0.81 a 0.75,0.75 0 0 1 0.57,0.67 c 0.34,4.87 0.02,10.16 -6.26,10.08 a 0.94,0.92 79.5 0 1 -0.87,-0.61 q -0.58,-1.51 0.32,-3 a 0.37,0.37 0 0 0 -0.53,-0.49 l -1.1,0.8 a 1.09,1.09 0 0 1 -1.67,-0.53 q -1.970003,-5.69 1.85,-9.49 c 1.57,-1.56 3.72,-1.68 5.49,-0.51 a 0.73,0.73 0 0 1 0.29,0.81 q -0.32,1.09 -1.45,1.79 z"
     id="path73" />
  <path
     fill="#000000"
     d="m 68.787647,136.055 q -0.32,0.23 -0.26,0.65 0.06,0.5 0.75,0.51 1.9,7.18 -3.38,6.89 -0.11,-0.74 -0.48,-1.31 c -0.78,-1.94 -0.4,-8.29 3.37,-6.74 z"
     id="path74" />
  <path
     fill="#000000"
     d="m 107.76765,136.045 q -0.29,0.26 -0.26,0.66 0.03,0.33 0.71,0.63 c 1.21,1.82 0.93,6.32 -2.05,6.75 q -0.47,0.06 -0.77,-0.31 -3.17,-4.02 0.14,-7.6 0.77,-0.84 2.23,-0.13 z"
     id="path75" />
  <path
     fill="#0da80f"
     d="m 65.897647,144.105 q 5.28,0.29 3.38,-6.89 1.2,-0.78 2.65,-0.73 0.56,0.02 0.71,0.56 c 1.19,4.3 -0.8,11.68 -6.73,9.94 q -0.5,-0.15 -0.57,-0.68 -0.16,-1.17 0.56,-2.2 z"
     id="path76" />
  <ellipse
     fill="#fec6db"
     cx="123.10998"
     cy="154.24567"
     transform="rotate(-0.2)"
     rx="6.6100001"
     ry="2.4300001"
     id="ellipse76" />
  <ellipse
     fill="#fec6db"
     cx="53.540352"
     cy="156.20178"
     transform="rotate(0.1)"
     rx="6.5999999"
     ry="2.4400001"
     id="ellipse77" />
  <path
     fill="#bc8f3e"
     d="m 39.747647,156.965 a 0.12,0.12 0 0 1 -0.14,-0.09 v -0.02 a 1.44,3.36 78.8 0 1 3.01,-2.07 l 0.49,-0.09 a 1.44,3.36 78.8 0 1 3.58,0.76 v 0.02 a 0.12,0.12 0 0 1 -0.09,0.14 z"
     id="path77" />
  <path
     fill="#bc8f3e"
     d="m 114.14765,162.045 -0.33,-3.13 q 4.26,-2.62 5.71,-0.24 a 2.16,2.17 38.1 0 1 0.21,1.78 q -1.13,3.51 -5.59,1.59 z"
     id="path78" />
  <path
     fill="#410302"
     d="m 113.81765,158.915 0.33,3.13 c 0.79,5.86 -1.25,8.85 -6.62,11.29 q -17.330003,7.88 -36.500003,5.49 c -5.09,-0.63 -7.62,-11.8 -7.92,-15.77 q -0.04,-0.49 0.46,-0.43 24.82,3.08 48.530003,-4.81 1.69,-0.56 1.72,1.1 z"
     id="path79" />
  <path
     fill="#ffffff"
     d="m 66.087647,165.245 c 15.9,0.74 29.88,-0.12 45.140003,-4.75 q 0.41,-0.12 0.5,0.3 c 1.9,8.47 -3.45,10.24 -10.45,12.7 -9.560003,3.37 -20.750003,4.94 -30.810003,2.71 a 1.32,1.28 78.2 0 1 -0.77,-0.52 q -3.1,-4.53 -4.01,-9.99 -0.08,-0.47 0.4,-0.45 z"
     id="path80" />
  <path
     fill="#bc8f3e"
     d="m 74.387647,160.765 0.19,0.42 a 0.37,0.37 0 0 1 -0.38,0.52 l -0.9,-0.09 a 0.46,0.46 0 0 1 -0.35,-0.69 q 0.45,-0.76 1.33,-0.28 a 0.4,0.35 6.9 0 1 0.11,0.12 z"
     id="path81" />
  <path
     fill="#410302"
     d="m 132.89765,163.095 q 9.28,2.27 14.36,10.58 3.54,8.43 1.23,18.18 -0.11,0.48 0.16,0.89 1.14,1.74 0.19,3.59 -0.22,0.43 0.12,0.76 2.63,2.63 1.76,6.26 a 1.48,1.47 48.9 0 1 -2.9,-0.2 q -0.07,-0.74 0.15,-1.77 0.1,-0.51 -0.04,-0.78 -0.1,-0.2 -0.27,-0.29 -0.48,-0.27 -0.63,0.26 l -0.91,3.3 q -0.24,0.85 -1.12,0.78 c -3.05,-0.25 -1.11,-4.09 -0.69,-5.57 a 0.44,0.44 0 0 0 -0.78,-0.37 l -2.68,3.85 a 1.4802871,1.4802871 0 0 1 -2.51,-1.57 q 1.37,-2.42 3.17,-4.47 0.36,-0.4 0.29,-0.93 -0.51,-3.86 3.23,-4.67 0.51,-0.12 0.63,-0.63 1.45,-6.33 -0.32,-12.79 -3.4,-9.14 -13.5,-11.5 -1.52,-1.03 -0.75,-2.24 0.81,-1.25 1.81,-0.67 z"
     id="path82" />
  <path
     fill="#373737"
     d="m 102.57765,167.395 a 0.52,0.51 16.7 0 1 -0.49,-0.9 q 1.67,-1.08 3.64,-1.13 a 0.31,0.31 0 0 1 0.13,0.6 z"
     id="path83" />
  <path
     fill="#bc8f3e"
     d="m 131.83765,166.005 q 10.1,2.36 13.5,11.5 -8.31,13.72 -21.74,21.41 l -2.82,-8.64 a 1.58,1.59 75.5 0 0 -1.81,-1.06 q -2.12,0.42 -0.88,2.71 1.4,2.6 2.67,8.5 c -17.72,8.28 -42.150003,8.71 -60.650003,5.6 l 1.15,-5.47 c 25.69,1.2 61.380003,-5.87 70.580003,-34.55 z"
     id="path84" />
  <rect
     fill="#696969"
     x="46.823685"
     y="182.41095"
     transform="rotate(-9.7)"
     width="15.2"
     height="1.16"
     rx="0.25999999"
     id="rect84" />
  <ellipse
     fill="#696969"
     cx="90.800415"
     cy="163.54216"
     transform="rotate(6.1)"
     rx="2.5"
     ry="0.67000002"
     id="ellipse84" />
  <path
     fill="#bc8f3e"
     d="m 48.357647,178.085 a 0.63,0.63 0 0 1 0.76,0.93 l -0.54,0.8 a 0.66,0.66 0 0 1 -1.1,0.01 q -0.73,-1.09 0.88,-1.74 z"
     id="path85" />
  <path
     fill="#bc8f3e"
     d="m 62.657647,188.735 q 0.46,0.1 -0.69,0.4 c -0.92,-0.36 -1.99,-0.24 -2.76,-0.84 q -2.32,-1.84 -0.06,-4.19 a 2.15,2.13 31.4 0 1 2.26,-0.54 q 3.15,1.11 1.25,5.17 z"
     id="path86" />
  <ellipse
     fill="#bc8f3e"
     cx="122.24135"
     cy="179.81073"
     transform="rotate(2.9)"
     rx="0.97000003"
     ry="0.85000002"
     id="ellipse86" />
  <circle
     fill="#bc8f3e"
     cx="101.90765"
     cy="187.825"
     r="2.6900001"
     id="circle86" />
  <path
     fill="#410302"
     d="m 62.657647,188.735 q 2.3,0.27 1.62,2.22 -1.51,4.34 -3.02,9.6 l -1.15,5.47 -0.74,4.1 q -0.52,4.82 0.45,11.33 0.08,0.54 -0.44,0.7 c -3.51,1.1 -10.98,1.96 -14.16,-0.8 a 1.06,1.05 18.7 0 1 -0.37,-0.73 c -0.52,-6.37 6.92,-5.94 10.53,-2.76 q 0.59,0.52 0.61,-0.26 l 0.17,-6.74 0.86,-5.69 q 1.5,-7.93 4.95,-16.04 1.15,-0.3 0.69,-0.4 z"
     id="path87" />
  <path
     fill="#410302"
     d="m 123.59765,198.915 1.16,12.06 -0.48,5.98 a 0.56,0.56 0 0 0 0.9,0.49 c 7.87,-6.23 14.51,3.07 8.35,4.64 q -5.95,1.51 -12.15,-0.17 a 0.62,0.64 8.9 0 1 -0.46,-0.65 l 0.68,-11.14 -0.84,-9.7 q -1.27,-5.9 -2.67,-8.5 -1.24,-2.29 0.88,-2.71 a 1.58,1.59 75.5 0 1 1.81,1.06 z"
     id="path88" />
  <path
     fill="#ffffff"
     d="m 120.75765,200.425 0.84,9.7 q -31.020003,-2.47 -62.230003,0 l 0.74,-4.1 c 18.5,3.11 42.930003,2.68 60.650003,-5.6 z"
     id="path89" />
  <path
     fill="#d6d6d6"
     d="m 121.59765,210.125 -0.68,11.14 a 0.62,0.64 8.9 0 0 0.46,0.65 q 6.2,1.68 12.15,0.17 c 6.16,-1.57 -0.48,-10.87 -8.35,-4.64 a 0.56,0.56 0 0 1 -0.9,-0.49 l 0.48,-5.98 c 5.76,0.06 36.39,2.95 36.71,10.32 0.27,6.51 -30.38,10.12 -35.2,10.56 -27.110003,2.48 -55.290003,2.39 -82.270003,-1.44 -6.03,-0.85 -18.73,-3.13 -22.69,-8.11 a 1.79,1.8 46.3 0 1 0.06,-2.3 c 5.91,-6.68 26.31,-8.67 34.79,-9.14 l -0.17,6.74 q -0.02,0.78 -0.61,0.26 c -3.61,-3.18 -11.05,-3.61 -10.53,2.76 a 1.06,1.05 18.7 0 0 0.37,0.73 c 3.18,2.76 10.65,1.9 14.16,0.8 q 0.52,-0.16 0.44,-0.7 -0.97,-6.51 -0.45,-11.33 31.21,-2.47 62.230003,0 z"
     id="path90" />
</svg>
