<?xml version="1.0" encoding="UTF-8" standalone="no"?>
<svg
   version="1.1"
   viewBox="0 0 884.6557 993.86163"
   id="svg229"
   sodipodi:docname="diploma_05.svg"
   width="884.6557"
   height="993.86163"
   inkscape:version="1.3 (0e150ed6c4, 2023-07-21)"
   xmlns:inkscape="http://www.inkscape.org/namespaces/inkscape"
   xmlns:sodipodi="http://sodipodi.sourceforge.net/DTD/sodipodi-0.dtd"
   xmlns="http://www.w3.org/2000/svg"
   xmlns:svg="http://www.w3.org/2000/svg">
  <defs
     id="defs229" />
  <sodipodi:namedview
     id="namedview229"
     pagecolor="#ffffff"
     bordercolor="#666666"
     borderopacity="1.0"
     inkscape:showpageshadow="2"
     inkscape:pageopacity="0.0"
     inkscape:pagecheckerboard="true"
     inkscape:deskcolor="#d1d1d1"
     inkscape:zoom="0.56511767"
     inkscape:cx="458.31163"
     inkscape:cy="429.11417"
     inkscape:window-width="1920"
     inkscape:window-height="1017"
     inkscape:window-x="-8"
     inkscape:window-y="-8"
     inkscape:window-maximized="1"
     inkscape:current-layer="svg229" />
  <path
     fill="#7e5e24"
     d="m 485.9,176.20162 q 0.72,0.38 2.16,0.02 55.12,4.25 104.14,30.31 35.25,18.42 64.33,45.72 0.02,0.54 0.79,0.93 l 16.07,17.53 1.72,2.03 c 25.41,33.95 41,71.91 43.22,113.81 q 2.71,51.16 -13.74,99.55 c -7.68,22.57 -15.32,44.65 -20.34,67.74 a 1.2,1.21 23.8 0 0 0.48,1.24 q 38.76,27.64 70.38,63.36 c 2.43,2.74 4.69,6.22 6.86,9.28 6.3,8.88 0.54,19.16 -3.63,26.77 q -14.01,25.58 -31.19,49.44 -2,2.24 -3.48,1.51 c 0.44,-1.46 1.04,-3.09 1.95,-4.34 q 19.92,-27.11 32.61,-52.28 1.03,-2.04 3.86,-10.31 c 3.31,-9.64 -28.56,-39.06 -35.11,-44.85 l -1.41,-1.59 q -19.77,-18.6 -41.57,-34.42 a 0.46,0.46 0 0 0 -0.72,0.3 q -3.36,20.87 -3.02,42.02 a 1.1,1.07 16.9 0 0 0.49,0.88 l 22.24,14.75 32.88,23.13 a 1.36,1.35 33.1 0 1 0.39,1.81 l -32.25,53.58 q -1.2,-0.27 -1.5,-1.05 -0.1,-0.24 -0.35,-0.32 -0.32,-0.11 -0.73,0.03 -6.14,-6 -13.26,-0.29 -0.41,0.32 -0.39,0.85 0.56,14.68 -0.87,29.24 l -0.17,4.7 -0.58,3.06 -5.14,22.89 q -1.45,1.9 -1,2.14 c -8.11,23.6 -19.28,45.63 -36.63,62.63 q -18.33,17.96 -40.23,30.25 -13.61,7.65 -29.44,14.73 -1.12,-0.42 -3.04,0.51 -1.92,0.64 -4.67,2.24 c -2.69,1.56 -5.06,1.99 -7.97,2.55 q -0.48,0.09 -0.85,0.41 c -4.33,3.67 -9.64,4.37 -15.06,4.98 q -0.49,0.06 -0.85,0.39 l -0.43,0.4 q -1.37,0.16 -1.85,1.12 l -0.3,-0.11 q -0.24,-0.09 -0.5,-0.02 -45.97,13.1 -94.14,13.44 -0.09,0.4 -2.39,0.33 -4.64,-1.65 -8.86,-0.97 -1.76,0.28 -3.01,-0.13 -0.5,-0.16 -0.99,0.05 -2.62,1.1 -5.19,-0.12 -0.5,-0.24 -1.05,-0.17 -2.43,0.28 -4.83,0.17 c -1.95,-0.09 -6.09,0.54 -8.74,-0.47 q -3.12,-1.2 -3.66,-1.29 -2.98,-0.51 -5.87,-0.16 -4.44,-2.46 -5.09,-0.27 -1.4,-0.82 -2.19,-0.95 c -94.46,-14.78 -169.24,-81.03 -204.8,-168.36 -19.51,-47.95 -27.85,-99.8 -26.55,-151.43 a 2.63,2.62 14.6 0 0 -1.41,-2.39 c -37.89,-19.8 -67.78,-55.94 -87.13,-93.93 q -11.44,-22.46 -15.58,-46.13 2.06,-0.19 2.7,0.87 3.98,21.34 14.13,39.96 3.5,9.18 10.16,20.15 c 19.1,31.45 44.44,59.05 76.64,76.37 a 0.33,0.33 0 0 0 0.49,-0.27 l 1.81,-27.67 1.72,-17.28 q 0.05,-0.52 -0.42,-0.75 c -34.2,-16.91 -60.32,-46.31 -72.07,-82.72 -0.58,-1.81 -0.68,-4.01 -1.26,-5.86 q 0.79,-1.5 2.58,-0.59 c 5.74,26.68 22.19,47.87 41.41,66.35 q 13.41,12.13 29.69,19.91 0.41,0.19 0.56,-0.23 1.42,-4.03 1.32,-8.07 c 13.01,-82.04 44.72,-155.68 98.06,-219.25 49.23,-58.68 116.14,-101.04 193.67,-107.25 l 2.42,-0.05 z"
     id="path95" />
  <g
     stroke-width="2"
     fill="none"
     stroke-linecap="butt"
     id="g103"
     transform="translate(0,-32.138377)">
    <path
       stroke="#e8bd76"
       vector-effect="non-scaling-stroke"
       d="m 515.78,214.08 q 0.13,0.95 -0.6,1.03 c -4.81,0.57 -10.05,0.13 -14.04,0.1 -24.15,-0.14 -46.61,3.8 -68.23,12.67 -48.06,19.71 -98.03,40.24 -133.27,80.29 q -8.66,9.84 -13.12,14.36 c -10.07,10.2 -21.48,20.1 -29.39,32.42 -7.33,11.43 -10.48,26.41 -18.72,37.59 q -25.68,34.88 -38.94,76.2 c -9.17,28.57 -14.72,55.44 -20.7,86.76 q -3.9,20.46 -11.97,54.69 c -0.34,1.44 -1.02,2.88 -1.6,4.22 a 0.61,0.59 -67.9 0 1 -0.76,0.33 l -1.38,-0.5"
       id="path96" />
    <path
       stroke="#dba34f"
       vector-effect="non-scaling-stroke"
       d="m 631.19,266.06 q 1.71,4.52 5.64,13.36 c 10.47,23.57 6.66,58.77 -22.13,67.95 q -5.68,1.81 -9.66,5.25"
       id="path97" />
    <path
       stroke="#af8740"
       vector-effect="non-scaling-stroke"
       d="m 605.04,352.62 -10.92,2.1 q -0.09,0.02 -0.11,0.11 -0.02,0.1 0,0.26 a 0.36,0.35 82.4 0 0 0.41,0.32 q 7.11,-1.16 13.62,-0.65"
       id="path98" />
    <path
       stroke="#dba34f"
       vector-effect="non-scaling-stroke"
       d="m 608.04,354.76 q 8.37,4.09 16.99,7.29 9.32,3.48 12.36,5.5 c 7.71,5.12 11.74,11.33 14.71,20.54 15.31,47.39 -2.06,97.18 -36.18,131.84 -4.36,4.43 -9.59,8.82 -12.13,14.21 -6.2,13.17 -2.35,24.73 3.18,37.37 14.44,33.02 21.06,73.88 -11.86,98.27 -11.18,8.27 -23.12,10.73 -36.85,9.79 q -3.83,-0.27 -8.69,1.59"
       id="path99" />
    <path
       stroke="#af8740"
       vector-effect="non-scaling-stroke"
       d="m 549.57,681.16 q -3.2,-0.54 -5.73,-0.39 -0.84,0.05 -0.08,0.41 l 5.87,2.78"
       id="path100" />
    <path
       stroke="#dba34f"
       vector-effect="non-scaling-stroke"
       d="m 549.63,683.96 q 5.27,8.04 11.09,15.71 c 5.56,7.33 9.07,13.6 11.5,21.59 9.31,30.63 12.64,67.78 -9.22,94.76 -13.59,16.77 -34.59,26.16 -55.77,21.07 C 494.9,834.12 485.42,830 474.5,825.96 q -10.9,-4.04 -16.85,-4.52 c -25.54,-2.06 -43.02,17.77 -64.66,25.39 q -11.09,3.91 -22.99,4.85 c -64.32,5.12 -124.69,-31.09 -158.24,-83.95 -11.95,-18.83 -21.17,-38.95 -32,-58.38 -1.02,-1.83 -2.63,-3.01 -4.05,-4.57"
       id="path101" />
    <path
       stroke="#aa7a33"
       vector-effect="non-scaling-stroke"
       d="m 549.63,683.96 c 26.93,5.06 57.01,-1.58 73.83,-24.76 q 0.1,-0.14 0.07,-0.33 -0.06,-0.39 -0.33,-0.11 c -19.13,19.78 -46.36,27.94 -73.63,22.4"
       id="path102" />
    <path
       stroke="#aa7a33"
       vector-effect="non-scaling-stroke"
       d="m 608.04,354.76 c 26.36,-1.67 44.79,9.85 59.22,30.96 q 1.57,2.3 0.32,-0.19 c -12.8,-25.55 -35.67,-35.3 -62.54,-32.91"
       id="path103" />
  </g>
  <path
     fill="#efca90"
     d="m 515.78,181.94162 q 0.13,0.95 -0.6,1.03 c -4.81,0.57 -10.05,0.13 -14.04,0.1 -24.15,-0.14 -46.61,3.8 -68.23,12.67 -48.06,19.71 -98.03,40.24 -133.27,80.29 q -8.66,9.84 -13.12,14.36 c -10.07,10.2 -21.48,20.1 -29.39,32.42 -7.33,11.43 -10.48,26.41 -18.72,37.59 q -25.68,34.88 -38.94,76.2 c -9.17,28.57 -14.72,55.44 -20.7,86.76 q -3.9,20.46 -11.97,54.69 c -0.34,1.44 -1.02,2.88 -1.6,4.22 a 0.59,0.61 22.1 0 1 -0.76,0.33 l -1.38,-0.5 c -1.01,-122.8 44.07,-246.53 135.86,-330.58 59.89,-54.83 135.22,-83.87 216.86,-69.58 z"
     id="path104" />
  <path
     fill="#e0b05c"
     d="m 515.78,181.94162 c 28.76,5.43 53.83,15.66 79.99,29.18 q 19.05,9.83 35.42,22.8 1.71,4.52 5.64,13.36 c 10.47,23.57 6.66,58.77 -22.13,67.95 q -5.68,1.81 -9.66,5.25 l -10.92,2.1 q -0.09,0.02 -0.11,0.11 -0.02,0.1 0,0.26 a 0.36,0.35 82.4 0 0 0.41,0.32 q 7.11,-1.16 13.62,-0.65 8.37,4.09 16.99,7.29 9.32,3.48 12.36,5.5 c 7.71,5.12 11.74,11.33 14.71,20.54 15.31,47.39 -2.06,97.18 -36.18,131.84 -4.36,4.43 -9.59,8.82 -12.13,14.21 -6.2,13.17 -2.35,24.73 3.18,37.37 14.44,33.02 21.06,73.88 -11.86,98.27 -11.18,8.27 -23.12,10.73 -36.85,9.79 q -3.83,-0.27 -8.69,1.59 -3.2,-0.54 -5.73,-0.39 -0.84,0.05 -0.08,0.41 l 5.87,2.78 q 5.27,8.04 11.09,15.71 c 5.56,7.33 9.07,13.6 11.5,21.59 9.31,30.63 12.64,67.78 -9.22,94.76 -13.59,16.77 -34.59,26.16 -55.77,21.07 -12.33,-2.97 -21.81,-7.09 -32.73,-11.13 q -10.9,-4.04 -16.85,-4.52 c -25.54,-2.06 -43.02,17.77 -64.66,25.39 q -11.09,3.91 -22.99,4.85 c -64.32,5.12 -124.69,-31.09 -158.24,-83.95 -11.95,-18.83 -21.17,-38.95 -32,-58.38 -1.02,-1.83 -2.63,-3.01 -4.05,-4.57 -8.41,-29.6 -12.12,-59.8 -12.65,-90.54 l 1.38,0.5 a 0.59,0.61 22.1 0 0 0.76,-0.33 c 0.58,-1.34 1.26,-2.78 1.6,-4.22 q 8.07,-34.23 11.97,-54.69 c 5.98,-31.32 11.53,-58.19 20.7,-86.76 q 13.26,-41.32 38.94,-76.2 c 8.24,-11.18 11.39,-26.16 18.72,-37.59 7.91,-12.32 19.32,-22.22 29.39,-32.42 q 4.46,-4.52 13.12,-14.36 c 35.24,-40.05 85.21,-60.58 133.27,-80.29 21.62,-8.87 44.08,-12.81 68.23,-12.67 3.99,0.03 9.23,0.47 14.04,-0.1 q 0.73,-0.08 0.6,-1.03 z"
     id="path105" />
  <g
     stroke-width="2"
     fill="none"
     stroke-linecap="butt"
     id="g108"
     transform="translate(0,-32.138377)">
    <path
       stroke="#543e16"
       vector-effect="non-scaling-stroke"
       d="m 360.1,340.93 -12.6,-0.82"
       id="path106" />
    <path
       stroke="#543e16"
       vector-effect="non-scaling-stroke"
       d="m 392.59,376.31 q -0.6,0.9 -1.56,0.84 -0.53,-0.04 -0.78,-0.5 c -3.25,-5.95 -6.22,-13.58 -11.12,-19.12 -14.37,-16.26 -44.18,-11.89 -59.06,1.03 -5.86,5.1 -12.18,10.32 -16.51,15.99 q -3.84,5.03 -6.84,10.63 c -1.43,2.67 -3.38,4.93 -5.07,7.43 -0.85,1.25 -1.04,2.76 -1.87,4.1 -2.49,3.98 -3.74,8.71 -5.4,13.08 q -1.16,3.06 -1.93,6.44 c -1.24,5.52 -2.97,11.6 -3.54,16.45 -1.66,14.13 0.57,30.04 7.63,42.68 1,1.8 0.99,3.58 1.37,5.56 q 0.07,0.38 -0.29,0.53 l -0.39,0.17"
       id="path107" />
    <path
       stroke="#543e16"
       vector-effect="non-scaling-stroke"
       d="m 539.79,502.26 -1.92,0.83 a 0.91,0.91 0 0 1 -1.1,-1.37 c 2.36,-3.19 5.02,-5.59 7.1,-9.04 4.29,-7.14 8.26,-13.51 11.6,-23.08 1.3,-3.74 1.9,-8.46 3.3,-12.63 1.32,-3.93 1.48,-7.4 2.19,-11.34 0.64,-3.55 0,-6.77 0.21,-9.94 q 0.94,-14.05 -2.74,-27.69 -0.45,-1.65 -0.7,-3.32 c -0.8,-5.24 -4.04,-11.52 -6.4,-16.28 -2.83,-5.7 -7.33,-10.32 -11.57,-15.13 q -0.05,-0.06 -2.17,-2.81 c -5.43,-7.07 -19.02,-10.26 -27.32,-10.09 -5.47,0.12 -13.97,3.42 -18.4,6.32 q -7.6,4.98 -13.3,12.24 -0.31,0.39 -0.81,0.37 -1.44,-0.08 -2.33,-1.34"
       id="path108" />
  </g>
  <path
     fill="#888887"
     d="m 93.2,424.88162 q -1.79,-0.91 -2.58,0.59 -11.91,1.8 -23.68,0.18 c -2.57,-0.35 -4.84,-1.66 -7.52,-2.11 q -0.64,-1.06 -2.7,-0.87 c -11.89,-6.18 -30.21,-18.28 -19.62,-34.43 a 0.72,0.73 25.5 0 0 -0.38,-1.09 c -19.84,-6.47 -33.32,-19.2 -36.72,-40.34 v -3.27 q 0.77,-8.83 7.26,-15.27 0.38,-0.38 0.03,-0.79 c -12.04,-14.45 -7.54,-32.91 10.19,-39.61 a 0.9,0.91 66.8 0 0 0.5,-1.24 c -5.2,-10.82 -5.82,-21.64 5.46,-28.88 27.18,-17.46 79.73,8.62 73.74,44.59 q -0.13,0.73 0.56,1.02 l 2.88,1.24 a 0.77,0.77 0 0 0 0.91,-0.24 l 4.45,-5.76 a 1.09,1.08 52.6 0 0 0.14,-1.06 q -1.1,-2.69 -1.76,-5.38 c -10.02,-40.68 10.21,-81.36 58.19,-73.87 18.53,2.9 28.12,17.46 13.83,33.46 -6.04,6.77 -13.04,13.81 -17.55,20.93 -3.44,5.43 -12.89,23.17 -10.91,29.34 q 7.04,21.92 4.05,44.11 -5.08,37.57 -41.05,49.49 -0.5,0.17 -0.27,0.63 c 7.09,14.42 -4.14,25.57 -17.45,28.63 z"
     id="path109" />
  <g
     stroke-width="2"
     fill="none"
     stroke-linecap="butt"
     id="g116"
     transform="translate(0,-32.138377)">
    <path
       stroke="#ebebeb"
       vector-effect="non-scaling-stroke"
       d="m 175.35,258.58 c -0.11,20.34 -14.72,27.81 -31.16,36.1 -5.66,2.85 -10.48,5.52 -13.52,11.17 -1.43,2.65 -4.93,7.69 -4.66,10.65 q 0.87,9.71 3.98,30.75 c 3.52,23.79 0.39,44.88 -18.54,61.44 -13.04,11.41 -33.83,13.48 -44.55,-2.42 a 1.82,1.82 0 0 0 -2.16,-0.68 c -9.26,3.58 -19.27,3.19 -25.12,-5.71 q -0.98,-1.48 0.9,-2.03"
       id="path110" />
    <path
       stroke="#ebebeb"
       vector-effect="non-scaling-stroke"
       d="m 3.41,371.96 q 0.06,0.73 0.33,0.93 0.84,0.61 1.43,1.46 c 10.72,15.28 34.56,16.58 50.13,9.47 q 13.08,-5.97 13.79,-17.83"
       id="path111" />
    <path
       stroke="#ebebeb"
       vector-effect="non-scaling-stroke"
       d="m 87.01,307.59 q 3.24,9.4 0.07,16.1 c -1.38,2.94 -4.42,4.89 -7.09,6.76"
       id="path112" />
    <path
       stroke="#ebebeb"
       vector-effect="non-scaling-stroke"
       d="M 27.93,316.56 17.33,303.27"
       id="path113" />
    <path
       stroke="#ebebeb"
       vector-effect="non-scaling-stroke"
       d="m 79.9,334.41 q -1.17,3.08 -1.68,7.33 -1.21,9.97 -10.14,14.89 a 1.45,1.42 -55.9 0 1 -0.85,0.17 l -7.42,-0.83"
       id="path114" />
    <path
       stroke="#ebebeb"
       vector-effect="non-scaling-stroke"
       d="M 18.91,353.03 Q 8.55,348.26 3.89,339.69"
       id="path115" />
    <path
       stroke="#ebebeb"
       vector-effect="non-scaling-stroke"
       d="m 85.41,430.49 q 0.45,8.76 -6.57,14.31 -1.07,0.85 -2.82,1.2 c -10.45,2.14 -19.22,1.01 -28.65,-3.52 q -3.43,-1.65 -7.16,-2.88"
       id="path116" />
  </g>
  <path
     fill="#7e5e24"
     d="m 450.88,237.69162 c -10.43,3.61 -7.17,-9.38 -5.39,-13.59 2.76,-6.53 20.27,-10.57 19.97,-0.47 -0.18,6 -9.42,12.28 -14.58,14.06 z"
     id="path117" />
  <path
     fill="#ffffff"
     d="m 175.35,226.44162 c -0.11,20.34 -14.72,27.81 -31.16,36.1 -5.66,2.85 -10.48,5.52 -13.52,11.17 -1.43,2.65 -4.93,7.69 -4.66,10.65 q 0.87,9.71 3.98,30.75 c 3.52,23.79 0.39,44.88 -18.54,61.44 -13.04,11.41 -33.83,13.48 -44.55,-2.42 a 1.82,1.82 0 0 0 -2.16,-0.68 c -9.26,3.58 -19.27,3.19 -25.12,-5.71 q -0.98,-1.48 0.9,-2.03 10.84,2.76 23.19,1.29 c 16.75,-1.99 19.05,-18.11 10.84,-30.02 a 0.63,0.63 0 0 1 0.39,-0.98 c 12.14,-2.48 14.17,-10.64 13.84,-21.93 q -0.02,-0.58 0.49,-0.84 4.78,-2.44 6.45,-7.56 a 0.59,0.59 0 0 1 0.8,-0.36 l 2.78,1.19 a 0.62,0.62 0 0 1 0.29,0.89 c -7.98,13.33 -12.84,27.51 -12.37,43.21 0.13,4.31 -0.4,11.54 1.52,15.37 q 0.23,0.44 0.29,-0.05 0.05,-0.4 -0.24,-0.71 a 0.56,0.57 21.3 0 1 -0.13,-0.3 c -2.08,-21.57 1.69,-39.18 13.57,-57.1 1.42,-2.14 4.35,-5.79 6.27,-8.88 q 0.27,-0.43 0.12,-0.92 -6.3,-19.83 -2.8,-40.33 c 4.79,-27.98 28.46,-41.17 55.5,-36.92 q 8.27,1.31 14.03,5.68 z"
     id="path118" />
  <path
     fill="#d6d6d6"
     d="m 175.35,226.44162 c 16,8.93 -2.95,26.26 -9.42,33.26 -10.39,11.24 -17.11,23.51 -20.95,38.39 -0.3,1.15 -0.31,2.62 0.12,3.89 10.39,31.17 7.72,72.58 -26.7,88.04 q -25.88,11.63 -52.3,1.59 -2.81,-1.07 -5.75,-1.32 -22.43,-1.91 -39.8,-13.74 c -10.1,-6.88 -20.85,-23.39 -17.14,-36.73 q 0.06,0.73 0.33,0.93 0.84,0.61 1.43,1.46 c 10.72,15.28 34.56,16.58 50.13,9.47 q 13.08,-5.97 13.79,-17.83 6.2,5.86 7.58,14.33 c 2.37,14.58 -13,17.87 -23.67,17.09 q -8.06,-0.59 -16.01,-2.12 -1.24,-0.24 -2.07,0.4 a 0.53,0.53 0 0 0 0.2,0.93 l 5.4,1.23 q -1.88,0.55 -0.9,2.03 c 5.85,8.9 15.86,9.29 25.12,5.71 a 1.82,1.82 0 0 1 2.16,0.68 c 10.72,15.9 31.51,13.83 44.55,2.42 18.93,-16.56 22.06,-37.65 18.54,-61.44 q -3.11,-21.04 -3.98,-30.75 c -0.27,-2.96 3.23,-8 4.66,-10.65 3.04,-5.65 7.86,-8.32 13.52,-11.17 16.44,-8.29 31.05,-15.76 31.16,-36.1 z"
     id="path119" />
  <path
     fill="#d69642"
     d="m 631.19,233.92162 c 3.16,1.99 6.4,5.25 8.39,6.89 43.66,35.94 72.26,86.58 75.99,143.52 q 2.78,42.44 -8.26,83.43 c -8.71,32.3 -22.7,61.04 -26.8,95.52 q -2.29,19.33 -2.67,35.9 c -0.61,26.61 4.64,61.11 6.36,81.68 q 1.51,17.99 -0.06,39.48 c -2.02,27.8 -13.15,56.57 -28.2,78.96 -13.35,19.88 -35.4,36.75 -56.31,48.02 -11.24,6.06 -22.81,11.07 -34.41,16.38 -9.04,4.13 -18.42,6.33 -27.2,8.84 -38.76,11.08 -77.77,16.04 -118.29,13.58 -8.55,-0.52 -17.86,-2.2 -26.78,-3.55 -107.41,-16.15 -186.29,-99.18 -215.26,-201.64 q -1.16,-4.13 -1.98,-8.29 c 1.42,1.56 3.03,2.74 4.05,4.57 10.83,19.43 20.05,39.55 32,58.38 33.55,52.86 93.92,89.07 158.24,83.95 q 11.9,-0.94 22.99,-4.85 c 21.64,-7.62 39.12,-27.45 64.66,-25.39 q 5.95,0.48 16.85,4.52 c 10.92,4.04 20.4,8.16 32.73,11.13 21.18,5.09 42.18,-4.3 55.77,-21.07 21.86,-26.98 18.53,-64.13 9.22,-94.76 -2.43,-7.99 -5.94,-14.26 -11.5,-21.59 q -5.82,-7.67 -11.09,-15.71 c 26.93,5.06 57.01,-1.58 73.83,-24.76 q 0.1,-0.14 0.07,-0.33 -0.06,-0.39 -0.33,-0.11 c -19.13,19.78 -46.36,27.94 -73.63,22.4 q 4.86,-1.86 8.69,-1.59 c 13.73,0.94 25.67,-1.52 36.85,-9.79 32.92,-24.39 26.3,-65.25 11.86,-98.27 -5.53,-12.64 -9.38,-24.2 -3.18,-37.37 2.54,-5.39 7.77,-9.78 12.13,-14.21 34.12,-34.66 51.49,-84.45 36.18,-131.84 -2.97,-9.21 -7,-15.42 -14.71,-20.54 q -3.04,-2.02 -12.36,-5.5 -8.62,-3.2 -16.99,-7.29 c 26.36,-1.67 44.79,9.85 59.22,30.96 q 1.57,2.3 0.32,-0.19 c -12.8,-25.55 -35.67,-35.3 -62.54,-32.91 q 3.98,-3.44 9.66,-5.25 c 28.79,-9.18 32.6,-44.38 22.13,-67.95 q -3.93,-8.84 -5.64,-13.36 z"
     id="path121" />
  <path
     fill="#291d08"
     d="m 375.37,248.83162 c -23.74,0.65 -47.17,21.92 -63.6,37.34 a 0.14,0.15 81.8 0 1 -0.23,-0.17 q 8.65,-16.9 22.04,-30.55 c 10.66,-10.87 28.37,-18.34 41.9,-6.93 a 0.18,0.18 0 0 1 -0.11,0.31 z"
     id="path122" />
  <path
     fill="#3d3d3d"
     d="m 331.7,265.21162 -6,5.52 a 0.71135434,0.71135434 0 0 1 -1.05,-0.96 c 7.41,-9.6 14.52,-18.37 26.5,-23.22 3.33,-1.35 6.47,-1.32 9.97,-1.19 a 1.59,1.59 0 0 1 0.04,3.17 q -1.21,0.07 -1.79,1.12 -0.21,0.39 -0.62,0.54 -9.52,3.58 -17.99,9.21 c -2.25,1.5 -4.43,4.47 -8.18,5.34 q -0.5,0.12 -0.88,0.47 z"
     id="path123" />
  <path
     fill="#ffffff"
     d="m 87.01,275.45162 q 3.24,9.4 0.07,16.1 c -1.38,2.94 -4.42,4.89 -7.09,6.76 q -21.95,-20.16 -52.06,-13.89 l -10.6,-13.29 c 1.95,-15.78 23.73,-16.86 35.2,-15.32 q 21.44,2.9 34.48,19.64 z"
     id="path124" />
  <path
     fill="#291d08"
     d="m 522.34,279.77162 c -6.57,-4.16 -19.57,-10.26 -27.44,-8.65 a 0.38,0.39 20.2 0 1 -0.31,-0.68 c 26.13,-20.54 54.26,18.54 63.95,37.7 a 0.14,0.15 8.8 0 1 -0.23,0.17 q -17.07,-16.56 -35.97,-28.54 z"
     id="path125" />
  <path
     fill="#3d3d3d"
     d="m 505.85,270.47162 a 1.56,1.57 47.4 0 1 0.13,-3.05 c 11.91,-2.25 21.96,5.49 29.88,12.72 2.44,2.22 4.51,5.59 7.15,8.19 q 0.95,0.93 0.7,2.03 -0.15,0.63 -0.64,0.22 c -4.12,-3.4 -9.09,-5.75 -13.14,-8.62 q -8.6,-6.08 -18.29,-10.27 c -1.83,-0.8 -3.85,-0.69 -5.79,-1.22 z"
     id="path126" />
  <path
     fill="#d6d6d6"
     d="m 17.33,271.13162 10.6,13.29 -6.7,1.42 q -0.5,0.11 -0.78,-0.32 -4.22,-6.46 -3.12,-14.39 z"
     id="path127" />
  <path
     fill="#d6d6d6"
     d="m 87.01,275.45162 c 6.94,8.1 10.36,18.51 7.09,28.74 q -1.51,4.77 -5.79,7.03 a 0.63,0.62 65.1 0 1 -0.87,-0.32 q -2.71,-6.68 -7.45,-12.59 c 2.67,-1.87 5.71,-3.82 7.09,-6.76 q 3.17,-6.7 -0.07,-16.1 z"
     id="path128" />
  <path
     fill="#ffffff"
     d="m 79.9,302.27162 q -1.17,3.08 -1.68,7.33 -1.21,9.97 -10.14,14.89 a 1.42,1.45 34.1 0 1 -0.85,0.17 l -7.42,-0.83 q -19.8,-10.12 -40.9,-2.94 -10.36,-4.77 -15.02,-13.34 c 0.13,-11.81 14.27,-18.37 24.35,-20.46 19.57,-4.05 38.15,0.34 51.66,15.18 z"
     id="path129" />
  <path
     fill="#d6d6d6"
     d="m 79.9,302.27162 c 9.54,10.5 10.92,28.58 -6.52,32.02 q -0.47,0.09 -0.79,-0.25 -5.57,-5.84 -12.78,-10.21 l 7.42,0.83 a 1.42,1.45 34.1 0 0 0.85,-0.17 q 8.93,-4.92 10.14,-14.89 0.51,-4.25 1.68,-7.33 z"
     id="path130" />
  <path
     fill="#d6d6d6"
     d="m 3.89,307.55162 q 4.66,8.57 15.02,13.34 l -8.78,5.08 a 0.98,0.97 55.5 0 1 -1.26,-0.24 q -6.29,-8.16 -4.98,-18.18 z"
     id="path131" />
  <path
     fill="#7e5e24"
     d="m 360.1,308.79162 -12.6,-0.82 q 5.95,-1.68 12.6,0.82 z"
     id="path132" />
  <path
     fill="#291d08"
     d="m 347.5,307.97162 12.6,0.82 q 4.63,1.17 9.1,3.18 c 12.2,5.47 20.41,19.48 23.39,32.2 q -0.6,0.9 -1.56,0.84 -0.53,-0.04 -0.78,-0.5 c -3.25,-5.95 -6.22,-13.58 -11.12,-19.12 -14.37,-16.26 -44.18,-11.89 -59.06,1.03 -5.86,5.1 -12.18,10.32 -16.51,15.99 q -3.84,5.03 -6.84,10.63 c -1.43,2.67 -3.38,4.93 -5.07,7.43 -0.85,1.25 -1.04,2.76 -1.87,4.1 -2.49,3.98 -3.74,8.71 -5.4,13.08 q -1.16,3.06 -1.93,6.44 c -1.24,5.52 -2.97,11.6 -3.54,16.45 -1.66,14.13 0.57,30.04 7.63,42.68 1,1.8 0.99,3.58 1.37,5.56 q 0.07,0.38 -0.29,0.53 l -0.39,0.17 c -12.67,-16.9 -14.3,-38.91 -10.66,-58.87 q 0.69,-3.75 1.17,-7.54 0.06,-0.51 -0.44,-0.61 -16.22,-3.23 -27.29,-15.33 a 0.32221887,0.32221887 0 0 1 0.43,-0.48 q 12.53,8.99 27.98,10.15 a 1.45,1.46 12.3 0 0 1.47,-0.95 l 4.39,-11.74 a 0.43,0.43 0 0 0 -0.3,-0.57 q -14.9,-3.61 -25.55,-14.59 -0.24,-0.25 -0.2,-0.59 0.02,-0.15 0.01,-0.28 -0.02,-0.31 0.23,-0.13 12.35,9.24 27.87,10.16 a 0.85,0.85 0 0 0 0.79,-0.43 l 6.57,-11.38 q 0.32,-0.55 -0.23,-0.85 -13.61,-7.63 -20.87,-21.28 -0.18,-0.33 -0.16,-0.62 0.02,-0.17 0.07,-0.31 0.12,-0.38 0.37,-0.07 9.29,11.97 23.56,17.14 1.3,0.47 2.11,-0.64 c 11.58,-15.83 28.74,-29.24 48.95,-31.7 z"
     id="path133" />
  <path
     fill="#7e5e24"
     d="m 392.59,344.17162 c 4.34,14.81 1.94,32.12 -1.84,48.44 -6.92,29.83 -29.43,65.55 -61.66,72.51 q -24.76,5.36 -41.86,-15.64 l 0.39,-0.17 q 0.36,-0.15 0.29,-0.53 c -0.38,-1.98 -0.37,-3.76 -1.37,-5.56 -7.06,-12.64 -9.29,-28.55 -7.63,-42.68 0.57,-4.85 2.3,-10.93 3.54,-16.45 q 0.77,-3.38 1.93,-6.44 c 1.66,-4.37 2.91,-9.1 5.4,-13.08 0.83,-1.34 1.02,-2.85 1.87,-4.1 1.69,-2.5 3.64,-4.76 5.07,-7.43 q 3,-5.6 6.84,-10.63 c 4.33,-5.67 10.65,-10.89 16.51,-15.99 14.88,-12.92 44.69,-17.29 59.06,-1.03 4.9,5.54 7.87,13.17 11.12,19.12 q 0.25,0.46 0.78,0.5 0.96,0.06 1.56,-0.84 z"
     id="path134" />
  <g
     stroke-width="2"
     fill="none"
     stroke-linecap="butt"
     id="g138"
     transform="translate(0,-32.138377)">
    <path
       stroke="#ebebeb"
       vector-effect="non-scaling-stroke"
       d="m 374.76,458.55 q -3.16,0.72 -3.62,-1.58"
       id="path135" />
    <path
       stroke="#8291be"
       vector-effect="non-scaling-stroke"
       d="m 371.14,456.97 c 5.34,-13.16 7.61,-29.27 0.38,-42.17 -4.79,-8.55 -13.17,-13.46 -22.43,-12.84 -20.94,1.41 -34.82,24 -38.99,42.38"
       id="path136" />
    <path
       stroke="#ebebeb"
       vector-effect="non-scaling-stroke"
       d="m 310.1,444.34 q -15.87,-8.48 -22.63,-24.86 -1.25,-3.02 -1.59,-6.7"
       id="path137" />
    <path
       stroke="#6d7da9"
       vector-effect="non-scaling-stroke"
       d="m 371.14,456.97 q -3.92,9.01 -10.36,16.29 c -11.2,12.66 -31.58,20.21 -44.51,4.45 q -3.15,-3.84 -4.53,-7.77 -4.4,-12.47 -1.64,-25.6"
       id="path138" />
  </g>
  <path
     fill="#ffffff"
     d="m 374.76,426.41162 q -3.16,0.72 -3.62,-1.58 c 5.34,-13.16 7.61,-29.27 0.38,-42.17 -4.79,-8.55 -13.17,-13.46 -22.43,-12.84 -20.94,1.41 -34.82,24 -38.99,42.38 q -15.87,-8.48 -22.63,-24.86 -1.25,-3.02 -1.59,-6.7 0.62,-4.05 3.61,-11.06 11.66,-27.3 34.84,-43.38 c 3,-2.09 9.72,-5.68 14.76,-6.72 8.55,-1.76 15.38,-3.75 24.16,-0.1 1.44,0.6 2.9,0.76 4.26,1.5 q 14.7,7.99 19.89,23.78 0.67,2.04 1.78,4.42 c 2.75,5.93 2.97,14.22 2.73,21.28 q -1.04,30.35 -17.15,56.05 z"
     id="path139" />
  <path
     fill="#7e5e24"
     d="m 608.04,322.62162 q -6.51,-0.51 -13.62,0.65 a 0.36,0.35 82.4 0 1 -0.41,-0.32 q -0.02,-0.16 0,-0.26 0.02,-0.09 0.11,-0.11 l 10.92,-2.1 c 26.87,-2.39 49.74,7.36 62.54,32.91 q 1.25,2.49 -0.32,0.19 c -14.43,-21.11 -32.86,-32.63 -59.22,-30.96 z"
     id="path140" />
  <path
     fill="#ffffff"
     d="m 69.09,333.85162 q -0.71,11.86 -13.79,17.83 c -15.57,7.11 -39.41,5.81 -50.13,-9.47 q -0.59,-0.85 -1.43,-1.46 -0.27,-0.2 -0.33,-0.93 c 1.9,-8.65 11.01,-14.8 19.31,-17.07 q 26.03,-7.13 46.37,11.1 z"
     id="path141" />
  <path
     fill="#291d08"
     d="m 539.79,470.12162 -1.92,0.83 a 0.91,0.91 0 0 1 -1.1,-1.37 c 2.36,-3.19 5.02,-5.59 7.1,-9.04 4.29,-7.14 8.26,-13.51 11.6,-23.08 1.3,-3.74 1.9,-8.46 3.3,-12.63 1.32,-3.93 1.48,-7.4 2.19,-11.34 0.64,-3.55 0,-6.77 0.21,-9.94 q 0.94,-14.05 -2.74,-27.69 -0.45,-1.65 -0.7,-3.32 c -0.8,-5.24 -4.04,-11.52 -6.4,-16.28 -2.83,-5.7 -7.33,-10.32 -11.57,-15.13 q -0.05,-0.06 -2.17,-2.81 c -5.43,-7.07 -19.02,-10.26 -27.32,-10.09 -5.47,0.12 -13.97,3.42 -18.4,6.32 q -7.6,4.98 -13.3,12.24 -0.31,0.39 -0.81,0.37 -1.44,-0.08 -2.33,-1.34 c 18.21,-25.68 49.73,-33.46 71.87,-7.1 7.11,8.46 11.04,17.87 14.55,28.18 a 2.01,2.03 85.2 0 0 1.6,1.34 q 15.87,2.43 30.26,-4.46 a 0.37,0.37 0 0 1 0.37,0.64 q -13.38,9.39 -29.82,10.03 -0.53,0.03 -0.45,0.54 l 1.77,11.51 a 0.96,0.96 0 0 0 0.43,0.65 c 9.32,5.89 21.27,6.87 31.98,5.4 a 0.31,0.31 0 0 1 0.15,0.6 q -15.74,5.2 -31.94,1.36 -0.45,-0.1 -0.45,0.36 v 12.45 q 0,0.92 0.83,1.31 14.59,6.83 30.59,3.95 0.48,-0.08 0.31,0.37 -0.08,0.21 -0.31,0.29 -15.98,5.5 -32.09,1.46 -0.5,-0.12 -0.57,0.39 c -2.83,20.13 -10.77,40.02 -24.72,55.03 z"
     id="path142" />
  <path
     fill="#7e5e24"
     d="m 539.79,470.12162 c -14.34,15.21 -37.57,22.65 -56.26,10.69 -14.33,-9.17 -23.23,-27.88 -26.54,-44.45 -5.39,-26.94 -1.28,-51.64 10.5,-76.79 q 4.1,-8.74 7.94,-13.75 0.89,1.26 2.33,1.34 0.5,0.02 0.81,-0.37 5.7,-7.26 13.3,-12.24 c 4.43,-2.9 12.93,-6.2 18.4,-6.32 8.3,-0.17 21.89,3.02 27.32,10.09 q 2.12,2.75 2.17,2.81 c 4.24,4.81 8.74,9.43 11.57,15.13 2.36,4.76 5.6,11.04 6.4,16.28 q 0.25,1.67 0.7,3.32 3.68,13.64 2.74,27.69 c -0.21,3.17 0.43,6.39 -0.21,9.94 -0.71,3.94 -0.87,7.41 -2.19,11.34 -1.4,4.17 -2,8.89 -3.3,12.63 -3.34,9.57 -7.31,15.94 -11.6,23.08 -2.08,3.45 -4.74,5.85 -7.1,9.04 a 0.91,0.91 0 0 0 1.1,1.37 z"
     id="path143" />
  <g
     stroke-width="2"
     fill="none"
     stroke-linecap="butt"
     id="g147"
     transform="translate(0,-32.138377)">
    <path
       stroke="#ebebeb"
       vector-effect="non-scaling-stroke"
       d="m 555.19,461.74 q -0.17,0.86 -0.71,1.45 a 1.4,1.4 0 0 1 -2.38,-0.62 l -0.25,-1"
       id="path144" />
    <path
       stroke="#8291be"
       vector-effect="non-scaling-stroke"
       d="m 551.85,461.57 q 1.54,-16.15 -4.99,-30.12 c -10.72,-22.94 -35.94,-21.8 -48.65,-1.44 q -11,17.61 -8.27,39.89"
       id="path145" />
    <path
       stroke="#ebebeb"
       vector-effect="non-scaling-stroke"
       d="m 489.94,469.9 q -5.26,-2.41 -14.88,-7.21 -14.17,-7.08 -18.02,-19.71"
       id="path146" />
    <path
       stroke="#6d7da9"
       vector-effect="non-scaling-stroke"
       d="m 551.85,461.57 c -1.43,13.08 -7.7,27.96 -18.07,35.49 -12.84,9.32 -26.99,5.52 -35.73,-6.7 q -6.53,-9.14 -8.11,-20.46"
       id="path147" />
  </g>
  <path
     fill="#ffffff"
     d="m 555.19,429.60162 q -0.17,0.86 -0.71,1.45 a 1.4,1.4 0 0 1 -2.38,-0.62 l -0.25,-1 q 1.54,-16.15 -4.99,-30.12 c -10.72,-22.94 -35.94,-21.8 -48.65,-1.44 q -11,17.61 -8.27,39.89 -5.26,-2.41 -14.88,-7.21 -14.17,-7.08 -18.02,-19.71 0.53,-33.02 18.33,-58.84 1.37,-1.99 3.57,-4.02 c 5.05,-4.64 9.33,-9.15 15.49,-12.32 23,-11.83 43.85,0.7 54.71,21.35 2.48,4.7 4.19,10.5 6.06,15.86 1.7,4.89 2.11,9.64 2.92,14.7 q 3.41,21.38 -2.93,42.03 z"
     id="path148" />
  <path
     fill="#04237c"
     d="m 371.14,424.83162 q -3.92,9.01 -10.36,16.29 c -11.2,12.66 -31.58,20.21 -44.51,4.45 q -3.15,-3.84 -4.53,-7.77 -4.4,-12.47 -1.64,-25.6 c 4.17,-18.38 18.05,-40.97 38.99,-42.38 9.26,-0.62 17.64,4.29 22.43,12.84 7.23,12.9 4.96,29.01 -0.38,42.17 z"
     id="path150" />
  <g
     stroke-width="2"
     fill="none"
     stroke-linecap="butt"
     id="g160"
     transform="translate(0,-32.138377)">
    <path
       stroke="#0663e1"
       vector-effect="non-scaling-stroke"
       d="m 358.31,472.19 q -0.82,-2.68 -3.38,-3.08"
       id="path151" />
    <path
       stroke="#042765"
       vector-effect="non-scaling-stroke"
       d="m 354.93,469.11 7.31,-8.96 a 1.16,1.13 64.1 0 0 0.27,-0.82 c -0.06,-0.93 -0.04,-1.52 0.32,-2.42 q 3.08,-7.77 1.41,-14.65 c -1.68,-6.91 -6,-9.38 -11.7,-12.51"
       id="path152" />
    <path
       stroke="#83a6e4"
       vector-effect="non-scaling-stroke"
       d="m 352.54,429.75 c 5.62,-8.64 -0.78,-20.71 -11.47,-18.18 -10.31,2.44 -11.63,15.92 -2.84,21.37"
       id="path153" />
    <path
       stroke="#042765"
       vector-effect="non-scaling-stroke"
       d="m 338.23,432.94 q -1.45,-0.12 -1.73,0.81 -0.13,0.45 0.1,1.25"
       id="path154" />
    <path
       stroke="#83a6e4"
       vector-effect="non-scaling-stroke"
       d="m 336.6,435 c -10.91,-6.53 -16.74,7.07 -7.03,11.28"
       id="path155" />
    <path
       stroke="#042765"
       vector-effect="non-scaling-stroke"
       d="m 329.57,446.28 -1.1,13.81"
       id="path156" />
    <path
       stroke="#0663e1"
       vector-effect="non-scaling-stroke"
       d="m 328.47,460.09 q -9.83,-8.06 -12.82,-20.16 -0.13,-0.56 -0.69,-0.45 l -1.56,0.28"
       id="path157" />
    <path
       stroke="#023c7d"
       vector-effect="non-scaling-stroke"
       d="m 354.93,469.11 c -10.67,9.15 -23.61,4.9 -26.46,-9.02"
       id="path158" />
    <path
       stroke="#808080"
       vector-effect="non-scaling-stroke"
       d="M 329.57,446.28 Q 340.14,445.66 336.6,435"
       id="path159" />
    <path
       stroke="#808080"
       vector-effect="non-scaling-stroke"
       d="m 352.54,429.75 q -5.83,6.03 -14.31,3.19"
       id="path160" />
  </g>
  <path
     fill="#074dc9"
     d="m 358.31,440.05162 q -0.82,-2.68 -3.38,-3.08 l 7.31,-8.96 a 1.16,1.13 64.1 0 0 0.27,-0.82 c -0.06,-0.93 -0.04,-1.52 0.32,-2.42 q 3.08,-7.77 1.41,-14.65 c -1.68,-6.91 -6,-9.38 -11.7,-12.51 5.62,-8.64 -0.78,-20.71 -11.47,-18.18 -10.31,2.44 -11.63,15.92 -2.84,21.37 q -1.45,-0.12 -1.73,0.81 -0.13,0.45 0.1,1.25 c -10.91,-6.53 -16.74,7.07 -7.03,11.28 l -1.1,13.81 q -9.83,-8.06 -12.82,-20.16 -0.13,-0.56 -0.69,-0.45 l -1.56,0.28 q 3.53,-12.31 11.03,-21.58 c 9.55,-11.8 32.35,-21.59 43.41,-5.15 8.02,11.91 7.12,22.83 3.42,36.49 q -3.55,13.13 -12.95,22.67 z"
     id="path161" />
  <path
     fill="#ffffff"
     d="m 352.54,397.61162 q -5.83,6.03 -14.31,3.19 c -8.79,-5.45 -7.47,-18.93 2.84,-21.37 10.69,-2.53 17.09,9.54 11.47,18.18 z"
     id="path162" />
  <path
     fill="#d6d6d6"
     d="m 285.88,380.64162 q 0.34,3.68 1.59,6.7 6.76,16.38 22.63,24.86 -2.76,13.13 1.64,25.6 1.38,3.93 4.53,7.77 c 12.93,15.76 33.31,8.21 44.51,-4.45 q 6.44,-7.28 10.36,-16.29 0.46,2.3 3.62,1.58 -10.29,17.23 -27.19,28.79 c -17.39,11.9 -39.64,13.23 -54.36,-3.2 -4.53,-5.05 -8.62,-15.37 -9.46,-22.13 a 1.46,1.48 18.8 0 0 -0.42,-0.87 c -1.96,-1.98 -1.65,-6.52 -1.84,-10.79 q -0.01,-0.42 -0.21,-0.65 -0.13,-0.15 -0.34,-0.24 a 0.54,0.55 9.8 0 1 -0.34,-0.49 l -0.15,-14.51 a 0.57,0.53 63 0 1 0.08,-0.29 q 0.76,-1.21 0.85,-2.68 0.63,-9.53 2.08,-15 0.57,-2.18 2.42,-3.71 z"
     id="path163" />
  <path
     fill="#04237c"
     d="m 551.85,429.43162 c -1.43,13.08 -7.7,27.96 -18.07,35.49 -12.84,9.32 -26.99,5.52 -35.73,-6.7 q -6.53,-9.14 -8.11,-20.46 -2.73,-22.28 8.27,-39.89 c 12.71,-20.36 37.93,-21.5 48.65,1.44 q 6.53,13.97 4.99,30.12 z"
     id="path164" />
  <g
     stroke-width="2"
     fill="none"
     stroke-linecap="butt"
     id="g174"
     transform="translate(0,-32.138377)">
    <path
       stroke="#0663e1"
       vector-effect="non-scaling-stroke"
       d="m 540.29,486.96 q 1.25,-3.03 -3.44,-3.68"
       id="path165" />
    <path
       stroke="#042765"
       vector-effect="non-scaling-stroke"
       d="m 536.85,483.28 q 8.99,-9.96 7.84,-22.23 c -1.02,-10.82 -7.41,-19.03 -18.54,-20.27"
       id="path166" />
    <path
       stroke="#83a6e4"
       vector-effect="non-scaling-stroke"
       d="m 526.15,440.78 c 3.24,-20.29 -25.24,-17.87 -21.81,-1.44 q 1.82,8.72 11.17,9.48"
       id="path167" />
    <path
       stroke="#042765"
       vector-effect="non-scaling-stroke"
       d="m 515.51,448.82 q -2.28,0.46 -2.98,3.1"
       id="path168" />
    <path
       stroke="#83a6e4"
       vector-effect="non-scaling-stroke"
       d="m 512.53,451.92 c -11.31,-6.39 -15.23,12.66 -3.2,11.9"
       id="path169" />
    <path
       stroke="#042765"
       vector-effect="non-scaling-stroke"
       d="m 509.33,463.82 q 0.47,8.07 4.08,16.03"
       id="path170" />
    <path
       stroke="#0663e1"
       vector-effect="non-scaling-stroke"
       d="m 513.41,479.85 c -1.51,-1.46 -2.65,-3.12 -4.57,-4.01 q -9.59,-4.44 -14.69,-13.75 -0.25,-0.46 -0.77,-0.49 l -1.59,-0.09"
       id="path171" />
    <path
       stroke="#023c7d"
       vector-effect="non-scaling-stroke"
       d="m 536.85,483.28 q -13.61,9.93 -23.44,-3.43"
       id="path172" />
    <path
       stroke="#808080"
       vector-effect="non-scaling-stroke"
       d="m 509.33,463.82 c 5.93,-1.06 6.99,-7.78 3.2,-11.9"
       id="path173" />
    <path
       stroke="#808080"
       vector-effect="non-scaling-stroke"
       d="m 526.15,440.78 q -3.08,7.05 -10.64,8.04"
       id="path174" />
  </g>
  <path
     fill="#074dc9"
     d="m 540.29,454.82162 q 1.25,-3.03 -3.44,-3.68 8.99,-9.96 7.84,-22.23 c -1.02,-10.82 -7.41,-19.03 -18.54,-20.27 3.24,-20.29 -25.24,-17.87 -21.81,-1.44 q 1.82,8.72 11.17,9.48 -2.28,0.46 -2.98,3.1 c -11.31,-6.39 -15.23,12.66 -3.2,11.9 q 0.47,8.07 4.08,16.03 c -1.51,-1.46 -2.65,-3.12 -4.57,-4.01 q -9.59,-4.44 -14.69,-13.75 -0.25,-0.46 -0.77,-0.49 l -1.59,-0.09 c 0.21,-10.66 2.71,-22.09 8.92,-30.86 2.17,-3.04 4.08,-6.42 7.07,-8.52 19.99,-14.06 36.87,2.75 40.6,21.91 2.86,14.68 0.96,30.55 -8.09,42.92 z"
     id="path175" />
  <path
     fill="#ffffff"
     d="m 85.41,398.35162 q 0.45,8.76 -6.57,14.31 -1.07,0.85 -2.82,1.2 c -10.45,2.14 -19.22,1.01 -28.65,-3.52 q -3.43,-1.65 -7.16,-2.88 -6.64,-8.27 -1.26,-18.34 0.36,-0.65 1.08,-0.46 7.65,2.05 15.73,3.39 c 2.23,0.37 5.64,0.08 8.01,1.01 q 10.79,4.28 21.64,5.29 z"
     id="path176" />
  <path
     fill="#ffffff"
     d="m 526.15,408.64162 q -3.08,7.05 -10.64,8.04 -9.35,-0.76 -11.17,-9.48 c -3.43,-16.43 25.05,-18.85 21.81,1.44 z"
     id="path177" />
  <path
     fill="#d6d6d6"
     d="m 40.21,407.46162 q 3.73,1.23 7.16,2.88 c 9.43,4.53 18.2,5.66 28.65,3.52 q 1.75,-0.35 2.82,-1.2 7.02,-5.55 6.57,-14.31 10.83,0.47 22.12,-1.84 a 1.01,1.02 72.9 0 1 1.13,0.59 q 5.98,13.89 -6.67,21.77 c -16.99,10.59 -50.11,6.29 -61.78,-11.41 z"
     id="path178" />
  <path
     fill="#000000"
     d="m 352.54,397.61162 c 5.7,3.13 10.02,5.6 11.7,12.51 q 1.67,6.88 -1.41,14.65 c -0.36,0.9 -0.38,1.49 -0.32,2.42 a 1.16,1.13 64.1 0 1 -0.27,0.82 l -7.31,8.96 c -10.67,9.15 -23.61,4.9 -26.46,-9.02 l 1.1,-13.81 q 10.57,-0.62 7.03,-11.28 -0.23,-0.8 -0.1,-1.25 0.28,-0.93 1.73,-0.81 8.48,2.84 14.31,-3.19 z"
     id="path179" />
  <path
     fill="#ffffff"
     d="m 336.6,402.86162 q 3.54,10.66 -7.03,11.28 c -9.71,-4.21 -3.88,-17.81 7.03,-11.28 z"
     id="path180" />
  <path
     fill="#0478f9"
     d="m 328.47,427.95162 c 2.85,13.92 15.79,18.17 26.46,9.02 q 2.56,0.4 3.38,3.08 c -8.47,10.02 -24.65,16.66 -35.94,8.14 -11.48,-8.67 -12.67,-27.46 -8.97,-40.57 l 1.56,-0.28 q 0.56,-0.11 0.69,0.45 2.99,12.1 12.82,20.16 z"
     id="path181" />
  <path
     fill="#000000"
     d="m 526.15,408.64162 c 11.13,1.24 17.52,9.45 18.54,20.27 q 1.15,12.27 -7.84,22.23 -13.61,9.93 -23.44,-3.43 -3.61,-7.96 -4.08,-16.03 c 5.93,-1.06 6.99,-7.78 3.2,-11.9 q 0.7,-2.64 2.98,-3.1 7.56,-0.99 10.64,-8.04 z"
     id="path182" />
  <path
     fill="#d6d6d6"
     d="m 457.04,410.84162 q 3.85,12.63 18.02,19.71 9.62,4.8 14.88,7.21 1.58,11.32 8.11,20.46 c 8.74,12.22 22.89,16.02 35.73,6.7 10.37,-7.53 16.64,-22.41 18.07,-35.49 l 0.25,1 a 1.4,1.4 0 0 0 2.38,0.62 q 0.54,-0.59 0.71,-1.45 0,2.6 -0.7,5.26 -5.96,22.79 -22.92,37.79 -8.37,7.4 -17.07,10.04 c -19.88,6.05 -37.74,-5.99 -46.94,-23.57 q -12.06,-23.07 -10.52,-48.28 z"
     id="path183" />
  <path
     fill="#ffffff"
     d="m 512.53,419.78162 c 3.79,4.12 2.73,10.84 -3.2,11.9 -12.03,0.76 -8.11,-18.29 3.2,-11.9 z"
     id="path184" />
  <path
     fill="#e0b05c"
     d="m 59.42,423.54162 c 2.68,0.45 4.95,1.76 7.52,2.11 q 11.77,1.62 23.68,-0.18 c 0.58,1.85 0.68,4.05 1.26,5.86 11.75,36.41 37.87,65.81 72.07,82.72 q 0.47,0.23 0.42,0.75 l -1.72,17.28 q -0.36,3.12 -6.28,0.23 c -27.32,-13.39 -52.56,-31.64 -71.7,-55.48 a 1.54,1.61 82.3 0 0 -0.62,-0.45 c -2.4,-0.93 -2.37,-2.91 -3.38,-4.34 q -3.18,-4.49 -7.12,-8.54 -10.15,-18.62 -14.13,-39.96 z"
     id="path185" />
  <path
     fill="#0478f9"
     d="m 491.79,429.37162 1.59,0.09 q 0.52,0.03 0.77,0.49 5.1,9.31 14.69,13.75 c 1.92,0.89 3.06,2.55 4.57,4.01 q 9.83,13.36 23.44,3.43 4.69,0.65 3.44,3.68 c -5.69,8.09 -15.68,14.35 -25.76,12.27 -15.97,-3.3 -22.93,-23.29 -22.74,-37.72 z"
     id="path186" />
  <path
     fill="#d69642"
     d="m 73.55,463.50162 q 3.94,4.05 7.12,8.54 c 1.01,1.43 0.98,3.41 3.38,4.34 a 1.54,1.61 82.3 0 1 0.62,0.45 c 19.14,23.84 44.38,42.09 71.7,55.48 q 5.92,2.89 6.28,-0.23 l -1.81,27.67 a 0.33,0.33 0 0 1 -0.49,0.27 c -32.2,-17.32 -57.54,-44.92 -76.64,-76.37 q -6.66,-10.97 -10.16,-20.15 z"
     id="path187" />
  <path
     fill="#7e5e24"
     d="m 212.63,486.24162 q -1.02,-0.64 -1.2,-2.38 -1.62,-15.62 12.4,-17.52 c 10.76,-1.45 10.96,8.01 4.71,13.81 q -5.96,5.54 -13.29,6.56 a 3.24,4.31 63.2 0 1 -2.62,-0.47 z"
     id="path188" />
  <path
     fill="#efca90"
     d="m 134.61,491.23162 q 3.11,0.59 4.96,2.3 8.94,8.28 18.66,12.12 1.78,0.7 4.66,3.53 0.45,0.44 0.69,-0.14 l 2.6,-6.2 q 0.1,4.04 -1.32,8.07 -0.15,0.42 -0.56,0.23 -16.28,-7.78 -29.69,-19.91 z"
     id="path189" />
  <path
     fill="#7e5e24"
     d="m 277.56,520.15162 c 3.36,50.43 38.29,90.44 89.49,94.64 53.21,4.37 117.03,-17.27 145.68,-64.7 a 1.17,1.17 0 0 0 -0.62,-1.71 c -4.5,-1.55 -12.88,-7.79 -12.51,-13.5 q 0.05,-0.74 0.31,-0.04 c 5.41,14.23 26.36,16.51 37.87,9.78 q 0.38,-0.22 0.77,-0.22 0.63,0 0.13,0.39 -10.24,8.14 -23.11,4.57 -0.39,-0.11 -0.58,0.25 -8.07,15.48 -20.93,27.16 c -1.34,1.21 -1.85,2.7 -1.31,4.32 q 0.15,0.47 0.11,0.97 -0.43,5.24 0.01,14.24 0.34,6.89 -1.07,17.75 -0.05,0.32 -0.21,0.56 -0.09,0.13 -0.19,0.26 -0.18,0.25 -0.22,0.56 -1.47,12.96 -3.03,25.92 c -0.19,1.55 -1.27,2.91 -1.48,4.43 -2.66,18.67 -8.47,41.21 -17.92,58.1 -19.19,34.32 -61.35,44.13 -95.82,27.82 -15.18,-7.19 -24.46,-22.25 -28.92,-37.85 q -4.33,-15.13 -9.45,-40.8 -4.12,-20.7 -15.14,-50.62 c -0.39,-1.06 -2.05,-2.63 -3.19,-3.51 q -33.39,-25.81 -39.8,-68.08 -0.86,-5.7 -1.5,-11.43 -0.05,-0.5 -0.53,-0.7 c -7.95,-3.26 -13.12,-6.66 -16.73,-14.67 a 0.25,0.25 0 0 1 0.41,-0.26 c 4.37,5.08 7.67,8.9 14.13,11.4 9.05,3.5 18.97,3.23 27.48,-2.01 a 0.23200216,0.23200216 0 0 1 0.28,0.37 c -6.78,6.37 -13.08,6.27 -21.92,6.09 q -0.53,-0.01 -0.49,0.52 z"
     id="path190" />
  <g
     stroke-width="2"
     fill="none"
     stroke-linecap="butt"
     id="g196"
     transform="translate(0,-32.138377)">
    <path
       stroke="#4b0101"
       vector-effect="non-scaling-stroke"
       d="m 365.53,740.86 q -2.43,-1.32 -2.03,-3.11 c 4.47,-19.95 13.24,-37.48 27.43,-52.34 q 0.36,-0.38 0.41,-0.89 l 0.33,-2.91 q 0.05,-0.44 0.48,-0.43 2.85,0 5.49,-1.24"
       id="path191" />
    <path
       stroke="#634544"
       vector-effect="non-scaling-stroke"
       d="m 397.64,679.94 q 2.46,0.4 5.21,-0.28 c 7.63,-1.86 15.43,-3.15 23.11,-4.81 q 13.27,-2.86 24.96,-8.82"
       id="path192" />
    <path
       stroke="#714544"
       vector-effect="non-scaling-stroke"
       d="m 397.64,679.94 c -14.54,0.43 -47.18,3.27 -53.41,-11.63 q -2.73,-6.53 -5.4,-12.99"
       id="path193" />
    <path
       stroke="#c4c4c3"
       vector-effect="non-scaling-stroke"
       d="m 338.22,643.88 q 3.13,11.61 8.08,22.3 2.59,5.57 8.35,7.47 c 3.64,1.2 7.38,2.64 11.02,3.31 q 19.24,3.49 37.53,-1.48"
       id="path194" />
    <path
       stroke="#afafaf"
       vector-effect="non-scaling-stroke"
       d="m 403.2,675.48 q 2.12,0.85 4.35,0.16 0.35,-0.11 0.47,0.24 l 0.2,0.61 q 0.17,0.49 0.68,0.47 c 2.17,-0.08 12.09,-0.65 13.33,-3.22 q 0.2,-0.42 0.66,-0.54 c 17.12,-4.22 32.46,-10.47 44.79,-23.17 5.54,-5.71 4.42,-16.85 4.73,-24.04 q 0.02,-0.38 -0.35,-0.48 -0.19,-0.06 -0.41,-0.16"
       id="path195" />
    <path
       stroke="#ebebeb"
       vector-effect="non-scaling-stroke"
       d="m 403.2,675.48 q 15.4,-5.44 29.09,-13.15 c 7.54,-4.24 8.59,-12.01 6.57,-19.78 q -0.12,-0.46 0.08,-0.9 0.14,-0.31 0.1,-0.66 -0.03,-0.25 -0.58,-0.32"
       id="path196" />
  </g>
  <path
     fill="#7e5e24"
     d="m 628.7,511.80162 c 0.21,7.7 -22.65,21.11 -21.92,9.3 0.42,-6.69 1.64,-12.43 9,-14.68 5.12,-1.56 12.71,-2.41 12.92,5.38 z"
     id="path197" />
  <path
     fill="#d69642"
     d="m 725.57,592.07162 c -19.44,-13.09 -35.93,-1.12 -22.16,20.87 a 1.01,1 36.8 0 1 0.12,0.81 l -0.54,1.85 -22.24,-14.75 a 1.1,1.07 16.9 0 1 -0.49,-0.88 q -0.34,-21.15 3.02,-42.02 a 0.46,0.46 0 0 1 0.72,-0.3 q 21.8,15.82 41.57,34.42 z"
     id="path198" />
  <path
     fill="#3d0101"
     d="m 365.53,708.72162 q -2.43,-1.32 -2.03,-3.11 c 4.47,-19.95 13.24,-37.48 27.43,-52.34 q 0.36,-0.38 0.41,-0.89 l 0.33,-2.91 q 0.05,-0.44 0.48,-0.43 2.85,0 5.49,-1.24 2.46,0.4 5.21,-0.28 c 7.63,-1.86 15.43,-3.15 23.11,-4.81 q 13.27,-2.86 24.96,-8.82 c 11.88,-5.75 24.19,-14.18 23.95,-28.72 -0.07,-4.24 0.01,-8.43 0.01,-12.67 a 1.04,1.03 71.3 0 1 0.4,-0.82 c 4.59,-3.62 10.15,-6.64 14.23,-11.79 a 0.63,0.62 62.2 0 1 1.11,0.35 c 0.81,11.13 0.56,22.09 -0.59,33.28 -0.28,2.66 0.4,7.98 -1.5,9.92 q -0.34,0.34 -0.3,0.82 c 0.27,3.31 -1.21,6.34 -1.56,8.87 q -0.47,3.34 -0.87,6.69 c -0.18,1.5 0.43,3.58 -0.78,5.31 q -0.28,0.4 -0.27,0.89 c 0.02,2.66 -1.06,6.21 -1.86,8.87 -1.2,3.98 -1.6,8.27 -2.9,12.23 -0.85,2.61 -1.24,4.48 -1.27,6.89 a 0.65,0.64 5.8 0 1 -0.78,0.63 q -16.22,-3.34 -31.18,-2.77 -0.37,0.02 -0.54,0.43 -0.19,0.47 -0.7,0.47 -9.22,-0.02 -19.04,2.35 -35.26,8.51 -60.95,33.6 z"
     id="path199" />
  <path
     fill="#e0b05c"
     d="m 725.57,592.07162 1.41,1.59 q 7.24,10.97 15.87,20.11 1.61,1.7 5.1,7.42 c 4.62,7.58 7.8,11.58 4.05,19.65 q -4,8.62 -5.26,10.74 -14.79,24.65 -36.32,53.02 -6.83,-3.58 -6.41,-10.48 l 32.25,-53.58 a 1.36,1.35 33.1 0 0 -0.39,-1.81 l -32.88,-23.13 0.54,-1.85 a 1.01,1 36.8 0 0 -0.12,-0.81 c -13.77,-21.99 2.72,-33.96 22.16,-20.87 z"
     id="path200" />
  <path
     fill="#888887"
     d="m 450.92,633.89162 q -11.69,5.96 -24.96,8.82 c -7.68,1.66 -15.48,2.95 -23.11,4.81 q -2.75,0.68 -5.21,0.28 c -14.54,0.43 -47.18,3.27 -53.41,-11.63 q -2.73,-6.53 -5.4,-12.99 1.26,-1.26 0.13,-2.27 a 1.23,1.23 0 0 1 -0.42,-0.83 c -0.11,-1.32 -0.21,-2.44 -0.06,-3.73 q 0.08,-0.7 -0.5,-1.14 -0.38,-0.3 -0.29,-0.77 l 0.53,-2.7 q 3.13,11.61 8.08,22.3 2.59,5.57 8.35,7.47 c 3.64,1.2 7.38,2.64 11.02,3.31 q 19.24,3.49 37.53,-1.48 2.12,0.85 4.35,0.16 0.35,-0.11 0.47,0.24 l 0.2,0.61 q 0.17,0.49 0.68,0.47 c 2.17,-0.08 12.09,-0.65 13.33,-3.22 q 0.2,-0.42 0.66,-0.54 c 17.12,-4.22 32.46,-10.47 44.79,-23.17 5.54,-5.71 4.42,-16.85 4.73,-24.04 q 0.02,-0.38 -0.35,-0.48 -0.19,-0.06 -0.41,-0.16 0.32,-0.31 0.64,-0.42 0.57,-0.2 0.46,0.39 -0.12,0.66 0.3,1.24 0.28,0.39 0.31,0.87 0.58,12.55 0.21,16.82 c -0.46,5.32 -11.6,13.74 -16.44,16.72 q -0.45,0.28 -0.99,0.22 -0.67,-0.08 -0.65,0.68 0.01,0.56 -0.43,0.9 z"
     id="path201" />
  <path
     fill="#d6d6d6"
     d="m 471.65,593.21162 q 0.22,0.1 0.41,0.16 0.37,0.1 0.35,0.48 c -0.31,7.19 0.81,18.33 -4.73,24.04 -12.33,12.7 -27.67,18.95 -44.79,23.17 q -0.46,0.12 -0.66,0.54 c -1.24,2.57 -11.16,3.14 -13.33,3.22 q -0.51,0.02 -0.68,-0.47 l -0.2,-0.61 q -0.12,-0.35 -0.47,-0.24 -2.23,0.69 -4.35,-0.16 15.4,-5.44 29.09,-13.15 c 7.54,-4.24 8.59,-12.01 6.57,-19.78 q -0.12,-0.46 0.08,-0.9 0.14,-0.31 0.1,-0.66 -0.03,-0.25 -0.58,-0.32 17.51,-5.98 33.19,-15.32 z"
     id="path202" />
  <path
     fill="#d69642"
     d="m 726.98,593.66162 c 6.55,5.79 38.42,35.21 35.11,44.85 q -2.83,8.27 -3.86,10.31 -12.69,25.17 -32.61,52.28 c -0.91,1.25 -1.51,2.88 -1.95,4.34 q -5.55,1.96 -13.25,-0.84 21.53,-28.37 36.32,-53.02 1.26,-2.12 5.26,-10.74 c 3.75,-8.07 0.57,-12.07 -4.05,-19.65 q -3.49,-5.72 -5.1,-7.42 -8.63,-9.14 -15.87,-20.11 z"
     id="path203" />
  <path
     fill="#590100"
     d="m 338.83,623.18162 q 2.67,6.46 5.4,12.99 c 6.23,14.9 38.87,12.06 53.41,11.63 q -2.64,1.24 -5.49,1.24 -0.43,-0.01 -0.48,0.43 l -0.33,2.91 q -0.05,0.51 -0.41,0.89 c -14.19,14.86 -22.96,32.39 -27.43,52.34 q -0.4,1.79 2.03,3.11 l -7.36,7.92 a 0.81,0.81 0 0 1 -1.31,-0.17 q -4.88,-9.26 -8.95,-19.14 c -0.33,-0.8 -1.18,-1.18 -0.9,-2.36 q 0.11,-0.49 -0.08,-0.95 c -2.44,-5.75 -3.37,-11.79 -5.22,-17.71 -2.33,-7.5 -3.4,-15.18 -4.49,-22.93 -0.23,-1.64 -1.32,-2.91 -1.28,-4.65 0.08,-3.36 -1.87,-5.37 -2.32,-8.29 q -1.56,-10.15 -3.9,-15.06 -1.07,-2.24 -1.44,-4.13 c -1.15,-5.69 -3.77,-11.15 -5.71,-16.7 a 1.03,1.03 0 0 1 1.5,-1.22 q 1.93,1.17 3.93,2.54 c 3.3,2.27 6.95,3.18 8,7.99 q 1.26,5.78 2.83,9.32 z"
     id="path204" />
  <path
     fill="#ffffff"
     d="m 701.88,690.11162 c -2.92,-4.31 -10.17,-3.01 -13.76,-0.58 a 0.32,0.32 0 0 1 -0.5,-0.24 c -2.26,-28.34 -6.57,-56.29 -7.28,-84.77 q -0.02,-0.69 0.55,-0.3 l 51.74,35.62 q 0.38,0.26 0.14,0.65 l -29.84,49.59 a 0.62,0.62 0 0 1 -1.05,0.03 z"
     id="path205" />
  <path
     fill="#ffffff"
     d="m 438.46,608.53162 q 0.55,0.07 0.58,0.32 0.04,0.35 -0.1,0.66 -0.2,0.44 -0.08,0.9 c 2.02,7.77 0.97,15.54 -6.57,19.78 q -13.69,7.71 -29.09,13.15 -18.29,4.97 -37.53,1.48 c -3.64,-0.67 -7.38,-2.11 -11.02,-3.31 q -5.76,-1.9 -8.35,-7.47 -4.95,-10.69 -8.08,-22.3 -0.83,-0.59 -0.98,-1.32 -0.12,-0.6 0.43,-0.34 5.87,2.73 12.15,4.19 c 29.31,6.83 60.4,4.08 88.64,-5.74 z"
     id="path206" />
  <path
     fill="#7e5e24"
     d="m 549.63,651.82162 -5.87,-2.78 q -0.76,-0.36 0.08,-0.41 2.53,-0.15 5.73,0.39 c 27.27,5.54 54.5,-2.62 73.63,-22.4 q 0.27,-0.28 0.33,0.11 0.03,0.19 -0.07,0.33 c -16.82,23.18 -46.9,29.82 -73.83,24.76 z"
     id="path207" />
  <path
     fill="#7e5e24"
     d="m 265.29,654.32162 c -16.5,-18.08 -44.4,-18.68 -64.05,-5.99 q -0.27,0.18 -0.16,-0.13 0.04,-0.12 0.11,-0.25 0.06,-0.1 0.16,-0.18 c 19.92,-14.9 49.12,-14.88 64.47,6.31 a 0.12,0.12 0 0 1 -0.06,0.19 q -0.14,0.05 -0.28,0.1 -0.11,0.03 -0.19,-0.05 z"
     id="path208" />
  <path
     fill="#fd9495"
     d="m 408.83,683.30162 c 1.44,-0.54 2.83,-2.15 5.11,-1.94 q 0.47,0.05 0.84,-0.26 c 2.56,-2.15 5.64,-1.98 8.03,-2.88 7.42,-2.79 13.3,-3.99 21.59,-4.92 4.64,-0.52 9.62,0.09 14.38,0.34 5.53,0.28 10.97,1.97 16.65,2.66 a 1.7,1.61 35.8 0 0 0.82,-0.11 q 0.88,-0.36 1.46,0.04 0.46,0.32 0.26,0.85 c -1.58,4.28 -3.43,8.26 -5.05,12.71 -8.97,24.56 -31.74,44.17 -57.92,46.58 q -6.08,0.55 -14.47,0.01 c -15.72,-1 -28.76,-5.76 -40.35,-16.81 a 0.75,0.76 41.9 0 1 -0.05,-1.04 c 13.28,-15.38 29.24,-27.82 48.7,-35.23 z"
     id="path209" />
  <path
     fill="#ffffff"
     d="m 701.43,692.78162 q 0.16,12.47 13.26,16.25 c 0.85,15.02 -15.44,18.92 -27.16,16.41 q -0.49,-0.11 -0.52,-0.61 l -0.1,-2.25 q 1.43,-14.56 0.87,-29.24 -0.02,-0.53 0.39,-0.85 7.12,-5.71 13.26,0.29 z"
     id="path210" />
  <path
     fill="#888887"
     d="m 704.01,694.12162 q -0.42,6.9 6.41,10.48 7.7,2.8 13.25,0.84 1.48,0.73 3.48,-1.51 c 6.63,3.79 7.1,9.72 6.33,16.73 q -0.06,0.54 0.31,0.95 l 7.32,8.17 q 0.34,0.38 0.57,-0.07 c 13.13,-25.32 44.19,-16.74 40.1,12.41 -0.45,3.21 2.29,3.43 3.67,5.29 9.08,12.25 4.78,30.53 -5.03,40.38 -10.57,10.61 -34.39,10.32 -47.43,6.48 q -2.97,-0.87 -6.11,-1.06 c -22.33,-1.3 -40.54,-16.51 -46.86,-37.84 q -0.45,-0.24 1,-2.14 1.32,2.85 2.36,5.41 c 7.07,17.38 23.47,31.77 42.87,32.18 q 2.82,0.05 5.39,0.83 c 14.18,4.26 38.03,5.07 48.8,-7.66 7.95,-9.38 12.01,-27.44 1.35,-36.92 q -0.42,-0.38 -0.65,0.15 c -1.58,3.67 -3.08,7.79 -4.94,10.86 q -8.33,13.8 -23.18,16.58 a 0.31084562,0.31084562 0 0 1 -0.12,-0.61 c 6.59,-1.32 13.78,-7.15 18.11,-12.53 q 13.13,-16.33 6.12,-35.94 c -1.9,-2.68 -3.46,-5.1 -6.49,-6.51 -12.78,-5.97 -24.44,3.3 -27.95,15.65 q -2.55,9 -5.76,17.72 a 0.21224985,0.21224985 0 0 1 -0.41,-0.11 l 3.83,-19.11 a 1.02,1.02 0 0 0 -0.24,-0.88 l -7.08,-7.97 a 0.43,0.43 0 0 0 -0.68,0.05 c -9.46,14.06 -28.82,18.71 -42.8,8.41 l -3.39,-2.49 0.58,-3.06 c 4.2,3.9 8.7,7.28 14.39,8.26 13.82,2.4 37.22,-7.98 28.83,-26.14 q -0.77,-1.64 -4.19,-2.73 -0.46,-0.15 -0.86,0.12 -4.79,3.25 -10.22,2.24 -13.1,-3.78 -13.26,-16.25 0.41,-0.14 0.73,-0.03 0.25,0.08 0.35,0.32 0.3,0.78 1.5,1.05 z"
     id="path211" />
  <path
     fill="#d6d6d6"
     d="m 686.74,727.28162 0.17,-4.7 0.1,2.25 q 0.03,0.5 0.52,0.61 c 11.72,2.51 28.01,-1.39 27.16,-16.41 q 5.43,1.01 10.22,-2.24 0.4,-0.27 0.86,-0.12 3.42,1.09 4.19,2.73 c 8.39,18.16 -15.01,28.54 -28.83,26.14 -5.69,-0.98 -10.19,-4.36 -14.39,-8.26 z"
     id="path212" />
  <path
     fill="#ffffff"
     d="m 777.13,725.58162 q 0.22,10 -1.43,15.98 -5.99,21.76 -27.95,25.79 -5.4,1 -9.38,-2.84 a 0.82,0.82 0 0 0 -0.91,-0.16 c -1.67,0.76 -2.92,2.03 -4.45,2.63 q -14.61,5.79 -29.38,-0.06 c -14.12,-5.59 -17.61,-19.76 -16.08,-33.86 q 0.06,-0.5 0.56,-0.43 l 1.44,0.2 c 13.98,10.3 33.34,5.65 42.8,-8.41 a 0.43,0.43 0 0 1 0.68,-0.05 l 7.08,7.97 a 1.02,1.02 0 0 1 0.24,0.88 l -3.83,19.11 a 0.21224985,0.21224985 0 0 0 0.41,0.11 q 3.21,-8.72 5.76,-17.72 c 3.51,-12.35 15.17,-21.62 27.95,-15.65 3.03,1.41 4.59,3.83 6.49,6.51 z"
     id="path213" />
  <path
     fill="#d6d6d6"
     d="m 777.13,725.58162 q 7.01,19.61 -6.12,35.94 c -4.33,5.38 -11.52,11.21 -18.11,12.53 a 0.31084562,0.31084562 0 0 0 0.12,0.61 q 14.85,-2.78 23.18,-16.58 c 1.86,-3.07 3.36,-7.19 4.94,-10.86 q 0.23,-0.53 0.65,-0.15 c 10.66,9.48 6.6,27.54 -1.35,36.92 -10.77,12.73 -34.62,11.92 -48.8,7.66 q -2.57,-0.78 -5.39,-0.83 c -19.4,-0.41 -35.8,-14.8 -42.87,-32.18 q -1.04,-2.56 -2.36,-5.41 l 5.14,-22.89 3.39,2.49 -1.44,-0.2 q -0.5,-0.07 -0.56,0.43 c -1.53,14.1 1.96,28.27 16.08,33.86 q 14.77,5.85 29.38,0.06 c 1.53,-0.6 2.78,-1.87 4.45,-2.63 a 0.82,0.82 0 0 1 0.91,0.16 q 3.98,3.84 9.38,2.84 21.96,-4.03 27.95,-25.79 1.65,-5.98 1.43,-15.98 z"
     id="path214" />
  <path
     fill="#7e5e24"
     d="m 259,744.59162 c -2.93,0.23 -5.72,-4.1 -6.13,-6.61 -0.96,-5.8 3.22,-6.04 7.78,-6.47 4.5,-0.43 14.73,0.63 16.25,5.73 q 0.13,0.44 -0.02,0.88 c -1.63,4.78 -13.11,6.11 -17.88,6.47 z"
     id="path215" />
  <path
     fill="#7e5e24"
     d="m 456.4,758.31162 c -22.7,21.44 -67.28,21.35 -89.31,-0.84 q -0.12,-0.12 -0.05,-0.25 0.01,-0.03 0.03,-0.06 0.05,-0.07 0.11,-0.02 c 4.46,3.37 9.08,6.87 14.24,8.88 21.84,8.51 48.59,7.49 69.03,-4.72 q 2.74,-1.64 11.51,-8.76 a 0.13,0.12 60.8 0 1 0.2,0.06 q 0.05,0.14 0.1,0.28 0.03,0.09 -0.04,0.15 c -1.89,1.8 -3.88,3.45 -5.82,5.28 z"
     id="path216" />
  <path
     fill="#7e5e24"
     d="m 525.2,782.06162 c -3.73,1.6 -8.21,-2.75 -6.81,-7.06 2.91,-8.92 17.18,-8.29 24.03,-5.97 q 0.47,0.16 0.62,0.63 c 1.11,3.39 -2.11,6.26 -4.96,7.23 -4.36,1.48 -8.65,3.36 -12.88,5.17 z"
     id="path217" />
  <path
     fill="#7e5e24"
     d="m 492.49,825.12162 c -22.42,-7.31 -51.95,-9.88 -69.91,8.58 -0.47,0.49 -1.05,1.82 -1.68,2.42 q -0.55,0.51 -0.24,-0.17 c 4.75,-10.7 18.72,-17.02 29.42,-18.53 16.18,-2.28 28.44,1.14 43.94,7.36 q 0.35,0.14 -0.01,0.25 -0.91,0.29 -1.52,0.09 z"
     id="path218" />
  <path
     fill="#000000"
     d="m 573.72,862.98162 q 20.69,35.03 44.47,66.67 6.11,8.12 12.86,15.7 a 1.61,1.61 0 0 0 1.92,0.37 c 27.56,-13.79 65.07,-23.94 95.88,-17.2 q 27.87,6.11 50.26,24.48 c 3.53,2.9 11.9,10.46 12.94,14.89 q 0.43,1.81 -1.41,2.12 -14.51,2.39 -29.32,3.3 -51.7,3.18 -84.07,3.42 c -2.97,0.02 -9.31,-8.62 -11.3,-11.16 q -1.24,-1.58 -1.43,0.41 l -0.55,5.87 q -1.32,0.22 -2.26,-0.8 -0.32,-0.34 -0.26,-0.81 l 1.25,-9.99 a 0.95,0.95 0 0 1 1.64,-0.52 c 4.38,4.79 7.85,10.18 13.42,13.64 a 1.62,1.57 57.2 0 0 0.94,0.22 q 12.15,-0.93 24.31,-0.56 c 6.19,0.19 11.9,-0.67 17.88,-1.4 10.21,-1.24 21.03,-0.29 31.05,-0.85 q 4,-0.23 6.89,0.1 a 1.86,1.87 36.4 0 0 0.98,-0.15 q 4.37,-1.91 7.69,-1.88 10.79,0.08 18.96,-2.32 0.57,-0.17 0.49,-0.75 -0.05,-0.42 -0.4,-0.78 -2.21,-4.35 -5.75,-6.91 -21.19,-19.3 -48.53,-26.17 c -29.4,-7.39 -61.93,0.12 -89.04,12.12 q -5.33,1.22 -10.1,4.68 a 1.18,1.17 33.4 0 1 -0.95,0.19 c -3.49,-0.81 -10.33,-10.31 -12.32,-12.93 -10.78,-14.16 -21.33,-28.42 -30.94,-43.6 q -9.03,-14.25 -18.24,-28.89 1.92,-0.93 3.04,-0.51 z"
     id="path219" />
  <path
     fill="#2a2a2a"
     d="m 570.68,863.49162 q 9.21,14.64 18.24,28.89 c 9.61,15.18 20.16,29.44 30.94,43.6 1.99,2.62 8.83,12.12 12.32,12.93 a 1.18,1.17 33.4 0 0 0.95,-0.19 q 4.77,-3.46 10.1,-4.68 -0.31,1.1 1.22,2.48 9.81,6.76 19.08,9.52 c 9.78,2.92 23.35,4.2 35.07,7.71 q 21.07,6.31 40.58,4.77 17.95,-1.42 35.93,-2.44 c 2.16,-0.13 3.11,-1.24 5.59,-0.85 q 2.95,0.47 5.85,-0.23 0.35,0.36 0.4,0.78 0.08,0.58 -0.49,0.75 -8.17,2.4 -18.96,2.32 -3.32,-0.03 -7.69,1.88 a 1.86,1.87 36.4 0 1 -0.98,0.15 q -2.89,-0.33 -6.89,-0.1 c -10.02,0.56 -20.84,-0.39 -31.05,0.85 -5.98,0.73 -11.69,1.59 -17.88,1.4 q -12.16,-0.37 -24.31,0.56 a 1.62,1.57 57.2 0 1 -0.94,-0.22 c -5.57,-3.46 -9.04,-8.85 -13.42,-13.64 a 0.95,0.95 0 0 0 -1.64,0.52 l -1.25,9.99 q -0.06,0.47 0.26,0.81 0.94,1.02 2.26,0.8 l -0.5,4.58 q -0.05,0.44 -0.49,0.43 l -41.79,-0.5 q -0.52,-0.01 -0.83,-0.42 l -1.89,-2.52 q 1.75,-0.03 2.36,-1.22 0.24,-0.47 -0.08,-0.89 c -20.9,-27.28 -41.66,-55.46 -64.07,-80.89 -2.86,-3.24 -8.08,-7.98 -13.46,-14.09 q -1.11,-1.26 -2.37,-1.87 l 0.43,-0.4 q 0.36,-0.33 0.85,-0.39 c 5.42,-0.61 10.73,-1.31 15.06,-4.98 q 0.37,-0.32 0.85,-0.41 c 2.91,-0.56 5.28,-0.99 7.97,-2.55 q 2.75,-1.6 4.67,-2.24 z"
     id="path220" />
  <path
     fill="#000000"
     d="m 540.85,874.46162 q 1.26,0.61 2.37,1.87 c 5.38,6.11 10.6,10.85 13.46,14.09 22.41,25.43 43.17,53.61 64.07,80.89 q 0.32,0.42 0.08,0.89 -0.61,1.19 -2.36,1.22 c -24.5,-33.67 -50.34,-68.03 -79.47,-97.84 q 0.48,-0.96 1.85,-1.12 z"
     id="path221" />
  <path
     fill="#000000"
     d="m 399.47,886.13162 c 24.45,20.51 46.46,43.14 63.65,70.09 a 0.65,0.65 0 0 1 -0.6,1 c -9.5,-0.72 -18.27,-3.82 -27.45,-5.43 l -6.58,-1.86 -2.38,-0.92 a 0.43,0.43 0 0 1 -0.14,-0.71 q 0.47,-0.46 1.29,-0.35 1.16,0.15 2.36,-0.1 l 27.37,6.56 q 2.25,0.54 0.99,-1.4 c -16.56,-25.6 -39.68,-48.34 -63.6,-67.15 q 0.65,-2.19 5.09,0.27 z"
     id="path222" />
  <path
     fill="#2a2a2a"
     d="m 441.67,889.22162 q -0.53,0.63 0.28,1.28 0.39,0.31 0.62,0.75 7.26,13.66 14.5,27.33 c 2.69,5.08 6.23,10.47 9.16,15.85 6.13,11.21 14.1,21.43 21.23,32.02 3.2,4.77 5.96,9.87 8.68,14.8 a 1.88,1.88 0 0 1 -1.27,2.75 q -6.78,1.39 -13.56,2.31 c -8.63,1.17 -19.17,0.87 -28.91,1.88 a 1.82,1.81 76.1 0 1 -1.87,-1.13 l -6.99,-17.27 a 0.96,0.96 0 0 0 -1.62,-0.27 q -6.79,7.87 -12.64,16.62 c -0.99,1.48 -2.1,2.41 -3.53,3.41 q -0.37,0.27 -0.83,0.29 l -16.14,0.77 q -0.47,0.02 -0.64,0.46 l -0.67,1.69 q -0.04,0.1 -0.14,0.1 -0.16,0 -0.34,-0.01 a 0.20387118,0.07135491 27.2 0 0 0.2,0.22 q 0.34,0.06 0.57,0.21 l -33.07,0.58 h -0.96 -11.06 -55.73 l -0.86,-0.24 q -0.58,-0.17 -0.3,-0.7 c 10.98,-20.69 44.72,-36.73 66.13,-43.74 19,-6.23 38.33,-6.39 57.71,-1.33 q -1.2,0.25 -2.36,0.1 -0.82,-0.11 -1.29,0.35 a 0.43,0.43 0 0 0 0.14,0.71 l 2.38,0.92 c -3.47,-0.76 -9.21,-2.71 -12.54,-1.86 -5.35,-0.38 -10.85,-1.31 -15.96,-1.12 -27.97,1.04 -57.07,15.02 -78.92,32.73 q -6.13,4.97 -11.13,11.09 a 0.47,0.47 0 0 0 0.19,0.74 l 1.23,0.51 q 21.03,0.4 42.33,-1.08 2.24,-0.16 7.78,-1.56 c 2.53,-0.64 5.48,-0.71 8.25,-1.49 3.61,-1.02 6.73,-0.98 10.52,-1.61 q 9.27,-1.52 21.7,-2.01 c 9.25,-0.37 14.38,-4.55 20.88,-10.65 7.47,-7.02 12.67,-11.31 12.25,-21.83 9.18,1.61 17.95,4.71 27.45,5.43 a 0.65,0.65 0 0 0 0.6,-1 c -17.19,-26.95 -39.2,-49.58 -63.65,-70.09 q 2.89,-0.35 5.87,0.16 0.54,0.09 3.66,1.29 c 2.65,1.01 6.79,0.38 8.74,0.47 q 2.4,0.11 4.83,-0.17 0.55,-0.07 1.05,0.17 2.57,1.22 5.19,0.12 0.49,-0.21 0.99,-0.05 1.25,0.41 3.01,0.13 4.22,-0.68 8.86,0.97 z"
     id="path223" />
  <path
     fill="#000000"
     d="m 441.67,889.22162 q 2.3,0.07 2.39,-0.33 c 13.02,24.14 20.26,39.51 32.76,57.62 8.02,11.61 17.13,23.48 22.45,36.62 a 1.84,1.83 69 0 1 -1.07,2.41 q -7.7,2.8 -16.44,3.44 -15.96,1.15 -31.94,2.09 -0.53,0.04 -0.73,-0.46 l -6.71,-16.72 q -0.4,-1 -1.03,-0.13 l -12.43,17.34 q -0.77,1.06 -2.07,1.13 l -19.09,1.05 q -0.23,-0.15 -0.57,-0.21 a 0.20387118,0.07135491 27.2 0 1 -0.2,-0.22 q 0.18,0.01 0.34,0.01 0.1,0 0.14,-0.1 l 0.67,-1.69 q 0.17,-0.44 0.64,-0.46 l 16.14,-0.77 q 0.46,-0.02 0.83,-0.29 c 1.43,-1 2.54,-1.93 3.53,-3.41 q 5.85,-8.75 12.64,-16.62 a 0.96,0.96 0 0 1 1.62,0.27 l 6.99,17.27 a 1.82,1.81 76.1 0 0 1.87,1.13 c 9.74,-1.01 20.28,-0.71 28.91,-1.88 q 6.78,-0.92 13.56,-2.31 a 1.88,1.88 0 0 0 1.27,-2.75 c -2.72,-4.93 -5.48,-10.03 -8.68,-14.8 -7.13,-10.59 -15.1,-20.81 -21.23,-32.02 -2.93,-5.38 -6.47,-10.77 -9.16,-15.85 q -7.24,-13.67 -14.5,-27.33 -0.23,-0.44 -0.62,-0.75 -0.81,-0.65 -0.28,-1.28 z"
     id="path224" />
  <path
     fill="#6f6f6f"
     d="m 780.8,958.09162 q -0.03,0.29 -0.14,0.46 -0.25,0.44 -0.66,0.14 -3.2,-2.37 -10.22,-5.8 c -34.05,-16.69 -71.83,-21.78 -108.13,-11.4 q -8.67,2.48 -17.2,5.03 -1.53,-1.38 -1.22,-2.48 c 27.11,-12 59.64,-19.51 89.04,-12.12 q 27.34,6.87 48.53,26.17 z"
     id="path225" />
  <path
     fill="#3d3d3d"
     d="m 780.8,958.09162 q 3.54,2.56 5.75,6.91 -2.9,0.7 -5.85,0.23 c -2.48,-0.39 -3.43,0.72 -5.59,0.85 q -17.98,1.02 -35.93,2.44 -19.51,1.54 -40.58,-4.77 c -11.72,-3.51 -25.29,-4.79 -35.07,-7.71 q -9.27,-2.76 -19.08,-9.52 8.53,-2.55 17.2,-5.03 c 36.3,-10.38 74.08,-5.29 108.13,11.4 q 7.02,3.43 10.22,5.8 0.41,0.3 0.66,-0.14 0.11,-0.17 0.14,-0.46 z"
     id="path226" />
  <path
     fill="#6f6f6f"
     d="m 415.95,948.07162 1.05,0.07 q 0.25,0.02 0.25,0.26 v 0.43 q 0,0.39 -0.39,0.38 c -16.22,-0.29 -35.33,2.27 -50.18,9.12 -3.42,1.58 -7.63,2.66 -10.42,3.98 -15.59,7.36 -32.63,17.06 -44.9,29.71 l -1.23,-0.51 a 0.47,0.47 0 0 1 -0.19,-0.74 q 5,-6.12 11.13,-11.09 c 21.85,-17.71 50.95,-31.69 78.92,-32.73 5.11,-0.19 10.61,0.74 15.96,1.12 z"
     id="path227" />
  <path
     fill="#3d3d3d"
     d="m 428.49,949.93162 6.58,1.86 c 0.42,10.52 -4.78,14.81 -12.25,21.83 -6.5,6.1 -11.63,10.28 -20.88,10.65 q -12.43,0.49 -21.7,2.01 c -3.79,0.63 -6.91,0.59 -10.52,1.61 -2.77,0.78 -5.72,0.85 -8.25,1.49 q -5.54,1.4 -7.78,1.56 -21.3,1.48 -42.33,1.08 c 12.27,-12.65 29.31,-22.35 44.9,-29.71 2.79,-1.32 7,-2.4 10.42,-3.98 14.85,-6.85 33.96,-9.41 50.18,-9.12 q 0.39,0.01 0.39,-0.38 v -0.43 q 0,-0.24 -0.25,-0.26 l -1.05,-0.07 c 3.33,-0.85 9.07,1.1 12.54,1.86 z"
     id="path228" />
  <path
     fill="#000000"
     d="M 373.73,993.86162 H 362.67 Z"
     id="path229" />
  <g
     id="g229"
     transform="translate(-3.2428457,-26.949824)">
    <path
       id="Shape_1_"
       class="st1"
       d="M 424.62783,151.90013 296.2354,47.58091 c -3.53211,-2.943681 -4.85123,-7.718427 -3.33536,-12.015416 1.51587,-4.29699 5.53896,-7.187144 10.13628,-7.262969 l 323.02904,-1.352701 c 2.60949,0.0064 5.16445,0.90777 7.20037,2.540101 L 883.94284,233.23137 c 3.53212,2.94368 4.85123,7.71843 3.33536,12.01542 -1.51586,4.29699 -5.53895,7.18714 -10.13628,7.26296 l -73.892,0.31154 -32.01738,0.0662 -59.59453,0.13181 L 424.6688,151.78399 Z"
       style="fill:#191919;stroke-width:1.23149" />
    <path
       id="Shape_8_"
       style="fill:#3a3a3a;stroke-width:1.23149"
       class="st3"
       d="m 469.88086,101.72852 c -17.204,-0.54849 -28.3275,2.19377 -30.58594,8.5957 l -39.78125,112.76562 a 152.21275,32.634613 19.431528 0 1 154.40039,19.86328 152.21275,32.634613 19.431528 0 1 132.68555,81.41407 l 39.78125,-112.76758 c 6.02249,-17.0718 -53.36553,-53.432 -132.68555,-81.41406 -49.57501,-17.48879 -95.14112,-27.54289 -123.81445,-28.45703 z" />
    <path
       id="Shape_9_"
       class="st4"
       d="m 790.94094,257.35897 c -5.6906,-2.0075 -8.58109,-8.2507 -6.61456,-13.82517 l 23.72127,-67.24208 c 2.0075,-5.6906 8.2507,-8.58109 13.82518,-6.61456 5.57447,1.96653 8.58109,8.2507 6.61456,13.82517 l -23.72127,67.24208 c -2.0075,5.69061 -8.13457,8.62206 -13.82518,6.61456 z"
       style="fill:#edc100;stroke-width:1.23149" />
    <path
       id="Shape_10_"
       class="st5"
       d="M 766.77977,260.32726 755.92288,291.103 c -2.0075,5.6906 1.04009,11.85864 6.61456,13.82517 l 20.55587,7.25158 c 5.69061,2.0075 11.85864,-1.04009 13.82518,-6.61456 l 10.85688,-30.77574 c 4.015,-11.38121 -1.92307,-23.79245 -13.30429,-27.80745 -11.38121,-4.015 -23.71728,2.08018 -27.69131,13.34526 z"
       style="fill:#f1d24b;stroke-width:1.23149" />
  </g>
</svg>
