<?xml version="1.0" encoding="UTF-8" standalone="no"?>
<svg
   version="1.1"
   viewBox="0 0 413.57431 558.07489"
   id="svg142"
   sodipodi:docname="diploma_01.svg"
   width="413.57431"
   height="558.07489"
   inkscape:version="1.3 (0e150ed6c4, 2023-07-21)"
   xmlns:inkscape="http://www.inkscape.org/namespaces/inkscape"
   xmlns:sodipodi="http://sodipodi.sourceforge.net/DTD/sodipodi-0.dtd"
   xmlns="http://www.w3.org/2000/svg"
   xmlns:svg="http://www.w3.org/2000/svg">
  <defs
     id="defs142" />
  <sodipodi:namedview
     id="namedview142"
     pagecolor="#ffffff"
     bordercolor="#666666"
     borderopacity="1.0"
     inkscape:showpageshadow="2"
     inkscape:pageopacity="0.0"
     inkscape:pagecheckerboard="0"
     inkscape:deskcolor="#d1d1d1"
     inkscape:zoom="1.1601394"
     inkscape:cx="48.270061"
     inkscape:cy="286.60349"
     inkscape:window-width="1920"
     inkscape:window-height="1017"
     inkscape:window-x="-8"
     inkscape:window-y="-8"
     inkscape:window-maximized="1"
     inkscape:current-layer="svg142" />
  <path
     fill="#d7d4bf"
     d="m 46.34671,75.202338 q 2.28,1.37 -1,5.31 l -8.67,5.41 q -2.53,1.29 -5.11,1.36 -1.11,-0.18 -1.42,-0.59 -0.2,-0.25 0.11,-0.35 l 0.51,-0.16 q 0.48,-0.15 0.39,-0.65 c -2.23,-12.35 -5.2,-24.5 -7.74,-36.78 q -1.21,-5.8 -2.51,-11.57 c -0.26,-1.14 0.01,-2.38 -0.29,-3.53 -1.42,-5.33 -2.11,-10.98 -3.33,-16.4 -0.53,-2.35 -0.4,-4.3 2.02,-5.19 q 0.52,-0.19 0.5,-0.74 -0.09,-3.6600004 -1.96,-7.3700004 c 3.39,-2.19 13.5,-7.35 14.84,-0.59 q 6.97,35.2100004 13.66,71.8400004 z"
     id="path1" />
  <path
     fill="#a1a1a1"
     d="m 17.84671,3.9523376 q 1.87,3.71 1.96,7.3700004 0.02,0.55 -0.5,0.74 c -2.42,0.89 -2.55,2.84 -2.02,5.19 1.22,5.42 1.91,11.07 3.33,16.4 0.3,1.15 0.03,2.39 0.29,3.53 q 1.3,5.77 2.51,11.57 c 2.54,12.28 5.51,24.43 7.74,36.78 q 0.09,0.5 -0.39,0.65 l -0.51,0.16 q -0.31,0.1 -0.11,0.35 0.31,0.41 1.42,0.59 -3.35,0.79 -5.68,-0.68 -0.29,-4.49 -1.22,-8.88 -6.76,-31.84 -13.71,-63.65 c -1.0699998,-4.9000004 2.8,-8.5700004 6.89,-10.1200004 z"
     id="path2" />
  <rect
     fill="#666666"
     x="10.645068"
     y="24.274853"
     transform="rotate(-39.7)"
     width="10.5"
     height="0.88"
     rx="0.25999999"
     id="rect2" />
  <path
     fill="#4b3522"
     d="m 70.16671,129.97234 q -1.11,0.87 0.47,1.58 c 2.58,6.15 7.29,17.97 5.57,23.95 -0.93,3.23 -6.44,8.75 -5.12,13.15 7.76,25.83 22.91,47.18 42.89,65.1 a 1.04,1.03 37.8 0 0 1.55,-0.19 c 5.89,-8.77 8.3,-15.96 10.57,-28.28 q 1.58,-8.59 3.02,-17.25 0.77,-0.82 2.56,-1.22 c -1.75,12.76 -3.53,25.92 -8.69,37.66 -1.55,3.53 -4.04,7.08 -6.14,10.65 q -0.28,0.47 0.13,0.83 l 7.53,6.77 3.16,3.64 q 0.38,0.44 0.77,0.01 l 2.56,-2.84 a 0.42,0.42 0 0 1 0.7,0.46 q -1.23,2.6 -3.24,4.5 l -1.65,1 a 0.93,0.93 0 0 1 -0.9,0.04 q -2.87,-1.4 -6.07,-4.57 c -22.11,-21.96 -41.74,-41.64 -50.18,-71.97 q -0.02,-0.1 -0.98,-2.36 c -1.18,-2.81 1.58,-6.88 2.97,-9.33 4.84,-8.49 -4.38,-26.94 -8.42,-36.15 -5.77,-13.15 5.9,-25.630002 9.57,-37.410002 q 1.5,-4.83 1.95,-9.77 a 0.48,0.47 55.3 0 0 -0.93,-0.17 c -1.33,4.92 -2.17,11.69 -4.82,15.85 a 0.65,0.65 0 0 1 -1.18,-0.48 q 1.82,-9.03 4.98,-16.95 0.84,-2.1 0.47,-3.9 -2.19,-10.64 -14.17,-8.16 c -6.14,2.86 -12.42,10.15 -10.58,17.57 a 1.02,1.04 58.7 0 1 -0.23,0.91 c -3.84,4.24 -0.19,19.460002 -1.7,25.870002 q -2.04,-7.13 -1.26,-15.750002 -0.35,-4.42 1.16,-9.45 0.31,-1.04 -1.14,-2.8 3.28,-3.94 1,-5.31 5.61,-9.37 13.69,-14.04 c 6.97,-4.03 15.77,-0.07 17,8.07 q 1,6.56 -0.25,12.59 c -1.34,6.52 -6.34,14.56 -8.04,19.050002 q -3.04,8.05 -3.21,16.77 c -0.08,4.02 2.91,8.51 4.63,12.33 z"
     id="path3" />
  <path
     fill="#f8e2c9"
     d="m 128.45671,248.49234 q 0.55,0.1 0.82,0.46 0.32,0.4 -0.08,0.72 l -4.71,3.75 q -0.38,0.3 -0.86,0.35 c -12.62,1.31 -40.71,-42.21 -48.26,-55.21 -5.27,-9.07 -8.54,-14.48 -10.11,-23.04 -0.72,-3.97 0.15,-9.37 0.9,-13.56 1.82,-10.1 1.12,-26.97 -7,-35.08 q -0.37,-0.36 -0.39,-0.88 c -0.34,-10.07 3.48,-21.46 7.97,-30.200002 q 0.23,-0.45 0.08,-0.94 c -1.07,-3.44 3.08,-16.08 5.04,-19.32 q 0.9,-1.49 0.59,-2.7 -2.53,-9.7 -12.47,-7.37 -0.78,0.18 -0.88,-1.31 11.98,-2.48 14.17,8.16 0.37,1.8 -0.47,3.9 -3.16,7.92 -4.98,16.95 a 0.65,0.65 0 0 0 1.18,0.48 c 2.65,-4.16 3.49,-10.93 4.82,-15.85 a 0.48,0.47 55.3 0 1 0.93,0.17 q -0.45,4.94 -1.95,9.77 c -3.67,11.78 -15.34,24.260002 -9.57,37.410002 4.04,9.21 13.26,27.66 8.42,36.15 -1.39,2.45 -4.15,6.52 -2.97,9.33 q 0.96,2.26 0.98,2.36 c 8.44,30.33 28.07,50.01 50.18,71.97 q 3.2,3.17 6.07,4.57 a 0.93,0.93 0 0 0 0.9,-0.04 z"
     id="path4" />
  <path
     fill="#f0c592"
     d="m 59.09671,64.162338 q 0.1,1.49 0.88,1.31 9.94,-2.33 12.47,7.37 0.31,1.21 -0.59,2.7 c -1.96,3.24 -6.11,15.88 -5.04,19.32 q 0.15,0.49 -0.08,0.94 c -4.49,8.740002 -8.31,20.130002 -7.97,30.200002 q 0.02,0.52 0.39,0.88 c 8.12,8.11 8.82,24.98 7,35.08 -0.75,4.19 -1.62,9.59 -0.9,13.56 1.57,8.56 4.84,13.97 10.11,23.04 7.55,13 35.64,56.52 48.26,55.21 q 0.48,-0.05 0.86,-0.35 l 4.71,-3.75 q 0.4,-0.32 0.08,-0.72 -0.27,-0.36 -0.82,-0.46 2.01,-1.9 3.24,-4.5 a 0.42,0.42 0 0 0 -0.7,-0.46 l -2.56,2.84 q -0.39,0.43 -0.77,-0.01 l -3.16,-3.64 q 1.27,-4.61 3.19,-9.57 c 5.41,-14.04 7.62,-30.68 8.88,-45.42 q 0.13,-1.48 1.54,-1.98 25.36,-8.94 47.64,-23.58 2.88,-2.93 8.07,-4.62 4.14,0.83 8.64,-2.42 a 0.9,0.9 0 0 1 0.8,-0.12 q 1.24,0.42 1.8,-0.46 0.3,-0.47 0.84,-0.56 7.3,-1.26 12.48,-3.58 2.56,-1.16 4.09,-1.36 0.17,-0.03 0.29,-0.15 l 0.37,-0.36 q 0.3,-0.3 0.71,-0.42 3.26,-0.91 6.57,-1.64 0.15,-0.04 0.24,-0.19 0.14,-0.22 0.39,-0.3 l 13.5,-4.07 a 0.57,0.57 0 0 1 0.68,0.78 l -0.18,0.4 q -0.12,0.28 0.03,0.54 c 2.09,3.55 2.19,8.64 6.44,8.99 q 0.52,0.04 0.65,0.28 0.17,0.31 0.05,0.86 c -6.76,0.02 -14.19,3.23 -16.41,10.26 q -0.2,0.65 0.46,0.49 3.79,-0.91 8.17,-0.03 -2.5,1.17 -5.8,0.86 -0.74,-0.07 -0.37,0.58 0.26,0.45 1.06,0.51 6.13,0.48 12.57,3 0.49,0.19 0.66,0.67 l 1.95,5.4 c -9.72,0.48 -19.22,4.05 -24.55,12.72 q -0.27,0.44 -0.66,0.11 c -23.03,-19.15 -47.23,5.09 -48.73,28.42 q 0.32,1.77 -1.49,1.92 a 0.59,0.58 88.4 0 0 -0.54,0.58 c -0.47,20.61 7.76,30.04 28.65,30.9 6.49,0.27 10.57,0.86 14.94,-2.52 q -0.05,-0.94 0.52,-1.36 0.54,-0.38 0.81,0.22 l 0.28,0.6 q -0.25,3.91 1.01,6.82 a 0.91,0.91 0 0 0 1.74,-0.34 l 0.25,-9.95 3.19,-9.1 a 0.86,0.92 73.5 0 1 0.2,-0.34 q 8.5,-9.28 16.63,-1.87 c 3.35,3.05 5.7,5.94 5.68,10.44 a 0.51,0.51 0 0 0 0.93,0.29 l 0.39,-0.58 q 0.37,4.6 1.97,7.46 1.17,0.14 0.93,4.08 a 0.77,0.77 0 0 0 1.35,0.55 q 4.65,-5.23 3.45,-12.26 a 1.31,1.3 58.5 0 1 0.23,-0.98 l 4.41,-6.08 1.6,0.13 a 0.79,0.79 0 0 1 0.71,0.63 q 8.09,39.19 12.13,78.99 0.05,0.53 0.45,0.88 l 0.83,0.72 q -11.71,5.26 -24.33,7.5 0.34,-0.58 0.05,-0.9 -0.38,-0.44 -0.96,-0.37 c -28.17,3.43 -58.86,-6.88 -81.65,-22.91 -1.93,-1.36 -3.7,-3.63 -5.5,-4.79 -7.65,-4.94 -13.71,-11.81 -19.84,-18.47 a 0.87,0.89 36.4 0 1 -0.14,-0.99 l 1.63,-3.31 q 0.21,-0.41 -0.2,-0.63 -0.28,-0.16 -0.69,-0.21 l 2.6,-6.47 a 0.54,0.54 0 0 0 -0.9,-0.56 q -2.38,2.59 -4.16,6.04 -5.48,10.62 -10.88,21.64 a 0.47077064,0.47077064 0 0 0 0.81,0.48 l 6,-8.44 q 0.68,0.13 1.01,1.32 -0.94,0.99 -1.24,2.05 -0.14,0.46 0.07,0.89 3.9,7.97 10.83,13.52 a 1.02,1.03 34.4 0 1 0.24,1.32 q -3.59,6.02 -5.81,13.04 -10.58,33.4 2.93,64.51 c 4.4,10.13 9.31,16.45 20.28,17.81 q 4.76,0.59 5.71,-2.96 c 13.71,3.76 28.24,-0.41 39.51,-7.94 q 32.17,-21.48 41.48,-59.93 0.12,-0.5 0.57,-0.72 0.76,-0.36 1.74,-0.37 0.34,0.84 0.24,1.46 -0.26,1.54 1.27,1.23 l 17.25,-3.42 a 1.35,1.35 0 0 1 1.62,1.25 c 2.59,44.71 1.86,89.91 -3.55,134.55 q -0.05,0.4 -0.32,0.1 l -1.67,-1.86 c 1.26,-3.46 1.03,-10.41 -4,-10.23 -4.53,0.16 -7.38,6.83 -8.09,10.63 q -0.09,0.49 -0.55,0.66 c -2.87,1.06 -12.1,6.82 -9.32,10.81 a 1.66,1.65 70.7 0 0 1.44,0.7 q 6.24,-0.34 11.96,-0.82 c 5.58,-0.46 9.67,-1.94 10.06,-7.96 q 0.16,-0.52 0.89,-0.24 a 0.66,0.66 0 0 1 0.42,0.72 c -0.55,3.3 -2.42,5.81 -3.04,8.85 q -3.01,14.73 -8.79,28.57 a 0.62,0.61 14.9 0 0 0.5,0.85 q 7.66,0.91 15.45,0.71 2.2,-0.06 3.64,0.68 0.42,0.22 0.85,0.03 1.65,-0.72 3.47,-0.71 l -0.03,1.8 q -8.29,0.28 -20.69,-1.02 -5.84,-0.62 -12.95,1.7 0.03,-0.97 -0.41,-1.47 -0.33,-0.39 -0.78,-0.16 -6.93,3.49 -11.82,9.48 a 1.14,1.13 19.1 0 1 -0.89,0.43 c -25.41,0.11 -44.83,-3.38 -71.82,-8.63 q -4.04,-0.78 -17.03,-1.83 -9.81,-4.77 -24.11,-13.73 -1.01,-0.63 -5.17,-2.45 0.16,-1.38 -0.13,-3.29 c -0.7,-4.68 -6.53,-7.55 -9.32,-10.22 -14.64,-14.06 -22.24,-33.42 -27.77,-52.9 q -0.14,-0.49 0.35,-0.62 l 1.02,-0.26 a 0.38,0.39 43.3 0 0 -0.02,-0.75 l -1.7,-0.33 c 2.36,0.09 8.8,1.12 10.06,-1.07 l 0.61,0.16 a 0.82,0.82 0 0 0 0.93,-1.18 q -1.28,-2.38 -3.31,-4.05 c -6.11,-5.06 -10.27,-11.56 -12.03,-19.11 q -6.32,-27 -0.17,-55.48 4.48,0.26 6.02,-0.41 3.54,-1.53 2.47,-3.19 1.15,-0.2 1.59,-2.02 0.11,-0.47 -0.2,-0.85 c -7.96,-9.78 -3.09,-21.66 1.57,-32.06 q 11.79,1.33 13.77,-9.99 0.47,-2.64 -2.09,-4.7 0.49,-0.88 1.09,-0.39 l 7.01,3.17 q 0.44,0.2 0.87,0 0.91,-0.41 0.82,-1.65 0.93,-2.4 -0.12,-5.72 l 0.84,0.06 q 0.41,0.02 0.54,0.41 0.34,1 1.52,0.82 0.47,-0.08 0.77,-0.44 c 2.14,-2.62 -0.8,-7.92 -2.47,-10.85 q -5.52,-9.63 -11.56,-18.96 -20.6,-31.77 -52.02,-52.87 -0.42,-0.28 -0.2,-0.74 4.82,-10.07 3.76,-21.25 -0.12,-1.31 -0.94,-0.27 -0.49,0.61 -0.19,1.16 0.26,0.48 -0.19,0.81 l -1.23,0.89 -0.79,-4.12 q -0.14,-0.7 -0.67,-0.23 c -0.96,0.85 -1.51,1.76 -1.55,3.16 -0.12,5.46 -0.04,20.15 -7.32,22.11 q -3.4,0.91 -6.72,1.07 -1.46,-2.66 -2.42,-3.22 -8.65,-5.01 -13.98,-14 a 0.85,0.84 73.9 0 1 0.7,-1.28 q 4.64,-0.16 4.05,-2.5 8.57,-6.33 5.85,-16.91 -0.13,-0.51 0.39,-0.42 c 12.17,2.07 11.6,-15.31 10.45,-22.29 q -0.08,-0.47 0.37,-0.64 c 12.41,-4.81 11.9,-21.59 3.55,-29.83 l -0.28,-1.67 c 1.51,-6.41 -2.14,-21.630002 1.7,-25.870002 a 1.02,1.04 58.7 0 0 0.23,-0.91 c -1.84,-7.42 4.44,-14.71 10.58,-17.57 z"
     id="path5" />
  <path
     fill="#000000"
     d="m 258.07671,98.152338 q -3.99,-3.35 -11.34,-4.32 c -15.49,-2.03 -32.04,-1.26 -47.7,-1.57 q -1.06,-0.02 -0.19,-0.61 l 0.71,-0.49 a 1.56,1.57 36.4 0 0 -0.42,-2.79 q -8.84,-2.71 -15.79,0.96 c -10.45,5.51 -3.8,16.800002 3.98,11.030002 q 0.39,-0.3 0.88,-0.27 c 17.96,0.99 36.86,0.61 55.98,1.95 8.87,0.62 12.7,29.3 13.81,38.39 q -8.37,-1.41 -16.2,0.2 -21.44,2.95 -40.31,13.11 l -7.66,3.81 q -5.19,1.69 -8.07,4.62 -5.99,2.24 -15.58,7.58 -16.74,9.34 -38.5,17.06 -1.79,0.4 -2.56,1.22 -0.4,-1.03 -1.93,-0.5 -6.32,2.16 -12.94,3.5 a 1.3,1.31 81.4 0 1 -1.56,-1.15 c -2.24,-21.89 0.7,-45.61 17.06,-61.87 a 0.85,0.86 20.2 0 0 -0.67,-1.46 q -28.67,2.42 -57.59,4.04 -0.76,0.04 -0.85,0.96 -1.58,-0.71 -0.47,-1.58 48.31,-22.54 96.15,-45.810002 c 3.72,-1.81 13.59,-7.42 19.9,-7.85 39.52,-2.71 80.07,-4.09 119.51,-6.09 q 3.61,-0.19 0.44,1.55 z"
     id="path6" />
  <path
     fill="#f8e2c9"
     d="m 45.34671,80.512338 q 1.45,1.76 1.14,2.8 -1.51,5.03 -1.16,9.45 l -7.3,3.3 q 0.06,-1.73 -1.02,-3.07 a 0.82,0.75 25.4 0 1 -0.17,-0.42 l -0.31,-4.96 q -0.03,-0.44 0.29,-0.75 l 0.25,-0.26 q 0.35,-0.34 -0.09,-0.56 -0.12,-0.06 -0.3,-0.12 z"
     id="path7" />
  <path
     fill="#943927"
     d="m 36.67671,85.922338 q 0.18,0.06 0.3,0.12 0.44,0.22 0.09,0.56 l -0.25,0.26 q -0.32,0.31 -0.29,0.75 l 0.31,4.96 a 0.82,0.75 25.4 0 0 0.17,0.42 q 1.08,1.34 1.02,3.07 l -7.82,1.8 q -0.44,0.1 -0.47,0.55 l -0.28,3.700002 c 1.71,-9.380002 -9.51,-5.370002 -13.89,-3.940002 -1.65,0.54 -3.83,0.14 -5.28,1.960002 a 0.23,0.23 0 0 1 -0.3399998,0.02 q -0.1,-0.11 -0.21,-0.210002 a 0.06,0.05 49.7 0 1 0,-0.07 l 5.4199998,-5.42 q 0.37,0.29 1.07,-0.31 a 0.78,0.79 43.9 0 0 -0.02,-1.21 q -1.11,-0.88 -0.25,-1.95 0.48,-0.61 -0.24,-0.88 -1.11,-0.43 -2.23,-0.3 l 12.4,-3.2 q 2.33,1.47 5.68,0.68 2.58,-0.07 5.11,-1.36 z"
     id="path8" />
  <path
     fill="#f9c91a"
     d="m 258.07671,98.152338 0.89,2.640002 c 6,11.45 8.46,26.91 10.18,40.06 q 0.06,0.51 0.58,0.47 1.87,-0.16 3.09,0.47 1.78,2.25 2.13,4.12 0.8,5.6 -3.68,7.01 -0.45,0.14 -0.18,0.53 l 10.38,15.34 q 0.31,0.46 -0.05,0.88 l -3.66,4.34 q -1.71,-0.81 -1.9,1.86 a 0.82,0.8 83.8 0 1 -0.57,0.72 l -6.6,2.05 q -7.23,0.49 -13.46,-2.71 0.13,-0.47 0.34,-0.8 0.24,-0.37 0.23,-0.81 l -0.08,-3.46 q -0.02,-0.61 0.43,-1.03 0.93,-0.88 0.5,-1.85 l 1.23,-6.06 0.15,-1.63 q 0.98,-2.15 0.91,-4.47 -0.02,-0.51 -0.51,-0.66 l -3.32,-0.96 q -1.66,-7.68 3.31,-11.94 0.37,-0.32 0.31,-0.81 -0.11,-0.88 -0.73,-1.02 c -1.11,-9.09 -4.94,-37.77 -13.81,-38.39 -19.12,-1.34 -38.02,-0.96 -55.98,-1.95 q -0.49,-0.03 -0.88,0.27 c -7.78,5.77 -14.43,-5.520002 -3.98,-11.030002 q 6.95,-3.67 15.79,-0.96 a 1.56,1.57 36.4 0 1 0.42,2.79 l -0.71,0.49 q -0.87,0.59 0.19,0.61 c 15.66,0.31 32.21,-0.46 47.7,1.57 q 7.35,0.97 11.34,4.32 z"
     id="path9" />
  <path
     fill="#eaac71"
     d="m 13.48671,89.802338 q 1.12,-0.13 2.23,0.3 0.72,0.27 0.24,0.88 -0.86,1.07 0.25,1.95 a 0.78,0.79 43.9 0 1 0.02,1.21 q -0.7,0.6 -1.07,0.31 c -0.08,-2.71 -1.58,-2.7 -3.6,-3.64 q -0.67,-0.31 0,-0.62 0.82,-0.37 1.93,-0.39 z"
     id="path10" />
  <path
     fill="#d7d4bf"
     d="m 45.32671,92.762338 q -0.78,8.620002 1.26,15.750002 l 0.28,1.67 q -3.38,1.75 -5.6,-0.92 -0.27,-0.33 -0.66,-0.48 l -10.68,-4.2 q -0.48,-0.19 -0.62,-0.69 l -0.33,-1.2 q 0.34,-0.59 0.48,-0.58 l 0.28,-3.700002 q 0.03,-0.45 0.47,-0.55 l 7.82,-1.8 z"
     id="path11" />
  <path
     fill="#000000"
     d="m 258.96671,100.79234 c 11.46,10.56 19.37,23.27 26.14,37.08 a 1.69,1.69 0 0 1 -1.19,2.4 l -6.33,1.24 -4.77,0.28 q -1.22,-0.63 -3.09,-0.47 -0.52,0.04 -0.58,-0.47 c -1.72,-13.15 -4.18,-28.61 -10.18,-40.06 z"
     id="path12" />
  <path
     fill="#4b3522"
     d="m 28.97671,102.69234 0.33,1.2 q 0.14,0.5 0.62,0.69 l 10.68,4.2 q 0.39,0.15 0.66,0.48 2.22,2.67 5.6,0.92 c 8.35,8.24 8.86,25.02 -3.55,29.83 q -0.45,0.17 -0.37,0.64 c 1.15,6.98 1.72,24.36 -10.45,22.29 q -0.52,-0.09 -0.39,0.42 2.72,10.58 -5.85,16.91 -4.98,2.37 -10.2,0.36 -0.66,-0.26 -0.35,0.38 c 4.82,9.82 10.3,20.81 22.2,20.26 q 3.32,-0.16 6.72,-1.07 c 7.28,-1.96 7.2,-16.65 7.32,-22.11 0.04,-1.4 0.59,-2.31 1.55,-3.16 q 0.53,-0.47 0.67,0.23 l 0.79,4.12 q 0.47,12.23 -6.56,21.56 -0.3,0.39 0.1,0.67 c 28.67,20.03 49.84,49.15 67.83,79 q 1.05,3.32 0.12,5.72 l -0.39,0.4 q -0.53,0.54 -0.51,-0.21 0.03,-0.92 -0.32,-1.36 -6.96,-8.68 -12.46,-18.51 a 0.55,0.55 0 0 0 -1,0.08 l -1.67,4.67 -3.35,9.17 q -11.71,29.91 -15.54,41.32 -2.18,6.53 2.5,10.92 c 2.15,2.03 5.46,1.87 8.31,2.01 q 1.07,1.66 -2.47,3.19 -1.54,0.67 -6.02,0.41 l -3.27,-1.65 q -0.55,-0.28 -0.68,0.33 -6.51,30.67 -2.99,61.89 c 0.78,6.91 1.41,16.01 11.11,15.58 3.09,-0.14 9.8,-1.6 9.8,3.51 -1.26,2.19 -7.7,1.16 -10.06,1.07 l -5.07,0.18 q -0.55,0.02 -0.47,0.56 c 4.24,27.54 14.73,56.85 43.11,67.63 q 4.16,1.82 5.17,2.45 14.3,8.96 24.11,13.73 41.89,20.42 88.01,19.49 0.47,-0.01 0.62,-0.45 c 2.07,-6.23 8.62,-13.93 14.12,-16.86 q 7.11,-2.32 12.95,-1.7 12.4,1.3 20.69,1.02 7.06,-0.42 13.18,-3.51 0.46,-0.24 0.5,-0.76 c 0.91,-12.05 7.11,-20.88 15.83,-28.77 3.53,-2.58 7.79,-8.79 4.29,-12.89 q -1.8,-2.11 -4.98,-1.97 l -2.92,-1.19 q -0.56,-0.23 -0.16,-0.69 c 3.17,-3.62 6.89,-1.61 9.84,-2.95 q 6.44,-2.93 9.31,-7.7 0.76,-0.28 2,-2.31 c 4.84,-7.93 4.63,-14.48 5.32,-23.13 q 0.05,-0.53 -0.49,-0.46 -8.53,1.06 -9.93,-7.31 -0.08,-0.52 -0.6,-0.62 c -1.29,-0.25 -2.65,0.31 -3.64,0.18 -6.47,-0.85 -6.56,-6.08 -4.39,-11 4.11,-9.35 16.8,-12.32 12.37,-24.62 q -0.16,-0.45 -0.61,-0.59 -1.5,-0.48 -1.82,-1.81 -1.93,-8.03 -3.61,-16.05 a 0.62,0.62 0 0 0 -1.23,0.1 q -0.07,2.35 -1.04,3.88 -1.22,0.41 -1.3,-0.38 c -1.05,-10.99 -0.94,-21.91 -2.63,-32.63 0.25,-7.17 -1.45,-13.25 -2.2,-20.07 -0.68,-6.31 -2.13,-12.08 -3.32,-17.53 q -6.42,-29.56 -15.44,-52.31 -3.41,-8.6 -4.37,-13.43 -0.13,-0.65 -0.36,-0.94 -0.46,-0.58 -1.07,-0.3 a 1.29,1.29 0 0 0 -0.68,1.6 q 2.84,8.2 0.45,16.61 0.02,1.31 -0.75,1.59 a 0.77,0.77 0 0 1 -1.05,-0.75 l 0.43,-13.54 a 0.43,0.43 0 0 0 -0.81,-0.22 q -2.08,3.7 -5.94,6.47 l 0.86,-2.34 q 5.77,-5.55 6.52,-13.2 0.11,-1.06 -0.87,-1.68 -0.42,-0.27 -0.5,-0.77 c -0.55,-3.61 -0.07,-7.54 -0.42,-10.71 -2.11,-19.15 -6.63,-41.55 -16.46,-58.32 q -0.96,-1.63 -3.04,-2.17 -0.35,-1.87 -2.13,-4.12 l 4.77,-0.28 c 9.36,17.4 14.26,35.98 18.15,54.8 q 2.22,10.76 2.5,21.75 c 0.04,1.66 1.27,4.96 2.16,7.01 9.73,22.49 16.71,47.03 21.94,70.71 a 0.76,0.76 0 0 0 0.59,0.59 q 6.7,1.4 12.05,5.06 c 2.16,3.95 7.75,5.34 10.85,9.93 0.78,1.16 2.35,1.83 3.11,2.76 q 4.19,5.14 7.05,11.1 c 1.49,3.11 3.97,10.29 3.91,13.89 q -0.03,1.77 1.5,1.8 0.9,12.84 -4.94,23.52 -0.26,0.46 0.1,0.86 l 1.59,1.74 q 6.62,8.09 8.22,17.36 0.04,0.25 0.26,0.12 l 0.37,-0.22 a 0.12,0.11 79.3 0 1 0.17,0.12 c -0.65,3.33 0.71,5 -1.56,8 q -1.08,-12.72 -9.3,-22.32 l -3.44,-5.07 a 0.56,0.57 57 0 1 0.17,-0.79 q 0.65,-0.4 2.04,-0.17 c 11.05,-23.87 -4.45,-48.73 -24.78,-60.87 l -6.11,-3.73 a 0.5,0.5 0 0 0 -0.75,0.5 l 3.57,24.12 0.66,5.39 q 0.06,0.5 0.52,0.7 l 3.97,1.81 q 10.09,17.11 3.55,35 -0.24,0.65 0.34,1.03 l 1.77,1.2 a 1.77,1.88 1.8 0 1 0.61,0.69 c 3.37,6.5 1.45,12.63 -2.77,18.07 l -0.87,1.11 c -4.78,4.47 -13.02,10.95 -6.7,16.5 q 3.74,2.68 8.94,-0.08 c 5.5,-2.92 6.68,-8.65 8.77,-13.83 a 0.73,0.73 0 0 1 1.35,-0.01 q 0.75,1.8 -0.06,3.73 c -2.52,2.72 -3.58,6.17 -5.84,8.57 q -2.48,2.63 -5.38,4.77 -0.63,0.47 0.15,1.85 0.56,1.86 2.42,3.29 c 7.75,4.92 12.12,-3.01 13.92,-9.37 q 1.26,-3.84 4.15,-6.32 a 0.57,0.57 0 0 1 0.94,0.39 q 0.04,0.4 -0.18,0.86 -3.11,2.91 -2.45,7.47 c -1.96,2.94 2.36,4.78 4.65,4.41 -1.55,3.78 -4.61,0.86 -6.87,1.79 q -0.73,-1.24 -1.57,-0.75 -2.58,1.51 -5.26,4.75 a 1.31,1.34 62.5 0 0 -0.29,0.88 c 0.72,15.55 -6.06,26.17 -17.28,35.84 q -0.39,0.33 -0.25,0.83 0.88,3.08 2.4,3.04 -1.27,2.5 -1.39,5.2 -4.56,7.61 -11.11,13.99 c -6.47,6.3 -9.34,13.61 -9.6,22.69 q -0.01,0.48 0.44,0.3 c 20.31,-7.86 39.86,-0.68 45.66,21.53 -0.76,11.28 -6.91,20.26 -16.71,25.51 -10.78,3.73 -23.88,2.49 -34.66,-0.58 q -0.76,-0.21 -3.23,0.7 l -0.05,-0.48 q -0.06,-0.54 -0.58,-0.71 c -14.07,-4.54 -28.26,-9.73 -39.7,-9.95 -7.18,-0.13 -14.64,-1.11 -16.68,-8.82 q -0.13,-0.47 -0.62,-0.45 c -24.67,1.17 -49.17,-3.2 -72.42,-11.46 a 0.72,0.73 27.6 0 0 -0.83,0.27 c -4.71,6.61 -9.55,8.26 -18.04,9.56 -9.81,1.49 -17.57,3.9 -27.3,8.38 -6.05,2.79 -12.75,6.24 -19.56,6.42 q -8.52,0.22 -17.01,-0.56 c -3.91,-0.37 -8.49,0.95 -11.98,-0.27 q -5.12,-1.79 -8.76,-7.84 -4.7,-13.86 5.56,-26.93 0.5,0.77 1.03,0.58 c -7.95,11.24 -4.54,33.66 13.5,30.37 q 8.02,-0.09 15.69,0.42 c 7.73,0.51 12.16,-1.38 20.1,-5.13 q 10.01,-4.72 20.65,-7.73 c 5.81,-1.65 12.93,-1.78 19.38,-3.51 q 0.48,-0.13 0.8,-0.49 2.91,-3.23 1.71,-5.47 -17.75,-7.52 -33.17,-17.4 c -1.55,-1 -2.94,-2.36 -4.25,-3.65 q -0.36,-0.35 -0.85,-0.42 l -4.65,-0.66 q -0.62,-0.29 -1.31,-0.31 a 1.24,1.28 25.8 0 0 -0.85,0.31 c -9.22,8.06 -23.74,11.1 -35.49,10.13 q 1.81,-1.23 2.67,-3.95 c 10.01,-0.55 18.53,0.66 27.63,-5.6 q 1.99,-0.68 2.7,-1.42 0.54,-0.55 -0.17,-0.86 l -6.47,-2.88 q 0.36,-1.57 -2.07,-1.35 l 0.34,-0.33 q 0.33,-0.32 -0.05,-0.58 -0.19,-0.13 -0.38,-0.2 -0.25,-0.1 -0.38,-0.23 c -18.05,-16.58 -26.82,-40.86 -29.14,-64.72 q -0.05,-0.51 -0.38,-0.91 -3.9,-4.68 -4.76,-11.96 -3.19,-26.76 1.2,-55.67 1.48,-9.74 3.46,-15.86 a 1.74,1.73 47 0 0 0.03,-0.95 q -1.51,-6.01 0.35,-11.02 10.66,-28.79 22.49,-57.54 a 1.54,1.56 39.2 0 0 -0.14,-1.44 c -14.63,-22.15 -31.92,-43.08 -53.27,-59.19 q -1.36,-1.03 -2.49,-1.64 -0.45,-0.24 -0.92,-0.02 c -9.22,4.29 -18.45,3.45 -24.46,-5.34 q -6.15,-8.99 -9.85,-19.25 c -1.0999998,-3.03 -2.8399998,-4.78 -4.7199998,-7.28 -5.89999998,-7.88 -8.52,-20.32 1.08,-26.04 a 1.08,1.08 0 0 0 0.41,-1.4 q -7.30999998,-14.93 7.1599998,-22.14 0.51,-0.25 0.53,-0.81 c 0.33,-7.89 0.82,-13.11 8.04,-17.82 q 1.62,-1.07 6.47,-0.14 z m 305.18,258.25 a 0.57,0.58 37.5 0 0 1.11,-0.15 q 0.95,-9.63 -2.3,-18.56 c -0.85,-2.33 -2.63,-5.3 -3.67,-8.18 a 0.86,0.86 0 0 0 -1.67,0.33 c 0.22,4.31 0.47,8.55 1.82,12.78 q 2.24,7 4.71,13.78 z"
     id="path13" />
  <g
     stroke-width="2"
     fill="none"
     stroke-linecap="butt"
     id="g22"
     transform="translate(-9.7632898,-3.6876624)">
    <path
       stroke="#f4d4ae"
       vector-effect="non-scaling-stroke"
       d="m 57.05,123.53 q -4.14,-2.05 -7.34,-3.19 c -6.07,-2.15 -16.45,-4.39 -20.6,-9.22"
       id="path14" />
    <path
       stroke="#f4d4ae"
       vector-effect="non-scaling-stroke"
       d="m 54.86,139.12 q -8.33,-4.61 -15.99,-9.11 c -4.37,-2.57 -9.32,-7.42 -9.69,-12.53 q -0.21,-2.79 -1.37,-1.76"
       id="path15" />
    <path
       stroke="#edb982"
       vector-effect="non-scaling-stroke"
       d="m 44.26,141.93 q -0.58,0.04 -0.53,0.67 0.05,0.53 0.56,0.68 3.37,1.03 2.91,4.7 -0.08,0.55 -0.62,0.43 -6.02,-1.3 -9.89,-3.59 -9.56,-5.69 -13.66,-15.81"
       id="path16" />
    <path
       stroke="#f4d4ae"
       vector-effect="non-scaling-stroke"
       d="m 46.25,161.82 q -0.8,-2.56 -3.16,-3.42 -15.72,-5.72 -21.59,-20.13 -1.35,-3.3 -0.97,-6.32 0.06,-0.49 -0.22,-0.88 -0.56,-0.76 -1.5,-0.86"
       id="path17" />
    <path
       stroke="#edb982"
       vector-effect="non-scaling-stroke"
       d="m 19.36,151.81 q -3.94,1.09 -0.86,4.26 c 1.17,1.2 1.01,2.68 2.08,3.97 3.61,4.4 8.36,8.3 14.2,8.43 q 0.51,0.01 0.59,-0.49 0.23,-1.4 1.06,-1.25"
       id="path18" />
    <path
       stroke="#f4d4ae"
       vector-effect="non-scaling-stroke"
       d="m 32.94,180.96 q -8.67,-5.74 -12.46,-12.67 c -1.97,-3.59 -4.3,-8.16 -4.35,-12.58 q -0.03,-2.45 -0.79,-4.46"
       id="path19" />
    <path
       stroke="#c3a586"
       vector-effect="non-scaling-stroke"
       d="m 354.25,543.42 q -0.29,-0.97 -0.55,-1.18"
       id="path20" />
    <path
       stroke="#f1c79d"
       vector-effect="non-scaling-stroke"
       d="m 353.7,542.24 c 2.78,-3.64 5.8,-8.49 3.38,-13.07 q -5.82,-11.04 -16.45,-17.51 -8.46,-5.15 -20.3,-4.6"
       id="path21" />
    <path
       stroke="#bc8a5a"
       vector-effect="non-scaling-stroke"
       d="m 353.7,542.24 q -2.07,-0.51 -3.45,-0.23 -8.92,1.84 -18.02,2.02 c -2.15,0.04 -3.73,-1.25 -5.66,-1.4 -12.83,-1.03 -25.41,-5.58 -37.81,-8.91 -9.3,-2.49 -31.82,2.4 -29.09,-15.4"
       id="path22" />
  </g>
  <path
     fill="#f8e2c9"
     d="m 47.28671,119.84234 q -4.14,-2.05 -7.34,-3.19 c -6.07,-2.15 -16.45,-4.39 -20.6,-9.22 q 1.49,-2.01 3.97,-1.24 4.15,1.28 15.04,5.13 c 4.55,1.6 6.7,4.5 8.93,8.52 z"
     id="path23" />
  <path
     fill="#f0c592"
     d="m 19.34671,107.43234 c 4.15,4.83 14.53,7.07 20.6,9.22 q 3.2,1.14 7.34,3.19 3.14,6.04 1.7,12.72 -0.92,4.26 -3.89,2.87 -8.33,-4.61 -15.99,-9.11 c -4.37,-2.57 -9.32,-7.42 -9.69,-12.53 q -0.21,-2.79 -1.37,-1.76 -0.37,-2.34 1.3,-4.6 z"
     id="path24" />
  <path
     fill="#f8e2c9"
     d="m 45.09671,135.43234 q -3.56,0.39 -7.91,-1.84 c -10.27,-5.28 -20.25,-9.27 -19.14,-21.56 q 1.16,-1.03 1.37,1.76 c 0.37,5.11 5.32,9.96 9.69,12.53 q 7.66,4.5 15.99,9.11 z"
     id="path25" />
  <path
     fill="#eaac71"
     d="m 34.49671,138.24234 q -0.58,0.04 -0.53,0.67 0.05,0.53 0.56,0.68 3.37,1.03 2.91,4.7 -0.08,0.55 -0.62,0.43 -6.02,-1.3 -9.89,-3.59 -9.56,-5.69 -13.66,-15.81 1.87,-1.2 2.42,-0.3 c 3.83,6.13 12.54,9.97 18.81,13.22 z"
     id="path26" />
  <path
     fill="#f0c592"
     d="m 13.26671,125.32234 q 4.1,10.12 13.66,15.81 3.87,2.29 9.89,3.59 0.54,0.12 0.62,-0.43 0.46,-3.67 -2.91,-4.7 -0.51,-0.15 -0.56,-0.68 -0.05,-0.63 0.53,-0.67 l 2.85,1.25 q 0.49,0.21 0.62,0.73 2.26,8.87 1.23,17.97 -0.07,0.58 -0.65,0.54 -1.28,-0.08 -2.06,-0.6 -0.8,-2.56 -3.16,-3.42 -15.72,-5.72 -21.59,-20.13 -1.35,-3.3 -0.97,-6.32 0.06,-0.49 -0.22,-0.88 -0.5599998,-0.76 -1.4999998,-0.86 2.9799998,-2.03 4.2199998,-1.2 z"
     id="path27" />
  <path
     fill="#f8e2c9"
     d="m 9.0467102,126.52234 q 0.94,0.1 1.4999998,0.86 0.28,0.39 0.22,0.88 -0.38,3.02 0.97,6.32 5.87,14.41 21.59,20.13 2.36,0.86 3.16,3.42 -3.55,-0.44 -7.06,-2.52 c -9.26,-5.46 -16.9,-10.51 -21.0499998,-20.44 q -2.09,-5.02 0.67,-8.65 z"
     id="path28" />
  <path
     fill="#eaac71"
     d="m 257.99671,140.43234 q 0.62,0.14 0.73,1.02 0.06,0.49 -0.31,0.81 -4.97,4.26 -3.31,11.94 l -2.89,-0.43 q 0.12,-0.55 -0.05,-0.86 -0.13,-0.24 -0.65,-0.28 c -4.25,-0.35 -4.35,-5.44 -6.44,-8.99 q -0.15,-0.26 -0.03,-0.54 l 0.18,-0.4 a 0.57,0.57 0 0 0 -0.68,-0.78 l -13.5,4.07 q -0.25,0.08 -0.39,0.3 -0.09,0.15 -0.24,0.19 -3.31,0.73 -6.57,1.64 -0.41,0.12 -0.71,0.42 l -0.37,0.36 q -0.12,0.12 -0.29,0.15 -1.53,0.2 -4.09,1.36 -5.18,2.32 -12.48,3.58 -0.54,0.09 -0.84,0.56 -0.56,0.88 -1.8,0.46 a 0.9,0.9 0 0 0 -0.8,0.12 q -4.5,3.25 -8.64,2.42 l 7.66,-3.81 q 2.9,0.43 4.92,-0.29 14.34,-5.07 28.82,-9.66 2.7,-0.85 6.57,-3.16 7.83,-1.61 16.2,-0.2 z"
     id="path29" />
  <path
     fill="#666666"
     d="m 241.79671,140.63234 q -3.87,2.31 -6.57,3.16 -14.48,4.59 -28.82,9.66 -2.02,0.72 -4.92,0.29 18.87,-10.16 40.31,-13.11 z"
     id="path30" />
  <path
     fill="#8d6743"
     d="m 274.94671,145.91234 q 2.08,0.54 3.04,2.17 c 9.83,16.77 14.35,39.17 16.46,58.32 0.35,3.17 -0.13,7.1 0.42,10.71 q 0.08,0.5 0.5,0.77 0.98,0.62 0.87,1.68 -0.75,7.65 -6.52,13.2 c 0.45,-4.4 -1.33,-8.35 -1.77,-11.91 -2.04,-16.12 -4.96,-32.04 -10.19,-46.84 l 3.66,-4.34 q 0.36,-0.42 0.05,-0.88 l -10.38,-15.34 q -0.27,-0.39 0.18,-0.53 4.48,-1.41 3.68,-7.01 z"
     id="path31" />
  <path
     fill="#f0c592"
     d="m 9.5967102,148.12234 q -3.94,1.09 -0.86,4.26 c 1.17,1.2 1.01,2.68 2.0799998,3.97 3.61,4.4 8.36,8.3 14.2,8.43 q 0.51,0.01 0.59,-0.49 0.23,-1.4 1.06,-1.25 c 1.51,3.14 3.69,9.93 1.31,12.97 q -1.64,2.1 -4.8,1.26 -8.67,-5.74 -12.46,-12.67 c -1.9699998,-3.59 -4.2999998,-8.16 -4.3499998,-12.58 q -0.03,-2.45 -0.79,-4.46 2.93,-1.9 4.02,0.56 z"
     id="path32" />
  <path
     fill="#f8e2c9"
     d="m 5.5767102,147.56234 q 0.76,2.01 0.79,4.46 c 0.05,4.42 2.38,8.99 4.3499998,12.58 q 3.79,6.93 12.46,12.67 -17.5699998,-5.37 -20.0099998,-24.71 -0.39,-3.11 2.41,-5 z"
     id="path33" />
  <path
     fill="#eaac71"
     d="m 9.5967102,148.12234 q 6.9399998,7.05 15.8699998,11.91 0.47,0.25 0.6,0.76 l 0.6,2.25 q -0.83,-0.15 -1.06,1.25 -0.08,0.5 -0.59,0.49 c -5.84,-0.13 -10.59,-4.03 -14.2,-8.43 -1.0699998,-1.29 -0.9099998,-2.77 -2.0799998,-3.97 q -3.08,-3.17 0.86,-4.26 z"
     id="path34" />
  <path
     fill="#4b3522"
     d="m 252.21671,153.77234 2.89,0.43 3.32,0.96 q 0.49,0.15 0.51,0.66 0.07,2.32 -0.91,4.47 c -4.51,-3.24 -16.02,-5.04 -19.31,1.03 q -0.3,0.55 0.25,0.26 c 6.91,-3.57 11.82,-0.37 18.91,0.34 l -1.23,6.06 q -6.79,-3.06 -12.21,-3.49 -4.38,-0.88 -8.17,0.03 -0.66,0.16 -0.46,-0.49 c 2.22,-7.03 9.65,-10.24 16.41,-10.26 z"
     id="path35" />
  <path
     fill="#4b3522"
     d="m 207.29671,157.50234 c 3.88,2.34 0.06,7.88 -2.64,9.98 -6.68,5.16 -14.72,8.33 -21.93,17.08 a 0.58,0.57 44.7 0 1 -0.89,0 q -1.14,-1.4 -0.15,-3.53 c 2.77,-6.01 16.81,-28.87 25.61,-23.53 z"
     id="path36" />
  <path
     fill="#8d6743"
     d="m 258.02671,160.29234 -0.15,1.63 c -7.09,-0.71 -12,-3.91 -18.91,-0.34 q -0.55,0.29 -0.25,-0.26 c 3.29,-6.07 14.8,-4.27 19.31,-1.03 z"
     id="path37" />
  <path
     fill="#8d6743"
     d="m 188.54671,173.87234 q -1.15,1.03 -0.67,2.56 a 0.82,0.83 59.1 0 1 -0.21,0.82 l -3.61,3.62 a 0.27,0.27 0 0 1 -0.44,-0.31 c 1.74,-3.88 15.73,-28.63 22.16,-17.5 a 0.74,0.74 0 0 1 -0.65,1.1 c -4.64,-0.09 -13.43,6.9 -16.58,9.71 z"
     id="path38" />
  <path
     fill="#f8e2c9"
     d="m 185.75671,162.17234 q -22.28,14.64 -47.64,23.58 -1.41,0.5 -1.54,1.98 c -1.26,14.74 -3.47,31.38 -8.88,45.42 q -1.92,4.96 -3.19,9.57 l -7.53,-6.77 q -0.41,-0.36 -0.13,-0.83 c 2.1,-3.57 4.59,-7.12 6.14,-10.65 5.16,-11.74 6.94,-24.9 8.69,-37.66 q 21.76,-7.72 38.5,-17.06 9.59,-5.34 15.58,-7.58 z"
     id="path39" />
  <path
     fill="#4b3522"
     d="m 47.78671,164.96234 q 0.46,-1.68 1.53,-1.38 1.09,0.31 0.76,1.39 c -0.94,3.01 -7.41,14.85 -11.49,13.07 a 0.89,0.89 0 0 1 -0.11,-1.58 c 5.81,-3.53 7.46,-4.72 9.31,-11.5 z"
     id="path40" />
  <path
     fill="#eaac71"
     d="m 244.43671,164.49234 q 5.42,0.43 12.21,3.49 0.43,0.97 -0.5,1.85 -0.45,0.42 -0.43,1.03 l 0.08,3.46 q 0.01,0.44 -0.23,0.81 -0.21,0.33 -0.34,0.8 -0.19,-0.38 -0.72,-0.42 l -1.95,-5.4 q -0.17,-0.48 -0.66,-0.67 -6.44,-2.52 -12.57,-3 -0.8,-0.06 -1.06,-0.51 -0.37,-0.65 0.37,-0.58 3.3,0.31 5.8,-0.86 z"
     id="path41" />
  <path
     fill="#eaac71"
     d="m 277.75671,174.01234 c 5.23,14.8 8.15,30.72 10.19,46.84 0.44,3.56 2.22,7.51 1.77,11.91 l -0.86,2.34 q 0.09,3.21 1.63,6.24 3.7,7.3 6.59,14.94 l 2.12,7.07 q 4.3,17.84 10.75,34.6 -12.83,11.83 -28.13,18.64 l -0.83,-0.72 q -0.4,-0.35 -0.45,-0.88 -4.04,-39.8 -12.13,-78.99 a 0.79,0.79 0 0 0 -0.71,-0.63 l -1.6,-0.13 c 3.89,-4.88 8.31,-10.06 10.62,-15.89 q 1.26,-3.17 2.5,-6.34 1.65,-4.19 -0.25,-8.13 3.29,-16.28 -10.28,-26.24 l 6.6,-2.05 a 0.82,0.8 83.8 0 0 0.57,-0.72 q 0.19,-2.67 1.9,-1.86 z"
     id="path42" />
  <path
     fill="#4b3522"
     d="m 254.50671,175.51234 q 0.53,0.04 0.72,0.42 6.23,3.2 13.46,2.71 13.57,9.96 10.28,26.24 c -2.72,13.37 -9.49,26.08 -21.51,33.01 a 1.19,1.21 80.8 0 0 -0.59,0.8 q -0.41,1.9 -0.03,4.56 0.35,2.42 -1.11,6.68 -1.6,-2.86 -1.97,-7.46 c -0.53,-6.99 -4.02,-14.94 -10.58,-17.67 -11.6,-4.84 -17.03,10.3 -16.44,18.83 l -0.25,9.95 a 0.91,0.91 0 0 1 -1.74,0.34 q -1.26,-2.91 -1.01,-6.82 -0.28,-2.12 0.74,-3.67 0.31,-0.47 -0.2,-0.25 c -14.82,6.54 -29.21,-1.19 -39.78,-12.2 q -3.31,-6.38 -3.93,-14.22 c 1.5,-23.33 25.7,-47.57 48.73,-28.42 q 0.39,0.33 0.66,-0.11 c 5.33,-8.67 14.83,-12.24 24.55,-12.72 z"
     id="path43" />
  <g
     stroke-width="2"
     fill="none"
     stroke-linecap="butt"
     id="g47"
     transform="translate(-9.7632898,-3.6876624)">
    <path
       stroke="#e7e7e6"
       vector-effect="non-scaling-stroke"
       d="m 279.51,189.98 q 3.93,14.18 2.31,26.64 c -1.29,9.94 -7.55,14.76 -16.01,21.54"
       id="path44" />
    <path
       stroke="#e7e7e6"
       vector-effect="non-scaling-stroke"
       d="m 234.61,241.21 q -8,1.86 -12.86,0.53 c -6.35,-1.75 -14.84,-6.87 -19.31,-12.04 q -5.56,-6.46 -8.26,-14.97"
       id="path45" />
    <path
       stroke="#cfcfce"
       vector-effect="non-scaling-stroke"
       d="m 243.9,196.83 q 1.01,-6.33 4.03,-10.16"
       id="path46" />
    <path
       stroke="#9c9c9c"
       vector-effect="non-scaling-stroke"
       d="m 284.86,197.33 0.01,18.56"
       id="path47" />
  </g>
  <path
     fill="#eaac71"
     d="m 116.32671,280.51234 c -17.99,-29.85 -39.16,-58.97 -67.83,-79 q -0.4,-0.28 -0.1,-0.67 7.03,-9.33 6.56,-21.56 l 1.23,-0.89 q 0.45,-0.33 0.19,-0.81 -0.3,-0.55 0.19,-1.16 0.82,-1.04 0.94,0.27 1.06,11.18 -3.76,21.25 -0.22,0.46 0.2,0.74 31.42,21.1 52.02,52.87 6.04,9.33 11.56,18.96 c 1.67,2.93 4.61,8.23 2.47,10.85 q -0.3,0.36 -0.77,0.44 -1.18,0.18 -1.52,-0.82 -0.13,-0.39 -0.54,-0.41 z"
     id="path48" />
  <path
     fill="#fdfdfb"
     d="m 269.74671,186.29234 q 3.93,14.18 2.31,26.64 c -1.29,9.94 -7.55,14.76 -16.01,21.54 -6.45,-22.2 -26.66,-14.58 -31.2,3.05 q -8,1.86 -12.86,0.53 c -6.35,-1.75 -14.84,-6.87 -19.31,-12.04 q -5.56,-6.46 -8.26,-14.97 c 0.84,-11.46 7.79,-21.31 18.78,-24.6 14.51,-4.34 27.08,6.84 32.75,19 q 0.85,1.82 2.34,0.49 0.5,-0.45 0.14,-2.12 -1.29,-6.05 -4.29,-10.67 1.01,-6.33 4.03,-10.16 c 4.3,-3.15 11.28,-3.48 16.55,-3.07 q 10.13,0.79 15.03,6.38 z"
     id="path49" />
  <path
     fill="#f8e2c9"
     d="m 26.25671,180.27234 q 0.59,2.34 -4.05,2.5 a 0.85,0.84 73.9 0 0 -0.7,1.28 q 5.33,8.99 13.98,14 0.96,0.56 2.42,3.22 c -11.9,0.55 -17.38,-10.44 -22.2,-20.26 q -0.31,-0.64 0.35,-0.38 5.22,2.01 10.2,-0.36 z"
     id="path50" />
  <path
     fill="#a1a1a1"
     d="m 238.16671,182.98234 q -3.02,3.83 -4.03,10.16 l -2.41,-2.66 q -0.34,-0.38 -0.16,-0.86 1.97,-5.42 6.6,-6.64 z"
     id="path51" />
  <path
     fill="#d1d1d1"
     d="m 269.74671,186.29234 q 4.63,3.87 5.35,7.35 l 0.01,18.56 q -4.24,15.56 -18.2,24.06 -0.49,0.3 -0.59,-0.27 l -0.27,-1.52 c 8.46,-6.78 14.72,-11.6 16.01,-21.54 q 1.62,-12.46 -2.31,-26.64 z"
     id="path52" />
  <path
     fill="#666666"
     d="m 275.09671,193.64234 q 4.16,8.75 0.01,18.56 z"
     id="path53" />
  <path
     fill="#000000"
     d="m 247.15901,214.43754 a 4.9,8.2 19.8 0 1 -1.8326,-9.375 4.9,8.2 19.8 0 1 7.388,-6.0554 4.9,8.2 19.8 0 1 1.8326,9.375 4.9,8.2 19.8 0 1 -7.388,6.0554 z"
     id="path54" />
  <ellipse
     fill="#fdfdfb"
     cx="45.944927"
     cy="320.86584"
     transform="rotate(-42.9)"
     rx="2.21"
     ry="1.0599999"
     id="ellipse54" />
  <path
     fill="#000000"
     d="m 223.72671,203.33234 c 5.74,4 5.22,10.59 0.1,14.61 -1.47,1.14 -2.55,0.57 -3.83,-0.39 -5.71,-4.22 -2.47,-11.74 2.82,-14.29 a 0.9,0.91 49.9 0 1 0.91,0.07 z"
     id="path55" />
  <path
     fill="#8d6743"
     d="m 278.96671,204.88234 q 1.9,3.94 0.25,8.13 -1.24,3.17 -2.5,6.34 c -2.31,5.83 -6.73,11.01 -10.62,15.89 l -4.41,6.08 a 1.31,1.3 58.5 0 0 -0.23,0.98 q 1.2,7.03 -3.45,12.26 a 0.77,0.77 0 0 1 -1.35,-0.55 q 0.24,-3.94 -0.93,-4.08 1.46,-4.26 1.11,-6.68 -0.38,-2.66 0.03,-4.56 a 1.19,1.21 80.8 0 1 0.59,-0.8 c 12.02,-6.93 18.79,-19.64 21.51,-33.01 z"
     id="path56" />
  <path
     fill="#fdfdfb"
     d="m 222.77671,209.64234 a 0.29,0.29 0 0 1 -0.08,-0.4 l 0.12,-0.19 a 1.28,3.77 33.2 0 1 3.13,-2.45 l 0.12,0.08 a 1.28,3.77 33.2 0 1 -0.99,3.85 l -0.12,0.19 a 0.29,0.29 0 0 1 -0.4,0.08 z"
     id="path57" />
  <path
     fill="#d1d1d1"
     d="m 184.41671,211.04234 q 2.7,8.51 8.26,14.97 c 4.47,5.17 12.96,10.29 19.31,12.04 q 4.86,1.33 12.86,-0.53 l -1,3.88 q -0.12,0.48 -0.6,0.6 -6.53,1.7 -13.03,-0.36 c -13.8,-4.37 -26.72,-14.62 -25.8,-30.6 z"
     id="path58" />
  <path
     fill="#eaac71"
     d="m 180.56671,216.76234 q 0.62,7.84 3.93,14.22 11.14,23.74 37.63,16.66 c -4.37,3.38 -8.45,2.79 -14.94,2.52 -20.89,-0.86 -29.12,-10.29 -28.65,-30.9 a 0.59,0.58 88.4 0 1 0.54,-0.58 q 1.81,-0.15 1.49,-1.92 z"
     id="path59" />
  <path
     fill="#705236"
     d="m 323.96671,327.92234 q -1.96,-2.93 -2.58,-6.44 -6.92,-39.52 -20.51,-77.28 -0.26,-0.72 -0.94,-0.37 l -0.88,0.46 a 0.55,0.55 0 0 1 -0.8,-0.47 l -0.04,-1.47 a 0.84,0.84 0 0 0 -0.88,-0.82 l -0.36,0.02 q 2.39,-8.41 -0.45,-16.61 a 1.29,1.29 0 0 1 0.68,-1.6 q 0.61,-0.28 1.07,0.3 0.23,0.29 0.36,0.94 0.96,4.83 4.37,13.43 9.02,22.75 15.44,52.31 c 1.19,5.45 2.64,11.22 3.32,17.53 0.75,6.82 2.45,12.9 2.2,20.07 z"
     id="path60" />
  <path
     fill="#f8e2c9"
     d="m 253.75671,242.47234 -0.39,0.58 a 0.51,0.51 0 0 1 -0.93,-0.29 c 0.02,-4.5 -2.33,-7.39 -5.68,-10.44 q -8.13,-7.41 -16.63,1.87 a 0.86,0.92 73.5 0 0 -0.2,0.34 l -3.19,9.1 c -0.59,-8.53 4.84,-23.67 16.44,-18.83 6.56,2.73 10.05,10.68 10.58,17.67 z"
     id="path61" />
  <path
     fill="#8d6743"
     d="m 296.97671,241.55234 0.36,-0.02 a 0.84,0.84 0 0 1 0.88,0.82 l 0.04,1.47 a 0.55,0.55 0 0 0 0.8,0.47 l 0.88,-0.46 q 0.68,-0.35 0.94,0.37 13.59,37.76 20.51,77.28 0.62,3.51 2.58,6.44 c 1.69,10.72 1.58,21.64 2.63,32.63 q 0.08,0.79 1.3,0.38 1.41,10.08 4.15,19.6 c 0.78,2.7 0.11,4.98 -1.82,6.76 q -5.07,4.67 -8.23,9.01 c -5.07,6.97 -6.03,20.64 6.55,19.99 a 0.75,0.75 0 0 1 0.76,0.55 q 1.73,6.41 8.21,7.72 0.68,0.14 0.59,0.82 l -2.54,19.29 q -2.87,4.77 -9.31,7.7 c -2.95,1.34 -6.67,-0.67 -9.84,2.95 q -0.4,0.46 0.16,0.69 l 2.92,1.19 3.37,7.49 a 0.85,0.82 49.6 0 1 -0.05,0.78 l -2.65,4.46 a 0.76,0.78 58.7 0 0 -0.11,0.43 l 0.13,1.7 c -8.72,7.89 -14.92,16.72 -15.83,28.77 q -0.04,0.52 -0.5,0.76 -6.12,3.09 -13.18,3.51 l 0.03,-1.8 c 0.64,-1.46 1.58,-2.69 2,-4.19 1.88,-6.76 3.54,-13.73 7.89,-19.25 a 0.21,0.21 0 0 1 0.35,0.22 c -3.41,6.8 -6.95,15.2 -8.22,22.73 a 0.29,0.29 0 0 0 0.54,0.19 c 3.96,-7.24 6.92,-25.81 14.09,-29.37 q -5.73,9.72 -9.03,20.31 -0.13,0.44 0.32,0.35 0.21,-0.04 0.32,-0.28 4.04,-9.07 8.03,-18.16 0.71,-1.63 0.36,-2.22 0.52,-0.2 0.83,-0.93 0.19,-0.46 0.57,-0.78 3.35,-2.71 6.61,-5.54 c 1.6,-1.4 1.86,-2.93 2.56,-4.84 a 0.58,0.58 0 0 0 -0.4,-0.76 c -15.54,-3.93 -0.4,-14.82 5.68,-16.75 q 3.97,-1.26 5.54,-5.07 2.57,-2.4 2.21,-6.46 -0.26,-2.21 -2.09,-3.84 -0.33,-0.31 -0.49,-0.73 l -1.88,-5.01 a 0.87,0.87 0 0 0 -0.59,-0.55 c -6.56,-1.82 -14.4,-4.88 -12.69,-13.22 q 2.07,-10.18 8.11,-18.61 0.31,-0.43 0.12,-0.93 c -0.75,-1.93 -1.43,-3.17 -1.72,-5.3 -0.73,-5.2 -3.71,-9.18 -4.8,-14.48 q -0.06,-0.3 0.1,-0.54 0.32,-0.44 0.53,0.06 l 2.66,6.44 a 0.33,0.33 0 0 0 0.64,-0.12 q 0.07,-2.42 -0.84,-4.16 -3.44,-6.57 -2.82,-13.39 0.12,-1.26 0.53,-0.06 1.3,3.81 1.98,7.81 0.08,0.48 0.56,0.46 0.35,-0.02 0.57,-0.33 0.24,-0.33 0.11,-0.95 -1,-4.72 -1.93,-9.46 c -0.66,-3.3 -2.49,-6.86 -2.85,-11.01 a 0.27,0.27 0 0 1 0.52,-0.11 l 2.12,6.26 a 0.14,0.14 0 0 0 0.27,-0.04 q 0.07,-6.27 -2.26,-10.63 1.1,-9.32 0.48,-12.99 -0.37,-2.16 -0.65,-4.31 -3.66,-11.28 -5.1,-22.34 2.78,-3.67 0.4,-2.47 -6.45,-16.76 -10.75,-34.6 4.57,11.15 7.74,22.65 0.05,0.19 0.19,0.04 0.09,-0.09 0.22,-0.19 0.32,-0.26 0.22,-0.67 c -2.45,-9.39 -5.46,-20.55 -10.49,-28.9 q -2.89,-7.64 -6.59,-14.94 -1.54,-3.03 -1.63,-6.24 3.86,-2.77 5.94,-6.47 a 0.43,0.43 0 0 1 0.81,0.22 l -0.43,13.54 a 0.77,0.77 0 0 0 1.05,0.75 q 0.77,-0.28 0.75,-1.59 z"
     id="path62" />
  <path
     fill="#bb8a5d"
     d="m 184.49671,230.98234 c 10.57,11.01 24.96,18.74 39.78,12.2 q 0.51,-0.22 0.2,0.25 -1.02,1.55 -0.74,3.67 l -0.28,-0.6 q -0.27,-0.6 -0.81,-0.22 -0.57,0.42 -0.52,1.36 -26.49,7.08 -37.63,-16.66 z"
     id="path63" />
  <path
     fill="#bb8a5d"
     d="m 297.07671,256.28234 c 5.03,8.35 8.04,19.51 10.49,28.9 q 0.1,0.41 -0.22,0.67 -0.13,0.1 -0.22,0.19 -0.14,0.15 -0.19,-0.04 -3.17,-11.5 -7.74,-22.65 z"
     id="path64" />
  <path
     fill="#4b3522"
     d="m 150.18671,271.51234 -2.44,5.11 q -0.21,0.44 0.08,0.84 c 13.06,18.07 30.12,29.17 50.67,38.76 q 28.16,13.16 58.99,7.87 12.62,-2.24 24.33,-7.5 15.3,-6.81 28.13,-18.64 2.38,-1.2 -0.4,2.47 -20.22,19.61 -48.57,26.32 -0.98,0.01 -1.74,0.37 -0.45,0.22 -0.57,0.72 -9.31,38.45 -41.48,59.93 c -11.27,7.53 -25.8,11.7 -39.51,7.94 -17.4,-5.64 -25.38,-22.7 -27.45,-39.89 q -1.43,-11.9 -1.28,-15.01 c 0.64,-13.19 5.97,-26.17 10.55,-39.93 1.14,-1.04 0.95,-2.13 -0.21,-3.06 q -8.32,-6.69 -13.32,-16.13 a 0.66,0.66 0 0 0 -1.18,0.04 l -1.13,2.48 -6,8.44 a 0.47077064,0.47077064 0 0 1 -0.81,-0.48 q 5.4,-11.02 10.88,-21.64 1.78,-3.45 4.16,-6.04 a 0.54,0.54 0 0 1 0.9,0.56 z"
     id="path65" />
  <g
     stroke-width="2"
     fill="none"
     stroke-linecap="butt"
     id="g71"
     transform="translate(-9.7632898,-3.6876624)">
    <path
       stroke="#cfcfce"
       vector-effect="non-scaling-stroke"
       d="m 175.4,306.5 -4.54,14.96 a 3.52,3.5 -48.7 0 0 0.15,2.42 c 2.11,4.8 6.44,9.43 7.53,14.52"
       id="path66" />
    <path
       stroke="#b2b2b1"
       vector-effect="non-scaling-stroke"
       d="m 188.98,315.18 -3.88,8.17 a 0.3,0.3 0 0 0 0.53,0.27 l 4.39,-7.85"
       id="path67" />
    <path
       stroke="#cfcfce"
       vector-effect="non-scaling-stroke"
       d="m 216.89,328.5 q -1.2,2.11 -2.05,4.06 -0.37,0.86 0.01,1.6 0.39,0.76 0.68,-0.04 l 1.96,-5.47"
       id="path68" />
    <path
       stroke="#cfcfce"
       vector-effect="non-scaling-stroke"
       d="m 241.53,333.01 -11.5,20.94"
       id="path69" />
    <path
       stroke="#c84a33"
       vector-effect="non-scaling-stroke"
       d="m 191.54,381.4 c -4.22,3.08 -13.67,-6.27 -21.2,-2.88"
       id="path70" />
    <path
       stroke="#c84a33"
       vector-effect="non-scaling-stroke"
       d="m 196.25,382.58 q 8.48,4.67 11.45,13.27 0.12,0.36 -1.13,0.63"
       id="path71" />
  </g>
  <path
     fill="#705236"
     d="m 116.44671,286.23234 q 0.09,1.24 -0.82,1.65 -0.43,0.2 -0.87,0 l -7.01,-3.17 q -4.86,-5.76 -7.65,-13.41 l 1.67,-4.67 a 0.55,0.55 0 0 1 1,-0.08 q 5.5,9.83 12.46,18.51 0.35,0.44 0.32,1.36 -0.02,0.75 0.51,0.21 z"
     id="path72" />
  <path
     fill="#f8e2c9"
     d="m 150.18671,271.51234 q 0.41,0.05 0.69,0.21 0.41,0.22 0.2,0.63 l -1.63,3.31 a 0.87,0.89 36.4 0 0 0.14,0.99 c 6.13,6.66 12.19,13.53 19.84,18.47 1.8,1.16 3.57,3.43 5.5,4.79 22.79,16.03 53.48,26.34 81.65,22.91 q 0.58,-0.07 0.96,0.37 0.29,0.32 -0.05,0.9 -30.83,5.29 -58.99,-7.87 c -20.55,-9.59 -37.61,-20.69 -50.67,-38.76 q -0.29,-0.4 -0.08,-0.84 z"
     id="path73" />
  <path
     fill="#bb8a5d"
     d="m 100.09671,271.30234 q 2.79,7.65 7.65,13.41 -0.6,-0.49 -1.09,0.39 l -1.88,-0.25 -8.03,-4.38 z"
     id="path74" />
  <path
     fill="#f8e2c9"
     d="m 96.74671,280.47234 8.03,4.38 c -2.97,2.58 -11.98,11.07 -9.8,14.94 -4.66,10.4 -9.53,22.28 -1.57,32.06 q 0.31,0.38 0.2,0.85 -0.44,1.82 -1.59,2.02 c -2.85,-0.14 -6.16,0.02 -8.31,-2.01 q -4.68,-4.39 -2.5,-10.92 3.83,-11.41 15.54,-41.32 z"
     id="path75" />
  <path
     fill="#8d6743"
     d="m 159.49671,300.87234 c -5.85,-5 -10.64,-8.11 -14.83,-15.35 q -0.33,-1.19 -1.01,-1.32 l 1.13,-2.48 a 0.66,0.66 0 0 1 1.18,-0.04 q 5,9.44 13.32,16.13 c 1.16,0.93 1.35,2.02 0.21,3.06 z"
     id="path76" />
  <path
     fill="#4b3522"
     d="m 106.65671,285.10234 q 2.56,2.06 2.09,4.7 -1.98,11.32 -13.77,9.99 c -2.18,-3.87 6.83,-12.36 9.8,-14.94 z"
     id="path77" />
  <path
     stroke="#bf966b"
     stroke-width="2"
     fill="none"
     stroke-linecap="butt"
     vector-effect="non-scaling-stroke"
     d="m 103.13671,289.35234 -0.78,3.62 q -0.11,0.47 -0.59,0.55 -1.75,0.27 -3.12,-0.38"
     id="path78" />
  <path
     fill="#eaac71"
     d="m 144.66671,285.52234 c 4.19,7.24 8.98,10.35 14.83,15.35 -4.58,13.76 -9.91,26.74 -10.55,39.93 q -0.15,3.11 1.28,15.01 c 2.07,17.19 10.05,34.25 27.45,39.89 q -0.95,3.55 -5.71,2.96 c -10.97,-1.36 -15.88,-7.68 -20.28,-17.81 q -13.51,-31.11 -2.93,-64.51 2.22,-7.02 5.81,-13.04 a 1.02,1.03 34.4 0 0 -0.24,-1.32 q -6.93,-5.55 -10.83,-13.52 -0.21,-0.43 -0.07,-0.89 0.3,-1.06 1.24,-2.05 z"
     id="path79" />
  <path
     fill="#8d6743"
     d="m 305.78671,293.52234 a 0.15,0.15 0 0 1 -0.17,-0.13 l -0.26,-1.37 a 5.89,0.44 79.5 0 1 -0.64,-5.87 l 0.16,-0.03 a 5.89,0.44 79.5 0 1 1.51,5.71 l 0.25,1.38 a 0.15,0.15 0 0 1 -0.12,0.17 z"
     id="path80" />
  <path
     fill="#f0c592"
     d="m 103.13671,289.35234 -0.78,3.62 q -0.11,0.47 -0.59,0.55 -1.75,0.27 -3.12,-0.38 2.09,-2.66 4.49,-3.79 z"
     id="path81" />
  <path
     fill="#8d6743"
     d="m 103.13671,289.35234 c 6.54,4.68 -0.73,8.61 -5.47,6.64 q -0.42,-0.17 -0.37,-0.63 0.16,-1.46 1.35,-2.22 1.37,0.65 3.12,0.38 0.48,-0.08 0.59,-0.55 z"
     id="path82" />
  <path
     fill="#eaac71"
     d="m 330.29671,303.19234 -0.77,0.24 a 0.53,0.53 0 0 0 -0.14,0.94 c 5.27,3.61 11.16,7.28 15.21,11.92 2.6,2.99 9.06,10.67 8.63,14.76 q -0.37,3.43 0.47,6.76 c 1.82,7.19 0.26,18.21 1.38,26.25 q -1.39,-0.23 -2.04,0.17 a 0.56,0.57 57 0 0 -0.17,0.79 l 3.44,5.07 q -2.17,1.85 -0.86,4.04 c 6.22,10.45 10.45,25.18 4.58,36.12 q -0.19,0.36 0.17,0.55 0.16,0.08 0.34,0.09 -0.55,0.4 -1.07,0.42 c -2.29,0.37 -6.61,-1.47 -4.65,-4.41 q 2.96,-3.42 2.45,-7.47 0.22,-0.46 0.18,-0.86 a 0.57,0.57 0 0 0 -0.94,-0.39 q -2.89,2.48 -4.15,6.32 c -5.91,4.32 -3.69,10.02 -13.92,9.37 q -1.86,-1.43 -2.42,-3.29 8.98,-4.91 11.07,-15.19 0.81,-1.93 0.06,-3.73 a 0.73,0.73 0 0 0 -1.35,0.01 c -2.09,5.18 -3.27,10.91 -8.77,13.83 q -5.2,2.76 -8.94,0.08 -0.73,-3.89 0.19,-7.06 c 0.96,-3.34 4.56,-5.93 6.99,-8.65 a 0.49,0.49 0 0 0 -0.03,-0.69 q -0.22,-0.2 -0.45,-0.1 l 0.87,-1.11 0.35,0.23 q 0.43,0.28 0.06,0.65 l -0.22,0.22 a 0.41,0.41 0 0 0 0.55,0.6 c 3.32,-2.77 4.52,-6.92 5.87,-10.89 1.99,-5.82 0.19,-8.22 -2.28,-13.18 a 1.17,1.18 41 0 1 -0.06,-0.93 c 5.18,-14.79 5.08,-30.3 -9.81,-39.33 q -0.04,-0.02 -0.18,-0.16 -0.27,-0.25 -1,-0.08 l -1.93,-1.02 -3.57,-24.12 a 0.5,0.5 0 0 1 0.75,-0.5 z"
     id="path83" />
  <path
     fill="#eaac71"
     d="m 309.54671,300.42234 q 1.44,11.06 5.1,22.34 -1.26,0.61 -1.46,0.03 -3.17,-9.29 -4.62,-19.01 a 0.44,0.44 0 0 0 -0.75,-0.24 q -0.66,0.68 -0.33,1.58 0.44,1.18 0.47,1.42 2.54,16.7 6.86,33.52 2.33,4.36 2.26,10.63 a 0.14,0.14 0 0 1 -0.27,0.04 l -2.12,-6.26 a 0.27,0.27 0 0 0 -0.52,0.11 c 0.36,4.15 2.19,7.71 2.85,11.01 q 0.93,4.74 1.93,9.46 0.13,0.62 -0.11,0.95 -0.22,0.31 -0.57,0.33 -0.48,0.02 -0.56,-0.46 -0.68,-4 -1.98,-7.81 -0.41,-1.2 -0.53,0.06 -0.62,6.82 2.82,13.39 0.91,1.74 0.84,4.16 a 0.33,0.33 0 0 1 -0.64,0.12 l -2.66,-6.44 q -0.21,-0.5 -0.53,-0.06 -0.16,0.24 -0.1,0.54 c 1.09,5.3 4.07,9.28 4.8,14.48 0.29,2.13 0.97,3.37 1.72,5.3 q 0.19,0.5 -0.12,0.93 -6.04,8.43 -8.11,18.61 c -1.71,8.34 6.13,11.4 12.69,13.22 a 0.87,0.87 0 0 1 0.59,0.55 l 1.88,5.01 q 0.16,0.42 0.49,0.73 1.83,1.63 2.09,3.84 -1.37,0.55 -1.82,-1.55 -0.11,-0.52 -0.57,-0.27 -0.27,0.15 -0.27,0.45 0.08,3.75 0.45,7.83 -1.57,3.81 -5.54,5.07 c -6.08,1.93 -21.22,12.82 -5.68,16.75 a 0.58,0.58 0 0 1 0.4,0.76 c -0.7,1.91 -0.96,3.44 -2.56,4.84 q -3.26,2.83 -6.61,5.54 -0.38,0.32 -0.57,0.78 -0.31,0.73 -0.83,0.93 c -7.17,3.56 -10.13,22.13 -14.09,29.37 a 0.29,0.29 0 0 1 -0.54,-0.19 c 1.27,-7.53 4.81,-15.93 8.22,-22.73 a 0.21,0.21 0 0 0 -0.35,-0.22 c -4.35,5.52 -6.01,12.49 -7.89,19.25 -0.42,1.5 -1.36,2.73 -2,4.19 q -1.82,-0.01 -3.47,0.71 -0.43,0.19 -0.85,-0.03 -1.44,-0.74 -3.64,-0.68 -7.79,0.2 -15.45,-0.71 a 0.62,0.61 14.9 0 1 -0.5,-0.85 q 5.78,-13.84 8.79,-28.57 c 0.62,-3.04 2.49,-5.55 3.04,-8.85 a 0.66,0.66 0 0 0 -0.42,-0.72 q -0.73,-0.28 -0.89,0.24 l -2.02,-1.61 q -0.41,-0.33 -0.34,-0.85 0.11,-0.83 0.86,-1.33 l 1.67,1.86 q 0.27,0.3 0.32,-0.1 c 5.41,-44.64 6.14,-89.84 3.55,-134.55 a 1.35,1.35 0 0 0 -1.62,-1.25 l -17.25,3.42 q -1.53,0.31 -1.27,-1.23 0.1,-0.62 -0.24,-1.46 28.35,-6.71 48.57,-26.32 z"
     id="path84" />
  <path
     fill="#a1a1a1"
     d="m 165.63671,302.81234 -4.54,14.96 a 3.5,3.52 41.3 0 0 0.15,2.42 c 2.11,4.8 6.44,9.43 7.53,14.52 -5.05,-1.94 -9.95,-5.93 -14.14,-9.32 q -0.42,-0.34 -0.27,-0.86 3.3,-12.04 8.01,-23.62 a 0.51,0.52 31.3 0 1 0.81,-0.2 z"
     id="path85" />
  <path
     fill="#000000"
     d="m 334.97671,301.43234 q 22.99,13.54 26.42,39.48 -1.53,-0.03 -1.5,-1.8 c 0.06,-3.6 -2.42,-10.78 -3.91,-13.89 q -2.86,-5.96 -7.05,-11.1 c -0.76,-0.93 -2.33,-1.6 -3.11,-2.76 -3.1,-4.59 -8.69,-5.98 -10.85,-9.93 z"
     id="path86" />
  <path
     fill="#fdfdfb"
     d="m 165.63671,302.81234 13.58,8.68 -3.88,8.17 a 0.3,0.3 0 0 0 0.53,0.27 l 4.39,-7.85 q 13,7.86 26.87,12.73 -1.2,2.11 -2.05,4.06 -0.37,0.86 0.01,1.6 0.39,0.76 0.68,-0.04 l 1.96,-5.47 q 11.77,3.76 24.04,4.36 l -11.5,20.94 q -15.82,1.56 -32.34,-5.89 -12.1,-5.45 -19.15,-9.66 c -1.09,-5.09 -5.42,-9.72 -7.53,-14.52 a 3.5,3.52 41.3 0 1 -0.15,-2.42 z"
     id="path87" />
  <path
     fill="#bb8a5d"
     d="m 314.64671,322.76234 q 0.28,2.15 0.65,4.31 0.62,3.67 -0.48,12.99 -4.32,-16.82 -6.86,-33.52 -0.03,-0.24 -0.47,-1.42 -0.33,-0.9 0.33,-1.58 a 0.44,0.44 0 0 1 0.75,0.24 q 1.45,9.72 4.62,19.01 0.2,0.58 1.46,-0.03 z"
     id="path88" />
  <path
     fill="#f8e2c9"
     d="m 330.29671,303.19234 c 20.33,12.14 35.83,37 24.78,60.87 -1.12,-8.04 0.44,-19.06 -1.38,-26.25 q -0.84,-3.33 -0.47,-6.76 c 0.43,-4.09 -6.03,-11.77 -8.63,-14.76 -4.05,-4.64 -9.94,-8.31 -15.21,-11.92 a 0.53,0.53 0 0 1 0.14,-0.94 z"
     id="path89" />
  <path
     fill="#666666"
     d="m 179.21671,311.49234 1.04,0.59 -4.39,7.85 a 0.3,0.3 0 0 1 -0.53,-0.27 z"
     id="path90" />
  <path
     fill="#705236"
     d="m 327.00671,324.08234 1.93,1.02 q 1.66,2.15 3.04,4.39 1.41,2.31 0.18,2.49 l -3.97,-1.81 q -0.46,-0.2 -0.52,-0.7 z"
     id="path91" />
  <path
     fill="#a1a1a1"
     d="m 207.12671,324.81234 0.6,0.15 -1.96,5.47 q -0.29,0.8 -0.68,0.04 -0.38,-0.74 -0.01,-1.6 0.85,-1.95 2.05,-4.06 z"
     id="path92" />
  <path
     fill="#bb8a5d"
     d="m 328.93671,325.10234 q 0.73,-0.17 1,0.08 0.14,0.14 0.18,0.16 c 14.89,9.03 14.99,24.54 9.81,39.33 a 1.17,1.18 41 0 0 0.06,0.93 c 2.47,4.96 4.27,7.36 2.28,13.18 -1.35,3.97 -2.55,8.12 -5.87,10.89 a 0.41,0.41 0 0 1 -0.55,-0.6 l 0.22,-0.22 q 0.37,-0.37 -0.06,-0.65 l -0.35,-0.23 c 4.22,-5.44 6.14,-11.57 2.77,-18.07 a 1.77,1.88 1.8 0 0 -0.61,-0.69 l -1.77,-1.2 q -0.58,-0.38 -0.34,-1.03 6.54,-17.89 -3.55,-35 1.23,-0.18 -0.18,-2.49 -1.38,-2.24 -3.04,-4.39 z"
     id="path93" />
  <path
     fill="#000000"
     d="m 159.93671,370.11234 q -0.55,1.29 -1.44,0.05 a 1.08,0.28 75.7 0 1 -0.06,-0.11 q -6.8,-19.05 -4.97,-39.29 a 0.48,0.48 0 0 1 0.83,-0.28 c 3.57,3.85 7.53,5.91 11.94,8.6 q 14.37,8.8 30.47,13.54 c 8.24,2.42 15.32,2.65 23.59,1.49 q 2.21,-0.31 3.27,-1.94 6.51,-10.09 11.9,-20.84 c 0.54,-1.07 2.5,-1.78 3.85,-1.81 q 8.15,-0.23 16.11,-1.75 a 0.28,0.27 1.3 0 1 0.32,0.33 c -5.58,26.6 -21.9,50.4 -47.52,61.29 q -0.46,0.2 -0.62,-0.27 c -2.62,-7.72 -8.1,-15.78 -16.65,-17.71 -2.22,-0.5 -4.3,0.26 -6.42,0.95 a 0.98,0.99 56.9 0 1 -0.93,-0.19 c -7.07,-6.05 -15.1,-7.68 -23.15,-2.66 a 1.38,1.36 86.3 0 0 -0.52,0.6 z"
     id="path94" />
  <path
     fill="#a1a1a1"
     d="m 231.76671,329.32234 h 1.94 a 0.38,0.38 0 0 1 0.34,0.55 q -4.9,9.96 -10.22,19.14 c -0.93,1.61 -1.88,1.45 -3.56,1.25 z"
     id="path95" />
  <path
     fill="#4b3522"
     d="m 296.73671,346.99234 c -10.87,-1.25 1.99,-17.08 9.69,-13.1 3.27,1.69 3.45,5.55 1.48,8.45 q -3.75,5.5 -11.17,4.65 z"
     id="path96" />
  <path
     fill="#f8e2c9"
     d="m 83.52671,338.32234 q -6.15,28.48 0.17,55.48 c 1.76,7.55 5.92,14.05 12.03,19.11 q 2.03,1.67 3.31,4.05 a 0.82,0.82 0 0 1 -0.93,1.18 l -0.61,-0.16 c 0,-5.11 -6.71,-3.65 -9.8,-3.51 -9.7,0.43 -10.33,-8.67 -11.11,-15.58 q -3.52,-31.22 2.99,-61.89 0.13,-0.61 0.68,-0.33 z"
     id="path97" />
  <path
     fill="#8d6743"
     d="m 303.96671,342.94234 c -2.92,0.51 -6.59,-0.07 -8.01,-2.96 q -0.23,-0.47 0.16,-0.82 4.86,-4.32 8.79,0.29 0.83,0.99 0.85,1.83 0.01,1.35 -1.79,1.66 z"
     id="path98" />
  <path
     fill="#705236"
     d="m 335.56671,444.67234 2.54,-19.29 q 0.09,-0.68 -0.59,-0.82 -6.48,-1.31 -8.21,-7.72 a 0.75,0.75 0 0 0 -0.76,-0.55 c -12.58,0.65 -11.62,-13.02 -6.55,-19.99 q 3.16,-4.34 8.23,-9.01 c 1.93,-1.78 2.6,-4.06 1.82,-6.76 q -2.74,-9.52 -4.15,-19.6 0.97,-1.53 1.04,-3.88 a 0.62,0.62 0 0 1 1.23,-0.1 q 1.68,8.02 3.61,16.05 0.32,1.33 1.82,1.81 0.45,0.14 0.61,0.59 c 4.43,12.3 -8.26,15.27 -12.37,24.62 -2.17,4.92 -2.08,10.15 4.39,11 0.99,0.13 2.35,-0.43 3.64,-0.18 q 0.52,0.1 0.6,0.62 1.4,8.37 9.93,7.31 0.54,-0.07 0.49,0.46 c -0.69,8.65 -0.48,15.2 -5.32,23.13 q -1.24,2.03 -2,2.31 z"
     id="path99" />
  <path
     fill="#4b3522"
     d="m 140.50671,370.52234 c 4.83,12.75 -10.72,21.03 -10.47,12.33 0.05,-1.76 1.45,-3.41 2.41,-5.05 a 1.35,1.34 54.9 0 0 0.16,-0.92 q -1.16,-6.09 3.72,-9.22 c 2.51,-1.6 3.43,0.89 4.18,2.86 z"
     id="path100" />
  <path
     fill="#000000"
     d="m 358.14671,367.03234 c 11.32,7.18 11.47,28.36 7.59,39.27 -1.69,4.76 -8.01,10.6 -13.14,6.8 2.26,-0.93 5.32,1.99 6.87,-1.79 q 0.52,-0.02 1.07,-0.42 c 5.16,-1.54 5.54,-14.23 5.07,-18.48 2.27,-3 0.91,-4.67 1.56,-8 a 0.12,0.11 79.3 0 0 -0.17,-0.12 l -0.37,0.22 q -0.22,0.13 -0.26,-0.12 -1.6,-9.27 -8.22,-17.36 z"
     id="path101" />
  <path
     fill="#943927"
     d="m 181.77671,377.71234 c -4.22,3.08 -13.67,-6.27 -21.2,-2.88 q -0.79,-0.95 -0.57,-2.48 0.07,-0.49 0.52,-0.7 c 7.22,-3.32 17.17,-1.18 21.25,6.06 z"
     id="path102" />
  <path
     fill="#f8e2c9"
     d="m 356.30671,370.09234 q 8.22,9.6 9.3,22.32 c 0.47,4.25 0.09,16.94 -5.07,18.48 q -0.18,-0.01 -0.34,-0.09 -0.36,-0.19 -0.17,-0.55 c 5.87,-10.94 1.64,-25.67 -4.58,-36.12 q -1.31,-2.19 0.86,-4.04 z"
     id="path103" />
  <path
     fill="#f0c592"
     d="m 133.39671,379.40234 c 1.77,-2.8 1.57,-3.68 2.13,-6.83 a 0.49,0.49 0 0 1 0.97,0.05 q 0.4,4.82 -0.85,9.56 a 0.49,0.5 35.5 0 1 -0.89,0.15 l -1.35,-2.04 a 0.8,0.81 44.2 0 1 -0.01,-0.89 z"
     id="path104" />
  <path
     fill="#fb5b3f"
     d="m 181.77671,377.71234 2.82,4.34 a 0.58,0.58 0 0 0 0.81,0.16 q 1.06,-0.73 1.08,-3.32 8.48,4.67 11.45,13.27 0.12,0.36 -1.13,0.63 -24.8,3.15 -36.23,-17.96 c 7.53,-3.39 16.98,5.96 21.2,2.88 z"
     id="path105" />
  <path
     fill="#943927"
     d="m 196.80671,392.79234 q 1.25,-0.27 1.13,-0.63 -2.97,-8.6 -11.45,-13.27 l -0.51,-2.82 q -0.11,-0.61 0.51,-0.66 c 7.18,-0.59 14.02,8.89 16.84,14.71 q 0.51,1.05 -0.56,1.52 -2.85,1.25 -5.96,1.15 z"
     id="path106" />
  <path
     fill="#4b3522"
     d="m 345.29671,388.12234 a 0.74,0.74 0 0 1 0.07,-1.05 l 0.26,-0.23 a 2.26,2.45 48.8 0 1 3.33,0.09 l 0.24,0.27 a 2.26,2.45 48.8 0 1 -0.35,3.31 l -0.27,0.23 a 0.74,0.74 0 0 1 -1.04,-0.07 z"
     id="path107" />
  <path
     fill="#4b3522"
     d="m 108.19671,400.66234 c -3.11,-3.89 4.94,-8.64 8.48,-10.57 3.35,-1.83 6.02,-1.25 7.85,2.01 a 1.15,1.14 34.8 0 1 0.14,0.77 c -1.26,7.83 -8.87,9.91 -15.77,8.23 q -0.43,-0.1 -0.7,-0.44 z"
     id="path108" />
  <path
     stroke="#bf966b"
     stroke-width="2"
     fill="none"
     stroke-linecap="butt"
     vector-effect="non-scaling-stroke"
     d="m 120.70671,394.25234 q -4.69,1.59 -9.6,1.1"
     id="path109" />
  <path
     fill="#f8e2c9"
     d="m 334.78671,389.08234 q 0.23,-0.1 0.45,0.1 a 0.49,0.49 0 0 1 0.03,0.69 c -2.43,2.72 -6.03,5.31 -6.99,8.65 q -0.92,3.17 -0.19,7.06 c -6.32,-5.55 1.92,-12.03 6.7,-16.5 z"
     id="path110" />
  <path
     fill="#f0c592"
     d="m 120.70671,394.25234 q -4.69,1.59 -9.6,1.1 c 2.14,-2.18 7.29,-4.23 9.6,-1.1 z"
     id="path111" />
  <path
     fill="#8d6743"
     d="m 120.70671,394.25234 q 1.4,2.48 -2.21,3.2 -2.6,0.51 -5.25,0.95 -2.17,0.35 -2.93,-1.15 -0.57,-1.13 0.79,-1.9 4.91,0.49 9.6,-1.1 z"
     id="path112" />
  <path
     fill="#8d6743"
     d="m 347.08671,395.39234 q -2.09,10.28 -11.07,15.19 -0.78,-1.38 -0.15,-1.85 2.9,-2.14 5.38,-4.77 c 2.26,-2.4 3.32,-5.85 5.84,-8.57 z"
     id="path113" />
  <path
     fill="#8d6743"
     d="m 357.26671,399.43234 q 0.51,4.05 -2.45,7.47 -0.66,-4.56 2.45,-7.47 z"
     id="path114" />
  <path
     fill="#f8e2c9"
     d="m 352.35671,404.50234 c -1.8,6.36 -6.17,14.29 -13.92,9.37 10.23,0.65 8.01,-5.05 13.92,-9.37 z"
     id="path115" />
  <path
     fill="#f8e2c9"
     d="m 87.43671,419.05234 1.7,0.33 a 0.38,0.39 43.3 0 1 0.02,0.75 l -1.02,0.26 q -0.49,0.13 -0.35,0.62 c 5.53,19.48 13.13,38.84 27.77,52.9 2.79,2.67 8.62,5.54 9.32,10.22 q 0.29,1.91 0.13,3.29 c -28.38,-10.78 -38.87,-40.09 -43.11,-67.63 q -0.08,-0.54 0.47,-0.56 z"
     id="path116" />
  <path
     fill="#bb8a5d"
     d="m 330.95671,432.50234 q 0.36,4.06 -2.21,6.46 -0.37,-4.08 -0.45,-7.83 0,-0.3 0.27,-0.45 0.46,-0.25 0.57,0.27 0.45,2.1 1.82,1.55 z"
     id="path117" />
  <path
     fill="#4b3522"
     d="m 275.81671,460.05234 q -0.75,0.5 -0.86,1.33 -0.07,0.52 0.34,0.85 l 2.02,1.61 c -0.39,6.02 -4.48,7.5 -10.06,7.96 q -5.72,0.48 -11.96,0.82 a 1.66,1.65 70.7 0 1 -1.44,-0.7 c -2.78,-3.99 6.45,-9.75 9.32,-10.81 q 0.46,-0.17 0.55,-0.66 c 0.71,-3.8 3.56,-10.47 8.09,-10.63 5.03,-0.18 5.26,6.77 4,10.23 z"
     id="path118" />
  <g
     stroke-width="2"
     fill="none"
     stroke-linecap="butt"
     id="g121"
     transform="translate(-9.7632898,-3.6876624)">
    <path
       stroke="#bf966b"
       vector-effect="non-scaling-stroke"
       d="m 282.36,460.23 q -2.15,1.49 -3.2,0.74 -0.44,-0.31 -0.39,-0.85 0.1,-1.32 -0.56,-2.63"
       id="path119" />
    <path
       stroke="#d6a878"
       vector-effect="non-scaling-stroke"
       d="m 279.24,467.97 q 0.06,0.39 -0.01,0.61 -0.08,0.21 -0.45,0.26 -6.66,0.88 -12.51,3"
       id="path120" />
    <path
       stroke="#d6a878"
       vector-effect="non-scaling-stroke"
       d="m 281,469.19 q -0.78,-0.06 -0.98,0.82 -0.24,1.07 0.47,1.57"
       id="path121" />
  </g>
  <path
     fill="#f0c592"
     d="m 272.59671,456.54234 q -2.15,1.49 -3.2,0.74 -0.44,-0.31 -0.39,-0.85 0.1,-1.32 -0.56,-2.63 2.28,-0.86 4.15,2.74 z"
     id="path122" />
  <path
     fill="#8d6743"
     d="m 268.44671,453.80234 q 0.66,1.31 0.56,2.63 -0.05,0.54 0.39,0.85 1.05,0.75 3.2,-0.74 l 0.86,3.09 a 0.86,0.85 87.9 0 1 -0.99,1.07 l -3.75,-0.77 a 0.61,0.61 0 0 0 -0.67,0.34 q -0.32,0.72 -1.1,0.53 -0.61,-0.15 -0.68,-0.78 -0.37,-3.35 2.18,-6.22 z"
     id="path123" />
  <path
     fill="#d1d1d1"
     d="m 368.75671,546.17234 q 10.13,-7.36 16.91,-18.91 2.26,-3.84 2.62,-6.89 a 0.83,0.84 13.6 0 0 -0.53,-0.87 l -4.87,-1.83 a 0.52,0.52 0 0 1 -0.2,-0.83 c 3.75,-4.24 8.79,-10.37 9.86,-16.01 q 0.45,-2.42 -3.44,-3.82 -0.76,-0.28 -0.32,-0.95 3.36,-5.04 5.14,-10.84 a 0.92,0.91 19.8 0 0 -0.53,-1.11 q -16.08,-6.58 -33.49,-7.15 -0.74,-0.03 -0.28,-0.6 0.87,-1.07 2.39,-1.51 4.26,-2.62 3.86,-7.36 a 1.15,1.16 17.2 0 0 -0.42,-0.8 c -3.63,-2.95 -9.49,-3.15 -14.44,-2.95 q 0.24,-0.85 -1.34,0.69 -0.39,0.38 -0.94,0.37 l -15.37,-0.42 q -1.39,-1.44 -4.41,-1.49 0.12,-2.7 1.39,-5.2 22.68,-3.85 45.64,-3.03 3.25,0.11 6.49,0.56 0.45,0.06 0.81,0.33 l 4.29,3.26 a 0.52,0.53 19.9 0 1 0.21,0.46 l -0.23,2.73 a 1.26,1.27 6.5 0 0 1.08,1.36 q 4.79,0.66 8.81,3.3 c 5.64,3.69 0.34,9.35 -2,13.12 a 1.33,1.34 11.9 0 0 1.32,2.03 q 4.55,-0.65 8.93,0.76 a 0.8,0.8 0 0 1 0.56,0.78 c -0.05,4.71 -5.94,11.62 -8.65,15.46 -2.77,3.91 -3.81,7.41 -3.26,11.9 a 1.04,1.04 0 0 0 0.89,0.9 l 17.49,2.41 a 0.98,0.97 14.6 0 1 0.78,1.32 q -2.6,6.7 -8.15,11.32 a 1.51,1.51 0 0 0 -0.51,0.81 c -2.48,9.77 -11.52,24.47 -22.31,27.09 a 0.98,0.96 58.4 0 1 -0.89,-0.22 c -2.81,-2.5 -2.04,-4.83 -2.19,-8.17 q -0.02,-0.6 -0.63,-0.57 z"
     id="path124" />
  <path
     fill="#705236"
     d="m 320.18671,472.06234 -0.13,-1.7 a 0.76,0.78 58.7 0 1 0.11,-0.43 l 2.65,-4.46 a 0.85,0.82 49.6 0 0 0.05,-0.78 l -3.37,-7.49 q 3.18,-0.14 4.98,1.97 c 3.5,4.1 -0.76,10.31 -4.29,12.89 z"
     id="path125" />
  <path
     fill="#666666"
     d="m 328.95671,462.89234 q 3.02,0.05 4.41,1.49 -0.56,4.59 -3.45,7.88 -0.43,0.49 0.15,0.8 l 1.12,0.61 q 0.72,0.38 0.34,1.11 l -4.11,7.97 a 0.49,0.49 0 0 0 0.4,0.72 l 5.52,0.48 q 0.65,0.06 0.65,0.71 v 0.89 q 0,0.59 0.54,0.82 9.17,4.07 14.08,12.73 1.04,1.83 2.79,3.62 7.18,7.36 2.95,18.68 c -5.8,-22.21 -25.35,-29.39 -45.66,-21.53 q -0.45,0.18 -0.44,-0.3 c 0.26,-9.08 3.13,-16.39 9.6,-22.69 q 6.55,-6.38 11.11,-13.99 z"
     id="path126" />
  <path
     fill="#a1a1a1"
     d="m 351.01671,463.74234 q 3.88,1.2 7.94,1.2 c 7.49,0.01 3.15,6.32 3.06,9.91 q -1.52,0.44 -2.39,1.51 -0.46,0.57 0.28,0.6 17.41,0.57 33.49,7.15 a 0.92,0.91 19.8 0 1 0.53,1.11 q -1.78,5.8 -5.14,10.84 -0.44,0.67 0.32,0.95 3.89,1.4 3.44,3.82 c -1.07,5.64 -6.11,11.77 -9.86,16.01 a 0.52,0.52 0 0 0 0.2,0.83 l 4.87,1.83 a 0.83,0.84 13.6 0 1 0.53,0.87 q -0.36,3.05 -2.62,6.89 -6.78,11.55 -16.91,18.91 -2.45,0.79 -4.19,2.25 c -2.9,2.43 -4.21,3.59 -8.02,4.58 -6.72,1.77 -16.01,5.31 -22.83,5.06 a 1.78,1.78 0 0 1 -1.22,-3.01 q 3.61,-3.79 5.14,-8.14 c 9.8,-5.25 15.95,-14.23 16.71,-25.51 q 4.23,-11.32 -2.95,-18.68 -1.75,-1.79 -2.79,-3.62 -4.91,-8.66 -14.08,-12.73 -0.54,-0.23 -0.54,-0.82 v -0.89 q 0,-0.65 -0.65,-0.71 l -5.52,-0.48 a 0.49,0.49 0 0 1 -0.4,-0.72 l 4.11,-7.97 q 0.38,-0.73 -0.34,-1.11 l -1.12,-0.61 q -0.58,-0.31 -0.15,-0.8 2.89,-3.29 3.45,-7.88 l 15.37,0.42 q 0.55,0.01 0.94,-0.37 1.58,-1.54 1.34,-0.69 z"
     id="path127" />
  <path
     fill="#f0c592"
     d="m 269.47671,464.28234 q 0.06,0.39 -0.01,0.61 -0.08,0.21 -0.45,0.26 -6.66,0.88 -12.51,3 -0.24,-1.75 2.47,-2.87 4.63,-1.91 10.5,-1 z"
     id="path128" />
  <path
     fill="#bb8a5d"
     d="m 269.47671,464.28234 1.76,1.22 q -0.78,-0.06 -0.98,0.82 -0.24,1.07 0.47,1.57 c -3.48,0.29 -11.26,1.76 -14.22,0.26 q 5.85,-2.12 12.51,-3 0.37,-0.05 0.45,-0.26 0.07,-0.22 0.01,-0.61 z"
     id="path129" />
  <path
     fill="#f0c592"
     d="m 271.23671,465.50234 q 1.46,0.59 2.29,1.63 0.45,0.58 -0.28,0.62 l -2.52,0.14 q -0.71,-0.5 -0.47,-1.57 0.2,-0.88 0.98,-0.82 z"
     id="path130" />
  <path
     fill="#eaac71"
     d="m 307.35671,473.63234 q 0.35,0.59 -0.36,2.22 -3.99,9.09 -8.03,18.16 -0.11,0.24 -0.32,0.28 -0.45,0.09 -0.32,-0.35 3.3,-10.59 9.03,-20.31 z"
     id="path131" />
  <path
     fill="#d1d1d1"
     d="m 108.35671,485.17234 q 2.43,-0.22 2.07,1.35 1.14,2.8 3.94,5.16 c -9.1,6.26 -17.62,5.05 -27.63,5.6 q -9.76,-0.61 -14.96,6.91 -10.26,13.07 -5.56,26.93 -2.24,6.04 2.99,11.44 c -6.93,0.09 -13.94,2.17 -19.79,2.68 q -15.28,1.31 -27.69,0.36 c -6.1,-0.47 5.19,-15.55 6.37,-16.95 a 1.28,1.28 0 0 0 -1.06,-2.1 l -9.46,0.63 a 1.25,1.23 80.7 0 1 -1.28,-0.93 q -0.27,-1.07 0.26,-2.43 6.05,-15.35 20.43,-23.25 c 4.44,-2.44 7.15,-6.7 13.46,-7.86 q 29.99,-5.49 47.47,-9.27 c 4.47,-0.97 6.3,0.97 10.44,1.73 z"
     id="path132" />
  <path
     fill="#f0c592"
     d="m 121.71671,491.10234 q 0.57,0.69 0.02,0.95 -0.59,0.28 -1.24,0.28 -0.5,0 -0.89,0.31 c -3.02,2.44 -6.76,3.83 -9.39,6.57 a 1.26,1.26 0 0 0 1.13,2.11 q 1.61,-0.29 3.53,-0.74 0.44,-0.11 0.71,0.03 0.41,0.22 0.42,0.74 0.01,0.54 0.45,0.84 0.92,0.65 2.05,0.05 0.41,-0.21 0.8,0.03 0.85,0.51 0.65,1.47 a 0.97,0.97 0 0 0 1.05,1.16 c 3.38,-0.35 6.2,-0.98 9.49,0.13 q 8.93,3.02 17.8,6.38 a 0.76,0.75 32.4 0 1 0.28,1.23 q -1.94,2.03 -1.91,4.86 c -13.22,3.42 -25.33,10.24 -38.49,13.2 -5.37,1.21 -11.27,1.08 -17,1.69 q -3.33,0.36 -4.87,2.75 c -18.04,3.29 -21.45,-19.13 -13.5,-30.37 q 3.71,-4.07 11.26,-3.54 c 11.75,0.97 26.27,-2.07 35.49,-10.13 a 1.24,1.28 25.8 0 1 0.85,-0.31 q 0.69,0.02 1.31,0.31 z"
     id="path133" />
  <path
     fill="#eaac71"
     d="m 121.71671,491.10234 4.65,0.66 q 0.49,0.07 0.85,0.42 c 1.31,1.29 2.7,2.65 4.25,3.65 q 15.42,9.88 33.17,17.4 c -5.99,4.21 -11.44,3.75 -17.97,4.27 q -0.03,-2.83 1.91,-4.86 a 0.76,0.75 32.4 0 0 -0.28,-1.23 q -8.87,-3.36 -17.8,-6.38 c -3.29,-1.11 -6.11,-0.48 -9.49,-0.13 a 0.97,0.97 0 0 1 -1.05,-1.16 q 0.2,-0.96 -0.65,-1.47 -0.39,-0.24 -0.8,-0.03 -1.13,0.6 -2.05,-0.05 -0.44,-0.3 -0.45,-0.84 -0.01,-0.52 -0.42,-0.74 -0.27,-0.14 -0.71,-0.03 -1.92,0.45 -3.53,0.74 a 1.26,1.26 0 0 1 -1.13,-2.11 c 2.63,-2.74 6.37,-4.13 9.39,-6.57 q 0.39,-0.31 0.89,-0.31 0.65,0 1.24,-0.28 0.55,-0.26 -0.02,-0.95 z"
     id="path134" />
  <path
     fill="#000000"
     d="m 86.73671,497.28234 q -0.86,2.72 -2.67,3.95 -7.55,-0.53 -11.26,3.54 -0.53,0.19 -1.03,-0.58 5.2,-7.52 14.96,-6.91 z"
     id="path135" />
  <path
     fill="#f8e2c9"
     d="m 344.48671,539.73234 q -0.29,-0.97 -0.55,-1.18 c 2.78,-3.64 5.8,-8.49 3.38,-13.07 q -5.82,-11.04 -16.45,-17.51 -8.46,-5.15 -20.3,-4.6 21.44,-6.28 33.92,10.16 c 6.24,8.22 7.49,18.15 0,26.2 z"
     id="path136" />
  <path
     fill="#eaac71"
     d="m 310.56671,503.37234 q 11.84,-0.55 20.3,4.6 10.63,6.47 16.45,17.51 c 2.42,4.58 -0.6,9.43 -3.38,13.07 q -2.07,-0.51 -3.45,-0.23 -8.92,1.84 -18.02,2.02 c -2.15,0.04 -3.73,-1.25 -5.66,-1.4 -12.83,-1.03 -25.41,-5.58 -37.81,-8.91 -9.3,-2.49 -31.82,2.4 -29.09,-15.4 q 3.28,-5.15 8.87,-5.5 c 13.58,-0.84 26.82,3.22 39.57,-2.06 q 6.57,-2.72 12.22,-3.7 z"
     id="path137" />
  <path
     fill="#917658"
     d="m 257.03671,505.78234 c -5.5,2.93 -12.05,10.63 -14.12,16.86 q -0.15,0.44 -0.62,0.45 -46.12,0.93 -88.01,-19.49 12.99,1.05 17.03,1.83 c 26.99,5.25 46.41,8.74 71.82,8.63 a 1.14,1.13 19.1 0 0 0.89,-0.43 q 4.89,-5.99 11.82,-9.48 0.45,-0.23 0.78,0.16 0.44,0.5 0.41,1.47 z"
     id="path138" />
  <path
     fill="#917658"
     d="m 164.63671,513.23234 q 1.2,2.24 -1.71,5.47 -0.32,0.36 -0.8,0.49 c -6.45,1.73 -13.57,1.86 -19.38,3.51 q -10.64,3.01 -20.65,7.73 c -7.94,3.75 -12.37,5.64 -20.1,5.13 q -7.67,-0.51 -15.69,-0.42 1.54,-2.39 4.87,-2.75 c 5.73,-0.61 11.63,-0.48 17,-1.69 13.16,-2.96 25.27,-9.78 38.49,-13.2 6.53,-0.52 11.98,-0.06 17.97,-4.27 z"
     id="path139" />
  <path
     fill="#8d6743"
     d="m 249.90671,514.63234 c -2.73,17.8 19.79,12.91 29.09,15.4 12.4,3.33 24.98,7.88 37.81,8.91 1.93,0.15 3.51,1.44 5.66,1.4 q 9.1,-0.18 18.02,-2.02 1.38,-0.28 3.45,0.23 0.26,0.21 0.55,1.18 c -18.2,11.36 -45.93,0.2 -64.73,-5.49 q -4.89,-1.48 -22.23,-3.5 c -5.06,-0.58 -9.23,-2.2 -10.63,-7.07 q -1.71,-5.94 3.01,-9.04 z"
     id="path140" />
  <path
     fill="#666666"
     d="m 299.74671,547.03234 q -7.01,1.9 -11.26,2.03 -5.14,0.16 -9.01,0.43 -7.04,-1.57 -21.74,-3.47 c -26.31,-3.38 -53.27,-10.8 -80.12,-19 -4.79,-1.46 -9.77,-2.06 -13.83,0.08 q -12.31,6.49 -20.85,8.77 c -5.41,1.44 -12.3,1.95 -16.54,5.67 -6.45,1.26 -13.53,3.28 -19.27,4.08 q -19.56,2.73 -37.92,-3.06 -5.23,-5.4 -2.99,-11.44 3.64,6.05 8.76,7.84 c 3.49,1.22 8.07,-0.1 11.98,0.27 q 8.49,0.78 17.01,0.56 c 6.81,-0.18 13.51,-3.63 19.56,-6.42 9.73,-4.48 17.49,-6.89 27.3,-8.38 8.49,-1.3 13.33,-2.95 18.04,-9.56 a 0.72,0.73 27.6 0 1 0.83,-0.27 c 23.25,8.26 47.75,12.63 72.42,11.46 q 0.49,-0.02 0.62,0.45 c 2.04,7.71 9.5,8.69 16.68,8.82 11.44,0.22 25.63,5.41 39.7,9.95 q 0.52,0.17 0.58,0.71 z"
     id="path141" />
  <path
     fill="#a1a1a1"
     d="m 279.47671,549.49234 q -10.93,1.83 -21.33,0.88 c -9.08,-0.83 -16.79,-5.82 -26.29,-5.78 q -17.3,0.05 -33.3,-3.37 -2.77,-0.6 -5.85,-2.42 a 1.56,1.57 57.6 0 0 -0.95,-0.21 c -6.01,0.69 -10.49,-0.86 -16.02,-0.59 q -8.11,0.38 -16.18,1.2 c -9.3,0.94 -19.1,1.17 -28.64,2.28 q -1.61,0.18 -4.52,0.06 c 4.24,-3.72 11.13,-4.23 16.54,-5.67 q 8.54,-2.28 20.85,-8.77 c 4.06,-2.14 9.04,-1.54 13.83,-0.08 26.85,8.2 53.81,15.62 80.12,19 q 14.7,1.9 21.74,3.47 z"
     id="path142" />
</svg>
