<?xml version="1.0" encoding="UTF-8" standalone="no"?>
<svg
   version="1.1"
   viewBox="0 0 252.8176 366.70062"
   id="svg106"
   sodipodi:docname="diploma_04.svg"
   width="252.8176"
   height="366.70062"
   inkscape:version="1.3 (0e150ed6c4, 2023-07-21)"
   xmlns:inkscape="http://www.inkscape.org/namespaces/inkscape"
   xmlns:sodipodi="http://sodipodi.sourceforge.net/DTD/sodipodi-0.dtd"
   xmlns="http://www.w3.org/2000/svg"
   xmlns:svg="http://www.w3.org/2000/svg">
  <defs
     id="defs106" />
  <sodipodi:namedview
     id="namedview106"
     pagecolor="#ffffff"
     bordercolor="#666666"
     borderopacity="1.0"
     inkscape:showpageshadow="2"
     inkscape:pageopacity="0.0"
     inkscape:pagecheckerboard="0"
     inkscape:deskcolor="#d1d1d1"
     inkscape:zoom="2.3390313"
     inkscape:cx="115.85993"
     inkscape:cy="183.62302"
     inkscape:window-width="1920"
     inkscape:window-height="1017"
     inkscape:window-x="-8"
     inkscape:window-y="-8"
     inkscape:window-maximized="1"
     inkscape:current-layer="svg106" />
  <g
     stroke-width="2"
     fill="none"
     stroke-linecap="butt"
     id="g5"
     transform="translate(-37.41005,31.823069)">
    <path
       stroke="#633212"
       vector-effect="non-scaling-stroke"
       d="m 135.35,283.83 q 0.1,4.71 -3.05,4.64"
       id="path2" />
    <path
       stroke="#b7804d"
       vector-effect="non-scaling-stroke"
       d="m 132.3,288.47 2.24,-21.25 q 0.06,-0.53 -0.35,-0.88 l -5.97,-5.05 a 0.33,0.33 0 0 0 -0.54,0.24 l -0.63,27.16"
       id="path3" />
    <path
       stroke="#633212"
       vector-effect="non-scaling-stroke"
       d="m 127.05,288.69 q -1.43,0.27 -2.51,-0.06 -0.47,-0.14 -0.46,-0.64 l 0.15,-5.03"
       id="path4" />
    <path
       stroke="#a07244"
       vector-effect="non-scaling-stroke"
       d="m 132.3,288.47 -5.25,0.22"
       id="path5" />
  </g>
  <path
     fill="#7a401b"
     d="m 97.93995,315.65307 q 0.1,4.71 -3.05,4.64 l 2.24,-21.25 q 0.06,-0.53 -0.35,-0.88 l -5.97,-5.05 a 0.33,0.33 0 0 0 -0.54,0.24 l -0.63,27.16 q -1.43,0.27 -2.51,-0.06 -0.47,-0.14 -0.46,-0.64 l 0.15,-5.03 1.44,-23.78 q 0.03,-0.51 -0.28,-0.91 c -2.54,-3.17 -5.55,-6.41 -7.6,-9.64 q -13.48,-21.27 -17.98,-46.22 a 0.53,0.54 80.6 0 0 -0.61,-0.43 q -6.31,1.05 -12.2,-1.29 a 0.89,0.9 33.2 0 0 -0.97,0.21 c -4.43,4.47 -6.99,1.96 -11.91,2.98 q -8.58,1.77 -17.36,1.67 c -8.18,-0.1 -10.6500005,-5.15 -12.4900005,-12.11 a 1.16,1.18 6.6 0 0 -0.57,-0.73 c -5.32999999,-2.88 -7.47,-7.68 -4.81,-13.41 q 0.21,-0.46 -0.04,-0.89 c -5.61,-9.75 6.56,-15.19 12.7200005,-19.86 a 0.57,0.56 44.1 0 0 -0.02,-0.91 c -7.7700005,-5.58 -11.3400005,-20.64 -0.54,-25.41 7.44,-3.29 12.77,5.77 13.67,11.62 q 0.08,0.5 0.43,0.87 c 7.97,8.58 18.32,16.15 18.67,29.24 a 1.2,1.19 21.9 0 0 0.35,0.82 c 2.23,2.25 2.71,5.41 4.54,7.54 q 1.23,1.44 2.47,6.33 a 0.85,0.85 0 0 0 0.84,0.65 q 3.57,-0.04 6.55,-1.98 0.42,-0.26 0.44,-0.76 c 0.83,-15 3.8,-29.29 6.29,-43.81 3.26,-19.02 3.02,-38.46 3.37,-62.86 0.47,-33.060001 21.9,-63.500001 56.7,-65.690001 q 27.5,-1.72 49.12,15.59 c 29.79,23.86 40.37,72.570001 43.66,109.030001 q 0.87,9.7 0.6,17.68 -0.02,0.57 0.48,2.34 0.13,0.49 0.6,0.66 11.16,4.13 17.93,11.26 c 9.88,10.38 2.48,22.59 -5.19,31.7 q -0.34,0.41 -0.21,0.92 c 2.13,8.06 -2.46,8.48 -5.78,13.77 -4.66,7.43 -10.88,10.62 -19.48,15.66 -8.61,5.04 -9.04,16.26 -16.08,22.35 q -5.05,4.37 -10.31,0.74 -0.37,-0.26 -0.7,0.05 l -3.4,3.24 q -0.39,0.37 -0.29,0.89 l 4.2,23.7 a 0.58,0.57 85.7 0 0 0.55,0.48 q 7.15,0.16 13.98,2.25 1.39,0.43 0.56,1.62 l -3,4.31 q -0.22,0.32 0.05,0.6 l 4.42,4.59 a 0.56,0.52 71.1 0 0 0.28,0.15 c 13.84,2.66 18.76,5.61 23.03,19.87 0.24,0.78 0.78,1.16 1.5,1.35 q 0.53,0.14 0.63,0.68 l 2.01,10.3 q 0.12,0.57 -0.44,0.75 c -18.92,6.06 -37.51,6.12 -54.43,-4.13 -3.71,-2.25 -8.7,-5.59 -8.63,-9.85 q 0.08,-5.32 0.36,-10.65 0.03,-0.59 0.29,-1.12 l 0.85,-1.7 a 0.73,0.74 30.7 0 0 -0.23,-0.92 q -1.55,-1.13 0,-2.23 a 0.61,0.6 50.1 0 0 0.08,-0.92 l -2.2,-2.19 q -1.11,-1.11 -0.02,-2.25 l 1.26,-1.31 q 0.38,-0.39 0.04,-0.81 l -1.39,-1.76 q -0.43,-0.54 0.19,-0.83 l 8.97,-4.2 a 0.64,0.65 72.4 0 0 0.37,-0.7 l -3.19,-17.73 a 0.54,0.54 0 0 0 -0.81,-0.36 c -21.51,13.37 -46.42,14.04 -68.7,1.14 a 0.18,0.18 0 0 0 -0.27,0.14 z"
     id="path6" />
  <g
     stroke-width="2"
     fill="none"
     stroke-linecap="butt"
     id="g31"
     transform="translate(-37.41005,31.823069)">
    <path
       stroke="#f8d88b"
       vector-effect="non-scaling-stroke"
       d="m 251.83,177.78 q -0.08,-0.27 -0.1,-0.32 a 0.38,0.37 44.5 0 0 -0.72,-0.01 l -4.25,17.18"
       id="path7" />
    <path
       stroke="#f8d88b"
       vector-effect="non-scaling-stroke"
       d="m 204.18,258.44 q -6.31,4.53 -14.37,8.6 -0.79,0.4 -0.52,1.63"
       id="path8" />
    <path
       stroke="#e7b075"
       vector-effect="non-scaling-stroke"
       d="m 160.6,271.22 q -0.17,-0.31 -0.16,-1.06 0.01,-0.54 -0.48,-0.75 -14.61,-6.22 -22.62,-18.99 -12.91,-20.6 -17.36,-45.52 c -0.81,-4.51 -0.55,-9.86 -0.97,-14.61"
       id="path9" />
    <path
       stroke="#d49c64"
       vector-effect="non-scaling-stroke"
       d="m 119.01,190.29 q 1.06,-3.47 0.42,-6.26"
       id="path10" />
    <path
       stroke="#e7b075"
       vector-effect="non-scaling-stroke"
       d="m 119.43,184.03 1.05,-5"
       id="path11" />
    <path
       stroke="#b7804d"
       vector-effect="non-scaling-stroke"
       d="m 120.48,179.03 q 4.84,-3.15 4.77,-8.78 -0.04,-3.58 -1.74,-7.35"
       id="path12" />
    <path
       stroke="#e7b075"
       vector-effect="non-scaling-stroke"
       d="m 123.51,162.9 q 1.53,-19.22 0.09,-37.58 -0.21,-2.74 -0.86,-5.62"
       id="path13" />
    <path
       stroke="#c8ad8a"
       vector-effect="non-scaling-stroke"
       d="m 122.74,119.7 c 17.35,23.38 47.83,0.35 31.94,-21.58"
       id="path14" />
    <path
       stroke="#e7b075"
       vector-effect="non-scaling-stroke"
       d="m 154.68,98.12 c -3.4,-8.77 -7.45,-20.61 -13.47,-27.66"
       id="path15" />
    <path
       stroke="#b7804d"
       vector-effect="non-scaling-stroke"
       d="m 141.21,70.46 c -2.95,-4.6 -11.42,-11.33 -15.42,-4.24"
       id="path16" />
    <path
       stroke="#e7b075"
       vector-effect="non-scaling-stroke"
       d="M 125.79,66.22 Q 124.48,66.04 124.78,65 132.02,40.69 151.81,22.53"
       id="path17" />
    <path
       stroke="#aa7043"
       vector-effect="non-scaling-stroke"
       d="m 125.79,66.22 q -2.92,4.72 -3.48,9.97 -0.09,0.81 0.35,0.13 6.49,-9.95 18.55,-5.86"
       id="path18" />
    <path
       stroke="#bb9d80"
       vector-effect="non-scaling-stroke"
       d="m 154.68,98.12 c -1.83,-1.26 -3.32,-2.93 -5.15,-3.84 -18.23,-9.12 -34.3,7.14 -26.79,25.42"
       id="path19" />
    <path
       stroke="#aa7043"
       vector-effect="non-scaling-stroke"
       d="m 123.51,162.9 c -3.9,-5.4 -10.17,-7 -13.03,-0.1 -2.65,6.38 0.93,18.4 10,16.23"
       id="path20" />
    <path
       stroke="#c88c5a"
       vector-effect="non-scaling-stroke"
       d="m 119.43,184.03 q -5.84,-6.19 -8.81,-1.31 a 1.48,1.45 -33.2 0 0 -0.21,0.97 q 0.93,7.96 8.6,6.6"
       id="path21" />
    <path
       stroke="#e7b075"
       vector-effect="non-scaling-stroke"
       d="m 81.98,175.31 -2.62,6.17 A 0.31,0.31 0 0 1 78.77,181.4 Q 76.76,163.82 62.59,153.58 c -5.83,-4.2 -2.91,-10.81 -6.5,-16.25 q -1.18,-1.79 -2.2,-3.77"
       id="path22" />
    <path
       stroke="#e7b075"
       vector-effect="non-scaling-stroke"
       d="m 67.73,166.8 c -5.92,3.73 -17.27,8.62 -24.06,5.94 a 0.93,0.92 -84.3 0 1 -0.57,-0.7 q -0.34,-1.94 -1.4,-3.24"
       id="path23" />
    <path
       stroke="#e7b075"
       vector-effect="non-scaling-stroke"
       d="m 71.44,181.03 -1.74,-0.27 a 1.64,1.6 -53.5 0 0 -0.94,0.15 q -13.17,6.36 -28.75,4.55"
       id="path24" />
    <path
       stroke="#e7b075"
       vector-effect="non-scaling-stroke"
       d="m 75.34,187.94 q -6.98,10.13 -17.82,12.29 -3.23,0.65 -7.27,1.2"
       id="path25" />
    <path
       stroke="#e7b075"
       vector-effect="non-scaling-stroke"
       d="m 269.51,204 c -3.43,-0.59 -4.45,5.05 -5.77,7.39 q -0.39,0.69 -0.57,-0.08 -1.9,-8.01 -9.33,-9.66 c -14.88,-3.3 -35.49,3.13 -40.41,19.56 q -0.88,2.95 -0.35,6.62 0.83,5.64 2.21,11.67"
       id="path26" />
    <path
       stroke="#e7b075"
       vector-effect="non-scaling-stroke"
       d="m 233.83,247 q -2.14,-7.32 -5.23,-13.09"
       id="path27" />
    <path
       stroke="#e7b075"
       vector-effect="non-scaling-stroke"
       d="m 225.96,233.22 -5.6,-8.97"
       id="path28" />
    <path
       stroke="#d49c64"
       vector-effect="non-scaling-stroke"
       d="m 228.73,287.12 q -1.19,0.53 -0.84,2.39 a 0.51,0.51 0 0 1 -0.12,0.44 l -2.69,3.02 a 0.7,0.66 -73 0 1 -0.39,0.22 q -4.2,0.68 -6.46,2.91"
       id="path29" />
    <path
       stroke="#d49c64"
       vector-effect="non-scaling-stroke"
       d="m 250.05,303.67 q -13.76,4.09 -20.34,16.39 -0.23,0.44 -0.02,0.89 0.55,1.13 -0.01,2.56"
       id="path30" />
    <path
       stroke="#e7b075"
       vector-effect="non-scaling-stroke"
       d="m 231.62,325.24 q -1.14,1.3 0.13,1.52 c 10.64,1.93 19.12,-0.93 29.58,-4.09"
       id="path31" />
  </g>
  <path
     fill="#f3c07f"
     d="m 214.41995,209.60307 q -0.08,-0.27 -0.1,-0.32 a 0.38,0.37 44.5 0 0 -0.72,-0.01 l -4.25,17.18 q -10.63,0.46 -21.28,5.53 -0.47,0.22 -0.95,0 c -3.13,-1.46 -7.54,-4.37 -10.77,-3.9 -7.77,1.12 -7.81,10.56 -2.55,15.02 a 0.84,0.83 36.8 0 1 0.16,1.1 q -8.42,12.94 -8.62,28.63 c -0.08,5.84 1.76,13.63 9.51,7.94 q 0.59,-0.43 0.69,0.29 l 4.89,34.25 q 0.09,0.67 -0.58,0.78 l -4.26,0.69 a 0.54,0.53 80.3 0 1 -0.61,-0.44 q -3.58,-20.69 -11.22,-40.19 -0.08,-0.2 -0.24,-0.25 -0.26,-0.07 -0.2,0.2 l 3.45,14.16 q -6.31,4.53 -14.37,8.6 -0.79,0.4 -0.52,1.63 -13.52,4.84 -28.69,2.55 -0.17,-0.31 -0.16,-1.06 0.01,-0.54 -0.48,-0.75 -14.61,-6.22 -22.62,-18.99 -12.91,-20.6 -17.36,-45.52 c -0.81,-4.51 -0.55,-9.86 -0.97,-14.61 q 1.06,-3.47 0.42,-6.26 l 1.05,-5 q 4.84,-3.15 4.77,-8.78 -0.04,-3.58 -1.74,-7.35 1.53,-19.22 0.09,-37.58 -0.21,-2.74 -0.86,-5.62 c 17.35,23.38 47.83,0.35 31.94,-21.58 -3.4,-8.77 -7.45,-20.61 -13.47,-27.66 -2.95,-4.600001 -11.42,-11.330001 -15.42,-4.240001 q -1.31,-0.18 -1.01,-1.22 7.24,-24.31 27.03,-42.47 2.76,-1.41 6.44,-2 c 32.24,-5.12 58.36,11.44 73.19,39.28 13.76,25.840001 19.72,56.740001 21.64,86.380001 q 0.4,6.27 -0.03,10.42 -0.05,0.42 0.35,0.58 c 8.74,3.5 23.77,11.62 26.37,21.3 2.03,7.54 -3.64,16.84 -8.72,22.14 q -0.26,0.27 -0.53,0.02 l -4.79,-4.33 a 0.46,0.45 39.6 0 1 -0.06,-0.61 q 4.55,-6.04 5.28,-9.02 c 3.02,-12.33 -12,-18.79 -21.11,-21.15 q -1.64,-0.42 -0.12,0.32 0.85,0.41 2.45,1.05 0.49,0.19 0.52,0.71 0.32,5.06 -0.86,10.16 z"
     id="path32" />
  <g
     stroke-width="2"
     fill="none"
     stroke-linecap="butt"
     id="g37"
     transform="translate(-37.41005,31.823069)">
    <path
       stroke="#aa7043"
       vector-effect="non-scaling-stroke"
       d="m 220.12,69.18 c -10,-13.37 -19.9,-11.65 -33.88,-5.15"
       id="path33" />
    <path
       stroke="#bb9d80"
       vector-effect="non-scaling-stroke"
       d="M 217.32,99.86 C 213.81,82.06 194.08,76.13 181.6,89.17"
       id="path34" />
    <path
       stroke="#c88c5a"
       vector-effect="non-scaling-stroke"
       d="m 245.64,134.91 q -0.62,-1.12 -1.32,0.36 a 1.86,1.85 -61.4 0 1 -2.64,0.78 q -4,-2.42 -2.25,-7.99"
       id="path35" />
    <path
       stroke="#bc9859"
       vector-effect="non-scaling-stroke"
       d="m 205.8,179.24 c -7.7,24 -36.84,26.4 -56.5,17.63"
       id="path36" />
    <path
       stroke="#aa7043"
       vector-effect="non-scaling-stroke"
       d="m 144.04,194.32 c 2.86,0.3 6.57,2.58 8.25,-0.57 q 6.4,-12.04 3.1,-24.8 -0.13,-0.49 -0.61,-0.65 l -2.09,-0.69 a 1.1,1.1 0 0 1 -0.67,-0.63 l -2.3,-5.71 a 1.49,1.44 4.6 0 0 -0.66,-0.75 l -5.86,-3.28"
       id="path37" />
  </g>
  <path
     fill="#daa06b"
     d="m 114.39995,54.353069 q -19.79,18.16 -27.03,42.47 -0.3,1.04 1.01,1.22 -2.92,4.720001 -3.48,9.970001 -0.09,0.81 0.35,0.13 6.49,-9.950001 18.55,-5.86 c 6.02,7.05 10.07,18.89 13.47,27.66 -1.83,-1.26 -3.32,-2.93 -5.15,-3.84 -18.23,-9.12 -34.3,7.14 -26.79,25.42 q 0.65,2.88 0.86,5.62 1.44,18.36 -0.09,37.58 c -3.9,-5.4 -10.17,-7 -13.03,-0.1 -2.65,6.38 0.93,18.4 10,16.23 l -1.05,5 q -5.84,-6.19 -8.81,-1.31 a 1.45,1.48 56.8 0 0 -0.21,0.97 q 0.93,7.96 8.6,6.6 c 0.42,4.75 0.16,10.1 0.97,14.61 q 4.45,24.92 17.36,45.52 8.01,12.77 22.62,18.99 0.49,0.21 0.48,0.75 -0.01,0.75 0.16,1.06 c -31.84,-5.38 -47.56,-35.76 -54.24,-64.3 -3.77,-16.12 -1.1,-32.48 2.02,-48.91 4.43,-23.32 5.43,-45.08 5.6,-69.25 q 0.1,-13.88 1.24,-19.93 c 3.79,-20.040001 15.91,-39.840001 36.59,-46.300001 z"
     id="path38" />
  <path
     fill="#b57749"
     d="m 140.76695,59.279969 a 7.29,10.33 70 0 1 -7.2137,10.3835 7.29,10.33 70 0 1 -12.2003,-3.3173 7.29,10.33 70 0 1 7.2137,-10.3835 7.29,10.33 70 0 1 12.2003,3.3173 z"
     id="path39" />
  <ellipse
     fill="#daa06b"
     cx="102.25752"
     cy="103.25718"
     transform="rotate(-19.7)"
     rx="9.2600002"
     ry="6.4899998"
     id="ellipse39" />
  <ellipse
     fill="#daa06b"
     cx="34.59758"
     cy="126.57845"
     transform="rotate(-45.4)"
     rx="5.2199998"
     ry="3.8"
     id="ellipse40" />
  <path
     fill="#7a401b"
     d="m 182.70995,101.00307 c -10,-13.370001 -19.9,-11.650001 -33.88,-5.150001 q 7.2,-9.85 15.31,-12.02 c 9.86,-2.63 16.66,9.36 18.57,17.170001 z"
     id="path40" />
  <path
     fill="#daa06b"
     d="m 182.70995,101.00307 c 2.3,10.82 -0.04,19.25 -1.13,30.07 q -0.07,0.67 -1.04,1.36 -0.35,0.25 -0.43,-0.17 -0.08,-0.42 -0.2,-0.58 c -3.51,-17.8 -23.24,-23.73 -35.72,-10.69 l -2.73,0.13 q -0.46,0.02 -0.39,-0.44 2.25,-13.79 7.76,-24.830001 c 13.98,-6.5 23.88,-8.22 33.88,5.150001 z"
     id="path41" />
  <path
     fill="#7a401b"
     d="m 103.79995,102.28307 q -12.06,-4.090001 -18.55,5.86 -0.44,0.68 -0.35,-0.13 0.56,-5.25 3.48,-9.970001 c 4,-7.09 12.47,-0.36 15.42,4.240001 z"
     id="path42" />
  <path
     fill="#9c9995"
     d="m 179.90995,131.68307 q 0.82,11.03 -6.74,17.65 c -19.03,16.69 -44.85,-8.56 -28.98,-28.34 12.48,-13.04 32.21,-7.11 35.72,10.69 z"
     id="path43" />
  <path
     stroke="#dfe6f1"
     stroke-width="2"
     fill="none"
     stroke-linecap="butt"
     vector-effect="non-scaling-stroke"
     d="m 160.92995,116.34307 c 9.27,4.36 15.42,13.87 12.56,23.93 -0.97,3.44 -3.68,6.71 -5.49,10.22"
     id="path44" />
  <path
     fill="#ffffff"
     d="m 160.92995,116.34307 c 9.27,4.36 15.42,13.87 12.56,23.93 -0.97,3.44 -3.68,6.71 -5.49,10.22 q -4.59,2.88 -9.65,2.36 c -18.35,-1.91 -23.86,-24.65 -8.27,-34.55 q 5,-3.18 10.85,-1.96 z"
     id="path45" />
  <path
     stroke="#072238"
     stroke-width="2"
     fill="none"
     stroke-linecap="butt"
     vector-effect="non-scaling-stroke"
     d="m 165.11995,129.83307 c 5.42,4.7 2.63,11.92 -3.87,13.44 a 0.69,0.69 0 0 0 -0.47,0.96 l 0.3,0.68"
     id="path46" />
  <path
     fill="#becce3"
     d="m 167.99995,150.49307 c 1.81,-3.51 4.52,-6.78 5.49,-10.22 2.86,-10.06 -3.29,-19.57 -12.56,-23.93 18.6,-0.46 24.01,26.72 7.07,34.15 z"
     id="path47" />
  <path
     fill="#9c9995"
     d="m 117.26995,129.94307 c 15.89,21.93 -14.59,44.96 -31.94,21.58 -7.51,-18.28 8.56,-34.54 26.79,-25.42 1.83,0.91 3.32,2.58 5.15,3.84 z"
     id="path48" />
  <path
     stroke="#dfe6f1"
     stroke-width="2"
     fill="none"
     stroke-linecap="butt"
     vector-effect="non-scaling-stroke"
     d="m 112.28995,155.99307 c -3.23,0.24 -6.26,1.26 -9.28,0.88 q -15.47,-1.93 -16.66,-19.86"
     id="path49" />
  <path
     fill="#ffffff"
     d="m 112.28995,155.99307 c -3.23,0.24 -6.26,1.26 -9.28,0.88 q -15.47,-1.93 -16.66,-19.86 1.12,-4.2 4.63,-7.31 c 17.97,-15.92 40.93,12.5 21.31,26.29 z"
     id="path50" />
  <path
     stroke="#072238"
     stroke-width="2"
     fill="none"
     stroke-linecap="butt"
     vector-effect="non-scaling-stroke"
     d="m 101.05995,135.33307 -1.81,-0.22 q -0.5,-0.05 -0.9,0.22 -6.48,4.43 -3.16,11.82 0.28,0.61 0.05,0.89 -0.28,0.33 -1.03,0.4"
     id="path51" />
  <path
     fill="#0a395e"
     d="m 165.11995,129.83307 c 5.42,4.7 2.63,11.92 -3.87,13.44 a 0.69,0.69 0 0 0 -0.47,0.96 l 0.3,0.68 q -2.96,0.42 -5.93,-0.97 -0.45,-0.21 -0.28,-0.67 l 0.44,-1.15 a 1.44,1.44 0 0 0 -2.37,-1.52 l -0.51,0.5 q -0.46,0.46 -0.81,-0.08 c -3.99,-6.17 -1.07,-13.8 6.1,-15.45 q 0.72,-0.16 0.62,0.57 l -0.1,0.74 q -0.07,0.52 0.12,1 1.76,4.38 6.76,1.95 z"
     id="path52" />
  <path
     fill="#040a12"
     d="m 161.07995,144.91307 -0.3,-0.68 a 0.69,0.69 0 0 1 0.47,-0.96 c 6.5,-1.52 9.29,-8.74 3.87,-13.44 q -0.06,-0.74 0.8,-1.45 0.36,-0.3 0.69,0.04 c 5.73,6.01 2.23,14.64 -5.53,16.49 z"
     id="path53" />
  <path
     fill="#040a12"
     d="m 163.36995,135.29307 a 1.49,1.49 0 0 1 -0.6,2.02 l -1.66,0.9 a 3.37,3.34 61.6 0 1 -4.54,-1.37 l -0.09,-0.16 a 3.37,3.34 61.6 0 1 1.34,-4.55 l 1.66,-0.9 a 1.49,1.49 0 0 1 2.02,0.6 z"
     id="path54" />
  <path
     fill="#040a12"
     d="m 101.05995,135.33307 -1.81,-0.22 q -0.5,-0.05 -0.9,0.22 -6.48,4.43 -3.16,11.82 0.28,0.61 0.05,0.89 -0.28,0.33 -1.03,0.4 c -3.52,-6.31 -0.95,-13.94 6.35,-15.52 q 0.52,-0.11 0.51,0.41 z"
     id="path55" />
  <path
     fill="#0a395e"
     d="m 101.05995,135.33307 c 1.6,3.69 5.58,3.91 7.82,0.48 a 0.45,0.46 40.4 0 1 0.71,-0.06 c 7.79,8.32 -1.7,20.67 -11.72,15.81 q -0.54,-0.26 -0.26,-0.79 l 0.42,-0.82 a 1.4,1.4 0 0 0 -2.1,-1.76 q -0.72,0.56 -1.72,0.25 0.75,-0.07 1.03,-0.4 0.23,-0.28 -0.05,-0.89 -3.32,-7.39 3.16,-11.82 0.4,-0.27 0.9,-0.22 z"
     id="path56" />
  <path
     fill="#becce3"
     d="m 86.34995,137.01307 q 1.19,17.93 16.66,19.86 c 3.02,0.38 6.05,-0.64 9.28,-0.88 q -9.22,7.18 -18.91,1.05 -11.36,-7.19 -7.03,-20.03 z"
     id="path57" />
  <circle
     fill="#040a12"
     cx="102.44995"
     cy="142.75307"
     r="3.6199999"
     id="circle57" />
  <path
     fill="#b57749"
     d="m 191.98475,168.28447 a 3.85,5.34 29.2 0 1 -0.7555,-6.5397 3.85,5.34 29.2 0 1 5.9659,-2.7831 3.85,5.34 29.2 0 1 0.7555,6.5397 3.85,5.34 29.2 0 1 -5.9659,2.7831 z"
     id="path58" />
  <path
     fill="#daa06b"
     d="m 208.22995,166.73307 q -0.62,-1.12 -1.32,0.36 a 1.85,1.86 28.6 0 1 -2.64,0.78 q -4,-2.42 -2.25,-7.99 0.89,-1.15 2.57,-0.31 4.44,2.21 3.64,7.16 z"
     id="path59" />
  <ellipse
     fill="#daa06b"
     cx="50.886711"
     cy="-248.93802"
     transform="rotate(118.5)"
     rx="4.2600002"
     ry="3.01"
     id="ellipse59" />
  <path
     fill="#b57749"
     d="m 202.01995,159.88307 q -1.75,5.57 2.25,7.99 a 1.85,1.86 28.6 0 0 2.64,-0.78 q 0.7,-1.48 1.32,-0.36 c -1.26,6.22 -11.55,-0.9 -6.21,-6.85 z"
     id="path60" />
  <path
     fill="#daa06b"
     d="m 44.56995,207.13307 -2.62,6.17 a 0.31,0.31 0 0 1 -0.59,-0.08 q -2.01,-17.58 -16.18,-27.82 c -5.83,-4.2 -2.91,-10.81 -6.5,-16.25 q -1.18,-1.79 -2.2,-3.77 c 9.04,0.71 6.47,8.81 10.82,13.41 q 5.67,5.99 11.23,12.06 6.52,7.12 6.04,16.28 z"
     id="path61" />
  <path
     fill="#f3c07f"
     d="m 16.47995,165.38307 q 1.02,1.98 2.2,3.77 c 3.59,5.44 0.67,12.05 6.5,16.25 q 14.17,10.24 16.18,27.82 a 0.31,0.31 0 0 0 0.59,0.08 l 2.62,-6.17 c 7.84,6.64 1.93,19.55 -4.42,24.85 -2.72,2.27 -6.66,2.46 -10.08,3.15 q -1.05,0.21 -0.2,-0.43 c 6.51,-5.02 14.96,-12.04 6.09,-20.21 q -0.36,-0.33 -0.28,-0.81 1,-6.56 -4.29,-10.23 -0.46,-0.32 -0.23,-0.82 c 6.15,-13.81 -11.9,-11.21 -18.03,-8.42 q -1.14,0.52 -0.28,-0.39 c 1.84,-1.94 6.1,-2.9 2.15,-6.05 -7.0000005,-5.58 -8.7800005,-14.93 -1.91,-21.38 q 0.84,-0.79 3.39,-1.01 z"
     id="path62" />
  <path
     fill="#7a401b"
     d="m 168.38995,211.06307 c -7.7,24 -36.84,26.4 -56.5,17.63 l -5.26,-2.55 c 2.86,0.3 6.57,2.58 8.25,-0.57 q 6.4,-12.04 3.1,-24.8 -0.13,-0.49 -0.61,-0.65 l -2.09,-0.69 a 1.1,1.1 0 0 1 -0.67,-0.63 l -2.3,-5.71 a 1.49,1.44 4.6 0 0 -0.66,-0.75 l -5.86,-3.28 q -3.3,-5.25 0.07,-11.35 0.31,-0.56 0.36,0.08 c 0.4,5.59 0.9,11.85 7.62,11.78 15.29,-0.17 37.09,-5.5 45.08,-20.16 a 0.89,0.9 18.5 0 0 -0.65,-1.31 q -0.22,-0.03 -0.44,-0.05 -3.07,-0.23 -0.21,-1.36 5.57,-2.23 11.11,1.02 a 0.3,0.3 0 0 1 -0.16,0.56 l -5.18,-0.27 a 0.58,0.58 0 0 0 -0.59,0.74 c 3.63,13.11 8.37,29.28 5.59,42.32 z"
     id="path63" />
  <path
     fill="#7a401b"
     d="m 198.03705,190.51917 a 7.68,10.51 4.6 0 1 -6.8124,-11.092 7.68,10.51 4.6 0 1 8.4982,-9.8602 7.68,10.51 4.6 0 1 6.8124,11.092 7.68,10.51 4.6 0 1 -8.4982,9.8602 z"
     id="path64" />
  <ellipse
     fill="#daa06b"
     cx="165.13345"
     cy="-211.36751"
     transform="rotate(94.1)"
     rx="9.3000002"
     ry="6.6199999"
     id="ellipse64" />
  <path
     fill="#ffffff"
     d="m 118.74995,197.47307 c -2.39,-0.51 -3.04,-1.91 -2.89,-4.15 q 0.04,-0.56 0.6,-0.6 c 14.76,-1.23 30.68,-6.06 41.84,-16.16 q 0.72,-0.65 0.74,0.33 l 0.22,9.79 a 1.2,1.17 69.9 0 1 -0.42,0.93 c -10.34,8.69 -27.6,12.55 -40.09,9.86 z"
     id="path65" />
  <path
     fill="#daa06b"
     d="m 105.78995,189.06307 5.86,3.28 a 1.49,1.44 4.6 0 1 0.66,0.75 l 2.3,5.71 a 1.1,1.1 0 0 0 0.67,0.63 l 2.09,0.69 q 0.48,0.16 0.61,0.65 3.3,12.76 -3.1,24.8 c -1.68,3.15 -5.39,0.87 -8.25,0.57 q 1.94,-8.35 0.22,-17.14 c -1.14,-5.89 -3.79,-10.43 -2.93,-17.74 q 0.06,-0.47 0.52,-0.61 1.18,-0.35 1.35,-1.59 z"
     id="path66" />
  <path
     fill="#7a401b"
     d="m 86.09995,194.72307 q 1.7,3.77 1.74,7.35 0.07,5.63 -4.77,8.78 c -9.07,2.17 -12.65,-9.85 -10,-16.23 2.86,-6.9 9.13,-5.3 13.03,0.1 z"
     id="path67" />
  <ellipse
     fill="#daa06b"
     cx="211.36722"
     cy="-44.238781"
     transform="rotate(80.2)"
     rx="9.29"
     ry="6.5700002"
     id="ellipse67" />
  <path
     fill="#f3c07f"
     d="m 30.31995,198.62307 c -5.92,3.73 -17.27,8.62 -24.0600005,5.94 a 0.92,0.93 5.7 0 1 -0.57,-0.7 q -0.34,-1.94 -1.4,-3.24 c 2.75,-2.32 4.99,-4.49 8.5900005,-5.46 4.35,-1.17 19.07,-4.68 17.44,3.46 z"
     id="path68" />
  <path
     fill="#daa06b"
     d="m 30.31995,198.62307 c 0.39,8.88 -20.4500005,12.54 -26.2800005,11.26 q -0.48,-0.1 -0.73,-0.52 -3.12999999,-5.05 0.98,-8.74 1.06,1.3 1.4,3.24 a 0.92,0.93 5.7 0 0 0.57,0.7 c 6.7900005,2.68 18.1400005,-2.21 24.0600005,-5.94 z"
     id="path69" />
  <path
     fill="#f0e8d3"
     d="m 220.82995,202.47307 q 0.04,-0.53 0.51,-0.28 4.04,2.2 7.11,5.69 c 5.99,6.81 2.03,12.86 -2.44,18.69 q -0.36,0.47 -0.92,0.28 -3.39,-1.18 -6.8,0.09 -1.63,0.61 -1.23,-1.09 2.74,-11.55 3.77,-23.38 z"
     id="path70" />
  <path
     fill="#f3c07f"
     d="m 34.02995,212.85307 -1.74,-0.27 a 1.6,1.64 36.5 0 0 -0.94,0.15 q -13.17,6.36 -28.7500005,4.55 -0.8,-2.09 0.7,-5.08 0.25,-0.48 0.79,-0.43 c 8.8900005,0.84 18.1000005,-2.36 25.6100005,-6.94 a 0.79,0.78 45.3 0 1 0.84,0.01 q 4.19,2.73 3.49,8.01 z"
     id="path71" />
  <path
     fill="#fdef96"
     d="m 214.41995,209.60307 q -1.14,7.85 -2.89,15.66 -0.28,1.22 -2.18,1.19 l 4.25,-17.18 a 0.38,0.37 44.5 0 1 0.72,0.01 q 0.02,0.05 0.1,0.32 z"
     id="path72" />
  <path
     fill="#ffffff"
     d="m 122.82995,223.34307 c 14.43,1.49 28.06,-3.46 38.52,-13.19 q 0.56,-0.52 1.06,0.06 l 2.78,3.21 q 0.34,0.39 0.04,0.82 c -9.41,13.49 -25.36,18.21 -40.89,15.26 q -4.15,-0.79 -8.3,-1.71 -0.46,-0.1 -0.25,-0.53 2.25,-4.41 7.04,-3.92 z"
     id="path73" />
  <path
     fill="#fdef96"
     d="m 168.38995,211.06307 0.45,-0.01 q 0.61,-0.03 0.52,0.57 c -2.08,13.38 -12.98,22.99 -25.6,25.35 q -17.61,3.28 -33.14,-6.74 a 0.74,0.74 0 0 1 0.26,-1.35 l 1.01,-0.19 c 19.66,8.77 48.8,6.37 56.5,-17.63 z"
     id="path74" />
  <path
     fill="#b57749"
     d="m 82.01995,215.85307 q 0.64,2.79 -0.42,6.26 -7.67,1.36 -8.6,-6.6 a 1.45,1.48 56.8 0 1 0.21,-0.97 q 2.97,-4.88 8.81,1.31 z"
     id="path75" />
  <path
     fill="#daa06b"
     d="m 34.02995,212.85307 c -2.29,9.04 -18.89,11.29 -26.0000005,10.02 q -3.65,-0.65 -5.43,-5.59 15.5800005,1.81 28.7500005,-4.55 a 1.6,1.64 36.5 0 1 0.94,-0.15 z"
     id="path76" />
  <ellipse
     fill="#daa06b"
     cx="223.24219"
     cy="59.027138"
     transform="rotate(55.5)"
     rx="4.1700001"
     ry="2.8599999"
     id="ellipse76" />
  <path
     fill="#f3c07f"
     d="m 37.92995,219.76307 q -6.98,10.13 -17.82,12.29 -3.23,0.65 -7.27,1.2 -3.2800005,-3.11 -3.7200005,-7.94 -0.05,-0.55 0.51,-0.52 c 9.3000005,0.56 18.2600005,-1.53 24.8700005,-8.44 q 0.36,-0.38 0.82,-0.12 2.25,1.27 2.61,3.53 z"
     id="path77" />
  <path
     fill="#f3c07f"
     d="m 40.99995,233.18307 c 4.41,-3.98 8.63,-10.72 8.59,-16.84 a 0.37,0.37 0 0 1 0.69,-0.17 c 3.18,5.92 -1.25,18.36 -9.12,17.5 q -0.62,-0.06 -0.16,-0.49 z"
     id="path78" />
  <path
     fill="#daa06b"
     d="m 37.92995,219.76307 c 0.87,5.83 -4.09,10.04 -8.66,12.96 q -8.12,5.18 -16.43,0.53 4.04,-0.55 7.27,-1.2 10.84,-2.16 17.82,-12.29 z"
     id="path79" />
  <path
     fill="#f3c07f"
     d="m 51.02995,230.83307 a 0.36,0.35 21.7 0 1 -0.22,-0.49 l 3.06,-6.62 q 0.21,-0.45 0.69,-0.41 3.21,0.28 6.08,-1.17 0.54,-0.27 0.57,0.33 l 0.55,8.44 a 0.82,0.83 84.9 0 1 -0.73,0.87 q -5.11,0.58 -10,-0.95 z"
     id="path80" />
  <path
     fill="#daa06b"
     d="m 232.09995,235.82307 c -3.43,-0.59 -4.45,5.05 -5.77,7.39 q -0.39,0.69 -0.57,-0.08 -1.9,-8.01 -9.33,-9.66 c -14.88,-3.3 -35.49,3.13 -40.41,19.56 q -0.88,2.95 -0.35,6.62 0.83,5.64 2.21,11.67 -1.1,3.84 -6.09,8.63 a 1.64,1.64 0 0 1 -2.61,-0.46 q -1.39,-2.8 -1.42,-6.25 c -0.3,-30.42 24.64,-49.23 53.93,-43.19 q 0.53,0.11 0.84,-0.33 c 1.9,-2.71 8.38,4.31 9.57,6.1 z"
     id="path81" />
  <path
     fill="#f3c07f"
     d="m 175.45995,241.70307 a 0.29,0.29 0 0 1 -0.41,-0.03 l -0.12,-0.15 a 8.04,6 49.9 0 1 -0.59,-10.01 l 0.01,-0.02 a 8.04,6 49.9 0 1 9.77,2.29 l 0.12,0.15 a 0.29,0.29 0 0 1 -0.03,0.4 z"
     id="path82" />
  <path
     fill="#f3c07f"
     d="m 232.09995,235.82307 q 2.19,3.1 -0.07,6.31 a 0.49,0.49 0 0 1 -0.89,-0.25 l -0.16,-3.04 a 0.38,0.38 0 0 0 -0.75,-0.05 q -2.48,12.56 -12.7,18.45 c -6.29,3.63 -11.26,5.72 -15.23,11.44 q -3.11,4.47 -5.88,10.14 -2.14,-7.32 -5.23,-13.09 l 3.89,-11.19 a 0.23070544,0.23070544 0 0 0 -0.4,-0.23 q -3.56,4.16 -6.13,10.73 l -5.6,-8.97 4.16,-8.2 a 0.17,0.16 86 0 0 -0.24,-0.21 q -8.82,6.05 -6.99,16.9 0.3,1.8 -2,6.76 -1.38,-6.03 -2.21,-11.67 -0.53,-3.67 0.35,-6.62 c 4.92,-16.43 25.53,-22.86 40.41,-19.56 q 7.43,1.65 9.33,9.66 0.18,0.77 0.57,0.08 c 1.32,-2.34 2.34,-7.98 5.77,-7.39 z"
     id="path83" />
  <path
     fill="#daa06b"
     d="m 182.94995,256.07307 5.6,8.97 -3.94,9.69 a 0.24,0.24 0 0 1 -0.46,-0.03 c -1.32,-5.3 -3.15,-13.53 -1.2,-18.63 z"
     id="path84" />
  <path
     fill="#daa06b"
     d="m 191.18995,265.73307 q 3.09,5.77 5.23,13.09 -1.55,5.35 -6.61,7.79 c -2.05,0.98 -5.31,0.17 -5.16,-2.61 0.3,-5.6 4.16,-12.82 6.54,-18.27 z"
     id="path85" />
  <path
     fill="#f3c07f"
     d="m 180.95995,272.56307 1.99,6.74 a 0.34,0.34 0 0 1 -0.08,0.33 l -5,5.06 a 0.34,0.34 0 0 1 -0.58,-0.16 l -1.07,-4.69 a 0.34,0.34 0 0 1 0.04,-0.25 l 4.07,-7.1 a 0.34,0.34 0 0 1 0.63,0.07 z"
     id="path86" />
  <path
     fill="#fdef96"
     d="m 166.76995,290.26307 q 1.02,2.33 -0.87,3.37 -8.78,4.84 -14.02,6.86 -0.27,-1.23 0.52,-1.63 8.06,-4.07 14.37,-8.6 z"
     id="path87" />
  <path
     fill="#f3c07f"
     d="m 94.88995,320.29307 -5.25,0.22 0.63,-27.16 a 0.33,0.33 0 0 1 0.54,-0.24 l 5.97,5.05 q 0.41,0.35 0.35,0.88 z"
     id="path88" />
  <path
     fill="#4c2308"
     d="m 86.81995,314.78307 -0.15,5.03 q -0.01,0.5 0.46,0.64 1.08,0.33 2.51,0.06 l 5.25,-0.22 q 3.15,0.07 3.05,-4.64 l 10.14,4.12 q 0.6,0.24 0.1,0.65 -1.6,1.33 -0.57,3.1 a 0.8,0.82 45.7 0 1 -0.02,0.86 c -1.8,2.77 -2.61,5.18 -1.25,8.49 3.51,8.59 5.57,14.97 4.11,24.2 a 1.93,1.91 83.9 0 1 -1.2,1.5 c -13.08,5.16 -26.33,6.41 -41.16,5.94 -10.71,-0.33 -22.43,-0.92 -30.3,-4.75 q -0.39,-0.19 -0.4,-0.62 l -0.17,-8.69 q -0.01,-0.51 0.46,-0.69 1.33,-0.52 1.41,-1.42 c 0.59,-6.52 2.95,-12.8 10.25,-14.04 q 11.98,-2.04 25.76,-0.87 0.75,0.06 0.56,-0.67 l -2.71,-10.64 q -0.16,-0.63 0.48,-0.71 l 0.96,-0.13 q 0.45,-0.07 0.45,-0.52 v -3.04 q 0,-0.59 0.58,-0.7 z"
     id="path89" />
  <g
     stroke-width="2"
     fill="none"
     stroke-linecap="butt"
     id="g93"
     transform="translate(-37.41005,31.823069)">
    <path
       stroke="#d49c64"
       vector-effect="non-scaling-stroke"
       d="m 140.64,296.59 -14.74,0.37 a 0.33,0.33 0 0 0 -0.2,0.58 q 0.47,0.39 0.98,-0.09 7.13,-0.83 14,-0.03"
       id="path90" />
    <path
       stroke="#d49c64"
       vector-effect="non-scaling-stroke"
       d="m 140.94,299.83 q -9.73,-1.6 -15.64,0.2 -6.99,2.12 0.23,1.01 7.15,-1.09 15.53,-0.49"
       id="path91" />
    <path
       stroke="#d49c64"
       vector-effect="non-scaling-stroke"
       d="m 119.09,320.99 c -13.7,-3.08 -24.74,-6.44 -36.54,-14.87"
       id="path92" />
    <path
       stroke="#e7b075"
       vector-effect="non-scaling-stroke"
       d="m 76.87,321.36 q 9.83,3.58 16.13,3.87 15.82,0.73 38.75,-1.91 1.2,-0.14 0.67,-1.64"
       id="path93" />
  </g>
  <path
     fill="#b57749"
     d="m 191.31995,318.94307 q -1.19,0.53 -0.84,2.39 a 0.51,0.51 0 0 1 -0.12,0.44 l -2.69,3.02 a 0.66,0.7 17 0 1 -0.39,0.22 q -4.2,0.68 -6.46,2.91 -7.03,1.92 -13.05,5.5 -0.71,0.43 -0.51,-0.38 0.72,-2.89 -2.06,-4.54 a 1.01,1.01 0 0 1 -0.11,-1.66 l 5.97,-4.78 a 0.44,0.44 0 0 0 -0.47,-0.74 l -4.37,2.19 q -0.63,0.31 -0.58,-0.39 0.04,-0.65 0.77,-0.99 11.91,-5.51 24.91,-3.19 z"
     id="path94" />
  <path
     fill="#f3c07f"
     d="m 191.31995,318.94307 4,0.76 q 0.65,0.12 0.27,0.66 l -3.04,4.35 a 0.54,0.55 37.1 0 0 0.1,0.74 l 3.62,2.96 a 0.39,0.39 0 0 1 -0.26,0.7 q -20.52,-0.52 -25.06,19.04 -0.15,0.65 -0.71,0.29 l -4.29,-2.71 q -0.44,-0.28 -0.4,-0.8 c 0.39,-4.1 -0.53,-7.9 3.62,-10.27 q 5.53,-3.15 11.65,-6.74 2.26,-2.23 6.46,-2.91 a 0.66,0.7 17 0 0 0.39,-0.22 l 2.69,-3.02 a 0.51,0.51 0 0 0 0.12,-0.44 q -0.35,-1.86 0.84,-2.39 z"
     id="path95" />
  <path
     fill="#f3c07f"
     d="m 103.22995,328.41307 -14.74,0.37 a 0.33,0.33 0 0 0 -0.2,0.58 q 0.47,0.39 0.98,-0.09 7.13,-0.83 14,-0.03 0.51,1.17 0.26,2.41 -9.73,-1.6 -15.64,0.2 -6.99,2.12 0.23,1.01 7.15,-1.09 15.53,-0.49 4.28,7.59 5.23,16.16 0.06,0.55 -0.47,0.68 -9.69,2.48 -19.65,3.4 -0.53,0.04 -0.72,-0.46 -4.28,-11.66 -15.8,-16.26 a 0.33,0.33 0 0 1 0.14,-0.64 l 5.5,0.33 q 0.6,0.04 0.45,-0.55 l -2.3,-9.2 a 1.66,1.64 49.7 0 1 0.08,-1.03 q 1,-2.36 0.7,-4.93 -0.07,-0.65 0.53,-0.41 12.67,5.07 25.82,0.86 0.4,-0.12 0.8,-0.06 0.42,0.08 0.66,0.1 a 0.48,0.48 0 0 1 0.17,0.9 l -5.39,2.75 a 0.28,0.28 0 0 0 0.16,0.53 l 4.97,-0.6 a 0.49,0.49 0 0 1 0.5,0.69 z"
     id="path96" />
  <path
     fill="#b57749"
     d="m 103.22995,328.41307 q 0.24,0.34 0.04,0.83 -6.87,-0.8 -14,0.03 -0.51,0.48 -0.98,0.09 a 0.33,0.33 0 0 1 0.2,-0.58 z"
     id="path97" />
  <path
     fill="#f3c07f"
     d="m 212.63995,335.49307 q -13.76,4.09 -20.34,16.39 -0.23,0.44 -0.02,0.89 0.55,1.13 -0.01,2.56 c -5.13,-1.01 -13.39,-2.69 -19.25,-5.72 q -0.46,-0.24 -0.37,-0.75 c 3.85,-20.91 24.48,-21.31 39.99,-13.37 z"
     id="path98" />
  <path
     fill="#b57749"
     d="m 103.52995,331.65307 q 0.59,0.5 0.12,0.72 -8.38,-0.6 -15.53,0.49 -7.22,1.11 -0.23,-1.01 5.91,-1.8 15.64,-0.2 z"
     id="path99" />
  <path
     fill="#f3c07f"
     d="m 81.67995,352.81307 c -13.7,-3.08 -24.74,-6.44 -36.54,-14.87 15.12,-5.85 34.71,-2.51 41.1,14.16 a 0.52,0.52 0 0 1 -0.48,0.71 z"
     id="path100" />
  <path
     fill="#b57749"
     d="m 212.63995,335.49307 c 4.63,3.2 7.55,9.66 8.62,14.43 0.47,2.08 -1.69,2.42 -3.18,2.99 q -12.39,4.74 -25.81,2.42 0.56,-1.43 0.01,-2.56 -0.21,-0.45 0.02,-0.89 6.58,-12.3 20.34,-16.39 z"
     id="path101" />
  <path
     fill="#b57749"
     d="m 45.13995,337.94307 c 11.8,8.43 22.84,11.79 36.54,14.87 -13.28,1.53 -27.43,2.54 -40.1,-2.43 a 1.09,1.08 13.3 0 1 -0.68,-1.09 q 0.52,-6.66 4.24,-11.35 z"
     id="path102" />
  <path
     fill="#daa06b"
     d="m 194.20995,357.06307 q -1.14,1.3 0.13,1.52 c 10.64,1.93 19.12,-0.93 29.58,-4.09 l 1.22,6.15 q 0.1,0.49 -0.37,0.65 c -19.88,6.56 -44.05,5.07 -58.9,-10.46 q -0.91,-0.95 -0.41,-2.53 0.14,-0.44 0.55,-0.23 13.26,6.52 28.2,8.99 z"
     id="path103" />
  <path
     fill="#daa06b"
     d="m 39.45995,353.18307 q 9.83,3.58 16.13,3.87 15.82,0.73 38.75,-1.91 1.2,-0.14 0.67,-1.64 l 13.45,-2.44 q 0.42,-0.07 0.49,0.35 c 1.05,6.2 -2.85,6.4 -8.07,7.82 -19.28,5.27 -42.39,4.39 -60.96,-0.44 q -0.58,-0.15 -0.57,-0.75 z"
     id="path104" />
  <path
     fill="#f3c07f"
     d="m 95.00995,353.50307 q 0.53,1.5 -0.67,1.64 -22.93,2.64 -38.75,1.91 -6.3,-0.29 -16.13,-3.87 -0.21,-0.3 -0.11,-1.29 0.05,-0.45 0.48,-0.29 c 16.74,6.57 39.61,3.68 55.18,1.9 z"
     id="path105" />
  <path
     fill="#f3c07f"
     d="m 223.91995,354.49307 c -10.46,3.16 -18.94,6.02 -29.58,4.09 q -1.27,-0.22 -0.13,-1.52 14.54,1.9 28.39,-4.36 0.5,-0.22 0.88,0.17 0.45,0.47 0.44,1.62 z"
     id="path106" />
  <g
     id="g9"
     transform="matrix(0.34853452,0,0,0.34853452,22.286689,0.00371846)">
    <path
       d="m 173.8988,216.75422 c 0,0 36.925,-135.74 149.32,-136.57 112.395,-0.83 159.17,42.624 164.55,153.48 -104.22,-41.083 -187.46,15.797 -218.16,43.969 -31.64,-40.63 -33.99,-59.43 -95.71,-60.88 z"
       id="path1" />
    <g
       transform="translate(-2.2812015,1.7242204)"
       id="g8">&#10;    <path
   fill="none"
   stroke="#000000"
   stroke-width="6"
   d="m 552.25291,148.77873 c 0,-12.811 -18.305,-31.293 -27.322,-27.37"
   id="path2-9" />
&#10;    <circle
   cx="552.66998"
   cy="150.34"
   r="5.579"
   id="circle2" />
&#10;    <circle
   cx="552.78003"
   cy="156.88"
   r="8.0950003"
   id="circle3" />
&#10;    <circle
   cx="552.78003"
   cy="164.00999"
   r="8.0950003"
   id="circle4" />
&#10;    <path
   d="m 571.77,197.29 c -0.737,-1.001 -1.598,-1.822 -1.805,-2.672 -1.618,-6.629 -6.54,-26.801 -13.305,-28.636 -0.915,-0.248 -1.477,-1.281 -1.256,-2.308 0.221,-1.027 1.144,-1.654 2.057,-1.409 7.684,2.083 12.294,17.014 15.79,31.343 0.249,1.019 -0.028,2.269 -0.397,3.485 -0.05,0.167 -0.296,1.196 -0.444,1.196 l -0.64,-0.99 z"
   id="path4-2" />
&#10;    <path
   d="m 567.52,200.05 c -0.737,-1.001 -1.598,-1.822 -1.805,-2.672 -1.618,-6.629 -6.54,-26.801 -13.305,-28.636 -0.915,-0.248 -1.477,-1.281 -1.256,-2.308 0.221,-1.027 1.144,-1.654 2.057,-1.409 7.684,2.083 12.294,17.014 15.79,31.343 0.249,1.019 -0.028,2.269 -0.397,3.485 -0.05,0.167 -0.296,1.196 -0.444,1.196 l -0.65,-0.99 z"
   id="path5-4" />
&#10;    <path
   d="m 557.14,201.4 c 0.15,-1.233 0.497,-2.371 0.262,-3.214 -1.845,-6.57 -7.456,-26.561 -2.462,-31.479 0.674,-0.666 0.656,-1.841 -0.038,-2.628 -0.697,-0.785 -1.809,-0.88 -2.485,-0.218 -5.672,5.587 -2.36,20.856 1.626,35.059 0.283,1.009 1.139,1.962 2.056,2.841 0.127,0.121 0.845,0.897 0.975,0.824 l 0.06,-1.18 z"
   id="path6-2" />
&#10;    <path
   d="m 550.8,200.9 c 0.15,-1.233 0.497,-2.371 0.262,-3.214 -1.845,-6.57 -7.456,-26.561 -2.462,-31.479 0.674,-0.666 0.656,-1.841 -0.038,-2.628 -0.697,-0.785 -1.809,-0.88 -2.485,-0.218 -5.672,5.587 -2.36,20.856 1.626,35.059 0.283,1.009 1.139,1.962 2.056,2.841 0.127,0.121 0.845,0.897 0.975,0.824 l 0.06,-1.18 z m 12.64,-1.32 c 0.205,-1.528 0.678,-2.938 0.356,-3.982 -2.516,-8.141 -10.169,-32.91 -3.357,-39.004 0.919,-0.825 0.896,-2.28 -0.052,-3.256 -0.951,-0.973 -2.467,-1.09 -3.39,-0.27 -7.736,6.922 -3.22,25.842 2.218,43.439 0.386,1.25 1.553,2.431 2.804,3.52 0.173,0.15 1.151,1.112 1.329,1.021 l 0.09,-1.47 z"
   id="path7-3" />
&#10;    <path
   stroke="#ffffff"
   stroke-width="4"
   d="m 653.29544,67.652367 c 9.26518,1.97245 13.27491,10.792406 -0.63485,15.650177 -65.08833,22.731116 -331.54133,100.306626 -331.54133,100.306626 -6.27045,1.89681 -15.26066,2.53813 -25.11793,-0.0996 0,0 -277.938313,-79.93441 -288.3232333,-85.15322 C 3.4289338,96.22099 2.5046615,88.723329 8.6653101,86.491918 15.574413,83.989414 303.77396,5.1688568 311.89112,2.595646 c 9.801,-3.10699996 16.33097,-2.89321912 26.65892,-0.7855928 0,0 248.69719,51.7814098 314.7454,65.8423138 z"
   id="path8-2" />
&#10;  </g>
  </g>
</svg>
