<?xml version="1.0" encoding="UTF-8" standalone="no"?>
<svg
   version="1.1"
   viewBox="0 0 473.33054 645.08069"
   id="svg55"
   sodipodi:docname="diploma_02.svg"
   width="473.33054"
   height="645.08069"
   inkscape:version="1.3 (0e150ed6c4, 2023-07-21)"
   xmlns:inkscape="http://www.inkscape.org/namespaces/inkscape"
   xmlns:sodipodi="http://sodipodi.sourceforge.net/DTD/sodipodi-0.dtd"
   xmlns="http://www.w3.org/2000/svg"
   xmlns:svg="http://www.w3.org/2000/svg">
  <defs
     id="defs55" />
  <sodipodi:namedview
     id="namedview55"
     pagecolor="#ffffff"
     bordercolor="#666666"
     borderopacity="1.0"
     inkscape:showpageshadow="2"
     inkscape:pageopacity="0.0"
     inkscape:pagecheckerboard="0"
     inkscape:deskcolor="#d1d1d1"
     showgrid="false"
     inkscape:zoom="0.86369449"
     inkscape:cx="265.14005"
     inkscape:cy="285.40184"
     inkscape:window-width="1920"
     inkscape:window-height="1017"
     inkscape:window-x="-8"
     inkscape:window-y="-8"
     inkscape:window-maximized="1"
     inkscape:current-layer="svg55" />
  <path
     fill="#3c3c3c"
     d="m 316.33798,20.782626 q -1.32,-0.23 -1.64,0.81 -0.16,0.48 0.3,0.69 c 22.92,10.53 45.62,21.48 68.85,31.3 5.96,2.52 12.03,6.38 18.29,9.28 a 0.62,0.62 0 0 0 0.84,-0.34 q 0.57,-1.43 1.07,-1.22 l 69.1,31.89 a 0.31,0.31 0 0 1 -0.04,0.58 l -4.44,1.37 -0.32,-0.96 q -0.14,-0.44 -0.58,-0.31 -1.93,0.53 -3.84,0.87 c -3.65,0.67 -6.85,2.88 -10.57,3.8 -3.94,0.99 -7.49,2.990004 -11.3,4.190004 q -14.12,4.44 -28.19,9.04 c -2.21,0.72 -4.19,2.18 -6.59,2.95 q -4.92,1.58 -9.89,2.95 c -12.82,3.53 -26.69,9.7 -37.02,13.31 q -50.04,17.47 -99.46,34.5 -1.17,0.4 -2.27,-0.14 l -75.98,-37.61 q 7.8,-17.2 22.88,-27.45 2.59,-1.770004 14.47,-7.700004 8.73,-4.36 18.15,-10.23 3.34,-2.08 5.33,-4.33 0.46,-0.52 -0.18,-0.79 l -2.5,-1.07 q -0.49,-0.2 -0.92,0.09 -4.03,2.71 -8.07,5.44 c -7.36,4.96 -17.23,8.99 -23.47,12.36 -12.33,6.650004 -24.11,18.380004 -28.97,32.120004 q -31.24,-15.01 -61.82,-30.610004 c -14.59,-7.43 -30.650004,-14.81 -44.130004,-21.61 -8.53,-4.3 -15.74,-7.01 -23.69,-11.65 q -0.49,-0.29 -0.75,0.22 -0.26,0.51 -0.19,1.37 l -22.03,-10.86 a 0.41,0.41 0 0 1 0.09,-0.77 l 64.2,-13.77 q -0.27,0.63 -0.21,1.04 0.08,0.53 0.61,0.45 c 6.98,-1.04 14.660004,-3.12 20.610004,-4.26 17.02,-3.25 33.96,-7.22 50.85,-10.62 23.92,-4.81 47.65,-10.5 71.49,-15.6900003 q 0.49,-0.11 0.71,-0.57 0.28,-0.58 -0.29,-1.27 l 34.77,-7.49000001 a 3.68,3.7 51.5 0 1 2.33,0.26 z"
     id="path31" />
  <path
     fill="#272726"
     d="m 234.82798,7.5726257 q 0.57,0.69 0.29,1.27 -0.22,0.46 -0.71,0.57 c -23.84,5.1900003 -47.57,10.8800003 -71.49,15.6900003 -16.89,3.4 -33.83,7.37 -50.85,10.62 -5.95,1.14 -13.630004,3.22 -20.610004,4.26 q -0.53,0.08 -0.61,-0.45 -0.06,-0.41 0.21,-1.04 l 6.28,-1.94 q 13.020004,-1.62 25.570004,-4.77 l 81.92,-17.62 27.18,-6.2700003 z"
     id="path33" />
  <path
     fill="#272726"
     d="m 316.33798,20.782626 1.75,0.58 q 1.33,0.8 4.26,2.19 41.68,19.83 78.22,36.02 1.83,0.43 3.48,1.73 -0.5,-0.21 -1.07,1.22 a 0.62,0.62 0 0 1 -0.84,0.34 c -6.26,-2.9 -12.33,-6.76 -18.29,-9.28 -23.23,-9.82 -45.93,-20.77 -68.85,-31.3 q -0.46,-0.21 -0.3,-0.69 0.32,-1.04 1.64,-0.81 z"
     id="path35" />
  <path
     fill="#272726"
     d="m 179.37798,126.17263 q -2.35,9.3 -0.45,18.9 c 3.24,16.32 18.5,24.77 13.71,43.31 q -38.01,-22.81 -78.05,-41.95 -0.01,0 -1.37,-0.83 -0.98,-0.6 -1.71,-0.07 -0.56,0.41 -0.86,1.73 -4.22,19.09 -6.29,38.54 -3.61,33.93 -5.490004,68 c -2.41,43.69 -4.93,82.48 -19.62,122.25 -16.99,39.31 -33.76,82.93 -32.03,126.72 0.78,19.66 6.77,40.18 15.21,57.71 22.09,45.92 71.030004,71.17 120.180004,76.01 13.72,1.35 27.76,4.6 41.55,3.63 q 21.72,-1.51 42.94,-6.31 c 2.57,-0.58 5.33,-2.55 8.18,-3.34 32.52,-9.01 59.45,-24.38 82.33,-49.8 q 16.96,-18.86 24.72,-43.79 c 11.3,-34.98 14.09,-72.97 7.8,-109.84 -9.78,-57.25 -17.33,-107.98 -16.06,-164.43 0.7,-30.75 2.36,-60.88 -2.16,-91.47 q -0.09,-0.64 -0.72,-0.47 c -29.32,7.74 -57.4,16.37 -85.23,28.56 -17,7.45 -32.8,16.18 -45.83,29.23 q -0.34,0.35 -0.56,-0.09 c -7.64,-15.56 -28.82,-28.95 -43.1,-37.31 l -0.4,-0.45 0.02,-0.93 q 3.11,-12.61 -2.26,-23.1 c -2.75,-5.36 -8.26,-12.78 -10.29,-19.06 q -3.06,-9.46 -0.88,-19.79 l 75.98,37.61 q 1.1,0.54 2.27,0.14 49.42,-17.03 99.46,-34.5 c 10.33,-3.61 24.2,-9.78 37.02,-13.31 q 4.97,-1.37 9.89,-2.95 c 2.4,-0.77 4.38,-2.23 6.59,-2.95 q 14.07,-4.6 28.19,-9.04 c 3.81,-1.2 7.36,-3.200004 11.3,-4.190004 3.72,-0.92 6.92,-3.13 10.57,-3.8 q 1.91,-0.34 3.84,-0.87 0.44,-0.13 0.58,0.31 l 0.32,0.96 -16.53,5.780004 -4.71,1.7 -74.85,25.93 q -0.39,0.14 -0.22,0.51 8.21,18.65 4.82,38.68 -0.5,2.95 -0.11,5.65 c 5.25,36.5 1.4,75.6 1.66,113.56 0.07,9.79 0.88,20.17 1.43,30.35 a 0.51,0.51 0 0 0 0.83,0.37 q 18.23,-14.58 37.78,-27.72 1.44,-0.97 0.59,-2.9 a 1.17,1.2 42.5 0 1 -0.03,-0.9 q 1.49,-3.81 1.85,-6.28 1.54,-10.52 4.33,-20.78 c 0.89,-3.27 4.9,-1.34 4.14,1.98 -1.92,8.42 -2.94,17.35 -5.41,25.57 a 0.7,0.7 0 0 0 0.91,0.86 c 8.57,-3.09 12.67,-11.29 19.95,-16.07 q 0.46,-0.31 0.98,-0.1 1.5,0.6 1.99,2.04 0.19,0.54 -0.18,0.97 -8.42,9.93 -19.1,17.29 a 0.48,0.48 0 0 0 0.1,0.84 l 17.03,6.58 a 0.74,0.73 86.6 0 1 0.4,0.36 q 0.8,1.64 -0.37,2.94 a 1.93,1.91 27.5 0 1 -1.88,0.58 q -11.38,-2.81 -21.25,-9.02 a 1.36,1.37 44.1 0 0 -1.49,0.03 q -20.75,14.09 -40.34,29.78 -0.39,0.32 -0.35,0.82 c 2.87,34.02 6.94,57.14 13.53,97.98 6.47,40.15 5.1,78.73 -7.74,117.3 -12.42,37.29 -41.32,65.39 -75.74,82.8 q -15.44,7.11 -31.72,11.97 c -4.26,1.05 -7.9,3.34 -11.95,4.23 q -23.76,5.22 -43.68,6.18 c -11.97,0.58 -24.28,-2.23 -36.62,-3.21 q -47.95,-3.82 -87.850004,-30.75 l -14.76,-12.07 c -28.95,-29.16 -44.16,-71.97 -41.56,-111.74 2.51,-38.3 15.81,-73.6 30.25,-108.72 7.48,-18.21 12.22,-36.38 15.18,-55.68 q 0.08,-0.5 -0.42,-0.62 c -17.48,-4.03 -35.1,-7.84 -52.29,-13.02 -6.77,-2.03 -9.81,-1.47 -15.99,1.05 q -6.7,2.73 -13.2399995,5.84 c -2.02,0.96 -4.15,0.51 -3.89,-2.16 a 1.83,1.84 78.2 0 1 0.95,-1.44 q 8.9699995,-4.8 18.5499995,-8.22 a 0.29,0.29 0 0 0 -0.01,-0.55 l -20.0799995,-5.91 a 2.16,2.16 0 0 1 -1.34000002,-3.02 c 0.69,-1.41 1.76000002,-1.61 3.26000002,-1.21 q 11.5099995,3.06 22.6299995,6.62 a 0.45,0.46 86.4 0 0 0.55,-0.62 q -3.27,-7.18 -5.9,-14.37 c -0.77,-2.1 0.11,-4.44 2.53,-4.05 q 0.48,0.08 0.78,0.47 c 1.36,1.81 1.75,4.22 2.46,5.79 2.25,5.06 4.94,9.46 5.08,15.11 q 0.01,0.48 0.47,0.63 20.98,6.63 31.52,8.66 12.37,2.38 24.56,5.77 a 0.51,0.52 11.1 0 0 0.64,-0.44 c 2.33,-19.71 4,-39.84 5.03,-59.7 q 2.33,-44.95 7.090004,-83.57 1.63,-13.18 5.76,-30.42 0.12,-0.5 -0.21,-0.88 l -0.95,-1.1 a 0.43,0.44 26.8 0 1 -0.11,-0.36 q 3.07,-22.36 15.63,-41.08 0.29,-0.430004 -0.18,-0.660004 l -67.220004,-33.18 -4.81,-2.26 q -0.02,-0.02 -0.03,-0.04 -0.07,-0.86 0.19,-1.37 0.26,-0.51 0.75,-0.22 c 7.95,4.64 15.16,7.35 23.69,11.65 13.48,6.8 29.540004,14.18 44.130004,21.61 q 30.58,15.600004 61.82,30.610004 z"
     id="path37" />
  <path
     fill="#b2b16a"
     d="m 182.65798,127.73263 q -2.18,10.33 0.88,19.79 c 2.03,6.28 7.54,13.7 10.29,19.06 q 5.37,10.49 2.26,23.1 -3.98,0.94 -3.45,-1.3 c 4.79,-18.54 -10.47,-26.99 -13.71,-43.31 q -1.9,-9.6 0.45,-18.9 c 4.86,-13.74 16.64,-25.47 28.97,-32.120004 6.24,-3.37 16.11,-7.4 23.47,-12.36 q 4.04,-2.73 8.07,-5.44 0.43,-0.29 0.92,-0.09 l 2.5,1.07 q 0.64,0.27 0.18,0.79 -1.99,2.25 -5.33,4.33 -9.42,5.87 -18.15,10.23 -11.88,5.93 -14.47,7.700004 -15.08,10.25 -22.88,27.45 z"
     id="path40" />
  <path
     fill="#b2b16a"
     d="m 196.06798,190.61263 0.4,0.45 -4.61,12.79 q -0.18,0.52 0.19,0.94 l 1.82,2 a 0.65,0.68 15.6 0 1 0.18,0.34 q 0.64,2.56 0.11,5.17 a 1.69,1.71 39.4 0 0 0.09,0.97 q 2.26,5.78 0.68,11.81 -0.15,0.58 0.07,1.15 2.74,6.78 -2.84,11.07 -0.41,0.31 -0.35,0.83 l 0.34,2.89 a 0.26,0.26 0 0 1 -0.27,0.29 q -0.17,-0.01 -0.34,-0.01 a 0.42,0.41 82.8 0 1 -0.43,-0.34 q -0.43,-1.99 -2.29,-2.68 a 0.64,0.64 0 0 1 -0.41,-0.65 l 0.22,-2.24 a 0.92,0.92 0 0 0 -1.5,-0.8 l -3.35,2.75 a 0.79,0.79 0 0 1 -1.22,-0.94 c 0.68,-1.46 0.7,-2.72 0.11,-4.34 -1.79,-4.96 -4,-16.04 1.21,-19.45 a 0.71,0.72 64.4 0 0 0.29,-0.82 q -1.61,-5.19 3.09,-7.28 a 1.13,1.13 0 0 0 0.62,-0.7 c 1.65,-5.24 3.37,-14.26 8.19,-13.2 z"
     id="path44" />
  <path
     fill="#9a7638"
     d="m 184.54798,223.22263 0.72,-0.49 a 0.38,0.38 0 0 1 0.54,0.52 l -1.8,2.97 a 0.76,0.73 48.3 0 0 -0.03,0.73 l 3.13,6.02 q 0.37,0.7 -0.42,0.81 l -0.65,0.09 q -0.54,0.07 -0.68,-0.46 -0.58,-2.21 -2.24,-3.86 a 1.1,1.11 26.5 0 1 -0.31,-0.94 c 0.44,-3.01 -0.66,-5.09 -0.01,-8.15 q 0.11,-0.54 -0.16,-1.02 -1.69,-3.05 0.99,-5.27 a 0.28,0.28 0 0 1 0.44,0.32 l -1.32,3.28 a 0.93,0.93 0 0 0 0.04,0.78 q 0.34,0.67 1.09,0.48 a 0.58,0.57 88.1 0 1 0.7,0.66 l -0.55,3.19 a 0.34,0.34 0 0 0 0.52,0.34 z"
     id="path45" />
  <path
     style="fill:#9a7638;fill-opacity:1;stroke-width:6.70279"
     d="m 111.52189,145.23126 c -2.96074,2.75276 -2.16893,8.10769 -3.46204,11.81668 -10.536334,57.62237 -7.90404,116.68618 -17.401944,174.41084 -6.96395,42.65214 -30.5323,80.42827 -39.16119,122.78361 -5.15624,22.36254 -6.05771,45.82373 -2.45073,68.48543 6.05275,26.92584 17.57106,53.72025 38.49107,72.45327 20.085304,20.1294 47.059604,32.04784 74.398184,38.58633 26.82256,4.40153 54.27968,9.6614 81.43639,4.81223 13.52304,-1.63858 26.78231,-4.77736 39.42492,-9.87081 37.32267,-11.58812 71.67103,-35.914 91.04267,-70.31349 14.79353,-29.14832 19.86642,-62.41787 20.05173,-94.83027 -0.92192,-32.94437 -8.76466,-65.19345 -12.74839,-97.80058 -8.69629,-56.24758 -5.30839,-113.32544 -6.34559,-170.03464 -0.50806,-8.12651 -0.2233,-16.84292 -3.11525,-24.47534 -7.05108,-0.4058 -14.05435,3.0345 -20.94483,4.49043 -33.26392,10.16789 -67.18679,20.79046 -96.38371,40.22219 -5.18401,3.43045 -9.61143,7.80596 -14.35163,11.78656 -9.77816,-16.01334 -25.86478,-26.76554 -41.79897,-35.92096 -3.76149,-1.63896 -3.84268,4.45929 -5.11598,6.63657 -1.7139,3.29111 -1.48493,6.75484 0.0225,9.95139 0.96065,8.22706 2.75234,16.91129 1.22964,25.14346 -1.22418,1.87643 -3.34624,3.35348 -3.26633,5.87108 -2.30927,-1.47287 -1.28133,-8.72081 -5.00943,-4.75258 -2.70545,3.3821 -3.23224,0.70022 -3.25165,-2.37065 -0.34422,-6.61575 -2.96994,-14.01504 1.16902,-19.97206 -0.0334,-3.05603 1.34529,-5.54903 3.4274,-7.72073 2.62193,-4.48392 3.61694,-9.8472 6.83401,-13.93992 -1.46226,-4.2656 -7.16452,-5.57574 -10.48648,-8.24548 -23.19511,-13.09496 -46.51716,-26.17114 -70.87733,-36.97568 -0.43734,-0.13269 -0.89212,-0.2833 -1.35607,-0.22688 z m 149.41291,98.44363 c 8.6992,-0.60827 15.54044,8.95682 12.77264,17.14737 -2.257,10.03728 -17.16079,12.75712 -23.14141,4.32103 -7.04618,-8.36044 -0.79312,-21.76618 10.36877,-21.4684 z m -83.66548,0.81398 c 9.54396,-0.31999 16.63813,11.06131 11.76467,19.4144 -4.19288,9.51022 -19.36629,9.73864 -23.66963,0.24246 -4.50888,-7.77561 0.90502,-18.49083 9.82497,-19.48886 0.6879,-0.10714 1.38356,-0.1679 2.07999,-0.168 z m 75.18619,55.07212 c 2.79927,2.44287 0.82482,7.53151 0.82611,10.84677 -2.13403,14.0677 -10.95258,30.08605 -26.43545,32.0225 -8.09107,0.87559 -17.58408,2.52388 -24.15455,-3.71835 -8.52922,-7.26752 -10.46515,-19.02184 -16.56892,-27.8885 0.77945,-2.85854 5.38618,-0.87372 7.4471,-0.64772 14.40675,5.8649 31.37354,4.70459 44.68852,-3.47109 4.71872,-2.26406 8.94835,-6.22266 14.19719,-7.14361 z m 102.51182,221.52847 c 7.19016,0.30519 7.26745,12.02345 -0.0416,12.24094 -7.26938,1.09134 -9.23473,-10.85842 -2.13888,-12.07988 0.71366,-0.15945 1.45105,-0.21438 2.18044,-0.16106 z m -138.19897,37.57318 c 5.76073,-0.41768 8.16775,6.57211 4.66222,10.48307 -3.49229,4.74228 -11.48779,1.14682 -10.57314,-4.68301 -0.10655,-3.20877 2.62268,-6.14873 5.91092,-5.80006 z m 75.32473,20.92978 c 6.79892,-0.61161 8.60527,9.59248 2.3086,11.75256 -6.98508,3.53725 -11.72043,-8.81219 -4.9376,-11.35249 0.84221,-0.29401 1.74081,-0.39535 2.629,-0.40007 z"
     id="path55" />
  <path
     fill="#8c6d34"
     d="m 193.68798,222.01263 c -0.99,-1.78 -2.69,-5.21 -2.21,-7.35 a 1.01,1.01 0 0 1 1.98,0.07 l 0.99,7.03 a 0.41,0.41 0 0 1 -0.76,0.25 z"
     id="path46" />
  <path
     fill="#8c6d34"
     d="m 187.80798,221.62263 a 0.06,0.06 0 0 1 -0.06,0.07 h -0.04 a 3.32,1.78 84.5 0 1 -2.09,-3.13 l -0.03,-0.4 a 3.32,1.78 84.5 0 1 1.45,-3.47 l 0.04,-0.01 a 0.06,0.06 0 0 1 0.06,0.06 z"
     id="path47" />
  <path
     fill="#9a7638"
     d="m 188.25798,227.40263 -0.54,2.02 q -0.35,1.31 -0.86,0.05 l -1.12,-2.79 a 0.64,0.63 78.8 0 1 0.58,-0.87 q 1.93,-0.04 1.77,-2.05 a 1.01,1.01 0 0 1 0.26,-0.75 q 1.19,-1.27 1.46,-2.99 a 0.39,0.4 30.1 0 1 0.7,-0.19 q 0.16,0.21 0.07,0.49 -0.86,2.77 -0.41,5.71 a 0.6,0.6 0 0 1 -0.44,0.68 l -1.05,0.27 a 0.6,0.6 0 0 0 -0.42,0.42 z"
     id="path48" />
  <path
     fill="#9a7638"
     d="m 190.65798,231.36263 q 0.04,0.46 -0.21,0.72 a 0.32,0.32 0 0 1 -0.55,-0.22 l -0.07,-3.3 a 0.45,0.46 24.9 0 1 0.81,-0.3 q 1.07,1.32 0.02,3.1 z"
     id="path49" />
  <path
     fill="#9a7638"
     d="m 193.20798,227.98263 a 0.1,0.1 0 0 1 0.11,-0.09 l 0.02,0.01 a 1.76,2.9 9.4 0 1 1.27,3.15 l -0.04,0.21 a 1.76,2.9 9.4 0 1 -2.21,2.58 l -0.02,-0.01 a 0.1,0.1 0 0 1 -0.08,-0.11 z"
     id="path50" />
  <circle
     fill="#272726"
     cx="261.00797"
     cy="256.90262"
     r="14.13"
     id="circle50" />
  <circle
     fill="#272726"
     cx="177.14796"
     cy="257.83261"
     r="14.14"
     id="circle51" />
  <path
     fill="#272726"
     d="m 217.38798,343.93263 c -16.71,1.85 -23.09,-14.43 -28.05,-26.85 q -0.97,-2.43 -3.88,-5.24 -0.35,-0.35 -0.35,-0.84 c 0.02,-4.48 6.54,-2.58 8.8,-1.58 17.94,7.86 34.24,3.97 49.81,-6.59 q 3.95,-2.67 7.91,-4.33 a 2.07,2.07 0 0 1 2.86,1.78 c 1.13,18.26 -9.46,43.26 -30.99,43.26 q -2.57,0 -6.11,0.39 z"
     id="path51" />
  <path
     fill="#df2c2c"
     d="m 217.56798,338.89263 c -6.71,0.96 -13.6,-2.5 -16.74,-8.59 q -0.76,-1.48 0.8,-2.04 19.22,-6.96 36.6,3.47 0.49,0.29 0.1,0.72 -3.95,4.23 -9.31,5.73 c -3.28,0.91 -7.47,0.13 -11.45,0.71 z"
     id="path52" />
  <circle
     fill="#272726"
     cx="354.33795"
     cy="527.24261"
     r="7.0300002"
     id="circle53" />
  <circle
     fill="#272726"
     cx="216.85799"
     cy="564.9126"
     r="7.0100002"
     id="circle54" />
  <circle
     fill="#272726"
     cx="292.16797"
     cy="585.55261"
     r="7.0300002"
     id="circle55" />
</svg>
