<?xml version="1.0" encoding="UTF-8" standalone="no"?>
<svg
   version="1.1"
   viewBox="0 0 444.28549 423.54614"
   id="svg217"
   sodipodi:docname="happyfry.svg"
   width="444.28549"
   height="423.54614"
   inkscape:version="1.3 (0e150ed6c4, 2023-07-21)"
   xmlns:inkscape="http://www.inkscape.org/namespaces/inkscape"
   xmlns:sodipodi="http://sodipodi.sourceforge.net/DTD/sodipodi-0.dtd"
   xmlns="http://www.w3.org/2000/svg"
   xmlns:svg="http://www.w3.org/2000/svg">
  <defs
     id="defs217" />
  <sodipodi:namedview
     id="namedview217"
     pagecolor="#ffffff"
     bordercolor="#666666"
     borderopacity="1.0"
     inkscape:showpageshadow="2"
     inkscape:pageopacity="0.0"
     inkscape:pagecheckerboard="0"
     inkscape:deskcolor="#d1d1d1"
     showgrid="false"
     inkscape:zoom="1.812362"
     inkscape:cx="204.15347"
     inkscape:cy="212.15408"
     inkscape:window-width="1920"
     inkscape:window-height="1017"
     inkscape:window-x="-8"
     inkscape:window-y="-8"
     inkscape:window-maximized="1"
     inkscape:current-layer="svg217" />
  <g
     stroke-width="2"
     fill="none"
     stroke-linecap="butt"
     id="g123"
     transform="translate(-45.971622,-14.203111)">
    <path
       stroke="#f9b501"
       vector-effect="non-scaling-stroke"
       d="m 296.52,26.01 q 0.23,-2.31 -2.21,-1.95 -3.31,0.5 -13.34,3.98"
       id="path2" />
    <path
       stroke="#e49301"
       vector-effect="non-scaling-stroke"
       d="m 280.97,28.04 c -2.44,-1.41 -11.3,-6.42 -11.78,-9.16"
       id="path3" />
    <path
       stroke="#f9b501"
       vector-effect="non-scaling-stroke"
       d="m 294.28,70.41 q 1.37,3.94 -0.16,8.12 a 2.04,2.02 6.2 0 1 -1.65,1.32 l -5.64,0.75 a 1.4,1.39 -10.2 0 0 -1.18,1.69 c 0.92,4.04 1.25,6.75 1.72,11.89 0.72,7.76 2.32,15.74 3.72,23.62 a 0.72,0.72 0 0 1 -1.11,0.72 q -6.1,-4.09 -11.98,0.24 a 1.55,1.52 28.1 0 1 -0.99,0.29 q -1.38,-0.1 -1.98,-0.77"
       id="path4" />
    <path
       stroke="#e9a200"
       vector-effect="non-scaling-stroke"
       d="m 280.97,28.04 -5.94,90.24"
       id="path5" />
    <path
       stroke="#e49301"
       vector-effect="non-scaling-stroke"
       d="m 275.03,118.28 q -0.52,1.81 -2.6,2.59 a 0.74,0.74 0 0 1 -0.99,-0.86 q 0.29,-1.21 -0.22,-2.32"
       id="path6" />
    <path
       stroke="#e9a200"
       vector-effect="non-scaling-stroke"
       d="m 271.22,117.69 0.21,-46.88"
       id="path7" />
    <path
       stroke="#e49301"
       vector-effect="non-scaling-stroke"
       d="m 271.43,70.81 q 1.13,-6.67 0.35,-13.09 -0.06,-0.51 -0.39,-0.9 l -5.16,-6.13"
       id="path8" />
    <path
       stroke="#e49301"
       vector-effect="non-scaling-stroke"
       d="m 283.02,130.21 -13.76,-6.88"
       id="path9" />
    <path
       stroke="#f9b501"
       vector-effect="non-scaling-stroke"
       d="m 271.22,117.69 q 0.66,5.21 -1.96,5.64"
       id="path10" />
    <path
       stroke="#e9a200"
       vector-effect="non-scaling-stroke"
       d="m 269.26,123.33 0.68,41.45 a 0.58,0.57 -86 0 0 0.49,0.57 l 12.82,2.02 q 0.46,0.07 0.45,-0.39 l -0.68,-36.77"
       id="path11" />
    <path
       stroke="#f9b501"
       vector-effect="non-scaling-stroke"
       d="m 283.02,130.21 15.57,-6.17 a 0.6,0.6 0 0 1 0.82,0.53 l 0.77,21.83 q 0.05,1.49 1.41,0.87 3.05,-1.4 6.39,-1.72 a 1.38,1.38 0 0 0 1.23,-1.57 q -4.32,-29.55 -8.49,-59.36 c -0.27,-1.93 -0.65,-4.04 0.69,-5.44 q 2.68,-2.79 8.09,-5.67 1.2,-0.63 2.05,1.24"
       id="path12" />
    <path
       stroke="#e9a200"
       vector-effect="non-scaling-stroke"
       d="m 313.65,85.69 q 1.99,20.1 5.27,40.42 c 1.27,7.89 1.04,13.77 -0.72,21.03 a 1.04,1.04 0 0 0 0.46,1.13 l 4.38,2.75 q 0.51,0.32 0.51,0.91 l -0.07,35.81 q 0,0.38 0.36,0.26 0.16,-0.06 0.19,-0.25 4.79,-29.61 9.41,-59.26 0.35,-2.23 0.35,-4.43"
       id="path13" />
    <path
       stroke="#fed00e"
       vector-effect="non-scaling-stroke"
       d="m 333.79,124.06 q 8.1,-1.16 15.83,-4.16 0.33,-0.13 0.35,-0.48 0.01,-0.26 0.16,-0.41"
       id="path14" />
    <path
       stroke="#e9a200"
       vector-effect="non-scaling-stroke"
       d="m 350.13,119.01 0.51,0.79 q 0.27,0.43 0.2,0.94 l -11.89,75.77"
       id="path15" />
    <path
       stroke="#e66200"
       vector-effect="non-scaling-stroke"
       d="m 338.95,196.51 q -2.21,-0.24 -2.38,2.24 c -1.07,16.04 -14.22,28.77 -28.19,35.29"
       id="path16" />
    <path
       stroke="#e9a200"
       vector-effect="non-scaling-stroke"
       d="m 308.38,234.04 c -0.63,-8.52 -0.17,-18.75 -0.15,-25.3 q 0.04,-23.93 0.01,-47.94 0,-0.56 -0.48,-0.83 l -12.05,-6.75 a 0.58,0.58 0 0 0 -0.86,0.5 l -0.18,85.67"
       id="path17" />
    <path
       stroke="#e66200"
       vector-effect="non-scaling-stroke"
       d="m 294.67,239.39 -9.47,2.07"
       id="path18" />
    <path
       stroke="#e9a200"
       vector-effect="non-scaling-stroke"
       d="m 285.2,241.46 q -0.05,-13.48 -0.43,-26.96 0,-0.24 -0.25,-0.32 -0.34,-0.12 -0.37,0.23 l -2.6,27.65"
       id="path19" />
    <path
       stroke="#e66200"
       vector-effect="non-scaling-stroke"
       d="m 281.55,242.06 q -11.88,1.28 -22.98,0.41"
       id="path20" />
    <path
       stroke="#e9a200"
       vector-effect="non-scaling-stroke"
       d="m 258.57,242.47 q 6.4,-52.34 7.96,-65.96 0.45,-3.9 -1.36,-7.9 -0.42,-0.93 -0.54,0.08 l -2.4,20.03 a 0.31,0.31 0 0 1 -0.61,0.03 L 250.05,133.7 a 1.01,0.99 5.2 0 0 -0.61,-0.72 l -7.11,-2.83 a 0.45,0.45 0 0 0 -0.61,0.47 q 0.63,5.3 1.64,10.55 c 1.11,5.73 -0.93,10.21 -2.42,15.96"
       id="path21" />
    <path
       stroke="#f9b501"
       vector-effect="non-scaling-stroke"
       d="m 240.94,157.13 -7.86,1.82 q -0.54,0.13 -0.95,0.49 l -7.27,6.46"
       id="path22" />
    <path
       stroke="#e9a200"
       vector-effect="non-scaling-stroke"
       d="m 224.86,165.9 11.87,-47.22 q 0.13,-0.52 -0.3,-0.82 l -9.98,-6.89 a 0.59,0.58 -66.1 0 0 -0.9,0.35 l -7.65,31.86 a 0.16194135,0.16194135 0 0 1 -0.32,-0.05 l 4.7,-74.49"
       id="path23" />
    <path
       stroke="#f9b501"
       vector-effect="non-scaling-stroke"
       d="m 271.43,70.81 -0.55,-11.26 a 1.28,1.27 77.6 0 0 -1.75,-1.12 q -7.41,3.03 -13.33,7.49"
       id="path24" />
    <path
       stroke="#e49301"
       vector-effect="non-scaling-stroke"
       d="M 255.8,65.92 240.37,56.8"
       id="path25" />
    <path
       stroke="#f9b501"
       vector-effect="non-scaling-stroke"
       d="m 250.47,157.96 q -1.34,0.08 -1.73,0.54 -3.51,4.06 -7.41,7.77 -0.36,0.35 -0.35,0.85 0.05,3.4 0.34,5.07 4.87,28.41 10.36,56.72 c 0.7,3.66 0.91,8.63 2.9,13.03"
       id="path26" />
    <path
       stroke="#e15301"
       vector-effect="non-scaling-stroke"
       d="m 254.58,241.94 q -12.36,-1.65 -22.99,-6.15"
       id="path27" />
    <path
       stroke="#e49301"
       vector-effect="non-scaling-stroke"
       d="m 231.59,235.79 c 1.7,-8.81 -0.47,-20.33 -2.9,-28.42"
       id="path28" />
    <path
       stroke="#e49301"
       vector-effect="non-scaling-stroke"
       d="m 224.86,165.9 -2.45,3.59 a 1.2,1.18 56.4 0 0 -0.18,0.95 q 0.78,3.3 0.04,5.91"
       id="path29" />
    <path
       stroke="#e9a200"
       vector-effect="non-scaling-stroke"
       d="m 222.27,176.35 -4.85,20.16 q -0.99,4.1 -1.2,-0.12 L 210.59,80.04"
       id="path30" />
    <path
       stroke="#e49301"
       vector-effect="non-scaling-stroke"
       d="m 210.59,80.04 q 1.33,-0.36 -3.15,-2.42"
       id="path31" />
    <path
       stroke="#e9ae0e"
       vector-effect="non-scaling-stroke"
       d="m 366.96,120.58 5.86,15.01"
       id="path32" />
    <path
       stroke="#e9a200"
       vector-effect="non-scaling-stroke"
       d="m 372.82,135.59 -19.19,59.48"
       id="path33" />
    <path
       stroke="#d14000"
       vector-effect="non-scaling-stroke"
       d="m 353.63,195.07 -14.68,1.44"
       id="path34" />
    <path
       stroke="#e9a200"
       vector-effect="non-scaling-stroke"
       d="m 255.8,65.92 -0.39,58.37 a 0.72,0.72 0 0 1 -0.59,0.71 l -5.57,1.01 q -0.51,0.09 -0.39,-0.4 c 0.65,-2.66 3.33,-10.31 0.49,-11.97 q -5.18,-3.02 -8.07,-5.58 -0.32,-0.28 -0.74,-0.28 l -7.24,-0.09 q -0.68,0 -0.58,-0.68 0.14,-0.84 1.02,-0.98 a 0.65,0.65 0 0 0 0.46,-0.98 q -2.22,-3.69 -0.76,-6.51"
       id="path35" />
    <path
       stroke="#f9c10f"
       vector-effect="non-scaling-stroke"
       d="m 360.34,89.18 q -4.29,1.57 -9.32,2.43 -0.92,0.15 -0.08,1.69"
       id="path36" />
    <path
       stroke="#e49301"
       vector-effect="non-scaling-stroke"
       d="m 350.94,93.3 q -0.31,-0.12 -0.59,0.21 -0.16,0.18 -0.22,0.52 -1.73,10.2 -2.98,20.59 -0.06,0.51 0.26,0.92 l 2.72,3.47"
       id="path37" />
    <path
       stroke="#f9c10f"
       vector-effect="non-scaling-stroke"
       d="m 350.13,119.01 c -4.18,-3.01 -6,-6.4 -8.77,-9.01 -0.45,-0.43 -0.64,-0.95 -0.59,-1.52"
       id="path38" />
    <path
       stroke="#d14000"
       vector-effect="non-scaling-stroke"
       d="m 308.38,234.04 -13.71,5.35"
       id="path39" />
    <path
       stroke="#d14000"
       vector-effect="non-scaling-stroke"
       d="m 223.55,231.71 8.04,4.08"
       id="path40" />
    <path
       stroke="#d14000"
       vector-effect="non-scaling-stroke"
       d="m 281.55,242.06 3.65,-0.6"
       id="path41" />
    <path
       stroke="#da0305"
       vector-effect="non-scaling-stroke"
       d="m 294.27,436.07 -0.2,-0.94 q -0.03,-0.15 0.11,-0.22 l 0.71,-0.36 q 0.3,-0.16 0.06,-0.39 l -0.28,-0.29 q -0.21,-0.2 0.01,-0.4 1.11,-1.04 0.67,-2.53 a 1.21,1.17 48.2 0 1 0.03,-0.78 c 1.73,-4.29 0,-11.59 2.95,-13.38 6.62,-4.04 3.4,-8.01 3.61,-13.75 0.33,-8.95 1.74,-16.59 -3.82,-21.28 q -0.41,-0.34 -0.38,-0.87 l 0.26,-5.57 a 0.8,0.8 0 0 1 0.16,-0.45 c 1.4,-2.02 2.4,-3.72 4.6,-5.09 11.19,-6.95 18.53,-15.95 26.04,-26.48 a 2.3,2.29 40.7 0 0 -0.22,-2.92 c -2.23,-2.3 -7.42,-8.67 -10.42,-5.62 q -0.16,0.16 -0.37,0.07 -0.77,-0.32 -1.46,-0.8 a 0.62,0.61 36.9 0 1 -0.13,-0.9 l 0.59,-0.72 q 0.26,-0.33 0.24,-0.74 l -0.34,-6.1 q -0.03,-0.54 -0.57,-0.55 l -1.81,-0.03 q 0,0 0,-0.01 0,-0.02 0,-0.05 0.01,-0.12 0.11,-0.12 c 18.88,0.11 28.32,-14.66 25.81,-32.37 a 1.6,1.55 -36.4 0 1 0.16,-0.94 c 1.43,-2.88 6.34,-6.18 4.77,-9.12 a 1.26,1.25 2.4 0 0 -0.41,-0.44 l -2.58,-1.56 a 0.71,0.71 0 0 1 -0.26,-0.93 l 1.26,-2.52 a 1.59,1.58 -69.5 0 0 -1.02,-2.24 q -11.03,-2.88 -21.71,-6.88 -4.55,-1.71 -12.35,-0.79 -0.53,0.07 -0.55,-0.46 -0.22,-3.98 -2.96,-6.98 -0.08,-0.08 -0.02,-0.19 0.07,-0.11 0.1,-0.24 0.03,-0.11 -0.08,-0.08 -39.16,11.24 -78.01,-1.88 c -14.47,-4.89 -23.92,-12.34 -33.55,-23.88 -1.37,-1.64 -1.86,-3.21 -2.67,-5.18"
       id="path42" />
    <path
       stroke="#e50403"
       vector-effect="non-scaling-stroke"
       d="m 190.35,228.12 -1.09,-9.31 a 0.59,0.59 0 0 0 -0.53,-0.53 l -51.52,-5.83"
       id="path43" />
    <path
       stroke="#f9b501"
       vector-effect="non-scaling-stroke"
       d="m 235.03,61.89 -12.75,6.75"
       id="path44" />
    <path
       stroke="#e49301"
       vector-effect="non-scaling-stroke"
       d="m 222.28,68.64 q -7.45,-2.99 -11.47,-4.95 -1.05,-0.51 -1.1,-1.95"
       id="path45" />
    <path
       stroke="#e9ae0e"
       vector-effect="non-scaling-stroke"
       d="m 329.11,110.42 -4.96,1.41 a 0.53,0.53 0 0 0 -0.25,0.86 l 9.89,11.37"
       id="path46" />
    <path
       stroke="#d14000"
       vector-effect="non-scaling-stroke"
       d="m 258.57,242.47 -2.53,-0.41"
       id="path47" />
    <path
       stroke="#e9a200"
       vector-effect="non-scaling-stroke"
       d="m 256.04,242.06 q 1.44,-13.96 3.19,-27.81 c 0.35,-2.79 0.41,-5.89 -0.14,-8.95 q -4.28,-23.73 -8.62,-47.34"
       id="path48" />
    <path
       stroke="#e49301"
       vector-effect="non-scaling-stroke"
       d="m 250.47,157.96 c -2.75,-2.5 -6.24,-1.06 -9.53,-0.83"
       id="path49" />
    <path
       stroke="#f9b501"
       vector-effect="non-scaling-stroke"
       d="m 222.27,176.35 2.16,2.07 q 0.35,0.34 0.34,0.82 -0.18,14.35 3.92,28.13"
       id="path50" />
    <path
       stroke="#e9a200"
       vector-effect="non-scaling-stroke"
       d="m 228.69,207.37 q -3.82,12.14 -5.14,24.34"
       id="path51" />
    <path
       stroke="#e66200"
       vector-effect="non-scaling-stroke"
       d="M 223.55,231.71 Q 210.14,224.47 203.22,211.8"
       id="path52" />
    <path
       stroke="#e9a200"
       vector-effect="non-scaling-stroke"
       d="M 203.22,211.8 196.83,89.56"
       id="path53" />
    <path
       stroke="#e66200"
       vector-effect="non-scaling-stroke"
       d="m 256.04,242.06 -1.46,-0.12"
       id="path54" />
    <path
       stroke="#f9b501"
       vector-effect="non-scaling-stroke"
       d="m 210.59,80.04 q -7.39,4.01 -13.76,9.52"
       id="path55" />
    <path
       stroke="#e49301"
       vector-effect="non-scaling-stroke"
       d="M 196.83,89.56 182.09,83.48"
       id="path56" />
    <path
       stroke="#e9ae0e"
       vector-effect="non-scaling-stroke"
       d="M 362.99,105.78 350.94,93.3"
       id="path57" />
    <path
       stroke="#e66200"
       vector-effect="non-scaling-stroke"
       d="m 399,181.36 -3.24,6.88 a 1.02,1.02 0 0 1 -0.73,0.57 q -20.65,4.08 -41.4,6.26"
       id="path58" />
    <path
       stroke="#fed00e"
       vector-effect="non-scaling-stroke"
       d="m 372.82,135.59 q 8.8,0.57 17.94,-1.31"
       id="path59" />
    <path
       stroke="#fed00e"
       vector-effect="non-scaling-stroke"
       d="m 388.47,125.02 q -0.61,0.54 -1.32,0.51 -0.49,-0.02 -0.65,-0.48 l -1.65,-4.79 a 0.78,0.77 -11.1 0 0 -0.77,-0.51 l -17.12,0.83"
       id="path60" />
    <path
       stroke="#e9a200"
       vector-effect="non-scaling-stroke"
       d="M 366.96,120.58 357,152.44 q -0.06,0.2 -0.26,0.14 -0.12,-0.04 -0.24,-0.08 a 0.3,0.28 14.1 0 1 -0.2,-0.32 l 6.69,-46.4"
       id="path61" />
    <path
       stroke="#fed00e"
       vector-effect="non-scaling-stroke"
       d="m 362.99,105.78 q 5.97,-1.01 12.32,-3.85 c 1.38,-0.62 2.5,-0.44 4.01,-0.42"
       id="path62" />
    <path
       stroke="#e49301"
       vector-effect="non-scaling-stroke"
       d="m 347.15,82.58 q -2.25,12.43 -4.73,24.96 -0.14,0.68 -0.51,0.87 -0.44,0.21 -1.14,0.07"
       id="path63" />
    <path
       stroke="#e9ae0e"
       vector-effect="non-scaling-stroke"
       d="m 340.77,108.48 q -0.52,-1.18 -2.19,-0.41"
       id="path64" />
    <path
       stroke="#e49301"
       vector-effect="non-scaling-stroke"
       d="m 334.99,80.71 q -1.53,12.72 -0.91,25.76 0.03,0.57 0.52,0.84 1.63,0.92 3.98,0.76"
       id="path65" />
    <path
       stroke="#f9c10f"
       vector-effect="non-scaling-stroke"
       d="m 338.58,108.07 -9.47,2.35"
       id="path66" />
    <path
       stroke="#e49301"
       vector-effect="non-scaling-stroke"
       d="m 329.11,110.42 1.36,-46.09 a 0.84,0.83 15.8 0 0 -0.43,-0.76 q -1.13,-0.63 -2.88,-0.69"
       id="path67" />
    <path
       stroke="#f9c10f"
       vector-effect="non-scaling-stroke"
       d="m 362.27,78.28 q -0.72,-0.48 -1.45,-0.2 -6.85,2.57 -13.67,4.5"
       id="path68" />
    <path
       stroke="#e9ae0e"
       vector-effect="non-scaling-stroke"
       d="M 347.15,82.58 337.58,66.5"
       id="path69" />
    <path
       stroke="#f10708"
       vector-effect="non-scaling-stroke"
       d="m 190.35,228.12 q -2.88,11.83 -1.67,20.14 1.91,13.14 1.12,25.69 a 2.47,2.47 0 0 0 1.73,2.51 q 2.25,0.7 2.93,3.15 0.15,0.56 -0.31,0.9 l -1.41,1.05 q -0.42,0.31 -0.58,0.8 -0.23,0.75 0.11,1.1"
       id="path70" />
    <path
       stroke="#8c0403"
       vector-effect="non-scaling-stroke"
       d="m 192.27,283.46 q -0.12,0.87 0.26,0.79"
       id="path71" />
    <path
       stroke="#f10708"
       vector-effect="non-scaling-stroke"
       d="m 192.53,284.25 q -0.74,0.74 -0.39,1.73 c 0.55,1.56 2.23,1.99 2.53,4.05 0.46,3.2 1.24,6.08 -0.38,9.16 a 0.55,0.55 0 0 1 -0.76,0.21 q -0.74,-0.42 -1.13,0.37 -0.23,0.47 -0.49,0.02 l -0.2,-0.33 q -0.38,-0.65 -0.52,0.09 -0.45,2.28 -0.16,4.63 a 0.73,0.71 53.7 0 1 -0.04,0.29 q -1.29,3.39 0.31,6.75 a 1.06,1.04 42.7 0 1 0.04,0.79 c -0.95,2.69 -1.01,4.11 -0.26,7.24 1.55,6.5 1.38,13.41 0.61,19.04 -0.37,2.71 0.66,4.58 0.96,6.78 0.89,6.36 0.58,16.96 0.6,25.67 q 0.02,8.42 -0.03,16.85 c -0.03,3.75 -0.92,7.49 -1.38,11.31 -0.22,1.86 0.48,3.49 0.83,5.34 0.52,2.69 0.02,5.64 0.38,8.6 a 0.61,0.55 -41.9 0 1 -0.03,0.28 l -2.69,6.99 q -0.19,0.49 -0.72,0.41 -1.68,-0.27 -2.23,0.56"
       id="path72" />
    <path
       stroke="#e15301"
       vector-effect="non-scaling-stroke"
       d="m 182.63,195.04 -11.79,-1.47"
       id="path73" />
    <path
       stroke="#d14000"
       vector-effect="non-scaling-stroke"
       d="m 203.22,211.8 q -2.84,-6.41 -3.63,-12.77 -0.12,-0.93 -0.5,-1.46 -0.56,-0.79 -1.27,-0.97"
       id="path74" />
    <path
       stroke="#f9b501"
       vector-effect="non-scaling-stroke"
       d="m 196.36,72.23 q -7.65,5.01 -14.27,11.25"
       id="path75" />
    <path
       stroke="#e9a200"
       vector-effect="non-scaling-stroke"
       d="m 182.09,83.48 q 0.64,17.36 1.68,34.23 c 0.81,13.03 0.04,28.2 3.73,41.22 q 5.28,18.61 10.32,37.67"
       id="path76" />
    <path
       stroke="#e66200"
       vector-effect="non-scaling-stroke"
       d="m 197.82,196.6 -15.19,-1.56"
       id="path77" />
    <path
       stroke="#f9b501"
       vector-effect="non-scaling-stroke"
       d="m 182.63,195.04 -19.61,-71.16 q -0.35,-1.26 0.79,-1.9 l 11.33,-6.4"
       id="path78" />
    <path
       stroke="#f9b501"
       vector-effect="non-scaling-stroke"
       d="m 158.42,112.48 -7.3,4.79 a 2.12,2.11 -24.5 0 0 -0.88,2.34 l 20.6,73.96"
       id="path79" />
    <path
       stroke="#e66200"
       vector-effect="non-scaling-stroke"
       d="M 170.84,193.57 160.2,192.04"
       id="path80" />
    <path
       stroke="#e9a200"
       vector-effect="non-scaling-stroke"
       d="M 160.2,192.04 135.41,74.41"
       id="path81" />
    <path
       stroke="#d14000"
       vector-effect="non-scaling-stroke"
       d="m 160.2,192.04 -18.45,-3.07 a 1.51,1.49 0.6 0 1 -1.24,-1.25 l -1.21,-7.64"
       id="path82" />
    <path
       stroke="#810305"
       vector-effect="non-scaling-stroke"
       d="m 192.53,284.25 q 3.23,2.86 5.2,6.75 a 1.6,1.54 -54.9 0 1 0.15,0.96 c -1.85,11.38 1.92,24.38 13.16,29.27 q 8.42,3.67 17.1,0.92"
       id="path83" />
    <path
       stroke="#f38384"
       vector-effect="non-scaling-stroke"
       d="m 228.14,322.15 c 8.56,-1.88 16.29,-7.85 18.23,-16.64 q 0.46,-2.08 1.17,-3.9"
       id="path84" />
    <path
       stroke="#810305"
       vector-effect="non-scaling-stroke"
       d="m 247.54,301.61 q 3.05,-7.78 -0.89,-17.18 -6.69,-15.97 -22.84,-15.81 c -9.75,0.09 -18.77,6.34 -28.69,7.31 a 0.51,0.5 73.9 0 0 -0.4,0.73 l 1.99,4 a 0.62,0.61 63.8 0 1 -0.28,0.83 l -4.16,1.97"
       id="path85" />
    <path
       stroke="#f9c10f"
       vector-effect="non-scaling-stroke"
       d="m 335.23,54.92 -0.35,-2.07 q -0.23,-1.37 -0.7,-0.06 l -3.25,9.16 a 0.76,0.74 5.2 0 1 -0.59,0.48 l -3.18,0.45"
       id="path86" />
    <path
       stroke="#e9ae0e"
       vector-effect="non-scaling-stroke"
       d="M 327.16,62.88 314.41,60.35"
       id="path87" />
    <path
       stroke="#e9a200"
       vector-effect="non-scaling-stroke"
       d="m 393.91,64.66 -15.13,46.24 a 0.2,0.2 0 0 1 -0.38,-0.08 l 0.92,-9.31"
       id="path88" />
    <path
       stroke="#e9ae0e"
       vector-effect="non-scaling-stroke"
       d="m 379.32,101.51 q -5.3,-5.68 -10.26,-10.82 -1.84,-1.9 -0.83,-4.45"
       id="path89" />
    <path
       stroke="#e9a200"
       vector-effect="non-scaling-stroke"
       d="m 410.06,113.65 -35.39,75.6 q -0.2,0.41 -0.42,0.02 -0.11,-0.2 -0.01,-0.52 7.64,-23.81 15.08,-47.68 1.42,-4.54 1.44,-6.79"
       id="path90" />
    <path
       stroke="#e9ae0e"
       vector-effect="non-scaling-stroke"
       d="m 390.76,134.28 c -1.28,-2.79 -2.35,-4.42 -1.1,-6.78"
       id="path91" />
    <path
       stroke="#fed00e"
       vector-effect="non-scaling-stroke"
       d="m 430.6,114.07 -20.54,-0.42"
       id="path92" />
    <path
       stroke="#e9ae0e"
       vector-effect="non-scaling-stroke"
       d="M 410.06,113.65 404.25,96.53"
       id="path93" />
    <path
       stroke="#fed00e"
       vector-effect="non-scaling-stroke"
       d="m 409.33,60.8 -15.42,3.86"
       id="path94" />
    <path
       stroke="#e9ae0e"
       vector-effect="non-scaling-stroke"
       d="M 393.91,64.66 379.47,51.61"
       id="path95" />
    <path
       stroke="#8e8080"
       vector-effect="non-scaling-stroke"
       d="m 247.54,301.61 -1.03,-12.2"
       id="path96" />
    <path
       stroke="#7c6e6e"
       vector-effect="non-scaling-stroke"
       d="m 246.51,289.41 c -7.33,-23.72 -38.26,-22.87 -44.84,0.86"
       id="path97" />
    <path
       stroke="#8e8080"
       vector-effect="non-scaling-stroke"
       d="m 201.67,290.27 c -4.89,17.76 8.12,32.78 26.47,31.88"
       id="path98" />
    <path
       stroke="#e9a200"
       vector-effect="non-scaling-stroke"
       d="m 175.17,42.11 -0.03,73.47"
       id="path99" />
    <path
       stroke="#e49301"
       vector-effect="non-scaling-stroke"
       d="m 175.14,115.58 -14.49,-6.24"
       id="path100" />
    <path
       stroke="#f9b501"
       vector-effect="non-scaling-stroke"
       d="m 196.57,37.04 c -3.39,-0.79 -13.65,2.86 -21.4,5.07"
       id="path101" />
    <path
       stroke="#e49301"
       vector-effect="non-scaling-stroke"
       d="M 175.17,42.11 161,32.89"
       id="path102" />
    <path
       stroke="#fed00e"
       vector-effect="non-scaling-stroke"
       d="m 144.99,61.55 q -0.63,1.89 -1.93,3.26 -4.77,5 -7.65,9.6"
       id="path103" />
    <path
       stroke="#e9ae0e"
       vector-effect="non-scaling-stroke"
       d="m 135.41,74.41 -16.87,1.87"
       id="path104" />
    <path
       stroke="#9fc4f5"
       vector-effect="non-scaling-stroke"
       d="m 209.74,289.22 c -8.94,19.96 17.41,38.18 29.83,18.24"
       id="path105" />
    <path
       stroke="#b0dbf9"
       vector-effect="non-scaling-stroke"
       d="m 239.57,307.46 q 0.65,-0.7 0.7,-1.69 0.02,-0.54 -0.44,-0.83 -0.93,-0.59 -0.41,-1.53 0.35,-0.63 1.03,-0.38 l 0.68,0.25 q 0.59,0.21 0.68,-0.41 l 0.2,-1.35 q 0.1,-0.72 -0.61,-0.85 -2.32,-0.44 -1.45,-2.63"
       id="path106" />
    <path
       stroke="#9fc4f5"
       vector-effect="non-scaling-stroke"
       d="m 239.95,298.04 q 0.35,-1.39 2.02,-1.33 0.54,0.02 0.49,-0.52 -0.48,-4.85 -2.73,-9.18"
       id="path107" />
    <path
       stroke="#eeeded"
       vector-effect="non-scaling-stroke"
       d="m 246.51,289.41 q -3.29,-1.29 -4.93,-3.6 -0.28,-0.39 -0.76,-0.3 -0.81,0.14 -1.09,1.5"
       id="path108" />
    <path
       stroke="#8eb2e3"
       vector-effect="non-scaling-stroke"
       d="m 239.73,287.01 -0.79,-0.82"
       id="path109" />
    <path
       stroke="#7784da"
       vector-effect="non-scaling-stroke"
       d="m 238.94,286.19 c -5.28,-8.89 -16.29,-10.72 -24.28,-4.05 q -0.4,0.34 -0.09,0.76 l 0.3,0.4"
       id="path110" />
    <path
       stroke="#eeeded"
       vector-effect="non-scaling-stroke"
       d="m 214.87,283.3 q -1.85,0.09 -3.33,-0.82 -0.45,-0.27 -0.85,0.07 l -9.02,7.72"
       id="path111" />
    <path
       stroke="#50a0ef"
       vector-effect="non-scaling-stroke"
       d="m 239.95,298.04 c -7.34,-0.95 -6.59,8.46 -14.5,8.68 q -4.79,0.12 -7.78,-4.14 -0.3,-0.42 -0.8,-0.39 l -5.53,0.24 a 0.95,0.94 -10.8 0 0 -0.86,1.25 c 4.36,13.02 19.8,15.16 27.75,4.12 q 0.3,-0.42 0.82,-0.38 l 0.52,0.04"
       id="path112" />
    <path
       stroke="#9fc4f5"
       vector-effect="non-scaling-stroke"
       d="m 216.5,292.45 q 1.03,1.07 2.17,1.14"
       id="path113" />
    <path
       stroke="#285be2"
       vector-effect="non-scaling-stroke"
       d="m 218.67,293.59 q -0.48,4.23 2.03,8.81"
       id="path114" />
    <path
       stroke="#50a0ef"
       vector-effect="non-scaling-stroke"
       d="m 220.7,302.4 q 3.59,5.59 9.44,0.43 a 0.48,0.48 0 0 0 -0.06,-0.76 q -0.28,-0.18 -0.64,-0.14"
       id="path115" />
    <path
       stroke="#285be2"
       vector-effect="non-scaling-stroke"
       d="m 229.44,301.93 q 2.46,-3.1 2.28,-6.86 c -0.32,-6.68 -6.83,-9.42 -12.04,-4.31"
       id="path116" />
    <path
       stroke="#9fc4f5"
       vector-effect="non-scaling-stroke"
       d="m 219.68,290.76 q -0.72,-0.88 -1.7,-0.82"
       id="path117" />
    <path
       stroke="#285be2"
       vector-effect="non-scaling-stroke"
       d="m 238.94,286.19 q 1.18,3.38 -1.42,4.21 c -3.6,1.16 -4.61,-1.08 -7.02,-2.26 q -5.9,-2.89 -11.11,1.19 -0.38,0.3 -0.85,0.38 -0.37,0.07 -0.56,0.23"
       id="path118" />
    <path
       stroke="#8896ec"
       vector-effect="non-scaling-stroke"
       d="m 217.98,289.94 q -1.69,0.17 -1.48,2.51"
       id="path119" />
    <path
       stroke="#285be2"
       vector-effect="non-scaling-stroke"
       d="m 216.5,292.45 c -0.85,3.46 -4.54,2.16 -7.17,1.22 q -0.53,-0.19 -0.41,-0.73 l 0.82,-3.72"
       id="path120" />
    <path
       stroke="#8896ec"
       vector-effect="non-scaling-stroke"
       d="m 209.74,289.22 q 2.03,-1.5 4.17,-0.88 0.54,0.15 0.39,-0.39 -0.66,-2.33 0.57,-4.65"
       id="path121" />
    <path
       stroke="#3972e6"
       vector-effect="non-scaling-stroke"
       d="m 229.44,301.93 q -3.01,2.31 -8.74,0.47"
       id="path122" />
    <path
       stroke="#8896ec"
       vector-effect="non-scaling-stroke"
       d="m 218.67,293.59 q 1.93,-1.25 1.01,-2.83"
       id="path123" />
  </g>
  <path
     fill="#f3a602"
     d="m 250.54838,11.806889 q 0.23,-2.3100001 -2.21,-1.9500001 -3.31,0.5000001 -13.34,3.9800001 c -2.44,-1.41 -11.3,-6.4200001 -11.78,-9.1600001 l 13.88,-4.62000001 q 0.5,-0.16 0.93,0.13 5.71,3.88000001 11.32,7.76000001 c 1.39,0.96 1.73,2.3800001 1.2,3.8600001 z"
     id="path124" />
  <path
     fill="#d47f00"
     d="m 223.21838,4.6768889 c 0.48,2.74 9.34,7.7500001 11.78,9.1600001 l -5.94,90.240001 q -0.52,1.81 -2.6,2.59 a 0.74,0.74 0 0 1 -0.99,-0.86 q 0.29,-1.21 -0.22,-2.32 l 0.21,-46.880001 q 1.13,-6.67 0.35,-13.09 -0.06,-0.51 -0.39,-0.9 l -5.16,-6.13 2.18,-30.9100001 q 0.04,-0.48 0.46,-0.72 z"
     id="path125" />
  <path
     fill="#fec400"
     d="m 250.54838,11.806889 -2.24,44.4 q 1.37,3.94 -0.16,8.12 a 2.04,2.02 6.2 0 1 -1.65,1.32 l -5.64,0.75 a 1.39,1.4 79.8 0 0 -1.18,1.69 c 0.92,4.04 1.25,6.75 1.72,11.89 0.72,7.76 2.32,15.74 3.72,23.620001 a 0.72,0.72 0 0 1 -1.11,0.72 q -6.1,-4.09 -11.98,0.24 a 1.55,1.52 28.1 0 1 -0.99,0.29 q -1.38,-0.1 -1.98,-0.77 l 5.94,-90.240001 q 10.03,-3.48 13.34,-3.9800001 2.44,-0.36 2.21,1.9500001 z"
     id="path126" />
  <path
     fill="#f3a602"
     d="m 150.59838,22.836889 c -3.39,-0.79 -13.65,2.86 -21.4,5.07 l -14.17,-9.22 q -0.21,-0.43 0.41,-1.01 0.33,-0.32 0.92,-0.48 9.55,-2.62 19.25,-5.29 a 0.81,0.84 56.1 0 1 0.69,0.12 l 13.62,9.66 q 0.34,0.24 0.49,0.64 z"
     id="path127" />
  <path
     fill="#d47f00"
     d="m 129.19838,27.906889 -0.03,73.470001 -14.49,-6.240001 0.35,-76.45 z"
     id="path128" />
  <path
     fill="#fec400"
     d="m 150.59838,22.836889 -0.21,35.19 q -7.65,5.01 -14.27,11.25 0.64,17.36 1.68,34.230001 c 0.81,13.03 0.04,28.2 3.73,41.22 q 5.28,18.61 10.32,37.67 l -15.19,-1.56 -19.61,-71.16 q -0.35,-1.26 0.79,-1.9 l 11.33,-6.4 0.03,-73.470001 c 7.75,-2.21 18.01,-5.86 21.4,-5.07 z"
     id="path129" />
  <path
     fill="#fedc1c"
     d="m 363.35838,46.596889 -15.42,3.86 -14.44,-13.05 q -0.62,-0.43 0.34,-1.1 0.38,-0.26 0.96,-0.33 5.28,-0.67 11.54,-2.87 c 1.5,-0.53 2.28,0.28 3.32,1.13 q 6.7,5.5 13.7,12.36 z"
     id="path130" />
  <path
     fill="#f3a602"
     d="m 220.25838,36.486889 5.16,6.13 q 0.33,0.39 0.39,0.9 0.78,6.42 -0.35,13.09 l -0.55,-11.26 a 1.28,1.27 77.6 0 0 -1.75,-1.12 q -7.41,3.03 -13.33,7.49 l -15.43,-9.12 14.58,-8.77 a 1.11,1.12 44.7 0 1 1.12,-0.01 l 9.07,5.17 q 0.42,0.24 0.54,-0.23 z"
     id="path131" />
  <path
     fill="#fedc1c"
     d="m 289.25838,40.716889 -0.35,-2.07 q -0.23,-1.37 -0.7,-0.06 l -3.25,9.16 a 0.76,0.74 5.2 0 1 -0.59,0.48 l -3.18,0.45 -12.75,-2.53 q 0.35,-6.19 3.7,-11.75 0.27,-0.45 0.79,-0.37 c 4.11,0.63 12.91,1.45 16.2,3.49 q 2.63,1.63 0.13,3.2 z"
     id="path132" />
  <path
     fill="#d47f00"
     d="m 347.93838,50.456889 -15.13,46.24 a 0.2,0.2 0 0 1 -0.38,-0.08 l 0.92,-9.31 q -5.3,-5.68 -10.26,-10.82 -1.84,-1.9 -0.83,-4.45 l 11.24,-34.63 z"
     id="path133" />
  <path
     fill="#f3a602"
     d="m 289.25838,40.716889 q -1.15,13 -0.24,25.79 -1.53,12.72 -0.91,25.76 0.03,0.57 0.52,0.84 1.63,0.92 3.98,0.76 l -9.47,2.35 1.36,-46.09 a 0.84,0.83 15.8 0 0 -0.43,-0.76 q -1.13,-0.63 -2.88,-0.69 l 3.18,-0.45 a 0.76,0.74 5.2 0 0 0.59,-0.48 l 3.25,-9.16 q 0.47,-1.31 0.7,0.06 z"
     id="path134" />
  <path
     fill="#f3a602"
     d="m 189.05838,47.686889 -12.75,6.75 q -7.45,-2.99 -11.47,-4.95 -1.05,-0.51 -1.1,-1.95 l 10.96,-6.59 q 0.43,-0.25 0.88,-0.03 z"
     id="path135" />
  <path
     fill="#d47f00"
     d="m 194.39838,42.596889 15.43,9.12 -0.39,58.370001 a 0.72,0.72 0 0 1 -0.59,0.71 l -5.57,1.01 q -0.51,0.09 -0.39,-0.4 c 0.65,-2.66 3.33,-10.31 0.49,-11.970001 q -5.18,-3.02 -8.07,-5.58 -0.32,-0.28 -0.74,-0.28 l -7.24,-0.09 q -0.68,0 -0.58,-0.68 0.14,-0.84 1.02,-0.98 a 0.65,0.65 0 0 0 0.46,-0.98 q -2.22,-3.69 -0.76,-6.51 l 5.48,2.88 q 1.29,0.68 1.29,-0.78 0.06,-21.05 0.04,-41.23 -0.01,-0.41 -0.18,-1.3 -0.2,-0.99 0.3,-1.31 z"
     id="path136" />
  <path
     fill="#fec400"
     d="m 225.45838,56.606889 -0.21,46.880001 q 0.66,5.21 -1.96,5.64 l 0.68,41.45 a 0.57,0.58 4 0 0 0.49,0.57 l 12.82,2.02 q 0.46,0.07 0.45,-0.39 l -0.68,-36.77 15.57,-6.17 a 0.6,0.6 0 0 1 0.82,0.53 l 0.77,21.83 q 0.05,1.49 1.41,0.87 3.05,-1.4 6.39,-1.72 a 1.38,1.38 0 0 0 1.23,-1.57 q -4.32,-29.55 -8.49,-59.360001 c -0.27,-1.93 -0.65,-4.04 0.69,-5.44 q 2.68,-2.79 8.09,-5.67 1.2,-0.63 2.05,1.24 0.27,5.79 2.1,10.94 1.99,20.1 5.27,40.420001 c 1.27,7.89 1.04,13.77 -0.72,21.03 a 1.04,1.04 0 0 0 0.46,1.13 l 4.38,2.75 q 0.51,0.32 0.51,0.91 l -0.07,35.81 q 0,0.38 0.36,0.26 0.16,-0.06 0.19,-0.25 4.79,-29.61 9.41,-59.26 0.35,-2.23 0.35,-4.43 8.1,-1.16 15.83,-4.16 0.33,-0.13 0.35,-0.48 0.01,-0.26 0.16,-0.41 l 0.51,0.79 q 0.27,0.43 0.2,0.94 l -11.89,75.77 q -2.21,-0.24 -2.38,2.24 c -1.07,16.04 -14.22,28.77 -28.19,35.29 -0.63,-8.52 -0.17,-18.75 -0.15,-25.3 q 0.04,-23.93 0.01,-47.94 0,-0.56 -0.48,-0.83 l -12.05,-6.75 a 0.58,0.58 0 0 0 -0.86,0.5 l -0.18,85.67 -9.47,2.07 q -0.05,-13.48 -0.43,-26.96 0,-0.24 -0.25,-0.32 -0.34,-0.12 -0.37,0.23 l -2.6,27.65 q -11.88,1.28 -22.98,0.41 6.4,-52.34 7.96,-65.96 0.45,-3.9 -1.36,-7.9 -0.42,-0.93 -0.54,0.08 l -2.4,20.03 a 0.31,0.31 0 0 1 -0.61,0.03 l -11.57,-55.05 a 1.01,0.99 5.2 0 0 -0.61,-0.72 l -7.11,-2.83 a 0.45,0.45 0 0 0 -0.61,0.47 q 0.63,5.3 1.64,10.55 c 1.11,5.73 -0.93,10.21 -2.42,15.96 l -7.86,1.82 q -0.54,0.13 -0.95,0.49 l -7.27,6.46 11.87,-47.22 q 0.13,-0.52 -0.3,-0.82 l -9.98,-6.890001 a 0.58,0.59 23.9 0 0 -0.9,0.35 l -7.65,31.860001 a 0.16194135,0.16194135 0 0 1 -0.32,-0.05 l 4.7,-74.490001 12.75,-6.75 -2.18,35.34 a 1.45,1.48 29.9 0 0 0.24,0.93 q 0.23,0.36 0.35,0.38 -1.46,2.82 0.76,6.51 a 0.65,0.65 0 0 1 -0.46,0.98 q -0.88,0.14 -1.02,0.98 -0.1,0.68 0.58,0.68 l 7.24,0.09 q 0.42,0 0.74,0.28 2.89,2.56 8.07,5.58 c 2.84,1.660001 0.16,9.310001 -0.49,11.970001 q -0.12,0.49 0.39,0.4 l 5.57,-1.01 a 0.72,0.72 0 0 0 0.59,-0.71 l 0.39,-58.370001 q 5.92,-4.46 13.33,-7.49 a 1.28,1.27 77.6 0 1 1.75,1.12 z"
     id="path137" />
  <path
     fill="#d47f00"
     d="m 281.18838,48.676889 q 1.75,0.06 2.88,0.69 a 0.84,0.83 15.8 0 1 0.43,0.76 l -1.36,46.09 -4.96,1.41 a 0.53,0.53 0 0 0 -0.25,0.86 l 9.89,11.370001 q 0,2.2 -0.35,4.43 -4.62,29.65 -9.41,59.26 -0.03,0.19 -0.19,0.25 -0.36,0.12 -0.36,-0.26 l 0.07,-35.81 q 0,-0.59 -0.51,-0.91 l -4.38,-2.75 a 1.04,1.04 0 0 1 -0.46,-1.13 c 1.76,-7.26 1.99,-13.14 0.72,-21.03 q -3.28,-20.320001 -5.27,-40.420001 l 0.76,-25.34 z"
     id="path138" />
  <path
     fill="#fec400"
     d="m 363.35838,46.596889 -20.86,64.220001 q -0.61,0.54 -1.32,0.51 -0.49,-0.02 -0.65,-0.48 l -1.65,-4.79 a 0.77,0.78 78.9 0 0 -0.77,-0.51 l -17.12,0.83 -9.96,31.86 q -0.06,0.2 -0.26,0.14 -0.12,-0.04 -0.24,-0.08 a 0.3,0.28 14.1 0 1 -0.2,-0.32 l 6.69,-46.400001 q 5.97,-1.01 12.32,-3.85 c 1.38,-0.62 2.5,-0.44 4.01,-0.42 l -0.92,9.31 a 0.2,0.2 0 0 0 0.38,0.08 l 15.13,-46.24 z"
     id="path139" />
  <path
     fill="#fedc1c"
     d="m 316.29838,64.076889 q -0.72,-0.48 -1.45,-0.2 -6.85,2.57 -13.67,4.5 l -9.57,-16.08 c -0.19,-0.82 0.53,-1.75 1.34,-2.04 q 6.4,-2.28 13.47,-3.13 0.56,-0.06 0.85,0.43 l 8.81,15.13 q 0.17,0.31 0.19,0.66 z"
     id="path140" />
  <path
     fill="#fedc1c"
     d="m 99.018378,47.346889 q -0.63,1.89 -1.93,3.26 -4.77,5 -7.65,9.6 l -16.87,1.87 q 3.88,-6.01 10.14,-12.36 c 2.52,-2.55 12.62,-2.23 16.31,-2.37 z"
     id="path141" />
  <path
     fill="#fec400"
     d="m 99.018378,47.346889 q 0.86,-0.18 1.520002,-0.01 0.49,0.13 0.6,0.63 5.1,23.87 9.94,47.77 0.27,1.32 1.37,2.54 l -7.3,4.790001 a 2.11,2.12 65.5 0 0 -0.88,2.34 l 20.6,73.96 -10.64,-1.53 L 89.438378,60.206889 q 2.88,-4.6 7.65,-9.6 1.3,-1.37 1.93,-3.26 z"
     id="path142" />
  <path
     fill="#d47f00"
     d="m 163.73838,47.536889 q 0.05,1.44 1.1,1.95 4.02,1.96 11.47,4.95 l -4.7,74.490001 a 0.16194135,0.16194135 0 0 0 0.32,0.05 l 7.65,-31.860001 a 0.58,0.59 23.9 0 1 0.9,-0.35 l 9.98,6.890001 q 0.43,0.3 0.3,0.82 l -11.87,47.22 -2.45,3.59 a 1.2,1.18 56.4 0 0 -0.18,0.95 q 0.78,3.3 0.04,5.91 l -4.85,20.16 q -0.99,4.1 -1.2,-0.12 l -5.63,-116.350001 q 1.33,-0.36 -3.15,-2.42 l 1.1,-14.73 q 0.04,-0.52 0.5,-0.77 z"
     id="path143" />
  <path
     fill="#d47f00"
     d="m 291.60838,52.296889 9.57,16.08 q -2.25,12.43 -4.73,24.96 -0.14,0.68 -0.51,0.87 -0.44,0.21 -1.14,0.07 -0.52,-1.18 -2.19,-0.41 -2.35,0.16 -3.98,-0.76 -0.49,-0.27 -0.52,-0.84 -0.62,-13.04 0.91,-25.76 z"
     id="path144" />
  <path
     fill="#f3a602"
     d="m 248.30838,56.206889 q 8.07,-0.56 16.01,0.3 0.57,0.06 0.67,0.62 l 0.59,3.42 q -0.85,-1.87 -2.05,-1.24 -5.41,2.88 -8.09,5.67 c -1.34,1.4 -0.96,3.51 -0.69,5.44 q 4.17,29.810001 8.49,59.360001 a 1.38,1.38 0 0 1 -1.23,1.57 q -3.34,0.32 -6.39,1.72 -1.36,0.62 -1.41,-0.87 l -0.77,-21.83 a 0.6,0.6 0 0 0 -0.82,-0.53 l -15.57,6.17 -13.76,-6.88 q 2.62,-0.43 1.96,-5.64 0.51,1.11 0.22,2.32 a 0.74,0.74 0 0 0 0.99,0.86 q 2.08,-0.78 2.6,-2.59 0.6,0.67 1.98,0.77 a 1.55,1.52 28.1 0 0 0.99,-0.29 q 5.88,-4.33 11.98,-0.24 a 0.72,0.72 0 0 0 1.11,-0.72 c -1.4,-7.880001 -3,-15.860001 -3.72,-23.620001 -0.47,-5.14 -0.8,-7.85 -1.72,-11.89 a 1.39,1.4 79.8 0 1 1.18,-1.69 l 5.64,-0.75 a 2.04,2.02 6.2 0 0 1.65,-1.32 q 1.53,-4.18 0.16,-8.12 z"
     id="path145" />
  <path
     fill="#f3a602"
     d="m 150.38838,58.026889 q 4.94,3.89 11.08,5.39 4.48,2.06 3.15,2.42 -7.39,4.01 -13.76,9.52 l -14.74,-6.08 q 6.62,-6.24 14.27,-11.25 z"
     id="path146" />
  <path
     fill="#d47f00"
     d="m 89.438378,60.206889 24.790002,117.630001 -18.450002,-3.07 a 1.51,1.49 0.6 0 1 -1.24,-1.25 l -1.21,-7.64 -20.76,-103.800001 z"
     id="path147" />
  <path
     fill="#f3a602"
     d="m 316.29838,64.076889 -1.93,10.9 q -4.29,1.57 -9.32,2.43 -0.92,0.15 -0.08,1.69 -0.31,-0.12 -0.59,0.21 -0.16,0.18 -0.22,0.52 -1.73,10.2 -2.98,20.590001 -0.06,0.51 0.26,0.92 l 2.72,3.47 c -4.18,-3.01 -6,-6.400001 -8.77,-9.010001 -0.45,-0.43 -0.64,-0.95 -0.59,-1.52 q 0.7,0.14 1.14,-0.07 0.37,-0.19 0.51,-0.87 2.48,-12.53 4.73,-24.96 6.82,-1.93 13.67,-4.5 0.73,-0.28 1.45,0.2 z"
     id="path148" />
  <path
     fill="#fec400"
     d="m 164.61838,65.836889 5.63,116.350001 q 0.21,4.22 1.2,0.12 l 4.85,-20.16 2.16,2.07 q 0.35,0.34 0.34,0.82 -0.18,14.35 3.92,28.13 -3.82,12.14 -5.14,24.34 -13.41,-7.24 -20.33,-19.91 l -6.39,-122.240001 q 6.37,-5.51 13.76,-9.52 z"
     id="path149" />
  <path
     fill="#d47f00"
     d="m 136.11838,69.276889 14.74,6.08 6.39,122.240001 q -2.84,-6.41 -3.63,-12.77 -0.12,-0.93 -0.5,-1.46 -0.56,-0.79 -1.27,-0.97 -5.04,-19.06 -10.32,-37.67 c -3.69,-13.02 -2.92,-28.19 -3.73,-41.22 q -1.04,-16.870001 -1.68,-34.230001 z"
     id="path150" />
  <path
     fill="#fedc1c"
     d="m 322.25838,72.036889 q -1.01,2.55 0.83,4.45 4.96,5.14 10.26,10.82 c -1.51,-0.02 -2.63,-0.2 -4.01,0.42 q -6.35,2.84 -12.32,3.85 l -12.05,-12.48 q -0.84,-1.54 0.08,-1.69 5.03,-0.86 9.32,-2.43 2.27,0.73 4.29,0.53 0.55,-0.05 0.85,-0.53 1.14,-1.84 2.75,-2.94 z"
     id="path151" />
  <path
     fill="#d47f00"
     d="m 304.96838,79.096889 12.05,12.48 -6.69,46.400001 a 0.3,0.28 14.1 0 0 0.2,0.32 q 0.12,0.04 0.24,0.08 0.2,0.06 0.26,-0.14 l 9.96,-31.86 5.86,15.01 -19.19,59.48 -14.68,1.44 11.89,-75.77 q 0.07,-0.51 -0.2,-0.94 l -0.51,-0.79 -2.72,-3.47 q -0.32,-0.41 -0.26,-0.92 1.25,-10.390001 2.98,-20.590001 0.06,-0.34 0.22,-0.52 0.28,-0.33 0.59,-0.21 z"
     id="path152" />
  <path
     fill="#fedc1c"
     d="m 384.62838,99.866889 -20.54,-0.42 -5.81,-17.12 18.65,0.16 a 2.09,2.1 80.5 0 1 1.96,1.39 z"
     id="path153" />
  <path
     fill="#d47f00"
     d="m 358.27838,82.326889 5.81,17.12 -35.39,75.600001 q -0.2,0.41 -0.42,0.02 -0.11,-0.2 -0.01,-0.52 7.64,-23.81 15.08,-47.68 1.42,-4.54 1.44,-6.79 c -1.28,-2.79 -2.35,-4.42 -1.1,-6.78 z"
     id="path154" />
  <path
     fill="#fedc1c"
     d="m 294.79838,94.276889 c -0.05,0.57 0.14,1.09 0.59,1.52 2.77,2.61 4.59,6.000001 8.77,9.010001 q -0.15,0.15 -0.16,0.41 -0.02,0.35 -0.35,0.48 -7.73,3 -15.83,4.16 l -9.89,-11.370001 a 0.53,0.53 0 0 1 0.25,-0.86 l 4.96,-1.41 9.47,-2.35 q 1.67,-0.77 2.19,0.41 z"
     id="path155" />
  <path
     fill="#f3a602"
     d="m 114.67838,95.136889 14.49,6.240001 -11.33,6.4 q -1.14,0.64 -0.79,1.9 l 19.61,71.16 -11.79,-1.47 -20.6,-73.96 a 2.11,2.12 65.5 0 1 0.88,-2.34 l 7.3,-4.790001 q 2.5,-1.5 2.23,-3.14 z"
     id="path156" />
  <path
     fill="#fec400"
     d="m 384.62838,99.866889 -31.6,67.290001 -3.24,6.88 a 1.02,1.02 0 0 1 -0.73,0.57 q -20.65,4.08 -41.4,6.26 l 19.19,-59.48 q 8.8,0.57 17.94,-1.31 -0.02,2.25 -1.44,6.79 -7.44,23.87 -15.08,47.68 -0.1,0.32 0.01,0.52 0.22,0.39 0.42,-0.02 l 35.39,-75.600001 z"
     id="path157" />
  <path
     fill="#fedc1c"
     d="m 342.49838,110.81689 q -0.14,2.64 1.19,2.48 c -1.25,2.36 -0.18,3.99 1.1,6.78 q -9.14,1.88 -17.94,1.31 l -5.86,-15.01 17.12,-0.83 a 0.77,0.78 78.9 0 1 0.77,0.51 l 1.65,4.79 q 0.16,0.46 0.65,0.48 0.71,0.03 1.32,-0.51 z"
     id="path158" />
  <path
     fill="#d47f00"
     d="m 223.28838,109.12689 13.76,6.88 0.68,36.77 q 0.01,0.46 -0.45,0.39 l -12.82,-2.02 a 0.57,0.58 4 0 1 -0.49,-0.57 z"
     id="path159" />
  <path
     fill="#d47f00"
     d="m 212.59838,228.26689 -2.53,-0.41 q 1.44,-13.96 3.19,-27.81 c 0.35,-2.79 0.41,-5.89 -0.14,-8.95 q -4.28,-23.73 -8.62,-47.34 c -2.75,-2.5 -6.24,-1.06 -9.53,-0.83 1.49,-5.75 3.53,-10.23 2.42,-15.96 q -1.01,-5.25 -1.64,-10.55 a 0.45,0.45 0 0 1 0.61,-0.47 l 7.11,2.83 a 1.01,0.99 5.2 0 1 0.61,0.72 l 11.57,55.05 a 0.31,0.31 0 0 0 0.61,-0.03 l 2.4,-20.03 q 0.12,-1.01 0.54,-0.08 1.81,4 1.36,7.9 -1.56,13.62 -7.96,65.96 z"
     id="path160" />
  <path
     fill="#d47f00"
     d="m 262.40838,219.83689 -13.71,5.35 0.18,-85.67 a 0.58,0.58 0 0 1 0.86,-0.5 l 12.05,6.75 q 0.48,0.27 0.48,0.83 0.03,24.01 -0.01,47.94 c -0.02,6.55 -0.48,16.78 0.15,25.3 z"
     id="path161" />
  <path
     fill="#f3a602"
     d="m 204.49838,143.75689 q -1.34,0.08 -1.73,0.54 -3.51,4.06 -7.41,7.77 -0.36,0.35 -0.35,0.85 0.05,3.4 0.34,5.07 4.87,28.41 10.36,56.72 c 0.7,3.66 0.91,8.63 2.9,13.03 q -12.36,-1.65 -22.99,-6.15 c 1.7,-8.81 -0.47,-20.33 -2.9,-28.42 q -4.1,-13.78 -3.92,-28.13 0.01,-0.48 -0.34,-0.82 l -2.16,-2.07 q 0.74,-2.61 -0.04,-5.91 a 1.2,1.18 56.4 0 1 0.18,-0.95 l 2.45,-3.59 7.27,-6.46 q 0.41,-0.36 0.95,-0.49 l 7.86,-1.82 c 3.29,-0.23 6.78,-1.67 9.53,0.83 z"
     id="path162" />
  <path
     fill="#fec400"
     d="m 204.49838,143.75689 q 4.34,23.61 8.62,47.34 c 0.55,3.06 0.49,6.16 0.14,8.95 q -1.75,13.85 -3.19,27.81 l -1.46,-0.12 c -1.99,-4.4 -2.2,-9.37 -2.9,-13.03 q -5.49,-28.31 -10.36,-56.72 -0.29,-1.67 -0.34,-5.07 -0.01,-0.5 0.35,-0.85 3.9,-3.71 7.41,-7.77 0.39,-0.46 1.73,-0.54 z"
     id="path163" />
  <path
     fill="#ce0000"
     d="m 93.328378,165.87689 1.21,7.64 a 1.51,1.49 0.6 0 0 1.24,1.25 l 18.450002,3.07 10.64,1.53 11.79,1.47 15.19,1.56 q 0.71,0.18 1.27,0.97 0.38,0.53 0.5,1.46 0.79,6.36 3.63,12.77 6.92,12.67 20.33,19.91 l 8.04,4.08 q 10.63,4.5 22.99,6.15 l 1.46,0.12 2.53,0.41 q 11.1,0.87 22.98,-0.41 l 3.65,-0.6 9.47,-2.07 13.71,-5.35 c 13.97,-6.52 27.12,-19.25 28.19,-35.29 q 0.17,-2.48 2.38,-2.24 l 14.68,-1.44 q 20.75,-2.18 41.4,-6.26 a 1.02,1.02 0 0 0 0.73,-0.57 l 3.24,-6.88 q 4.69,3.16 4.03,7.14 -10.72,65.04 -25.08,144.03 -0.1,0.53 0.43,0.67 c 9.54,2.38 18.31,5.68 27.54,8.82 5.36,1.83 16.83,-1.42 22.34,-2.97 7.96,-2.25 14.21,-5.68 16.2,-14.07 2.03,-8.55 1.11,-18.86 -1.43,-27.86 -2.5,-8.84 -4.89,-16.56 0.53,-24.82 6.55,-9.97 18.43,-1.48 23.41,5.36 14.77,20.26 -0.58,43.28 -11.23,60.51 a 0.51,0.51 0 0 0 0.61,0.75 q 2.76,-1 5.72,-1.63 c 23.28,-4.9 44.24,35.54 10.68,39.64 q -19.74,2.42 -38.3,-7.15 c -4.74,-2.45 -10.59,-7.53 -9.76,-13.31 1.31,-9.18 19.13,-2.27 25.03,0.18 4.06,1.69 14.7,5.57 17.31,0.12 a 0.66,0.66 0 0 0 -0.74,-0.93 c -10.82,2.48 -22.58,-6.62 -33.53,-7.35 -10.19,-0.69 -16.28,10.19 -7.91,17.71 q 2.8,2.51 5.92,4.78 0.41,0.3 0.04,0.65 -4.74,4.52 -3.95,11.17 a 0.87,0.87 0 0 1 -1.51,0.69 c -3.44,-3.84 -6.71,-8.28 -9.99,-11.47 -11.28,-10.95 -25,-15.79 -40.39,-21.8 q -0.31,-0.12 -0.38,0.21 l -13.81,64.28 a 1.45,1.46 82.1 0 1 -0.76,1 q -30.97,15.85 -65.75,20.36 l -0.2,-0.94 q -0.03,-0.15 0.11,-0.22 l 0.71,-0.36 q 0.3,-0.16 0.06,-0.39 l -0.28,-0.29 q -0.21,-0.2 0.01,-0.4 1.11,-1.04 0.67,-2.53 a 1.21,1.17 48.2 0 1 0.03,-0.78 c 1.73,-4.29 0,-11.59 2.95,-13.38 6.62,-4.04 3.4,-8.01 3.61,-13.75 0.33,-8.95 1.74,-16.59 -3.82,-21.28 q -0.41,-0.34 -0.38,-0.87 l 0.26,-5.57 a 0.8,0.8 0 0 1 0.16,-0.45 c 1.4,-2.02 2.4,-3.72 4.6,-5.09 11.19,-6.95 18.53,-15.95 26.04,-26.48 a 2.3,2.29 40.7 0 0 -0.22,-2.92 c -2.23,-2.3 -7.42,-8.67 -10.42,-5.62 q -0.16,0.16 -0.37,0.07 -0.77,-0.32 -1.46,-0.8 a 0.62,0.61 36.9 0 1 -0.13,-0.9 l 0.59,-0.72 q 0.26,-0.33 0.24,-0.74 l -0.34,-6.1 q -0.03,-0.54 -0.57,-0.55 l -1.81,-0.03 q 0,0 0,-0.01 0,-0.02 0,-0.05 0.01,-0.12 0.11,-0.12 c 18.88,0.11 28.32,-14.66 25.81,-32.37 a 1.55,1.6 53.6 0 1 0.16,-0.94 c 1.43,-2.88 6.34,-6.18 4.77,-9.12 a 1.26,1.25 2.4 0 0 -0.41,-0.44 l -2.58,-1.56 a 0.71,0.71 0 0 1 -0.26,-0.93 l 1.26,-2.52 a 1.58,1.59 20.5 0 0 -1.02,-2.24 q -11.03,-2.88 -21.71,-6.88 -4.55,-1.71 -12.35,-0.79 -0.53,0.07 -0.55,-0.46 -0.22,-3.98 -2.96,-6.98 -0.08,-0.08 -0.02,-0.19 0.07,-0.11 0.1,-0.24 0.03,-0.11 -0.08,-0.08 -39.16,11.24 -78.01,-1.88 c -14.47,-4.89 -23.92,-12.34 -33.55,-23.88 -1.37,-1.64 -1.86,-3.21 -2.67,-5.18 l -1.09,-9.31 a 0.59,0.59 0 0 0 -0.53,-0.53 l -51.520002,-5.83 q -2.32,-11.69 -3.94,-24.12 c -0.55,-4.21 2.52,-6.53 6.03,-8.25 z"
     id="path164" />
  <path
     fill="#d47f00"
     d="m 182.71838,193.16689 c 2.43,8.09 4.6,19.61 2.9,28.42 l -8.04,-4.08 q 1.32,-12.2 5.14,-24.34 z"
     id="path165" />
  <path
     fill="#fc0706"
     d="m 144.37838,213.91689 q -2.88,11.83 -1.67,20.14 1.91,13.14 1.12,25.69 a 2.47,2.47 0 0 0 1.73,2.51 q 2.25,0.7 2.93,3.15 0.15,0.56 -0.31,0.9 l -1.41,1.05 q -0.42,0.31 -0.58,0.8 -0.23,0.75 0.11,1.1 -0.12,0.87 0.26,0.79 -0.74,0.74 -0.39,1.73 c 0.55,1.56 2.23,1.99 2.53,4.05 0.46,3.2 1.24,6.08 -0.38,9.16 a 0.55,0.55 0 0 1 -0.76,0.21 q -0.74,-0.42 -1.13,0.37 -0.23,0.47 -0.49,0.02 l -0.2,-0.33 q -0.38,-0.65 -0.52,0.09 -0.45,2.28 -0.16,4.63 a 0.73,0.71 53.7 0 1 -0.04,0.29 q -1.29,3.39 0.31,6.75 a 1.06,1.04 42.7 0 1 0.04,0.79 c -0.95,2.69 -1.01,4.11 -0.26,7.24 1.55,6.5 1.38,13.41 0.61,19.04 -0.37,2.71 0.66,4.58 0.96,6.78 0.89,6.36 0.58,16.96 0.6,25.67 q 0.02,8.42 -0.03,16.85 c -0.03,3.75 -0.92,7.49 -1.38,11.31 -0.22,1.86 0.48,3.49 0.83,5.34 0.52,2.69 0.02,5.64 0.38,8.6 a 0.55,0.61 48.1 0 1 -0.03,0.28 l -2.69,6.99 q -0.19,0.49 -0.72,0.41 -1.68,-0.27 -2.23,0.56 l -11.17,-5.36 q -0.68,-0.33 -0.84,-1.07 l -13.6,-62.93 q -0.32,-1.52 -1.77,-0.96 c -13.82,5.42 -27.420002,10.21 -38.540002,20.67 -3.56,3.35 -6.94,8.32 -10.8,12.22 a 0.7,0.7 0 0 1 -1.19,-0.6 q 1.03,-6.63 -3.83,-11.2 a 0.66,0.66 0 0 1 0.09,-1.03 c 3.6,-2.41 9.03,-6.62 9.65,-11.28 0.73,-5.45 -3.46,-9.92 -8.65,-10.78 -12.76,-2.14 -23.49,9.03 -37.21,7.09 q -0.44,-0.06 -0.35,0.37 c 1.14,5.66 11.56,2.84 15.02,1.48 4.94,-1.93 31.22,-13.33 27.04,2.57 -0.73,2.78 -3.67,5.94 -6.36,7.61 -13.65,8.47 -34.47,13.37 -49.99,6.45 -10.79,-4.81 -11.06,-17.45 -4.65,-25.85 7.07,-9.27 17.97,-14.59 29.44,-9.46 a 0.62,0.62 0 0 0 0.78,-0.88 c -8.39,-13.91 -19.03,-29.06 -16.72,-46.63 1.24,-9.44 10.23,-23.62 21.08,-23.81 8.52,-0.16 11.79,11.76 11.25,18.52 q -0.17,2.17 -2.54,9.76 -4.7,15.06 -1.54,29.78 c 2.71,12.59 23.72,15.95 34.5,16.71 q 2.43,0.17 4.94,-0.77 13.01,-4.89 26.390002,-8.6 0.47,-0.13 0.38,-0.61 l -20.980002,-120.04 51.520002,5.83 a 0.59,0.59 0 0 1 0.53,0.53 z"
     id="path166" />
  <path
     fill="#d47f00"
     d="m 239.22838,227.25689 -3.65,0.6 2.6,-27.65 q 0.03,-0.35 0.37,-0.23 0.25,0.08 0.25,0.32 0.38,13.48 0.43,26.96 z"
     id="path167" />
  <path
     fill="#e60609"
     d="m 144.37838,213.91689 c 0.81,1.97 1.3,3.54 2.67,5.18 9.63,11.54 19.08,18.99 33.55,23.88 q 38.85,13.12 78.01,1.88 0.11,-0.03 0.08,0.08 -0.03,0.13 -0.1,0.24 -0.06,0.11 0.02,0.19 2.74,3 2.96,6.98 0.02,0.53 0.55,0.46 7.8,-0.92 12.35,0.79 10.68,4 21.71,6.88 a 1.58,1.59 20.5 0 1 1.02,2.24 l -1.26,2.52 a 0.71,0.71 0 0 0 0.26,0.93 l 2.58,1.56 a 1.26,1.25 2.4 0 1 0.41,0.44 c 1.57,2.94 -3.34,6.24 -4.77,9.12 a 1.55,1.6 53.6 0 0 -0.16,0.94 c 2.51,17.71 -6.93,32.48 -25.81,32.37 q -0.1,0 -0.11,0.12 0,0.03 0,0.05 0,0.01 0,0.01 l 1.81,0.03 q 0.54,0.01 0.57,0.55 l 0.34,6.1 q 0.02,0.41 -0.24,0.74 l -0.59,0.72 a 0.62,0.61 36.9 0 0 0.13,0.9 q 0.69,0.48 1.46,0.8 0.21,0.09 0.37,-0.07 c 3,-3.05 8.19,3.32 10.42,5.62 a 2.3,2.29 40.7 0 1 0.22,2.92 c -7.51,10.53 -14.85,19.53 -26.04,26.48 -2.2,1.37 -3.2,3.07 -4.6,5.09 a 0.8,0.8 0 0 0 -0.16,0.45 l -0.26,5.57 q -0.03,0.53 0.38,0.87 c 5.56,4.69 4.15,12.33 3.82,21.28 -0.21,5.74 3.01,9.71 -3.61,13.75 -2.95,1.79 -1.22,9.09 -2.95,13.38 a 1.21,1.17 48.2 0 0 -0.03,0.78 q 0.44,1.49 -0.67,2.53 -0.22,0.2 -0.01,0.4 l 0.28,0.29 q 0.24,0.23 -0.06,0.39 l -0.71,0.36 q -0.14,0.07 -0.11,0.22 l 0.2,0.94 q -55.57,6.97 -106.89,-14.99 0.55,-0.83 2.23,-0.56 0.53,0.08 0.72,-0.41 l 2.69,-6.99 a 0.55,0.61 48.1 0 0 0.03,-0.28 c -0.36,-2.96 0.14,-5.91 -0.38,-8.6 -0.35,-1.85 -1.05,-3.48 -0.83,-5.34 0.46,-3.82 1.35,-7.56 1.38,-11.31 q 0.05,-8.43 0.03,-16.85 c -0.02,-8.71 0.29,-19.31 -0.6,-25.67 -0.3,-2.2 -1.33,-4.07 -0.96,-6.78 0.77,-5.63 0.94,-12.54 -0.61,-19.04 -0.75,-3.13 -0.69,-4.55 0.26,-7.24 a 1.06,1.04 42.7 0 0 -0.04,-0.79 q -1.6,-3.36 -0.31,-6.75 a 0.73,0.71 53.7 0 0 0.04,-0.29 q -0.29,-2.35 0.16,-4.63 0.14,-0.74 0.52,-0.09 l 0.2,0.33 q 0.26,0.45 0.49,-0.02 0.39,-0.79 1.13,-0.37 a 0.55,0.55 0 0 0 0.76,-0.21 c 1.62,-3.08 0.84,-5.96 0.38,-9.16 -0.3,-2.06 -1.98,-2.49 -2.53,-4.05 q -0.35,-0.99 0.39,-1.73 3.23,2.86 5.2,6.75 a 1.54,1.6 35.1 0 1 0.15,0.96 c -1.85,11.38 1.92,24.38 13.16,29.27 q 8.42,3.67 17.1,0.92 c 8.56,-1.88 16.29,-7.85 18.23,-16.64 q 0.46,-2.08 1.17,-3.9 3.05,-7.78 -0.89,-17.18 -6.69,-15.97 -22.84,-15.81 c -9.75,0.09 -18.77,6.34 -28.69,7.31 a 0.51,0.5 73.9 0 0 -0.4,0.73 l 1.99,4 a 0.62,0.61 63.8 0 1 -0.28,0.83 l -4.16,1.97 q -0.34,-0.35 -0.11,-1.1 0.16,-0.49 0.58,-0.8 l 1.41,-1.05 q 0.46,-0.34 0.31,-0.9 -0.68,-2.45 -2.93,-3.15 a 2.47,2.47 0 0 1 -1.73,-2.51 q 0.79,-12.55 -1.12,-25.69 -1.21,-8.31 1.67,-20.14 z"
     id="path168"
     style="fill:#fc0706;fill-opacity:1" />
  <g
     stroke-width="2"
     fill="none"
     stroke-linecap="butt"
     id="g190"
     transform="translate(-45.971622,-14.203111)">
    <path
       stroke="#8e8080"
       vector-effect="non-scaling-stroke"
       d="m 306.98,322.02 q 21.59,1.53 27.52,-18.27 1.62,-5.4 0.52,-11.52"
       id="path169" />
    <path
       stroke="#7c6e6e"
       vector-effect="non-scaling-stroke"
       d="m 335.02,292.23 c -5.04,-24.32 -36.25,-27.91 -44.91,-4.05"
       id="path170" />
    <path
       stroke="#8e8080"
       vector-effect="non-scaling-stroke"
       d="m 290.11,288.18 q -1.72,5.18 -1.36,10.9"
       id="path171" />
    <path
       stroke="#9fc4f5"
       vector-effect="non-scaling-stroke"
       d="m 295.81,288.5 q -1.7,3.25 -2.01,7.69 -0.04,0.5 0.47,0.51 2.28,0.04 2.16,2.7 -0.02,0.51 -0.45,0.77 l -1.6,1 a 1.04,1.04 0 0 0 0.87,1.88 q 1.3,-0.42 1.63,0.76 0.13,0.47 -0.19,0.83 l -0.67,0.74 q -0.34,0.39 -0.11,0.85 c 6.94,13.88 25.72,12.68 30.9,-1.87 1.64,-4.6 3.55,-17.02 -5.21,-16.32"
       id="path172" />
    <path
       stroke="#eeeded"
       vector-effect="non-scaling-stroke"
       d="m 335.02,292.23 c -2.4,-2.85 -7.78,-9.59 -11.73,-9.41"
       id="path173" />
    <path
       stroke="#9fc9e7"
       vector-effect="non-scaling-stroke"
       d="m 323.29,282.82 q -0.17,-0.78 -1.76,-0.58"
       id="path174" />
    <path
       stroke="#7784da"
       vector-effect="non-scaling-stroke"
       d="m 321.53,282.24 q -4.99,-4.61 -11.22,-4.18 -8.36,0.58 -12.99,7.66"
       id="path175" />
    <path
       stroke="#eeeded"
       vector-effect="non-scaling-stroke"
       d="m 297.32,285.72 q -2.45,-0.64 -5.04,2.18 a 1.12,1.1 -66.7 0 1 -0.85,0.35 l -1.32,-0.07"
       id="path176" />
    <path
       stroke="#3972e6"
       vector-effect="non-scaling-stroke"
       d="m 321.53,282.24 q -0.09,0.44 0.02,0.75"
       id="path177" />
    <path
       stroke="#8896ec"
       vector-effect="non-scaling-stroke"
       d="m 321.55,282.99 q -0.52,0.59 -0.24,0.95 1.45,1.83 0.29,4.1"
       id="path178" />
    <path
       stroke="#285be2"
       vector-effect="non-scaling-stroke"
       d="m 321.6,288.04 q -0.25,1.17 -2.93,1.88"
       id="path179" />
    <path
       stroke="#8896ec"
       vector-effect="non-scaling-stroke"
       d="m 318.67,289.92 -0.73,0.12"
       id="path180" />
    <path
       stroke="#285be2"
       vector-effect="non-scaling-stroke"
       d="m 317.94,290.04 q -1.84,-1.15 -3.77,-2.1 c -5.06,-2.49 -7.11,1.08 -11.68,1.16 q -3.38,0.06 -6.68,-0.6"
       id="path181" />
    <path
       stroke="#8896ec"
       vector-effect="non-scaling-stroke"
       d="m 295.81,288.5 1.51,-2.78"
       id="path182" />
    <path
       stroke="#b0dbf9"
       vector-effect="non-scaling-stroke"
       d="m 323.29,282.82 q -0.6,0.31 -1.74,0.17"
       id="path183" />
    <path
       stroke="#9fc4f5"
       vector-effect="non-scaling-stroke"
       d="m 317.94,290.04 q -1.32,-0.33 -1.57,0.74"
       id="path184" />
    <path
       stroke="#285be2"
       vector-effect="non-scaling-stroke"
       d="m 316.37,290.78 c -7.33,-8.23 -14.84,3.06 -10.2,10.61"
       id="path185" />
    <path
       stroke="#50a0ef"
       vector-effect="non-scaling-stroke"
       d="m 306.17,301.39 q -1.46,1.15 1.37,2.46 6.62,3.05 8.05,-1.9"
       id="path186" />
    <path
       stroke="#285be2"
       vector-effect="non-scaling-stroke"
       d="m 315.59,301.95 q 2.35,-4.31 1.78,-8.42"
       id="path187" />
    <path
       stroke="#9fc4f5"
       vector-effect="non-scaling-stroke"
       d="m 317.37,293.53 q 2.62,-0.04 2.19,-2.84 -0.07,-0.43 -0.89,-0.77"
       id="path188" />
    <path
       stroke="#8896ec"
       vector-effect="non-scaling-stroke"
       d="m 316.37,290.78 q -0.53,1.46 1,2.75"
       id="path189" />
    <path
       stroke="#3972e6"
       vector-effect="non-scaling-stroke"
       d="m 315.59,301.95 q -5.48,3.09 -9.42,-0.56"
       id="path190" />
  </g>
  <path
     fill="#1c0000"
     d="m 201.56838,287.40689 -1.03,-12.2 c -7.33,-23.72 -38.26,-22.87 -44.84,0.86 -4.89,17.76 8.12,32.78 26.47,31.88 q -8.68,2.75 -17.1,-0.92 c -11.24,-4.89 -15.01,-17.89 -13.16,-29.27 a 1.54,1.6 35.1 0 0 -0.15,-0.96 q -1.97,-3.89 -5.2,-6.75 -0.38,0.08 -0.26,-0.79 l 4.16,-1.97 a 0.62,0.61 63.8 0 0 0.28,-0.83 l -1.99,-4 a 0.51,0.5 73.9 0 1 0.4,-0.73 c 9.92,-0.97 18.94,-7.22 28.69,-7.31 q 16.15,-0.16 22.84,15.81 3.94,9.4 0.89,17.18 z"
     id="path191" />
  <path
     fill="#1c0000"
     d="m 261.00838,307.81689 q 21.59,1.53 27.52,-18.27 1.62,-5.4 0.52,-11.52 c -5.04,-24.32 -36.25,-27.91 -44.91,-4.05 q -1.72,5.18 -1.36,10.9 l -0.98,-0.09 q -0.47,-0.05 -0.47,-0.51 c -0.16,-16.23 8.57,-31.03 26.6,-29.86 7,0.45 15.86,4.47 23.41,6.84 q 1.99,0.62 3.88,0.41 a 0.47,0.47 0 0 1 0.44,0.73 l -1.92,2.92 a 1.73,1.72 27.7 0 0 0.8,2.55 l 3.2,1.27 a 0.41,0.41 0 0 1 0.1,0.69 c -3.02,2.5 -5.9,5.98 -5.33,10.14 1.56,11.58 -3.4,23.55 -14.98,27.62 q -8.56,3.01 -16.52,0.23 z"
     id="path192" />
  <path
     fill="#dcdbdb"
     d="m 200.53838,275.20689 q -3.29,-1.29 -4.93,-3.6 -0.28,-0.39 -0.76,-0.3 -0.81,0.14 -1.09,1.5 l -0.79,-0.82 c -5.28,-8.89 -16.29,-10.72 -24.28,-4.05 q -0.4,0.34 -0.09,0.76 l 0.3,0.4 q -1.85,0.09 -3.33,-0.82 -0.45,-0.27 -0.85,0.07 l -9.02,7.72 c 6.58,-23.73 37.51,-24.58 44.84,-0.86 z"
     id="path193" />
  <path
     fill="#dcdbdb"
     d="m 289.04838,278.02689 c -2.4,-2.85 -7.78,-9.59 -11.73,-9.41 q -0.17,-0.78 -1.76,-0.58 -4.99,-4.61 -11.22,-4.18 -8.36,0.58 -12.99,7.66 -2.45,-0.64 -5.04,2.18 a 1.1,1.12 23.3 0 1 -0.85,0.35 l -1.32,-0.07 c 8.66,-23.86 39.87,-20.27 44.91,4.05 z"
     id="path194" />
  <path
     fill="#112dd9"
     d="m 192.96838,271.98689 q 1.18,3.38 -1.42,4.21 c -3.6,1.16 -4.61,-1.08 -7.02,-2.26 q -5.9,-2.89 -11.11,1.19 -0.38,0.3 -0.85,0.38 -0.37,0.07 -0.56,0.23 -1.69,0.17 -1.48,2.51 c -0.85,3.46 -4.54,2.16 -7.17,1.22 q -0.53,-0.19 -0.41,-0.73 l 0.82,-3.72 q 2.03,-1.5 4.17,-0.88 0.54,0.15 0.39,-0.39 -0.66,-2.33 0.57,-4.65 l -0.3,-0.4 q -0.31,-0.42 0.09,-0.76 c 7.99,-6.67 19,-4.84 24.28,4.05 z"
     id="path195" />
  <path
     fill="#112dd9"
     d="m 275.55838,268.03689 q -0.09,0.44 0.02,0.75 -0.52,0.59 -0.24,0.95 1.45,1.83 0.29,4.1 -0.25,1.17 -2.93,1.88 l -0.73,0.12 q -1.84,-1.15 -3.77,-2.1 c -5.06,-2.49 -7.11,1.08 -11.68,1.16 q -3.38,0.06 -6.68,-0.6 l 1.51,-2.78 q 4.63,-7.08 12.99,-7.66 6.23,-0.43 11.22,4.18 z"
     id="path196" />
  <path
     fill="#ffffff"
     d="m 168.89838,269.09689 q -1.23,2.32 -0.57,4.65 0.15,0.54 -0.39,0.39 -2.14,-0.62 -4.17,0.88 c -8.94,19.96 17.41,38.18 29.83,18.24 q 0.65,-0.7 0.7,-1.69 0.02,-0.54 -0.44,-0.83 -0.93,-0.59 -0.41,-1.53 0.35,-0.63 1.03,-0.38 l 0.68,0.25 q 0.59,0.21 0.68,-0.41 l 0.2,-1.35 q 0.1,-0.72 -0.61,-0.85 -2.32,-0.44 -1.45,-2.63 0.35,-1.39 2.02,-1.33 0.54,0.02 0.49,-0.52 -0.48,-4.85 -2.73,-9.18 0.28,-1.36 1.09,-1.5 0.48,-0.09 0.76,0.3 1.64,2.31 4.93,3.6 l 1.03,12.2 q -0.71,1.82 -1.17,3.9 c -1.94,8.79 -9.67,14.76 -18.23,16.64 -18.35,0.9 -31.36,-14.12 -26.47,-31.88 l 9.02,-7.72 q 0.4,-0.34 0.85,-0.07 1.48,0.91 3.33,0.82 z"
     id="path197" />
  <path
     fill="#61b6f2"
     d="m 275.55838,268.03689 q 1.59,-0.2 1.76,0.58 -0.6,0.31 -1.74,0.17 -0.11,-0.31 -0.02,-0.75 z"
     id="path198" />
  <path
     fill="#ffffff"
     d="m 277.31838,268.61689 c 3.95,-0.18 9.33,6.56 11.73,9.41 q 1.1,6.12 -0.52,11.52 -5.93,19.8 -27.52,18.27 -17.53,-5.47 -18.23,-22.94 -0.36,-5.72 1.36,-10.9 l 1.32,0.07 a 1.1,1.12 23.3 0 0 0.85,-0.35 q 2.59,-2.82 5.04,-2.18 l -1.51,2.78 q -1.7,3.25 -2.01,7.69 -0.04,0.5 0.47,0.51 2.28,0.04 2.16,2.7 -0.02,0.51 -0.45,0.77 l -1.6,1 a 1.04,1.04 0 0 0 0.87,1.88 q 1.3,-0.42 1.63,0.76 0.13,0.47 -0.19,0.83 l -0.67,0.74 q -0.34,0.39 -0.11,0.85 c 6.94,13.88 25.72,12.68 30.9,-1.87 1.64,-4.6 3.55,-17.02 -5.21,-16.32 q 1.16,-2.27 -0.29,-4.1 -0.28,-0.36 0.24,-0.95 1.14,0.14 1.74,-0.17 z"
     id="path199" />
  <path
     fill="#3f89eb"
     d="m 192.96838,271.98689 0.79,0.82 q 2.25,4.33 2.73,9.18 0.05,0.54 -0.49,0.52 -1.67,-0.06 -2.02,1.33 c -7.34,-0.95 -6.59,8.46 -14.5,8.68 q -4.79,0.12 -7.78,-4.14 -0.3,-0.42 -0.8,-0.39 l -5.53,0.24 a 0.94,0.95 79.2 0 0 -0.86,1.25 c 4.36,13.02 19.8,15.16 27.75,4.12 q 0.3,-0.42 0.82,-0.38 l 0.52,0.04 c -12.42,19.94 -38.77,1.72 -29.83,-18.24 l -0.82,3.72 q -0.12,0.54 0.41,0.73 c 2.63,0.94 6.32,2.24 7.17,-1.22 q 1.03,1.07 2.17,1.14 -0.48,4.23 2.03,8.81 3.59,5.59 9.44,0.43 a 0.48,0.48 0 0 0 -0.06,-0.76 q -0.28,-0.18 -0.64,-0.14 2.46,-3.1 2.28,-6.86 c -0.32,-6.68 -6.83,-9.42 -12.04,-4.31 q -0.72,-0.88 -1.7,-0.82 0.19,-0.16 0.56,-0.23 0.47,-0.08 0.85,-0.38 5.21,-4.08 11.11,-1.19 c 2.41,1.18 3.42,3.42 7.02,2.26 q 2.6,-0.83 1.42,-4.21 z"
     id="path200" />
  <path
     fill="#3f89eb"
     d="m 271.96838,275.83689 q -1.32,-0.33 -1.57,0.74 c -7.33,-8.23 -14.84,3.06 -10.2,10.61 q -1.46,1.15 1.37,2.46 6.62,3.05 8.05,-1.9 2.35,-4.31 1.78,-8.42 2.62,-0.04 2.19,-2.84 -0.07,-0.43 -0.89,-0.77 2.68,-0.71 2.93,-1.88 c 8.76,-0.7 6.85,11.72 5.21,16.32 -5.18,14.55 -23.96,15.75 -30.9,1.87 q -0.23,-0.46 0.11,-0.85 l 0.67,-0.74 q 0.32,-0.36 0.19,-0.83 -0.33,-1.18 -1.63,-0.76 a 1.04,1.04 0 0 1 -0.87,-1.88 l 1.6,-1 q 0.43,-0.26 0.45,-0.77 0.12,-2.66 -2.16,-2.7 -0.51,-0.01 -0.47,-0.51 0.31,-4.44 2.01,-7.69 3.3,0.66 6.68,0.6 c 4.57,-0.08 6.62,-3.65 11.68,-1.16 q 1.93,0.95 3.77,2.1 z"
     id="path201" />
  <path
     stroke="#b0dbf9"
     stroke-width="2"
     fill="none"
     stroke-linecap="butt"
     vector-effect="non-scaling-stroke"
     d="m 257.35838,293.84689 q 7.3,8.02 15.27,0.38 a 0.71,0.7 21 0 0 -0.54,-1.21 l -0.75,0.05"
     id="path202" />
  <path
     fill="#112dd9"
     d="m 183.46838,287.72689 q -3.01,2.31 -8.74,0.47 -2.51,-4.58 -2.03,-8.81 1.93,-1.25 1.01,-2.83 c 5.21,-5.11 11.72,-2.37 12.04,4.31 q 0.18,3.76 -2.28,6.86 z"
     id="path203" />
  <path
     fill="#112dd9"
     d="m 270.39838,276.57689 q -0.53,1.46 1,2.75 0.57,4.11 -1.78,8.42 -5.48,3.09 -9.42,-0.56 c -4.64,-7.55 2.87,-18.84 10.2,-10.61 z"
     id="path204" />
  <path
     fill="#ffffff"
     d="m 172.00838,275.73689 q 0.98,-0.06 1.7,0.82 0.92,1.58 -1.01,2.83 -1.14,-0.07 -2.17,-1.14 -0.21,-2.34 1.48,-2.51 z"
     id="path205" />
  <path
     fill="#ffffff"
     d="m 271.96838,275.83689 0.73,-0.12 q 0.82,0.34 0.89,0.77 0.43,2.8 -2.19,2.84 -1.53,-1.29 -1,-2.75 0.25,-1.07 1.57,-0.74 z"
     id="path206" />
  <path
     fill="#61b6f2"
     d="m 193.97838,283.83689 q -0.87,2.19 1.45,2.63 0.71,0.13 0.61,0.85 l -0.2,1.35 q -0.09,0.62 -0.68,0.41 l -0.68,-0.25 q -0.68,-0.25 -1.03,0.38 -0.52,0.94 0.41,1.53 0.46,0.29 0.44,0.83 -0.05,0.99 -0.7,1.69 l -0.52,-0.04 q -0.52,-0.04 -0.82,0.38 c -7.95,11.04 -23.39,8.9 -27.75,-4.12 a 0.94,0.95 79.2 0 1 0.86,-1.25 l 5.53,-0.24 q 0.5,-0.03 0.8,0.39 2.99,4.26 7.78,4.14 c 7.91,-0.22 7.16,-9.63 14.5,-8.68 z"
     id="path207" />
  <path
     fill="#61b6f2"
     d="m 260.19838,287.18689 q 3.94,3.65 9.42,0.56 -1.43,4.95 -8.05,1.9 -2.83,-1.31 -1.37,-2.46 z"
     id="path208" />
  <path
     fill="#61b6f2"
     d="m 183.46838,287.72689 q 0.36,-0.04 0.64,0.14 a 0.48,0.48 0 0 1 0.06,0.76 q -5.85,5.16 -9.44,-0.43 5.73,1.84 8.74,-0.47 z"
     id="path209" />
  <path
     fill="#61b6f2"
     d="m 257.35838,293.84689 q 7.3,8.02 15.27,0.38 a 0.71,0.7 21 0 0 -0.54,-1.21 l -0.75,0.05 q 3.85,-3.3 5.33,1.19 0.18,0.54 -0.21,0.96 -7.79,8.44 -18.64,3.8 a 0.82,0.84 11 0 1 -0.51,-0.77 z"
     id="path210" />
  <path
     fill="#ffffff"
     d="m 271.33838,293.06689 0.75,-0.05 a 0.71,0.7 21 0 1 0.54,1.21 q -7.97,7.64 -15.27,-0.38 l -0.54,-1.03 q -0.51,-0.98 0.46,-0.45 7.22,3.96 14.06,0.7 z"
     id="path211" />
  <path
     fill="#ffffff"
     d="m 187.07838,293.43689 c -4.26,5.81 -12.33,6.37 -16.06,-0.45 a 0.37,0.38 0.2 0 1 0.51,-0.51 q 7.37,4.07 14.94,0.24 a 0.48,0.49 4.7 0 1 0.61,0.72 z"
     id="path212" />
  <path
     fill="#1c0000"
     d="m 280.65838,328.39689 c -25.96,41.9 -77.52,47.22 -113.43,14.65 q -0.44,-0.41 -0.17,-0.94 l 1.9,-3.61 a 0.56,0.56 0 0 1 0.86,-0.17 c 34.25,29.52 79.86,19.93 103.84,-16.73 q 0.27,-0.42 0.65,-0.08 l 6.17,5.58 a 1.02,1.03 36.8 0 1 0.18,1.3 z"
     id="path213" />
  <path
     fill="#fc0706"
     d="m 15.208378,381.12689 c -8.6,-1.91 -12.79,-9.14 -9.21,-17.77 q 0.34,-0.82 1.13,-0.42 c 11.27,5.68 28.29,5.01 40.05,0.12 2.95,-1.23 7,-3.66 10.22,-3.51 q 0.52,0.02 0.87,0.42 c 5.21,6.07 2.09,13.58 -4.67,16.41 -11.63,4.87 -25.93,7.52 -38.39,4.75 z"
     id="path214" />
  <path
     fill="#ce0000"
     d="m 398.06838,379.11689 c -7.85,-2.29 -19,-7.66 -13.05,-18.02 2.28,-3.97 12.87,2.45 16.23,3.48 q 18.56,5.69 36.73,-1.72 0.15,-0.06 0.23,0.09 c 4.47,9.13 -1.26,16.92 -10.48,18.51 -9.74,1.68 -20.35,0.37 -29.66,-2.34 z"
     id="path215" />
  <path
     fill="#fc0706"
     d="m 54.638378,379.72689 c 5.03,23.44 -41.89,24.75 -42.81,3.66 a 0.23,0.23 0 0 1 0.29,-0.24 q 21.54,5.6 41.63,-3.87 a 0.64,0.63 71.4 0 1 0.89,0.45 z"
     id="path216" />
  <path
     fill="#ce0000"
     d="m 432.43838,383.53689 c -1.85,21.84 -48.59,18.57 -42.57,-3.85 a 0.6,0.6 0 0 1 0.84,-0.39 q 19.91,9.43 41.33,3.9 0.44,-0.11 0.4,0.34 z"
     id="path217" />
</svg>
